<?xml version="1.0" encoding="utf-8" ?>
<svg xmlns="http://www.w3.org/2000/svg" xmlns:xlink="http://www.w3.org/1999/xlink" width="1024" height="1024">
	<path fill="#5DFEFC" d="M0 0L1024 0L1024 470.557L1024 517.214L1024 814.602L1024 822.13L1024 1024L995.226 1024L990.601 1024L795.769 1024L790.84 1024L536.353 1024L527.098 1024L523.507 1024L511.166 1024L314.604 1024L310.58 1024L62.836 1024L58.1436 1024L0 1024L0 887.546L0 880.485L0 727.106L0 719.7L0 520.738L0 517.872L0 488.451L0 0Z"/>
	<path fill="#061B55" d="M246.88 636.612C247.634 636.802 247.932 637.029 248.549 637.478C248.797 639.897 246.646 643.157 245.576 645.35L243.789 644.803L243.414 643.847C243.856 641.204 245.537 638.895 246.88 636.612Z"/>
	<path fill="#061B55" d="M196.747 733.164C197.624 733.347 197.132 733.189 198.179 733.761C198.638 736.821 195.059 741.933 193.567 744.652C192.333 744.419 192.825 744.727 192.074 743.753C192.105 740.287 195.066 736.114 196.747 733.164Z"/>
	<path fill="#061B55" d="M850.892 730.82C852.849 731.79 853.945 734.618 854.778 736.551C855.635 738.542 856.257 739.838 855.435 741.865C855.038 741.749 854.858 741.713 854.463 741.52C852.546 740.583 850.831 735.899 850.366 733.965C850.014 732.499 850.109 732.087 850.892 730.82Z"/>
	<path fill="#061B55" d="M771.207 572.725C772.152 573.058 772.506 573.073 772.973 574.04C774.113 576.407 775.491 583.071 774.337 585.445C774.273 585.4 774.21 585.354 774.145 585.31C773.337 584.763 772.982 584.379 772.604 583.464C771.304 580.317 769.819 575.917 771.207 572.725Z"/>
	<path fill="#061B55" d="M282.033 590.087L283.555 590.919C284.815 594.014 282.451 601.004 281.212 604.005L279.584 603.168C278.491 599.657 280.992 593.635 282.033 590.087Z"/>
	<path fill="#061B55" d="M858.415 763.74C857.935 762.279 857.448 760.811 857.052 759.324C856.684 757.939 856.601 756.526 857.339 755.244L858.219 755.394C859.73 756.752 859.9 758.562 860.317 760.456C861.023 762.668 862.271 765.403 861.096 767.644C861.031 767.768 860.937 767.874 860.857 767.989L859.975 767.767C859.168 766.406 858.774 765.277 858.415 763.74Z"/>
	<path fill="#061B55" d="M790.288 638.5Q789.938 637.666 789.598 636.829C788.688 634.587 787.466 632.36 788.495 629.941L789.444 630.094C791.032 631.768 791.567 633.798 792.314 635.93C793.12 637.957 793.952 639.596 793.618 641.827L793.096 642.385C791.786 641.888 791.165 640.463 790.618 639.249L790.288 638.5Z"/>
	<path fill="#061B55" d="M782.74 597.713C783.815 598.055 784.244 598.057 784.862 599.065C786.401 601.575 788.843 608.679 787.974 611.502C787.149 611.279 786.65 611.051 785.964 610.54C784.459 607.214 781.795 601.324 782.74 597.713Z"/>
	<path fill="#061B55" d="M188.846 753.116C189.445 753.363 189.831 753.668 190.342 754.058C190.748 758.006 186.782 764.313 184.996 767.84C184.163 767.881 184.612 767.958 183.695 767.415C182.991 764.256 187.392 756.236 188.846 753.116Z"/>
	<path fill="#061B55" d="M243.061 654.78C243.635 655.172 244.106 655.637 244.614 656.109C245.084 659.3 240.625 665.094 238.856 667.775C238.193 667.643 237.809 667.44 237.22 667.126C236.59 664.232 241.565 657.418 243.061 654.78Z"/>
	<path fill="#061B55" d="M171.93 780.648L173.301 781.086C174.591 784.249 171.817 793.102 170.666 796.428C169.981 796.199 169.547 795.953 168.942 795.574C167.866 791.598 170.576 784.483 171.93 780.648Z"/>
	<path fill="#061B55" d="M184.16 779.651C185.26 780.106 185.325 779.977 186.038 781.026C185.929 785.62 183.61 790.804 182.153 795.173C181.183 794.931 181.027 794.822 180.297 794.132C179.907 789.68 182.667 783.863 184.16 779.651Z"/>
	<path fill="#061B55" d="M766.25 588.384C766.843 588.434 767.635 588.345 768.125 588.716C770.311 590.369 775.252 600.478 775.481 603.23C774.545 603.154 773.764 603.178 773.129 602.393C770.872 599.603 766.168 591.897 766.25 588.384Z"/>
	<path fill="#061B55" d="M860.737 787.264C860.521 785.833 860.112 784.122 860.164 782.681C860.207 781.507 860.611 780.973 861.445 780.226L862.313 780.679C863.484 782.518 863.471 784.392 863.64 786.505C864.016 788.78 864.641 791.026 863.948 793.28L863.184 794.101C862.165 793.601 861.647 792.998 861.288 791.907C860.856 790.592 860.901 788.662 860.737 787.264Z"/>
	<path fill="#061B55" d="M261.299 627.091C262.046 627.367 262.223 627.51 262.776 628.039C263.096 632.713 259.227 639.803 257.185 644.021C255.902 643.418 255.523 643.569 254.922 642.223Q258.339 634.753 261.299 627.091Z"/>
	<path fill="#061B55" d="M269.471 597.758L270.673 598.749C271.043 601.664 265.293 611.333 263.684 614.321C262.875 613.73 262.576 613.413 262.208 612.477C262.614 607.868 266.758 601.442 269.471 597.758Z"/>
	<path fill="#061B55" d="M277.734 581.126C278.954 578.61 279.909 576.196 282.124 574.389L282.9 574.296C283.418 577.641 280.679 581.504 279.158 584.344C278.296 586.298 277.556 587.876 276.131 589.481L275.411 589.501C274.497 586.549 276.407 583.646 277.734 581.126Z"/>
	<path fill="#061B55" d="M871.254 787.413C871.082 786.24 870.674 785.372 870.17 784.309C869.662 783.237 869.419 782.957 869.481 781.753C870.479 780.977 870.453 780.924 871.704 780.974C873.068 782.276 873.378 784.337 873.862 786.109C875.011 789.911 876.517 793.641 875.747 797.656L875.178 797.834C872.621 794.946 872.099 791.059 871.254 787.413Z"/>
	<path fill="#B5FDFC" d="M205.985 482.145Q215.169 481.592 224.354 482.141L215.635 484.421C212.733 485.191 209.827 485.997 206.893 486.633C205.091 487.023 203.013 487.539 201.361 486.474C201.001 485.186 201.187 485.007 201.66 483.731C202.951 482.608 204.364 482.463 205.985 482.145Z"/>
	<path fill="#061B55" d="M802.316 642.194C802.526 642.267 802.746 642.316 802.945 642.413C804.564 643.199 805.325 646.425 805.93 648.055C807.102 651.213 811.518 662.006 811.067 664.738C810.968 665.335 810.563 665.838 810.311 666.388C808.412 664.971 807.877 662.583 807.073 660.445C805.551 656.394 800.689 645.781 802.316 642.194Z"/>
	<path fill="#B5FDFC" d="M135.892 524.795C137.125 525.452 137.102 525.449 137.628 526.746C137.165 530.585 126.888 541.019 124.285 544.943C114.155 560.216 108.786 579.551 110.843 597.903C111.167 600.797 111.43 604.298 112.557 606.991C114.171 610.848 120.307 614.995 120.586 618.979C120.713 620.803 119.706 622.496 118.542 623.792C110.937 614.048 106.142 597.147 106.13 584.834C106.114 568.222 116.011 548.544 125.91 535.656C128.908 531.754 132.439 528.29 135.892 524.795Z"/>
	<path fill="#0541EE" d="M627.381 908.337C626.374 907.916 625.446 907.598 624.702 906.759C623.617 905.535 624.369 886.218 624.365 883.511C624.344 866.275 624.072 848.936 622.783 831.744L620.852 807.071C620.497 802.93 619.744 798.679 619.739 794.53C620.304 793.427 620.42 793.01 621.711 792.642C622.869 792.311 623.811 792.686 624.789 793.235C626.472 797.724 626.042 804.593 626.453 809.509C629.158 841.893 630.228 873.807 629.422 906.304C628.735 906.962 627.981 907.6 627.381 908.337Z"/>
	<path fill="#0541EE" d="M295.882 908.567Q297.596 899.247 298.765 889.844Q299.935 880.44 300.556 870.985Q301.177 861.529 301.248 852.053Q301.319 842.578 300.84 833.114Q300.045 820.273 298.309 807.526C297.333 800.523 289.69 760.991 290.525 757.649C291.479 756.75 291.538 756.55 292.819 756.408C293.554 756.796 293.853 757.11 294.309 757.835C296.763 761.746 297.561 772.663 298.538 777.556C306.798 818.896 311.427 864.263 299.577 905.437C297.906 911.668 295.863 917.716 293.038 923.529C293.696 918.482 294.809 913.537 295.882 908.567Z"/>
	<path fill="#0541EE" d="M751.26 913.01Q749.478 901.289 749.242 889.436Q748.915 874.088 750.432 858.811C752.604 834.709 757.007 810.791 759.302 786.66C759.804 781.373 760.514 755.144 762.7 752.374C762.842 752.194 763.015 752.041 763.172 751.874C764.67 751.642 764.706 751.838 766.022 752.644C770.119 759.557 756.613 847.238 755.318 863.623Q754.375 874.324 754.385 885.066Q754.395 895.808 755.357 906.507C755.976 910.103 756.97 913.835 755.813 917.409L755.18 918.087C754.157 917.984 753.117 917.456 752.495 916.606C751.706 915.527 751.501 914.286 751.26 913.01Z"/>
	<path fill="#0541EE" d="M425.126 758.267C425.576 758.277 426.026 758.278 426.474 758.309C428.097 758.422 428.542 758.715 429.549 759.888C429.933 765.403 429.274 771.172 429.088 776.706Q428.706 789.597 429.056 802.489C429.952 832.314 433.399 862.01 434.525 891.837C434.854 900.561 435.983 910.41 434.887 919.021C434.753 920.08 434.333 920.815 433.781 921.706C432.981 921.561 431.944 921.46 431.206 921.134C430.515 920.827 429.797 920.415 429.502 919.687C428.681 917.655 429.013 891.78 428.841 887.142C427.682 855.982 424.051 824.867 423.504 793.701C423.361 785.522 422.433 765.412 425.126 758.267Z"/>
	<path fill="#B5FDFC" d="M235.015 459.988L234.944 461.129C230.135 463.002 223.352 463.292 218.147 464.16Q209.129 465.684 200.258 467.906C162.459 477.135 127.301 502.41 111.391 538.655C96.7028 572.114 99.9954 599.444 113.018 632.557C118.549 646.623 127.338 659.186 137.225 670.517C138.131 671.555 139.467 672.567 139.031 673.963L138.663 674.247Q136.525 672.957 134.552 671.427C118.067 658.392 105.54 634.785 100.203 614.82C98.5376 608.588 97.744 602.222 97.0459 595.823C93.7762 565.85 104.481 532.265 123.426 508.873C128.614 502.467 134.575 496.729 140.842 491.387C169.143 467.262 199.774 463.569 235.015 459.988Z"/>
	<path fill="#E41A01" d="M767.278 503.79L767.369 505.529C764.271 511.562 761.057 517.338 756.882 522.719C728.247 559.623 669.309 587.661 625.67 601.69Q616.108 604.822 606.395 607.45Q596.682 610.078 586.845 612.195Q577.008 614.311 567.074 615.911Q557.14 617.511 547.136 618.589C548.195 611.126 550.902 601.126 547.399 594.152C561.841 591.671 576.129 590.286 590.447 586.748C651.484 571.668 714.328 537.16 767.278 503.79Z"/>
	<path fill="#061B55" d="M279.826 526.656C279.82 528.994 271.283 543.029 269.511 546.254C259.761 563.998 250.182 581.742 241.967 600.268Q232.459 621.3 225.855 643.416C222.747 653.963 220.466 665.061 216.76 675.383L216.61 675.792Q211.062 680.077 205.672 684.559C202.499 680.926 199.841 677.006 197.17 673.004Q195.579 670.331 194.197 667.544Q192.815 664.757 191.649 661.873Q190.483 658.989 189.54 656.024Q188.597 653.06 187.882 650.032Q187.625 648.917 187.396 647.796Q187.166 646.675 186.964 645.549Q186.762 644.423 186.588 643.292Q186.414 642.161 186.268 641.026Q186.121 639.891 186.002 638.753Q185.884 637.615 185.793 636.475Q185.703 635.334 185.64 634.192Q185.577 633.049 185.543 631.905Q185.508 630.762 185.501 629.617Q185.495 628.473 185.516 627.329Q185.538 626.185 185.587 625.042Q185.637 623.899 185.714 622.758Q185.792 621.616 185.897 620.477Q186.003 619.337 186.136 618.201Q186.27 617.065 186.431 615.932Q186.592 614.799 186.781 613.67Q186.97 612.542 187.186 611.418Q187.403 610.295 187.647 609.177Q187.891 608.059 188.162 606.948Q188.434 605.836 188.732 604.731Q189.031 603.627 189.356 602.53Q189.682 601.433 190.034 600.344Q190.386 599.256 190.765 598.176Q191.144 597.096 191.549 596.026Q191.955 594.956 192.386 593.897Q192.817 592.837 193.274 591.788Q193.732 590.739 194.214 589.702Q194.697 588.664 195.205 587.639Q195.713 586.614 196.246 585.601Q196.779 584.589 197.337 583.59Q197.895 582.591 198.477 581.606Q199.059 580.621 199.665 579.65C217.5 551.238 247.751 533.96 279.826 526.656Z"/>
	<path fill="#061B55" d="M423.603 971.94C438.47 980.321 504.671 981.209 523.541 979.874L523.507 1024L511.166 1024L314.604 1024L317.761 1015.35Q318.827 1012.63 319.557 1009.8Q320.288 1006.98 320.672 1004.08C325.711 1005.79 330.779 1007.35 336 1008.41C356.58 1012.59 389.691 1013.15 407.436 1001.18C417.822 994.177 421.274 983.722 423.603 971.94Z"/>
	<path fill="#B5FDFC" d="M84.6656 517.454C91.8831 502.808 101.378 490.199 113.262 479.004C141.774 452.144 179.18 438.731 218.182 439.896Q225.994 448.507 233.654 457.254C233.498 457.291 233.344 457.33 233.188 457.363C226.088 458.881 215.906 457.862 207.901 458.928C169.223 464.084 133.892 478.866 111.478 512.552C94.237 538.464 87.4166 572.51 93.7268 603.086C98.7057 627.211 115.533 662.325 136.757 675.897C136.874 675.972 137.003 676.028 137.126 676.093C149.751 685.884 163.422 692.685 178.293 698.386C181.969 699.796 185.739 701.453 189.524 702.52C187.891 704.575 181.357 713.957 179.594 714.38C169.297 712.902 159.066 709.242 149.668 704.873C116.746 689.568 90.1397 662.669 77.6789 628.339C64.5249 592.098 67.0736 554.907 83.316 520.132L84.6656 517.454Z"/>
	<path fill="#B5FDFC" d="M176.597 895.669C207.272 887.681 243.498 892.692 273.531 901.368C280.963 903.515 288.05 908.59 295.882 908.567C294.809 913.537 293.696 918.482 293.038 923.529C295.863 917.716 297.906 911.668 299.577 905.437Q302.904 904.472 306.266 903.64Q309.629 902.808 313.021 902.11Q316.414 901.412 319.831 900.848Q323.249 900.285 326.686 899.857Q330.124 899.429 333.575 899.138Q337.027 898.847 340.487 898.692Q343.947 898.538 347.411 898.521Q350.875 898.503 354.337 898.623Q357.798 898.743 361.253 899Q364.707 899.256 368.148 899.65Q371.59 900.043 375.013 900.572Q378.436 901.101 381.835 901.766Q385.235 902.43 388.605 903.228Q391.976 904.026 395.312 904.958Q398.648 905.889 401.945 906.951Q405.242 908.014 408.494 909.206C414.323 911.359 420.484 913.522 425.909 916.555Q427.068 917.203 428.176 917.936C427.737 925.566 426.841 933.151 426.358 940.774C425.715 950.941 425.957 962.03 423.603 971.94C421.274 983.722 417.822 994.177 407.436 1001.18C389.691 1013.15 356.58 1012.59 336 1008.41C330.779 1007.35 325.711 1005.79 320.672 1004.08L317.551 1002.43Q314.875 1001.13 312.248 999.733C298.409 992.248 290.531 982.73 286.154 967.747C278.056 970.628 270.171 974.343 262.116 977.392C239.314 986.022 215.137 990.588 190.715 988.687C172.261 987.251 148.893 981.345 136.406 966.532C130.367 959.369 128.471 951.257 129.204 942.051C129.864 938.63 130.757 935.426 132.167 932.231C140.551 913.241 158.1 902.911 176.597 895.669Z"/>
	<path fill="#0541EE" d="M176.426 922.961C176.996 923.327 177.499 923.818 178.014 924.258C177.979 925.336 178.229 925.104 177.526 925.649C175.23 927.428 172.159 928.518 169.619 929.961C164.109 933.091 159.571 938.855 155.741 943.755L154.464 943.059C154.069 941.878 154.025 941.349 154.645 940.216C158.78 932.657 168.517 925.897 176.426 922.961Z"/>
	<path fill="#0541EE" d="M194.001 933.385C195.39 933.286 196.142 933.509 197.264 934.307C197.243 934.591 197.312 934.897 197.202 935.16C197.023 935.59 187.774 941.113 186.579 941.996C181.157 946.007 177.327 950.676 173.568 956.225L172.914 956.856L171.616 956.67C171.184 955.635 171.187 955.544 171.535 954.514C174.56 945.584 186.139 937.607 194.001 933.385Z"/>
	<path fill="#0541EE" d="M217.604 943.367C218.821 943.462 219.049 943.519 220.061 944.194C220.059 944.476 220.127 944.767 220.055 945.04C219.784 946.084 215.134 948.624 214.122 949.225C206.015 954.034 201.77 958.262 195.961 965.647C195.655 965.713 194.789 965.595 194.462 965.574L193.945 964.885C194.029 964.261 194.107 963.696 194.334 963.105C197.585 954.666 210.016 947.226 217.604 943.367Z"/>
	<path fill="#0541EE" d="M330.701 956.869C331.991 957.039 332.198 957.06 333.2 957.87C333.282 958.869 333.354 959.123 332.737 959.98C331.181 962.144 328.663 963.853 326.871 965.877C323.046 970.195 320.352 975.648 317.701 980.735C316.575 980.461 316.111 980.266 315.308 979.422C315.176 978.741 315.093 978.126 315.231 977.434C316.672 970.205 324.836 961.108 330.701 956.869Z"/>
	<path fill="#0541EE" d="M387.884 957.354C388.656 957.895 389.162 958.489 389.786 959.187C389.728 962.492 385.303 965.967 383.236 968.424C378.679 973.843 378.515 982.281 374.132 987.315C373.304 986.983 372.706 986.558 371.999 986.02C371.591 985.116 371.449 984.425 371.522 983.445C372.19 974.448 381.305 963.025 387.884 957.354Z"/>
	<path fill="#0541EE" d="M361.005 955.313C362.363 955.622 362.857 955.9 363.82 956.907C363.725 959.68 357.655 963.386 355.614 965.486C349.225 972.057 347.069 979.557 344.14 988.001C342.808 987.927 342.463 988.062 341.451 987.227C340.947 985.799 340.917 984.893 341.222 983.401C343.456 972.463 351.743 961.326 361.005 955.313Z"/>
	<path fill="#CB9B02" d="M539.023 588.359C542.717 589.856 544.068 591.573 547.029 594.021C547.13 594.104 547.276 594.108 547.399 594.152C550.902 601.126 548.195 611.126 547.136 618.589L546.447 618.976C547.18 620.627 549.453 621.431 551.01 622.121C552.592 622.822 553.573 623.487 554.252 625.16C555.539 628.336 554.567 632.307 553.633 635.434L554.234 635.769C560.351 639.116 567.318 640.729 573.596 643.809C597.131 655.356 613.248 673.306 620.929 698.664C627.826 721.437 624.767 747.387 613.566 768.282Q613.052 769.238 612.516 770.18Q611.979 771.123 611.419 772.052Q610.859 772.981 610.276 773.896Q609.694 774.811 609.089 775.712Q608.484 776.613 607.858 777.498Q607.231 778.383 606.583 779.253Q605.934 780.123 605.265 780.976Q604.595 781.83 603.905 782.667Q603.215 783.504 602.504 784.323Q601.793 785.143 601.063 785.945Q600.332 786.747 599.582 787.531Q598.832 788.314 598.063 789.08Q597.294 789.845 596.507 790.591Q595.719 791.337 594.913 792.063Q594.107 792.789 593.284 793.496Q592.461 794.202 591.62 794.888Q590.78 795.574 589.923 796.239Q589.066 796.904 588.193 797.548Q587.32 798.192 586.431 798.814Q585.542 799.436 584.639 800.036Q583.735 800.637 582.817 801.214Q581.899 801.792 580.967 802.347Q580.035 802.902 579.089 803.434Q578.144 803.966 577.186 804.475Q576.228 804.983 575.257 805.468Q574.287 805.953 573.305 806.414Q572.323 806.875 571.33 807.312Q570.337 807.748 569.333 808.161Q568.33 808.573 567.317 808.96Q566.303 809.347 565.281 809.71Q564.258 810.072 563.227 810.409Q562.196 810.746 561.157 811.058Q560.155 811.359 559.147 811.636Q558.138 811.912 557.123 812.164Q556.107 812.415 555.086 812.642Q554.065 812.868 553.039 813.069Q552.012 813.27 550.981 813.446Q549.95 813.621 548.915 813.771Q547.88 813.921 546.841 814.046Q545.802 814.17 544.761 814.269Q543.72 814.367 542.677 814.44Q541.633 814.513 540.588 814.56Q539.543 814.607 538.498 814.629Q537.452 814.65 536.406 814.645Q535.36 814.641 534.314 814.61Q533.269 814.58 532.224 814.524Q531.18 814.467 530.137 814.385Q529.095 814.303 528.054 814.196Q527.014 814.088 525.976 813.954Q524.939 813.821 523.905 813.662Q522.871 813.503 521.842 813.318Q520.812 813.133 519.788 812.923Q518.763 812.714 517.744 812.478Q516.725 812.243 515.712 811.983Q514.699 811.722 513.692 811.437Q512.686 811.152 511.687 810.841Q510.688 810.531 509.697 810.197Q508.706 809.862 507.724 809.503Q506.741 809.144 505.768 808.76Q504.795 808.377 503.832 807.97Q502.868 807.563 501.915 807.132Q500.962 806.701 500.02 806.247Q499.078 805.792 498.147 805.315Q497.217 804.837 496.298 804.337C475.094 792.689 459.268 774.189 452.504 750.747Q452.202 749.667 451.926 748.58Q451.65 747.492 451.401 746.399Q451.152 745.305 450.929 744.206Q450.707 743.107 450.511 742.002Q450.315 740.898 450.147 739.789Q449.978 738.68 449.837 737.567Q449.695 736.454 449.581 735.339Q449.466 734.223 449.379 733.105Q449.292 731.986 449.232 730.866Q449.172 729.746 449.14 728.625Q449.107 727.504 449.102 726.382Q449.097 725.261 449.119 724.139Q449.141 723.018 449.191 721.897Q449.241 720.777 449.317 719.658Q449.394 718.539 449.498 717.422Q449.602 716.305 449.734 715.191Q449.865 714.077 450.023 712.967Q450.182 711.857 450.367 710.75Q450.553 709.644 450.765 708.543Q450.977 707.441 451.217 706.346Q451.456 705.25 451.722 704.16Q451.987 703.07 452.28 701.987Q452.572 700.905 452.891 699.829Q453.209 698.754 453.554 697.686Q453.899 696.619 454.269 695.56Q454.64 694.502 455.036 693.453Q455.433 692.403 455.855 691.364Q456.276 690.325 456.723 689.296Q457.171 688.267 457.642 687.25Q458.114 686.232 458.611 685.227Q459.108 684.221 459.629 683.228Q460.15 682.234 460.695 681.254C469.325 665.824 482.475 651.769 498.901 644.691C497.173 636.512 496.136 627.73 500.876 620.4Q501.222 619.866 501.575 619.337C504.37 616.092 507.394 612.455 510.676 609.718C514.86 604.687 519.21 599.318 522.422 593.605C524.778 593.818 525.878 593.286 527.821 592.069L528.307 591.333L529.895 591.646C531.54 589.984 536.684 588.998 539.023 588.359Z"/>
	<path fill="#D7BF1D" d="M540.428 630.909C540.609 630.903 540.791 630.9 540.972 630.892C543.103 630.8 547.31 628.843 548.895 629.972C548.738 631.475 547.239 632.794 546.336 633.957L545.922 633.707L545.545 631.864C544.766 631.565 544.851 631.408 544.135 631.742C543.159 632.198 542.894 632.677 542.258 633.483C540.724 635.427 539.465 635.599 537.095 635.879C533.754 636.272 525.161 636.739 522.183 635.026C522.001 634.922 521.865 634.752 521.707 634.615C524.087 634.095 526.615 633.204 528.998 632.88C531.962 632.477 535.34 634.189 537.959 632.439L540.428 630.909Z"/>
	<path fill="#FAFEFD" d="M528.307 591.333L529.895 591.646L530.408 593.176C523.362 602.751 505.962 620.057 505.838 631.802C505.837 631.916 505.831 632.03 505.828 632.144C505.984 632.433 506.134 632.726 506.295 633.013C507.061 634.379 508.081 634.918 509.375 635.73C510.602 636.501 512.179 637.962 512.529 639.402C512.573 639.582 512.562 639.772 512.579 639.957C510.772 640.664 509.678 640.424 507.833 639.779C506.839 638.096 506.042 636.354 505.231 634.577L504.2 631.466C504.275 624.394 507.634 619.764 511.241 614.015C511.394 610.416 515.051 606.738 517.423 604.135C518.025 603.475 517.864 603.229 517.918 602.366C515.082 604.096 514.755 608.186 511.273 609.553C511.08 609.628 510.875 609.663 510.676 609.718C514.86 604.687 519.21 599.318 522.422 593.605C524.778 593.818 525.878 593.286 527.821 592.069L528.307 591.333Z"/>
	<path fill="#D7BF1D" d="M527.821 592.069C526.011 594.794 523.767 597.126 521.82 599.744C518.319 604.45 515.113 609.612 511.241 614.015C511.394 610.416 515.051 606.738 517.423 604.135C518.025 603.475 517.864 603.229 517.918 602.366C515.082 604.096 514.755 608.186 511.273 609.553C511.08 609.628 510.875 609.663 510.676 609.718C514.86 604.687 519.21 599.318 522.422 593.605C524.778 593.818 525.878 593.286 527.821 592.069Z"/>
	<path fill="#5DFEFC" d="M539.018 616.919L539.599 617.117C539.523 617.358 539.438 617.597 539.369 617.84C538.469 621.013 539.514 627.795 540.428 630.909L537.959 632.439L538.099 620.706C536.064 621.092 534.005 621.372 531.957 621.684L531.98 629.434C527.246 629.777 518.997 632.528 514.628 630.885C513.21 630.352 513.078 630.055 512.4 628.794C512.519 626.081 514.072 624.172 515.813 622.21C521.285 621.367 533.951 621.049 538.273 619.211L539.018 616.919Z"/>
	<path fill="#E41A01" d="M535.632 596.388C537.173 597.54 538.639 598.742 540.091 600.004C540.196 605.723 540.274 611.31 539.018 616.919L538.273 619.211C533.951 621.049 521.285 621.367 515.813 622.21C521.1 613.157 529.086 604.624 535.632 596.388Z"/>
	<path fill="#FAFEFD" d="M533.857 642.218Q535.774 642.136 537.693 642.147Q539.612 642.157 541.528 642.26Q543.444 642.362 545.353 642.556Q547.262 642.75 549.16 643.036Q551.057 643.321 552.939 643.697Q554.821 644.073 556.682 644.539Q558.544 645.004 560.381 645.559Q562.218 646.113 564.026 646.755Q565.835 647.397 567.61 648.125Q569.386 648.852 571.125 649.664Q572.863 650.476 574.561 651.371Q576.259 652.265 577.911 653.24Q579.564 654.214 581.169 655.267Q582.773 656.32 584.325 657.449Q585.877 658.577 587.373 659.779Q588.869 660.98 590.306 662.252C606.203 676.479 616.877 696.712 617.96 718.168C619.147 741.682 612.548 764.074 596.476 781.603C582.226 797.146 562.48 807.049 541.334 808.011C519.247 808.22 499.901 802.732 483.235 787.539C467 772.738 456.513 752.121 455.533 730.031C454.556 707.999 461.828 684.884 476.891 668.555C491.897 652.287 511.757 643.183 533.857 642.218Z"/>
	<path fill="#CB9B02" d="M528.873 644.184C547.874 641.606 569.444 648.146 584.608 659.53C601.38 672.121 613.191 691.533 615.934 712.394C618.813 734.293 613.779 757.749 600.133 775.33Q598.92 776.89 597.632 778.389Q596.344 779.888 594.984 781.323Q593.625 782.757 592.197 784.124Q590.769 785.49 589.276 786.785Q587.783 788.08 586.229 789.301Q584.675 790.522 583.063 791.665Q581.451 792.809 579.785 793.872Q578.119 794.936 576.403 795.917Q574.688 796.898 572.926 797.794Q571.164 798.69 569.361 799.499Q567.558 800.308 565.718 801.028Q563.877 801.748 562.004 802.377Q560.13 803.007 558.228 803.544Q556.326 804.082 554.4 804.525Q552.475 804.969 550.529 805.319Q548.584 805.668 546.624 805.922C526.315 807.494 507.134 803.493 490.551 791.221C473.475 778.584 461.118 758.922 458.041 737.821C454.945 716.588 460.241 692.668 473.312 675.489C487.246 657.175 506.355 647.32 528.873 644.184Z"/>
	<path fill="#FAFEFD" d="M530.225 661.815L531.267 660.825C532.173 661.354 532.143 661.535 532.398 662.521C533.581 667.096 533.164 672.223 534.064 676.946C533.98 673.406 532.868 663.045 533.988 660.397C536.683 663.191 535.74 673.877 536.011 678.01C545.367 677.977 554.864 677.795 562.167 684.798C565.465 687.96 567.403 692.212 567.467 696.8C567.541 702.148 564.869 706.982 561.062 710.594C558.528 712.996 555.756 714.4 552.546 715.655C562.343 718.322 570.812 720.325 576.315 729.812C579.544 735.379 580.57 742.17 578.785 748.386C576.625 755.91 571.105 761.74 564.31 765.352C558.09 768.659 551.134 769.984 544.134 770.049C545.237 776.498 546.566 784.023 545.543 790.557L544.693 790.847C543.47 788.583 543.059 774.341 542.282 770.05C537.836 770.501 533.129 771.33 528.671 771.257C529.636 777.825 529.895 784.674 529.657 791.304L529.084 792.019L529.58 792.076L529.233 792.535C527.503 788.666 526.68 775.414 527.71 771.398L526.201 771.762C524.639 775.736 528.238 793.014 526.47 793.93C523.388 790.862 524.269 776.245 524.174 771.825C520.525 772 516.847 772.093 513.219 772.52C510.113 772.94 507.556 773.367 504.479 772.464L505.293 771.397L504.161 771.936C505.815 770.94 507.01 770.978 508.897 770.946C512.079 770.379 515.541 770.5 518.776 770.4C517.932 762.686 517.901 754.784 517.642 747.027C517.268 735.372 516.44 723.731 516.062 712.072Q515.603 704.955 515.415 697.825C514.017 693.241 514.566 686.32 514.456 681.442C510.017 681.786 505.255 682.491 500.823 682.4C499.517 682.373 498.522 682.473 497.596 681.477L497.904 680.62C503.09 679.589 509.282 679.92 514.608 679.532C514.651 675.665 513.175 664.949 515.188 662.078C517.371 664.13 515.861 676.278 516.469 679.928C516.495 680.083 516.526 680.237 516.554 680.391C519.221 676.088 514.785 665.474 517.15 662.389C517.482 662.577 517.806 662.779 518.127 662.985L517.79 663.774C518.619 668.747 518.983 673.864 519.532 678.879C522.98 678.568 526.396 678.328 529.857 678.25Q529.453 676.216 529.272 674.151Q529.092 672.085 529.139 670.012Q529.185 667.939 529.458 665.884Q529.73 663.828 530.225 661.815Z"/>
	<path fill="#D7BF1D" d="M529.857 678.25Q529.453 676.216 529.272 674.151Q529.092 672.085 529.139 670.012Q529.185 667.939 529.458 665.884Q529.73 663.828 530.225 661.815C530.962 665.509 533.115 674.359 531.377 677.792L529.857 678.25Z"/>
	<path fill="#CB9B02" d="M516.303 681.081L516.927 681.082C530.379 681.002 550.174 675.394 560.866 686.157C563.832 689.144 565.772 693.188 565.692 697.445C565.609 701.842 563.438 706.013 560.29 709.009C557.763 711.413 554.738 712.95 551.545 714.256C549.346 714.793 545.993 715.194 544.389 716.785C546.285 718.528 553.221 718.408 555.912 718.894C567.444 720.975 577.119 728.698 577.731 741.135Q577.755 741.724 577.749 742.313Q577.742 742.902 577.706 743.49Q577.67 744.078 577.604 744.663Q577.537 745.249 577.441 745.83Q577.345 746.411 577.22 746.987Q577.094 747.562 576.94 748.131Q576.785 748.699 576.602 749.259Q576.418 749.819 576.206 750.369Q575.994 750.918 575.755 751.457Q575.515 751.995 575.248 752.52Q574.982 753.045 574.689 753.556Q574.395 754.067 574.077 754.563Q573.758 755.058 573.414 755.537Q573.07 756.015 572.703 756.475Q572.335 756.936 571.944 757.377Q571.554 757.818 571.141 758.238C561.83 767.917 550.242 767.484 537.926 768.547C533.15 768.959 528.234 769.934 523.45 769.937C522.056 769.938 521.288 769.886 520.151 769.072L519.621 767.614C521.069 762.523 519.767 742.046 519.056 735.919C519.331 728.147 518.483 719.166 517.661 711.403C517.627 705.955 517.807 700.286 517.048 694.89C517.199 690.343 516.45 685.655 516.303 681.081Z"/>
	<path fill="#061B55" d="M0 517.872C28.196 518.292 56.462 517.603 84.6656 517.454L83.316 520.132C67.0736 554.907 64.5249 592.098 77.6789 628.339C90.1397 662.669 116.746 689.568 149.668 704.873C159.066 709.242 169.297 712.902 179.594 714.38C175.029 718.756 171.349 725.491 168.125 730.957C154.134 754.68 144.566 779.438 143.958 807.233C143.79 814.934 144.019 822.622 145.424 830.215C149.426 851.844 162.24 878.967 176.597 895.669C158.1 902.911 140.551 913.241 132.167 932.231C130.757 935.426 129.864 938.63 129.204 942.051C128.471 951.257 130.367 959.369 136.406 966.532C148.893 981.345 172.261 987.251 190.715 988.687C215.137 990.588 239.314 986.022 262.116 977.392C270.171 974.343 278.056 970.628 286.154 967.747C290.531 982.73 298.409 992.248 312.248 999.733Q314.875 1001.13 317.551 1002.43L320.672 1004.08Q320.288 1006.98 319.557 1009.8Q318.827 1012.63 317.761 1015.35L314.604 1024L310.58 1024L62.836 1024L58.1436 1024L0 1024L0 887.546L0 880.485L0 727.106L0 719.7L0 520.738L0 517.872Z"/>
	<path fill="#5DFEFC" d="M317.551 1002.43L320.672 1004.08Q320.288 1006.98 319.557 1009.8Q318.827 1012.63 317.761 1015.35L314.604 1024L310.58 1024C311.67 1021.61 312.478 1019.04 313.379 1016.57C315.26 1012.11 316.35 1007.12 317.551 1002.43Z"/>
	<path fill="#5DFEFC" d="M0 719.7C4.44931 713.681 8.28679 707.132 12.2832 700.806L31.3374 670.693C34.2866 666.018 36.965 660.833 40.2501 656.408C41.1127 655.246 42.3255 653.508 43.7869 653.105C43.9302 653.066 44.082 653.069 44.2295 653.051C45.1192 653.862 45.089 653.98 45.3312 655.175C41.799 664.086 34.396 673.603 29.1984 681.754C19.5177 696.935 10.1679 712.23 0 727.106L0 719.7Z"/>
	<path fill="#5DFEFC" d="M58.1436 1024Q87.7287 963.102 118.491 902.789C124.742 890.49 130.229 877.664 136.809 865.552C137.554 864.181 138.349 862.763 139.686 861.9C140.551 862.262 140.535 862.042 140.851 862.815C140.962 863.086 141.078 863.36 141.121 863.65C141.422 865.668 140.191 868.332 139.379 870.137C130.02 890.95 118.199 912.282 107.879 932.832L62.836 1024L58.1436 1024Z"/>
	<path fill="#5DFEFC" d="M0 880.485L0.444344 879.933C5.63272 873.423 10.0844 866.061 14.7138 859.139Q27.4538 840.232 39.7597 821.039C53.813 799.143 68.5182 777.603 82.9581 755.96C89.365 746.357 95.3054 735.742 102.391 726.695C103.509 725.266 105.299 723.014 107.132 722.544L107.965 723.302C107.6 725.574 106.828 727.492 105.655 729.467C103.192 733.616 100.113 737.402 97.5112 741.478C84.5005 761.861 70.8197 781.795 57.4345 801.935L20.4688 857.364C13.7165 867.462 7.26487 877.803 0 887.546L0 880.485Z"/>
	<path fill="#061B55" d="M856.972 325.547L860.214 326.038C868.887 329.474 877.503 335.884 885.069 341.29C896.54 349.487 907.284 358.806 917.655 368.342C926.033 376.047 934.4 383.799 942.216 392.08C965.123 416.352 985.033 443.467 1004.54 470.481L1024 470.557L1024 517.214L1024 814.602L1024 822.13L1024 1024L995.226 1024L990.601 1024L795.769 1024L790.84 1024L536.353 1024L527.098 1024Q527.074 1005.04 527.267 986.091L527.367 979.987C544.98 980.02 562.987 979.33 580.52 977.646C584.396 977.274 622.488 972.138 623.256 972.397C624.562 969.888 624.269 953.382 624.439 949.343C625.019 935.632 626.659 922.004 627.381 908.337C627.981 907.6 628.735 906.962 629.422 906.304C666.09 901.863 693.073 896.867 730.22 906.279C737.312 908.076 744.628 909.869 751.26 913.01C751.501 914.286 751.706 915.527 752.495 916.606C753.117 917.456 754.157 917.984 755.18 918.087L755.813 917.409C756.97 913.835 755.976 910.103 755.357 906.507C760.139 904.928 764.759 902.968 769.613 901.535C792.135 894.891 829.497 887.67 852.889 888.124C860.404 888.27 867.571 889.448 874.885 891.045C892.928 862.539 903.996 826.726 899.423 792.926C894.377 755.632 873.72 723.904 847.821 697.528C842.396 692.004 836.872 686.076 830.7 681.382C829.401 671.172 826.566 660.872 824.195 650.857C813.539 605.838 798.552 561.141 776.739 520.235L775.556 518.255C773.069 513.833 770.499 509.531 767.369 505.529L767.278 503.79C824.023 462.519 857.718 428.824 889.943 365.576C877.46 354.929 863.933 340.707 856.972 325.547Z"/>
	<path fill="#5DFEFC" d="M780.844 998.647L777.249 988.733C777.926 987.763 778.159 987.92 779.25 987.605C780.545 988.037 781.18 988.345 781.851 989.601C783.817 993.279 785.195 998.024 786.661 1001.96Q791.109 1013.02 795.769 1024L790.84 1024C788.678 1015.53 784.237 1006.76 780.844 998.647Z"/>
	<path fill="#5DFEFC" d="M966.658 595.244C969.616 596.398 999.474 634.59 1001.5 638.957C1001.25 640.455 1000.72 640.877 999.767 642.033C997.193 640.755 967.484 602.071 965.137 598.453C965.113 596.885 965.737 596.476 966.658 595.244Z"/>
	<path fill="#5DFEFC" d="M1024 822.13C1016.36 811.517 1009.45 800.235 1002.09 789.4C991.052 773.14 979.465 756.948 969.1 740.253C967.859 738.254 966.422 736.022 967.009 733.64L968.205 733.423C969.539 733.776 970.146 734.398 970.974 735.444C976.175 742.011 980.542 749.859 985.157 756.871L1008.74 792.157C1013.76 799.652 1018.59 807.389 1024 814.602L1024 822.13Z"/>
	<path fill="#5DFEFC" d="M952.549 949.913C946.702 937.69 940.239 925.741 934.048 913.688C929.696 905.214 925.627 896.597 921.27 888.128C916.635 879.12 911.378 870.256 907.312 860.98C906.854 859.934 906.571 858.893 906.849 857.752C907.032 856.999 907.388 856.93 907.966 856.507C909.939 857.19 911.101 859.757 912.067 861.492C922.123 879.566 930.613 898.633 940.156 917.002L972.101 979.645C979.424 993.787 987.352 1007.71 994.283 1022.03L995.226 1024L990.601 1024C986.696 1015.67 982.172 1007.66 977.931 999.496L958.521 961.762L952.549 949.913Z"/>
	<path fill="#5DFEFC" d="M815.198 517.937C816.86 517.074 818.351 517.277 820.123 517.572C829.257 531.905 839.039 545.86 848.593 559.917L900.172 635.397Q911.687 651.964 923.007 668.665C926.382 673.669 930.034 678.66 933.091 683.86C934.169 685.693 935.27 687.55 934.987 689.741L934.218 690.474C932.635 690.257 931.204 688.065 930.221 686.775C921.875 675.825 914.764 663.592 906.908 652.238L840.432 555.432Q832.408 543.55 824.507 531.587C822.196 528.114 819.686 523.377 816.772 520.456L815.198 517.937Z"/>
	<path fill="#0541EE" d="M856.972 325.547L860.214 326.038C868.887 329.474 877.503 335.884 885.069 341.29C896.54 349.487 907.284 358.806 917.655 368.342C926.033 376.047 934.4 383.799 942.216 392.08C965.123 416.352 985.033 443.467 1004.54 470.481L1024 470.557L1024 517.214C994.58 517.622 965.127 517.32 935.703 517.361L820.123 517.572C818.351 517.277 816.86 517.074 815.198 517.937C813.094 516.874 780.563 518.103 775.556 518.255C773.069 513.833 770.499 509.531 767.369 505.529L767.278 503.79C824.023 462.519 857.718 428.824 889.943 365.576C877.46 354.929 863.933 340.707 856.972 325.547Z"/>
	<path fill="#FAFEFD" d="M898.734 390.801C899.308 390.767 899.991 390.685 900.529 390.945C902.964 392.121 906.586 398.4 907.129 400.976C906.46 400.986 906.014 400.93 905.435 400.539C902.621 398.639 899.367 394.078 898.734 390.801Z"/>
	<path fill="#FAFEFD" d="M916.795 389.36C917.485 389.553 918.074 389.686 918.635 390.18C920.928 392.204 925.387 398.82 925.237 401.702C924.116 401.421 923.673 401.256 922.886 400.331C920.708 397.772 916.473 392.662 916.795 389.36Z"/>
	<path fill="#B5FDFC" d="M755.357 906.507C760.139 904.928 764.759 902.968 769.613 901.535C792.135 894.891 829.497 887.67 852.889 888.124C860.404 888.27 867.571 889.448 874.885 891.045C894.189 897.123 910.791 908.063 920.369 926.501C921.755 929.17 922.817 931.969 923.718 934.836C925.969 945.411 925.876 955.56 919.822 964.908C911.063 978.431 895.196 984.965 880.004 988.077C843.904 995.471 797.056 989.358 766.101 968.85C763.387 967.052 760.733 965.097 758.438 962.779C757.398 973.467 754.655 981.609 746.172 988.659C727.049 1004.55 687.578 1008.64 663.138 1006.26C651.338 1005.1 635.873 1002.39 627.687 992.843C623.67 988.16 622.646 978.353 623.256 972.397C624.562 969.888 624.269 953.382 624.439 949.343C625.019 935.632 626.659 922.004 627.381 908.337C627.981 907.6 628.735 906.962 629.422 906.304C666.09 901.863 693.073 896.867 730.22 906.279C737.312 908.076 744.628 909.869 751.26 913.01C751.501 914.286 751.706 915.527 752.495 916.606C753.117 917.456 754.157 917.984 755.18 918.087L755.813 917.409C756.97 913.835 755.976 910.103 755.357 906.507Z"/>
	<path fill="#061B55" d="M699.936 969.967C701.057 973.522 702.095 976.524 701.726 980.302L701.151 980.611C698.668 978.285 698.232 975.032 697.044 971.992C698.434 971.503 698.953 971.005 699.936 969.967Z"/>
	<path fill="#061B55" d="M713.251 955.142C713.399 955.176 713.552 955.196 713.697 955.245C717.803 956.635 721.656 964.075 723.257 967.933C724.492 970.909 725.571 973.522 724.319 976.615C722.088 975.199 721.836 972.583 720.769 970.306C718.678 965.843 715.845 962.426 713.194 958.379C712.425 957.203 712.938 956.402 713.251 955.142Z"/>
	<path fill="#0541EE" d="M697.044 971.992C696.187 969.646 694.953 967.209 693.483 965.189C691.508 962.474 685.648 958.061 685.057 954.867C684.94 954.239 685.323 954.015 685.672 953.55L686.787 953.48C692.998 957.413 697.004 963.353 699.936 969.967C698.953 971.005 698.434 971.503 697.044 971.992Z"/>
	<path fill="#061B55" d="M848.649 939.23C849.234 939.262 849.643 939.257 850.231 939.426C855.243 940.863 861.874 950.222 864.734 954.347C866.826 957.365 870.32 961.907 869.638 965.665C868.72 965.561 868.466 965.487 867.691 965.082C864.782 960.623 861.742 956.147 858.343 952.044C856.566 949.898 849.291 943.14 848.654 941.181C848.452 940.563 848.651 939.88 848.649 939.23Z"/>
	<path fill="#0541EE" d="M660.873 953.147C661.069 953.203 661.27 953.24 661.46 953.314C665.411 954.841 669.083 961.317 670.994 964.97C673.32 969.418 676.865 976.848 675.316 981.862C672.748 981.021 672.625 978.894 671.779 976.547C670.682 973.504 669.746 969.966 668.035 967.212C665.775 963.576 662.393 960.241 660.477 956.467C659.781 955.097 660.361 954.472 660.873 953.147Z"/>
	<path fill="#061B55" d="M884.356 923.228C885.38 923.719 886.258 924.234 887.186 924.896C892.858 928.937 905.881 941.356 906.738 948.484C906.861 949.5 906.484 949.638 905.923 950.431C900.98 947.413 896.889 937.362 891.986 932.99C889.885 931.116 884.167 927.903 883.245 925.583L884.356 923.228Z"/>
	<path fill="#061B55" d="M865.883 930.463C867.406 930.884 868.464 931.485 869.738 932.424C876.311 937.273 888.466 949.851 889.396 958.283C889.537 959.562 889.204 959.706 888.434 960.66C888.164 960.556 887.861 960.453 887.626 960.286C885.846 959.026 879.339 946.12 876.25 942.766C873.831 940.14 866.426 935.116 865.288 932.462C864.996 931.783 865.594 931.084 865.883 930.463Z"/>
	<path fill="#E41A01" d="M0 0L1024 0L1024 470.557L1004.54 470.481C985.033 443.467 965.123 416.352 942.216 392.08C934.4 383.799 926.033 376.047 917.655 368.342C907.284 358.806 896.54 349.487 885.069 341.29C877.503 335.884 868.887 329.474 860.214 326.038L856.972 325.547C863.933 340.707 877.46 354.929 889.943 365.576C857.718 428.824 824.023 462.519 767.278 503.79C714.328 537.16 651.484 571.668 590.447 586.748C576.129 590.286 561.841 591.671 547.399 594.152C547.276 594.108 547.13 594.104 547.029 594.021C544.068 591.573 542.717 589.856 539.023 588.359C536.684 588.998 531.54 589.984 529.895 591.646L528.307 591.333L527.821 592.069C525.878 593.286 524.778 593.818 522.422 593.605C519.21 599.318 514.86 604.687 510.676 609.718C507.394 612.455 504.37 616.092 501.575 619.337C494.909 617.872 487.974 617.121 481.224 616.082Q466.504 613.776 451.887 610.886Q447.806 610.075 443.75 609.147Q439.694 608.218 435.667 607.172Q431.64 606.126 427.645 604.964Q423.65 603.801 419.69 602.523Q415.731 601.246 411.81 599.854Q407.889 598.461 404.01 596.956Q400.131 595.451 396.297 593.834Q392.464 592.217 388.678 590.489Q384.893 588.761 381.16 586.924Q377.427 585.088 373.748 583.143Q370.07 581.199 366.449 579.149Q362.828 577.099 359.269 574.944Q355.709 572.79 352.214 570.533Q348.718 568.277 345.289 565.919Q341.861 563.562 338.502 561.107Q335.143 558.651 331.857 556.099C320.797 547.334 294.986 523.724 293.432 510.12C272.289 495.087 253.892 477.771 235.644 459.403L233.654 457.254Q225.995 448.507 218.182 439.896C179.18 438.731 141.774 452.144 113.262 479.004C101.378 490.199 91.8831 502.808 84.6656 517.454C56.462 517.603 28.196 518.292 0 517.872L0 488.451L0 0Z"/>
	<path fill="#FAFEFD" d="M829.333 234.568C830.513 234.506 831.758 234.427 832.93 234.612C834.84 234.913 836.819 236.272 837.918 237.847C838.722 238.998 839.013 240.409 838.591 241.767C837.967 243.771 836.425 244.774 834.69 245.739C833.682 245.771 832.675 245.801 831.667 245.733C829.687 245.601 827.898 244.544 826.653 243.006C825.703 241.832 825.238 240.446 825.582 238.929C826.07 236.785 827.587 235.687 829.333 234.568Z"/>
	<path fill="#FAFEFD" d="M231.329 246.612C232.7 246.532 234.04 246.491 235.399 246.737C237.722 247.156 240.381 248.477 241.597 250.6C242.188 251.632 242.283 252.829 241.824 253.932C240.969 255.982 238.886 256.995 237.025 257.941C235.652 258.028 234.251 258.119 232.884 257.906C230.803 257.583 228.457 256.234 227.34 254.411C226.639 253.267 226.599 252.234 226.949 250.969C227.522 248.904 229.648 247.671 231.329 246.612Z"/>
	<path fill="#B5FDFC" d="M214.605 310.177C214.342 301.367 210.951 280.55 212.147 273.786C212.255 273.175 212.25 272.571 212.871 272.275C214.606 271.45 217.987 272.193 219.642 272.964C224.913 275.419 228.317 281.272 230.327 286.425C225.371 294.372 220.863 303.187 214.605 310.177Z"/>
	<path fill="#5DFEFC" d="M485.611 359.109C493.363 343.461 502.098 322.896 517.755 313.765C524.63 309.755 532.253 309.195 539.831 311.263C561.025 317.045 572.415 340.951 582.367 358.554C579.333 360.62 493.663 361.845 486.902 359.831C486.367 359.671 486.014 359.465 485.611 359.109Z"/>
	<path fill="#5DFEFC" d="M363.343 215.207C363.486 215.185 363.63 215.159 363.774 215.142C386.416 212.528 416.242 223.455 433.724 237.45Q434.661 238.202 435.579 238.978Q436.497 239.753 437.396 240.55Q438.295 241.347 439.174 242.166Q440.053 242.985 440.912 243.825Q441.771 244.666 442.609 245.526Q443.447 246.387 444.264 247.268Q445.081 248.15 445.876 249.05Q446.671 249.951 447.444 250.871Q448.217 251.791 448.967 252.729Q449.717 253.668 450.444 254.624Q451.171 255.581 451.875 256.555Q452.578 257.529 453.258 258.52Q453.937 259.511 454.593 260.518Q455.248 261.525 455.878 262.548Q456.509 263.571 457.114 264.609Q457.719 265.647 458.299 266.699Q458.878 267.751 459.432 268.818Q459.986 269.884 460.514 270.963Q461.042 272.043 461.543 273.135Q462.044 274.227 462.518 275.331Q462.993 276.435 463.44 277.55Q463.887 278.665 464.307 279.791Q464.727 280.916 465.119 282.052Q465.512 283.188 465.876 284.332Q466.241 285.477 466.577 286.631Q466.914 287.784 467.222 288.945Q467.53 290.107 467.81 291.275Q468.089 292.444 468.341 293.619Q468.592 294.794 468.814 295.974Q469.037 297.155 469.23 298.341Q469.424 299.527 469.588 300.717Q469.753 301.907 469.888 303.101Q470.031 304.406 470.141 305.715Q470.251 307.023 470.328 308.334Q470.405 309.644 470.449 310.957Q470.493 312.269 470.504 313.582Q470.515 314.895 470.493 316.207Q470.471 317.52 470.416 318.832Q470.361 320.144 470.272 321.454Q470.184 322.764 470.063 324.071Q469.942 325.379 469.788 326.683Q469.634 327.986 469.448 329.286Q469.261 330.586 469.042 331.88Q468.822 333.175 468.571 334.463Q468.319 335.752 468.034 337.034Q467.75 338.316 467.434 339.59Q467.118 340.864 466.769 342.13Q466.421 343.396 466.041 344.653Q465.661 345.91 465.249 347.156Q464.837 348.403 464.395 349.639Q463.952 350.875 463.478 352.1Q463.004 353.324 462.5 354.536Q461.995 355.749 461.46 356.948Q460.925 358.147 460.36 359.332Q459.796 360.517 459.201 361.688Q458.607 362.859 457.983 364.014Q457.359 365.169 456.706 366.309Q456.054 367.448 455.372 368.57Q454.691 369.693 453.982 370.798Q453.273 371.903 452.536 372.989Q451.799 374.076 451.035 375.144Q450.272 376.212 449.481 377.26Q448.691 378.309 447.874 379.337Q447.057 380.365 446.215 381.372Q445.391 382.393 444.542 383.394Q443.693 384.394 442.819 385.373Q441.945 386.352 441.046 387.308Q440.148 388.265 439.226 389.198Q438.304 390.132 437.359 391.042Q436.414 391.953 435.446 392.839Q434.478 393.725 433.489 394.587Q432.499 395.449 431.488 396.286Q430.477 397.122 429.446 397.933Q428.414 398.745 427.363 399.529Q426.311 400.314 425.24 401.073Q424.17 401.831 423.08 402.562Q421.99 403.294 420.883 403.997Q419.775 404.701 418.651 405.377Q417.526 406.053 416.384 406.7Q415.243 407.347 414.085 407.966Q412.928 408.584 411.756 409.174Q410.583 409.763 409.396 410.323Q408.21 410.883 407.009 411.412Q405.809 411.942 404.595 412.442Q403.382 412.941 402.156 413.41Q400.931 413.879 399.694 414.317Q398.457 414.755 397.209 415.162Q395.962 415.569 394.704 415.945Q393.447 416.32 392.181 416.664Q390.914 417.008 389.64 417.32Q388.365 417.632 387.083 417.912Q385.801 418.192 384.513 418.44Q383.224 418.688 381.929 418.903Q380.635 419.118 379.336 419.301Q378.036 419.484 376.733 419.634Q375.429 419.785 374.122 419.902C350.089 422.259 324.077 414.052 305.408 398.883C282.884 380.582 269.118 355.668 266.213 326.65C263.665 301.194 273.082 272.077 289.223 252.355C307.606 229.893 334.907 218.008 363.343 215.207Z"/>
	<path fill="#061B55" d="M364.114 220.703C387.266 218.666 414.008 228.561 431.7 243.248C450.146 258.561 462.686 281.013 464.693 305.046C466.998 332.654 458.833 358.585 440.802 379.675Q440.013 380.613 439.202 381.531Q438.39 382.45 437.556 383.347Q436.722 384.245 435.866 385.122Q435.009 385.999 434.132 386.855Q433.254 387.71 432.356 388.543Q431.457 389.377 430.538 390.188Q429.619 390.999 428.681 391.787Q427.742 392.575 426.784 393.339Q425.826 394.103 424.85 394.844Q423.873 395.584 422.878 396.3Q421.884 397.016 420.872 397.708Q419.86 398.399 418.831 399.065Q417.802 399.73 416.757 400.371Q415.712 401.011 414.651 401.625Q413.591 402.239 412.515 402.827Q411.44 403.414 410.35 403.975Q409.26 404.536 408.157 405.07Q407.054 405.603 405.938 406.109Q404.822 406.616 403.693 407.094Q402.565 407.572 401.425 408.023Q400.285 408.473 399.135 408.895Q397.984 409.317 396.823 409.71Q395.662 410.103 394.492 410.467Q393.322 410.832 392.143 411.167Q390.965 411.502 389.778 411.808Q388.591 412.114 387.397 412.391Q386.203 412.667 385.003 412.914Q383.802 413.161 382.596 413.378Q381.39 413.595 380.179 413.782Q378.968 413.969 377.752 414.126Q376.537 414.283 375.318 414.41Q374.099 414.536 372.877 414.633C349.981 417.084 325.674 408.255 307.895 394.064Q306.939 393.292 306.002 392.496Q305.066 391.7 304.149 390.881Q303.233 390.062 302.337 389.22Q301.441 388.379 300.567 387.515Q299.692 386.651 298.839 385.766Q297.987 384.881 297.156 383.975Q296.326 383.069 295.518 382.143Q294.71 381.216 293.926 380.27Q293.141 379.324 292.381 378.358Q291.62 377.393 290.884 376.409Q290.148 375.424 289.436 374.422Q288.725 373.42 288.038 372.401Q287.352 371.381 286.691 370.345Q286.03 369.308 285.396 368.256Q284.761 367.203 284.152 366.135Q283.544 365.068 282.962 363.985Q282.381 362.902 281.826 361.805Q281.272 360.708 280.745 359.598Q280.218 358.487 279.719 357.364Q279.22 356.241 278.748 355.106Q278.277 353.971 277.835 352.824Q277.392 351.677 276.978 350.52Q276.564 349.363 276.179 348.196Q275.794 347.028 275.438 345.852Q275.082 344.676 274.756 343.491Q274.429 342.306 274.133 341.113Q273.836 339.92 273.569 338.721Q273.302 337.521 273.065 336.315Q272.827 335.109 272.62 333.897Q272.413 332.686 272.237 331.47Q272.06 330.253 271.913 329.033Q271.767 327.813 271.651 326.589C269.178 302.867 277.599 275.763 292.682 257.333C310.819 235.172 335.914 223.405 364.114 220.703Z"/>
	<path fill="#FAFEFD" d="M438.78 274.849L439.354 275.75C439.111 278.121 438.905 280.504 438.256 282.805C437.615 285.077 437.15 286.361 435.046 287.53L434.331 286.389C435.074 282.534 437.525 278.678 438.78 274.849Z"/>
	<path fill="#FAFEFD" d="M434.037 287.636C434.983 288.07 435.067 288.104 435.651 288.864C435.518 292.129 433.584 295.854 432.421 298.912L431.101 298.178C429.986 295.305 432.909 290.313 434.037 287.636Z"/>
	<path fill="#FAFEFD" d="M383.558 387.705C384.054 388.103 384.305 388.475 384.666 388.992C384.543 393.026 378.872 396.975 377.269 400.818C376.263 400.25 376.621 400.668 376.226 399.538C377.856 394.82 381.201 392.418 383.303 388.229C383.39 388.055 383.473 387.879 383.558 387.705Z"/>
	<path fill="#FAFEFD" d="M314.832 274.229L316.037 275.026L316.14 275.931C314.423 279.961 310.335 283.951 307.513 287.356C306.939 287.192 306.696 286.796 306.28 286.381C306.552 282.949 312.621 277.161 314.832 274.229Z"/>
	<path fill="#FAFEFD" d="M350.54 235.342C351.074 235.566 350.707 235.378 351.467 236.164C351.444 236.328 351.441 236.497 351.398 236.658C350.295 240.76 343.526 246.166 340.191 248.632C339.412 248.358 339.448 248.2 338.988 247.556C339.497 244.796 348.192 237.353 350.54 235.342Z"/>
	<path fill="#FAFEFD" d="M416.12 335.179C417.004 335.694 416.617 335.345 417.237 336.272C415.424 342.942 410.841 350.153 405.875 354.92L404.9 354.474C405.812 349.599 413.594 340.281 416.12 335.179Z"/>
	<path fill="#0541EE" d="M422.231 266.879C422.274 267.05 422.337 267.217 422.36 267.391C422.853 271.154 418.896 280.926 417.788 284.984C403.721 336.52 385.817 359.384 355.237 402.705C347.535 402.096 340.531 400.133 333.373 397.291C330.908 396.317 328.475 395.23 326.035 394.194C332.665 384.171 340.328 374.799 347.661 365.29C355.095 355.648 362.362 345.852 369.651 336.1Q384.494 315.872 399.697 295.912C406.999 286.139 414.207 276.075 422.231 266.879Z"/>
	<path fill="#5DFEFC" d="M693.088 207.707C693.219 207.69 693.348 207.669 693.479 207.657Q694.749 207.552 696.021 207.477Q697.292 207.403 698.566 207.36Q699.839 207.317 701.113 207.305Q702.387 207.293 703.661 207.313Q704.934 207.332 706.207 207.383Q707.48 207.434 708.752 207.516Q710.023 207.598 711.292 207.711Q712.561 207.824 713.827 207.968Q715.093 208.112 716.355 208.288Q717.616 208.463 718.874 208.669Q720.131 208.875 721.383 209.112Q722.634 209.349 723.88 209.617Q725.126 209.884 726.364 210.182Q727.603 210.481 728.834 210.809Q730.065 211.137 731.287 211.496Q732.51 211.854 733.723 212.243Q734.937 212.631 736.14 213.049Q737.343 213.467 738.536 213.915Q739.729 214.362 740.911 214.839Q742.092 215.315 743.262 215.821Q744.431 216.326 745.588 216.86Q746.744 217.394 747.888 217.956Q749.031 218.518 750.16 219.108Q751.289 219.698 752.403 220.316Q753.518 220.934 754.616 221.578Q755.715 222.223 756.798 222.895Q757.881 223.566 758.946 224.264Q760.012 224.962 761.061 225.686Q762.109 226.41 763.139 227.159Q764.17 227.908 765.181 228.683Q766.193 229.457 767.185 230.256Q768.178 231.055 769.15 231.878C789.164 248.699 802.294 275.531 804.394 301.478C806.526 327.812 796.711 355.638 779.62 375.608Q778.784 376.597 777.923 377.564Q777.062 378.531 776.178 379.477Q775.293 380.422 774.385 381.345Q773.477 382.268 772.546 383.168Q771.615 384.068 770.662 384.945Q769.709 385.821 768.734 386.673Q767.759 387.526 766.763 388.353Q765.767 389.181 764.751 389.983Q763.735 390.785 762.699 391.562Q761.663 392.338 760.608 393.089Q759.552 393.839 758.479 394.563Q757.405 395.287 756.313 395.983Q755.222 396.68 754.113 397.349Q753.005 398.018 751.88 398.659Q750.755 399.3 749.614 399.912Q748.473 400.525 747.318 401.109Q746.162 401.693 744.992 402.247Q743.822 402.802 742.638 403.327Q741.455 403.853 740.259 404.348Q739.062 404.843 737.854 405.309Q736.646 405.774 735.426 406.209Q734.206 406.643 732.976 407.048Q731.746 407.452 730.506 407.825Q729.266 408.198 728.017 408.54Q726.769 408.882 725.512 409.193Q724.255 409.503 722.99 409.782Q721.726 410.061 720.455 410.309Q719.184 410.556 717.907 410.771Q716.63 410.986 715.348 411.17Q714.067 411.353 712.781 411.504Q711.495 411.655 710.205 411.774Q708.916 411.893 707.624 411.979C681.415 414.171 653.714 404.972 633.434 388.373Q632.437 387.548 631.461 386.7Q630.485 385.851 629.53 384.979Q628.575 384.106 627.641 383.211Q626.708 382.315 625.797 381.397Q624.886 380.479 623.997 379.539Q623.109 378.599 622.244 377.637Q621.378 376.675 620.537 375.693Q619.696 374.71 618.879 373.707Q618.062 372.705 617.269 371.682Q616.477 370.659 615.71 369.618Q614.943 368.576 614.202 367.516Q613.461 366.456 612.746 365.378Q612.031 364.3 611.343 363.205Q610.654 362.11 609.993 360.998Q609.332 359.886 608.698 358.759Q608.064 357.631 607.458 356.488Q606.852 355.346 606.274 354.188Q605.696 353.031 605.146 351.86Q604.597 350.689 604.076 349.505Q603.556 348.321 603.064 347.124Q602.573 345.928 602.111 344.719Q601.649 343.511 601.217 342.292Q600.785 341.073 600.382 339.843Q599.98 338.614 599.608 337.375Q599.236 336.136 598.895 334.888Q598.553 333.641 598.242 332.385Q597.931 331.13 597.651 329.867Q597.371 328.604 597.122 327.334Q596.873 326.065 596.656 324.79Q596.438 323.515 596.251 322.235Q596.065 320.955 595.91 319.671Q595.755 318.387 595.631 317.099C593.285 292.848 601.082 266.185 616.779 247.447Q617.656 246.38 618.56 245.335Q619.464 244.291 620.394 243.269Q621.324 242.248 622.279 241.25Q623.235 240.252 624.215 239.279Q625.195 238.305 626.199 237.357Q627.204 236.408 628.231 235.486Q629.259 234.563 630.31 233.666Q631.361 232.769 632.434 231.899Q633.507 231.029 634.601 230.186Q635.695 229.343 636.811 228.528Q637.926 227.713 639.062 226.927Q640.197 226.14 641.352 225.382Q642.507 224.624 643.681 223.895Q644.854 223.167 646.046 222.468Q647.237 221.769 648.446 221.1Q649.655 220.432 650.88 219.794Q652.105 219.156 653.346 218.549Q654.587 217.942 655.843 217.366Q657.099 216.79 658.368 216.246Q659.638 215.703 660.921 215.191Q662.204 214.679 663.5 214.2Q664.795 213.72 666.103 213.274Q667.41 212.827 668.728 212.414Q670.046 212 671.374 211.62Q672.702 211.239 674.039 210.893Q675.376 210.546 676.722 210.233Q678.067 209.92 679.42 209.641Q680.773 209.362 682.133 209.117Q683.492 208.872 684.857 208.661Q686.222 208.45 687.593 208.274Q688.963 208.098 690.337 207.956Q691.711 207.814 693.088 207.707Z"/>
	<path fill="#061B55" d="M693.819 213.209C719.458 211.254 744.28 218.384 764.207 234.827C783.75 250.953 797.18 275.954 799.43 301.248C801.625 325.937 791.858 352.989 776.007 371.801C758.168 392.973 734.177 404.551 706.729 406.795C682.303 408.883 656.054 400.448 637.184 384.851C617.029 368.193 603.154 343.433 600.882 317.25Q600.775 316.104 600.697 314.956Q600.619 313.808 600.57 312.659Q600.521 311.509 600.5 310.359Q600.48 309.208 600.489 308.058Q600.497 306.907 600.534 305.757Q600.572 304.607 600.638 303.459Q600.704 302.31 600.799 301.163Q600.894 300.017 601.018 298.873Q601.142 297.729 601.294 296.588Q601.446 295.448 601.627 294.312Q601.808 293.175 602.018 292.044Q602.227 290.912 602.465 289.787Q602.702 288.661 602.968 287.541Q603.234 286.422 603.528 285.31Q603.822 284.197 604.143 283.092Q604.465 281.988 604.814 280.891Q605.164 279.795 605.54 278.708Q605.917 277.621 606.321 276.543Q606.724 275.466 607.155 274.399Q607.586 273.332 608.043 272.276Q608.5 271.22 608.984 270.176Q609.468 269.132 609.977 268.101Q610.487 267.069 611.022 266.051Q611.558 265.032 612.119 264.027Q612.679 263.023 613.265 262.032Q613.851 261.042 614.462 260.067Q615.072 259.091 615.707 258.132Q616.341 257.172 617 256.229Q617.659 255.285 618.341 254.358Q619.023 253.432 619.728 252.523Q620.433 251.613 621.161 250.722Q621.888 249.831 622.638 248.958C641.197 226.963 665.427 215.644 693.819 213.209Z"/>
	<path fill="#FAFEFD" d="M765.643 271.08C766.949 271.392 766.404 271.069 767.297 272.017C767.792 274.209 767.166 276.252 766.716 278.408C765.828 278.148 765.423 277.967 764.785 277.29C764.228 275.197 765.091 273.113 765.643 271.08Z"/>
	<path fill="#FAFEFD" d="M728.22 381.359C729.317 381.327 729.844 381.292 730.765 381.924L730.697 382.968C728.414 385.792 724.949 387.355 721.745 388.905C720.851 389.064 720.779 389.061 719.866 388.73C720.524 386.987 726.256 384.078 728.22 381.359Z"/>
	<path fill="#FAFEFD" d="M769.288 282.842C769.932 283.341 769.756 283.097 770.128 283.78C771.177 285.703 768.253 293.85 767.514 296.255C766.413 295.145 766.062 294.484 765.952 292.912Q765.901 292.233 765.917 291.552Q765.933 290.871 766.017 290.195Q766.1 289.519 766.249 288.854Q766.399 288.19 766.613 287.543Q766.827 286.897 767.104 286.274Q767.381 285.652 767.718 285.06Q768.055 284.468 768.448 283.912Q768.842 283.356 769.288 282.842Z"/>
	<path fill="#FAFEFD" d="M642.663 271.348L643.117 271.96C643.673 276.656 635.279 289.286 632.669 293.629C632.42 293.377 632.228 292.86 632.064 292.54C632.845 288.232 639.766 274.782 642.663 271.348Z"/>
	<path fill="#FAFEFD" d="M672.27 228.882C672.383 229.006 672.519 229.113 672.61 229.255C673.173 230.133 672.869 231.494 672.649 232.437C671.908 235.608 664.472 250.545 662.145 252.064C661.322 248.45 664.711 242.496 666.68 239.347L667.593 239.195C668.078 235.049 670.069 232.341 672.27 228.882Z"/>
	<path fill="#0541EE" d="M747.267 265.294C748.032 266.028 748.058 266.694 748.194 267.709C748.902 272.994 748.625 278.687 748.633 284.013C748.688 318.917 736.657 339.903 716.65 367.163Q705.708 382.153 694.485 396.933C689.014 395.16 683.698 392.977 678.358 390.851C675.23 389.692 672.163 388.308 669.09 387.009C671.547 382.518 674.903 378.349 677.774 374.091Q685.406 362.613 692.891 351.039Q720.554 308.468 747.267 265.294Z"/>
	<path fill="#5DFEFC" d="M219.395 234.358C216.288 221.614 215.878 207.514 215.329 194.47C213.408 148.826 217.758 99.7032 232.949 56.3628C235.882 47.9943 239.422 37.7732 245.688 31.2713C248.877 27.9619 253.331 26.9939 257.778 26.8699C288.348 26.0177 334.803 45.7094 360.521 60.9349Q367.349 64.9457 373.943 69.33Q380.537 73.7144 386.877 78.4588Q393.217 83.2032 399.283 88.2929Q405.349 93.3826 411.123 98.8019C420.668 98.5131 430.11 96.7952 439.534 95.36L476.022 89.953C499.877 86.5957 524.478 83.6789 548.586 83.8751C578.969 84.1225 610.19 89.7278 639.602 96.9741C643.61 94.7261 647.371 91.8596 651.208 89.3251C658.367 84.5973 665.654 79.934 673.118 75.7033C706.104 57.0055 766.152 32.2764 804.706 34.3762C808.709 34.5942 812.923 35.4676 815.618 38.681C820.178 44.1161 821.311 54.7107 822.837 61.5535C834.572 114.188 835.314 164.115 831.438 217.622C822.891 213.919 814.08 210.633 804.977 208.572C809.403 164.156 812.269 118.857 803.425 74.7426C802.575 70.5001 801.892 62.7129 798.976 59.5286C797.569 57.9928 795.848 57.5203 793.821 57.5091C788.123 57.4777 781.641 60.3453 776.338 62.3428C746.942 73.4158 719.785 89.7118 694.623 108.349C689.688 112.004 684.431 115.528 679.797 119.547C686.095 123.354 692.702 126.628 698.937 130.533C721.487 144.653 741.821 161.094 760.866 179.635C767.977 186.559 775.341 193.469 781.271 201.447C727.908 187.239 681.429 178.804 630.693 207.991Q619.772 214.254 609.871 222.03C595.957 233.046 582.931 247.145 564.622 250.101C554.351 251.759 543.326 251.045 532.933 251.004C520.825 250.956 506.897 252.219 495.133 249.074C475.339 243.782 462.038 227.931 445.19 217.513C424.091 204.468 391.669 195.653 366.69 196.167C343.652 196.642 318.691 202.858 296.589 209.085C287.08 211.764 277.781 214.829 268.385 217.856C264.391 219.143 260.311 220.07 256.401 221.623C257.284 220.406 258.976 220.104 260.344 219.637C268.451 208.604 276.105 197.493 284.749 186.825C307.203 159.111 337.533 130.51 369.475 114.181C350.439 92.1585 312.652 68.9107 285.953 57.7715C281.045 55.7238 275.474 53.1941 270.131 52.7112C267.125 52.4394 264.842 53.1988 262.564 55.1851C248.058 67.8354 242.785 126.855 242.016 146.04C240.955 172.523 240.897 199.876 244.049 226.234Q231.791 230.505 219.395 234.358Z"/>
	<path fill="#E8FDFE" d="M432.65 123.955C432.79 123.969 432.93 123.986 433.071 123.998C436.759 124.326 440.87 123.145 444.372 124.217L444.905 124.868C442.949 126.609 434.251 125.965 431.393 125.958L432.65 123.955Z"/>
	<path fill="#E8FDFE" d="M591.609 102.15C593.614 104.071 594.726 106.211 597.854 106.069C601.559 105.9 606.168 103.824 609.441 106.526C609.574 106.636 609.686 106.768 609.808 106.889C606.798 107.808 597.382 108.538 594.714 107.129C593.627 106.556 592.578 105.892 591.537 105.242C589.279 105.443 587.032 105.824 584.81 105.254L584.344 104.741L584.118 102.073C586.962 103.131 588.723 102.996 591.609 102.15Z"/>
	<path fill="#E8FDFE" d="M421.1 120.062L421.79 119.86C422.51 119.645 423.162 119.366 423.851 119.073C425.544 118.353 427.172 117.829 428.958 118.513C429.799 119.619 429.843 119.903 430.033 121.293C427.874 121.355 424.448 120.994 422.51 121.87C416.379 123.77 410.092 119.102 404.589 123.913C403.604 123.954 403.483 124.168 402.688 123.51L402.946 121.847C406.322 117.502 412.874 121.984 416.99 120.03C418.17 119.47 417.517 119.677 418.709 119.31C419.718 119 420.205 119.594 421.1 120.062Z"/>
	<path fill="#FAFEFD" d="M430.834 122.739L431.455 122.473L432.65 123.955L431.393 125.958C429.125 127.108 427.051 128.263 424.485 128.562C424.294 128.584 424.104 128.614 423.913 128.633C421.56 128.856 418.923 128.128 416.612 127.679C415.013 128.406 413.349 129.33 411.676 129.844L410.23 129.754L407.671 127.752C404.312 127.806 401.552 129.528 398.324 129.887C393.916 130.378 388.096 128.907 384.097 130.922C383.088 131.43 382.374 131.723 381.265 131.955L380.786 131.41C382.855 126.48 394.567 128.822 399.326 127.999C401.306 127.656 403.295 126.625 405.118 125.8C406.489 125.89 407.258 126.014 408.468 126.691C409.404 127.215 410.108 127.517 411.18 127.727C412.015 127.194 413.308 126.199 414.252 125.976C417.88 125.118 423.001 127.463 427.722 125.716C429.424 125.086 430.157 124.392 430.834 122.739Z"/>
	<path fill="#FAFEFD" d="M558.709 93.9573C555.977 94.2121 553.346 94.5929 550.631 94.0364L550.505 93.5243C551.55 93.0677 552.372 92.7529 553.511 92.6367C555.013 92.4835 556.486 92.2437 557.975 91.996C559.771 93.0349 561.48 94.0372 563.571 94.2772C566.976 94.668 570.44 95.0537 573.802 95.7267C576.679 96.3023 578.775 95.6001 581.551 94.8279C584.956 96.438 589.424 95.3039 592.522 97.2096C593.317 97.6983 593.077 97.4331 593.302 98.3432L592.869 98.8859C590.108 97.869 579.423 97.4895 576.474 98.0578C576.224 98.0659 575.975 98.0773 575.726 98.082C571.936 98.1538 569.612 95.7635 567.319 96.359C567.166 97.6371 567.368 98.2069 568.177 99.2388C569.4 100.8 571.393 101.72 573.347 101.847C574.508 101.922 575.402 101.631 576.487 101.256C577.425 102.462 577.533 102.87 579.039 103.306C579.889 102.969 580.627 102.592 581.425 102.163C582.305 101.69 582.536 101.577 583.492 101.669L584.118 102.073L584.344 104.741C581.047 103.061 580.537 105.502 577.555 105.233C574.623 104.968 572.415 103.169 568.913 103.004C567.644 101.103 566.471 99.1381 565.276 97.189C563.048 96.1915 560.884 95.0635 558.709 93.9573Z"/>
	<path fill="#E8FDFE" d="M410.23 129.754L411.676 129.844C410.2 131.081 408.961 131.927 407.012 132.203C402.311 132.87 394.392 133.916 390.416 136.649C386.383 139.42 388.807 140.112 382.276 142.253C379.059 146.187 377.28 147.711 372.244 148.802C368.864 153.152 364.909 156.69 361.266 160.778C357.512 164.99 354.229 169.675 350.659 174.047C349.763 175.144 349.233 175.448 347.835 175.579L347.586 175.033C348.443 172.904 350.764 170.736 352.194 168.924C354.822 165.596 357.264 161.991 360.08 158.828C363.821 154.626 368.021 151.003 371.695 146.659C374.724 145.872 376.392 145.728 378.333 143.184C381.546 138.973 381.975 141.126 385.775 139.468C386.76 139.038 387.128 138.182 387.546 137.275C387.973 136.346 388.378 135.58 388.986 134.745C393.675 132.632 400.462 131.222 405.58 130.603C407.172 130.411 408.671 130.129 410.23 129.754Z"/>
	<path fill="#E8FDFE" d="M372.929 133.944L373.486 134.222L373.668 134.911C371.812 136.81 369.092 137.938 366.81 139.267C365.013 140.314 350.633 149.461 350.248 149.862C349.011 151.149 348.061 153.116 347.157 154.66C345.913 154.957 344.381 155.219 343.297 155.914C342.254 156.583 331.149 165.923 330.448 166.728C328.743 168.686 327.605 171.328 325.517 172.937C323.297 174.648 319.807 174.713 317.789 176.605C316.032 178.252 314.508 180.514 312.992 182.396C308.885 187.494 304.879 191.945 299.379 195.565L298.889 195.375L298.684 194.687C301.5 191.669 304.546 188.868 307.329 185.819C313.503 179.055 318.042 172.762 327.033 169.615C329.673 163.158 333.092 163.32 337.459 158.827C338.731 157.519 339.731 155.715 340.708 154.178C341.666 154.013 342.636 153.858 343.581 153.631C345.784 153.102 346.785 152.015 347.893 150.121C348.766 148.629 349.742 147.289 350.786 145.913C359.566 143.962 364.189 137.753 372.929 133.944Z"/>
	<path fill="#061B55" d="M630.192 148.189C636.207 147.179 646.814 147.39 652.199 150.744C654.545 152.205 656.256 154.408 656.819 157.143C657.683 161.341 655.686 165.641 653.442 169.078C644.251 183.154 627.203 190.506 611.379 193.843Q610.808 193.952 610.234 194.039C603.198 195.1 592.408 195.216 586.542 190.615C584.61 189.099 583.465 187.011 583.198 184.572C582.623 179.318 585.638 174.092 588.792 170.104C598.351 158.019 615.072 149.91 630.192 148.189Z"/>
	<path fill="#061B55" d="M422.214 151.096C433.095 150.112 444.692 152.59 454.676 156.872C466.643 162.005 480.452 171.138 485.235 183.911C486.318 186.803 486.741 189.921 485.336 192.786C483.413 196.706 479.854 198.221 476.003 199.61C466.458 202.233 455.867 200.587 446.798 196.996C433.763 191.834 420.166 179.971 414.777 166.823C413.489 163.679 412.56 160.066 414.079 156.827C415.665 153.446 418.885 152.193 422.214 151.096Z"/>
	<path fill="#B5FDFC" d="M582.367 358.554C586.495 363.429 591.134 372.123 595.381 377.846C614.625 403.78 637.865 421.144 669.118 430.222C699.71 439.109 734.987 435.213 762.795 419.785C800.957 398.614 821.256 360.042 827.69 318.12C829.717 304.915 829.758 290.809 833.549 277.993C836.586 267.724 841.958 259.414 851.527 254.282C851.159 283.547 840.457 297.618 856.972 325.547C863.933 340.707 877.46 354.929 889.943 365.576C857.718 428.824 824.023 462.519 767.278 503.79C714.328 537.16 651.484 571.668 590.447 586.748C576.129 590.286 561.841 591.671 547.399 594.152C547.276 594.108 547.13 594.104 547.029 594.021C544.068 591.573 542.717 589.856 539.023 588.359C536.684 588.998 531.54 589.984 529.895 591.646L528.307 591.333L527.821 592.069C525.878 593.286 524.778 593.818 522.422 593.605C519.21 599.318 514.86 604.687 510.676 609.718C507.394 612.455 504.37 616.092 501.575 619.337C494.909 617.872 487.974 617.121 481.224 616.082Q466.504 613.776 451.887 610.886Q447.806 610.075 443.75 609.147Q439.694 608.218 435.667 607.172Q431.64 606.126 427.645 604.964Q423.65 603.801 419.69 602.523Q415.731 601.246 411.81 599.854Q407.889 598.461 404.01 596.956Q400.131 595.451 396.297 593.834Q392.464 592.217 388.678 590.489Q384.893 588.761 381.16 586.924Q377.427 585.088 373.748 583.143Q370.07 581.199 366.449 579.149Q362.828 577.099 359.269 574.944Q355.709 572.79 352.214 570.533Q348.718 568.277 345.289 565.919Q341.861 563.562 338.502 561.107Q335.143 558.651 331.857 556.099C320.797 547.334 294.986 523.724 293.432 510.12C293.846 508.733 294.062 507.191 294.358 505.769C290.782 501.818 285.855 498.373 281.744 494.944C272.886 487.555 263.838 480.17 255.503 472.195C243.911 461.103 232.277 449.295 221.981 436.971C204.878 416.5 189.882 393.798 175.399 371.405C181.4 363.492 188.071 356.076 194.075 348.135Q214.573 321.077 231.886 291.878C237.895 337.637 252.268 388.456 290.654 417.764C316.332 437.369 350.184 444.034 381.862 439.763C416.632 435.076 445.322 418.211 466.404 390.163C473.762 380.373 479.692 369.792 485.611 359.109C486.014 359.465 486.367 359.671 486.902 359.831C493.663 361.845 579.333 360.62 582.367 358.554Z"/>
	<path fill="#5DFEFC" d="M354.482 547.622C355.654 546.966 355.769 546.969 357.126 547.379C362.655 549.05 368.218 552.237 373.498 554.6C380.72 557.833 388.166 560.762 395.578 563.527C417.072 571.542 440.353 576.064 462.852 580.321C468.49 581.387 527.125 590.645 528.307 591.333L527.821 592.069C525.878 593.286 524.778 593.818 522.422 593.605C474.307 591.459 435.087 584.995 390.421 566.031C378.246 560.862 365.472 555.024 354.482 547.622Z"/>
	<path fill="#061B55" d="M533.145 443.837C546.046 449.589 552.001 461.951 567.968 465.492C583.943 469.034 589.567 460.482 601.306 453.132C602.451 453.158 603.164 453.287 604.038 454.185C604.866 455.033 604.855 456.027 604.618 457.102C603.9 460.352 598.119 464.415 595.504 466.253C586.841 472.343 577.014 474.166 566.685 472.437C567.586 484.663 565.897 497.511 558.502 507.655C553.014 515.183 545.857 519.251 536.718 520.623C528.302 521.218 520.722 519.846 514.028 514.234C501.863 504.034 497.948 487.989 496.508 472.927C484.719 473.15 473.987 470.738 465.133 462.4C463.649 461.003 461.557 459.203 461.502 457.034C461.879 456.311 461.958 455.91 462.679 455.451C463.737 454.778 464.793 454.618 465.962 455.059C467.654 455.697 469.199 457.212 470.616 458.316C475.328 461.987 480.278 464.785 486.244 465.771C499.599 467.977 512.616 461.323 522.609 452.983C526.184 450 529.351 446.553 533.145 443.837Z"/>
	<path fill="#E41A01" d="M533.504 451.315C536.071 452.742 538.482 455.8 540.582 457.897C547.589 464.895 554.452 468.211 563.755 471.457C562.496 482.787 560.626 495.695 553.074 504.771C547.507 511.461 540.893 513.678 532.541 514.405C526.121 514.038 521.417 512.849 516.528 508.316C507.27 499.733 502.499 484.45 501.943 472.164C514.868 465.959 523.537 462.266 533.504 451.315Z"/>
	<path fill="#061B55" d="M529.783 463.614C530.579 463.769 531.212 464.011 531.962 464.308C535.546 468.537 534.099 484.556 533.835 490.352C532.403 490.045 531.388 490.121 530.477 488.833C528.336 485.808 529.341 467.876 529.783 463.614Z"/>
	<path fill="#061B55" d="M526.251 369.732C537.931 369.518 558.328 369.237 569.228 373.283C574.617 375.284 579.159 378.875 581.503 384.218C583.909 389.703 584.39 397.35 582.212 402.929C576.262 418.176 551.863 424.526 538.329 430.728C536.78 431.312 535.132 431.713 533.539 432.169C528.502 430.63 523.534 427.755 518.66 425.707C509.571 421.888 498.466 419.58 490.932 412.936C485.534 408.176 481.742 401.443 481.442 394.152C481.201 388.301 482.705 382.452 486.798 378.121C496.082 368.301 513.728 370.066 526.251 369.732Z"/>
	<path fill="#FAFEFD" d="M502.071 380.152C505.63 379.921 509.2 379.947 512.121 382.245C513.557 383.375 514.958 385.133 515.027 387.043C515.076 388.373 514.816 389.406 513.88 390.394C512.407 391.951 510.678 392.367 508.625 392.521C505.493 392.545 502.026 392.735 499.04 391.73C496.825 390.984 494.353 389.625 493.45 387.327C493.065 386.346 493.1 385.279 493.661 384.369C495.319 381.678 499.187 380.579 502.071 380.152Z"/>
	<path fill="#E41A01" d="M294.358 505.769C306.983 516.65 321.815 525.892 335.635 535.203C341.728 539.308 347.985 544.295 354.482 547.622C365.472 555.024 378.246 560.862 390.421 566.031C435.087 584.995 474.307 591.459 522.422 593.605C519.21 599.318 514.86 604.687 510.676 609.718C507.394 612.455 504.37 616.092 501.575 619.337C494.909 617.872 487.974 617.121 481.224 616.082Q466.504 613.776 451.887 610.886Q447.806 610.075 443.75 609.147Q439.694 608.218 435.667 607.172Q431.64 606.126 427.645 604.964Q423.65 603.801 419.69 602.523Q415.731 601.246 411.81 599.854Q407.889 598.461 404.01 596.956Q400.131 595.451 396.297 593.834Q392.464 592.217 388.678 590.489Q384.893 588.761 381.16 586.924Q377.427 585.088 373.748 583.143Q370.07 581.199 366.449 579.149Q362.828 577.099 359.269 574.944Q355.709 572.79 352.214 570.533Q348.718 568.277 345.289 565.919Q341.861 563.562 338.502 561.107Q335.143 558.651 331.857 556.099C320.797 547.334 294.986 523.724 293.432 510.12C293.846 508.733 294.062 507.191 294.358 505.769Z"/>
	<path fill="#B5FDFC" d="M0 0L1024 0L1024 470.557L1004.54 470.481C985.033 443.467 965.123 416.352 942.216 392.08C934.4 383.799 926.033 376.047 917.655 368.342C907.284 358.806 896.54 349.487 885.069 341.29C877.503 335.884 868.887 329.474 860.214 326.038C862.017 314.969 862.449 303.516 863.386 292.34C864.44 279.76 866.386 266.424 865.44 253.813C864.98 247.687 863.64 241.119 860.894 235.582C855.805 225.323 845.556 222.806 835.579 219.415L831.438 217.622C835.314 164.115 834.572 114.188 822.837 61.5535C821.311 54.7107 820.178 44.1161 815.618 38.681C812.923 35.4676 808.709 34.5942 804.706 34.3762C766.152 32.2764 706.104 57.0055 673.118 75.7033C665.654 79.934 658.367 84.5973 651.208 89.3251C647.371 91.8596 643.61 94.7261 639.602 96.9741C610.19 89.7278 578.969 84.1225 548.586 83.8751C524.478 83.6789 499.877 86.5957 476.022 89.953L439.534 95.36C430.11 96.7952 420.668 98.5131 411.123 98.8019Q405.349 93.3826 399.283 88.2929Q393.217 83.2032 386.877 78.4588Q380.537 73.7144 373.943 69.33Q367.349 64.9457 360.521 60.9349C334.803 45.7094 288.348 26.0177 257.778 26.8699C253.331 26.9939 248.877 27.9619 245.688 31.2713C239.422 37.7732 235.882 47.9943 232.949 56.3628C217.758 99.7032 213.408 148.826 215.329 194.47C215.878 207.514 216.288 221.614 219.395 234.358C217.847 234.669 216.267 235.062 214.704 235.264C207.269 237.365 201.863 241.844 198.114 248.579C188.676 265.532 194.91 312.09 199.68 331.081C203.33 327.969 211.935 314.73 214.605 310.177C220.863 303.187 225.371 294.372 230.327 286.425C231.08 288.288 231.626 289.881 231.886 291.878Q214.573 321.077 194.075 348.135C188.071 356.076 181.4 363.492 175.399 371.405C189.882 393.798 204.878 416.5 221.981 436.971C232.277 449.295 243.911 461.103 255.503 472.195C263.838 480.17 272.886 487.555 281.744 494.944C285.855 498.373 290.782 501.818 294.358 505.769C294.062 507.191 293.846 508.733 293.432 510.12C272.289 495.087 253.892 477.771 235.644 459.403L233.654 457.254Q225.995 448.507 218.182 439.896C179.18 438.731 141.774 452.144 113.262 479.004C101.378 490.199 91.8831 502.808 84.6656 517.454C56.462 517.603 28.196 518.292 0 517.872L0 488.451L0 0Z"/>
	<path fill="#0541EE" d="M214.704 235.264C211.709 222.556 211.136 208.88 210.541 195.881C208.515 151.581 212.338 105.387 225.091 62.7831C228.616 51.0098 232.92 37.5958 241.427 28.4307C245.826 23.692 250.286 21.7188 256.735 21.4958C268.184 21.1001 280.558 23.8959 291.625 26.7048C337.66 38.3897 378.943 62.2711 413.779 94.384C464.465 86.5677 516.032 76.0353 567.535 79.5136C591.753 81.1491 615.442 85.8894 639.035 91.346C649.512 84.3072 659.9 76.9689 670.907 70.7728C706.273 50.8642 750.202 32.7879 790.956 29.8165C796.477 29.414 802.247 28.9229 807.759 29.5294C812.626 30.0651 816.799 31.5884 819.848 35.5697C824.929 42.2037 826.321 52.7422 828.086 60.7371C838.268 106.879 842.248 172.423 835.579 219.415L831.438 217.622C835.314 164.115 834.572 114.188 822.837 61.5535C821.311 54.7107 820.178 44.1161 815.618 38.681C812.923 35.4676 808.709 34.5942 804.706 34.3762C766.152 32.2764 706.104 57.0055 673.118 75.7033C665.654 79.934 658.367 84.5973 651.208 89.3251C647.371 91.8596 643.61 94.7261 639.602 96.9741C610.19 89.7278 578.969 84.1225 548.586 83.8751C524.478 83.6789 499.877 86.5957 476.022 89.953L439.534 95.36C430.11 96.7952 420.668 98.5131 411.123 98.8019Q405.349 93.3826 399.283 88.2929Q393.217 83.2032 386.877 78.4588Q380.537 73.7144 373.943 69.33Q367.349 64.9457 360.521 60.9349C334.803 45.7094 288.348 26.0177 257.778 26.8699C253.331 26.9939 248.877 27.9619 245.688 31.2713C239.422 37.7732 235.882 47.9943 232.949 56.3628C217.758 99.7032 213.408 148.826 215.329 194.47C215.878 207.514 216.288 221.614 219.395 234.358C217.847 234.669 216.267 235.062 214.704 235.264Z"/>
	<path fill="#0541EE" d="M214.605 310.177C220.863 303.187 225.371 294.372 230.327 286.425C231.08 288.288 231.626 289.881 231.886 291.878Q214.573 321.077 194.075 348.135C188.071 356.076 181.4 363.492 175.399 371.405C189.882 393.798 204.878 416.5 221.981 436.971C232.277 449.295 243.911 461.103 255.503 472.195C263.838 480.17 272.886 487.555 281.744 494.944C285.855 498.373 290.782 501.818 294.358 505.769C294.062 507.191 293.846 508.733 293.432 510.12C272.289 495.087 253.892 477.771 235.644 459.403L233.654 457.254Q225.995 448.507 218.182 439.896C179.18 438.731 141.774 452.144 113.262 479.004C101.378 490.199 91.8831 502.808 84.6656 517.454C56.462 517.603 28.196 518.292 0 517.872L0 488.451C3.4928 482.44 5.95088 475.643 8.73689 469.27Q14.8989 455.38 21.2958 441.596C37.6118 406.254 80.9456 316.919 115.669 300.819C130.533 312.653 149.994 370.647 160.502 389.897C164.938 385.177 168.834 379.885 172.73 374.719C172.631 374.593 172.535 374.464 172.432 374.341C171.6 373.344 170.244 372.178 170.421 370.729C170.925 366.59 199.539 335.468 199.68 331.081C203.33 327.969 211.935 314.73 214.605 310.177Z"/>
	<path fill="#FAFEFD" d="M133.617 389.739C134.396 389.766 134.9 389.871 135.64 390.074C137.809 392.886 138.027 398.946 137.824 402.379C137.424 402.196 136.882 402.027 136.555 401.68C134.639 399.643 133.967 392.569 133.617 389.739Z"/>
	<path fill="#FAFEFD" d="M125.157 347.657C125.375 347.792 126.125 348.215 126.368 348.474C128.425 350.666 128.671 358.441 129.026 361.555C128.262 361.186 127.382 360.833 126.876 360.11C124.934 357.334 124.687 350.908 125.157 347.657Z"/>
	<path fill="#FAFEFD" d="M122.888 367.757L124.281 368.426C126.302 371.008 125.455 377.502 125.244 380.686L123.546 379.89C121.557 377.056 122.557 371.09 122.888 367.757Z"/>
	<path fill="#FAFEFD" d="M135.771 367.675C137.834 369.161 138.371 373.128 138.926 375.553C139.495 378.04 140.208 380.056 138.787 382.335C136.551 380.365 135.081 372.502 134.8 369.45C134.714 368.514 135.191 368.347 135.771 367.675Z"/>
</svg>
