<?xml version="1.0" encoding="utf-8" ?>
<svg xmlns="http://www.w3.org/2000/svg" xmlns:xlink="http://www.w3.org/1999/xlink" width="1024" height="1024">
	<path fill="#05131F" d="M0 0L96.9735 0L851.083 0L865.873 0L935.563 0L940.947 0L1024 0L1024 895.934L1024 903.589L1024 954.445L1024 962.389L1024 988.169L1024 996.327L1024 1024L990.727 1024L945.773 1024L938.202 1024L890.651 1024L879.178 1024L807.061 1024L784.057 1024L773.615 1024L732.322 1024L684.474 1024L674.509 1024L489.894 1024L481.182 1024L451.479 1024L446.428 1024L430.226 1024L420.725 1024L406.896 1024L396.051 1024L377.056 1024L367.171 1024L314.186 1024L269.589 1024L34.1268 1024L0 1024L0 0Z"/>
	<path fill="#0D7C90" d="M103.985 490.801C104.212 491.045 104.472 491.263 104.667 491.534C106.619 494.249 107.113 510.074 106.898 513.989C105.648 513.651 104.761 513.701 104.154 512.418C102.446 508.81 103.098 494.87 103.985 490.801Z"/>
	<path fill="#0D7C90" d="M210.767 127.335C211.525 128.09 211.731 128.41 211.995 129.436C213.216 134.184 214.816 143.774 212.281 148.12C211.805 147.941 211.287 147.561 210.847 147.297C207.825 142.636 209.726 132.505 210.767 127.335Z"/>
	<path fill="#0D7C90" d="M124.627 274.333L125.164 274.812C127.265 280.349 129.004 290.245 127.14 295.918C126.268 295.828 125.665 295.679 124.842 295.416C121.915 291.458 124.215 279.157 124.627 274.333Z"/>
	<path fill="#0D7C90" d="M1012.37 931.683C1013.12 931.558 1012.7 931.597 1013.79 931.653C1015.05 931.719 1014.85 931.871 1015.65 932.746L1015.4 933.511C1011.63 936.767 1002.15 938.617 997.243 939.775C996.165 939.718 995.364 939.718 994.355 939.289C993.559 938.95 993.678 938.758 993.379 938.02C993.483 937.876 993.571 937.719 993.692 937.588C996.938 934.062 1007.74 932.249 1012.37 931.683Z"/>
	<path fill="#0D7C90" d="M313.031 728.359C314.263 729.122 314.596 729.355 314.903 730.794C315.784 734.931 316.896 751.031 314.809 754.127C313.746 753.746 312.909 753.485 312.367 752.415C310.528 748.783 311.565 732.46 313.031 728.359Z"/>
	<path fill="#0D7C90" d="M127.603 934.649C132.726 934.38 144.153 933.719 148.269 937.365L148.049 938.277L146.389 939.092C142.859 939.718 139.178 939.523 135.625 939.226C132.918 939 127.271 938.753 125.492 936.663C126.011 935.285 126.281 935.356 127.603 934.649Z"/>
	<path fill="#0D7C90" d="M1024 988.169L1024 996.327C1020.17 996.55 1016.15 996.991 1012.33 996.728C1010.52 996.604 1008.95 996.452 1007.73 995.048L1008.14 994.038C1012.32 990.49 1018.78 989.343 1024 988.169Z"/>
	<path fill="#0D7C90" d="M67.2556 916.677C69.5537 916.627 71.8673 916.708 74.1643 916.79C76.9845 916.891 81.0871 916.903 83.0603 919.034C83.3502 920.402 83.4542 920.365 82.7354 921.544C80.8959 922.39 78.5817 922.13 76.5879 922.134C72.3163 922.163 64.8355 923.08 61.2849 920.638C60.5511 920.133 60.7289 919.945 60.6222 919.148C62.3703 917.102 64.7487 917.01 67.2556 916.677Z"/>
	<path fill="#0D7C90" d="M123.054 316.777C125.395 319.516 126.428 334.866 126.599 338.814C126.717 341.545 127.053 344.031 125.111 346.169C123.844 345.766 122.883 345.667 122.146 344.437C119.809 340.539 122.142 321.976 123.054 316.777Z"/>
	<path fill="#0D7C90" d="M954.84 442.206C955.878 442.349 956.879 442.366 957.527 443.306C959.777 446.569 959.452 452.928 959.189 456.794C959.002 459.559 958.801 460.363 956.721 462.186C955.85 461.85 955.111 461.415 954.315 460.93C952.913 458.944 952.615 456.438 952.441 454.056C952.165 450.285 952.292 445.137 954.84 442.206Z"/>
	<path fill="#0D7C90" d="M234.35 794.219C237.152 797.254 237.524 814.981 237.468 819.829C237.439 822.402 237.374 823.257 235.497 825.09C234.807 824.772 234.08 824.606 233.619 823.967C231.265 820.701 233.343 798.88 234.35 794.219Z"/>
	<path fill="#0D7C90" d="M94.3928 689.248L95.176 689.917C97.9904 698.163 99.5445 713.78 97.5562 722.304C95.9645 722.307 95.9176 722.402 94.7106 721.395C92.5518 716.256 93.6632 695.338 94.3928 689.248Z"/>
	<path fill="#0D7C90" d="M343.444 691.166L344.553 691.926C344.984 692.762 345.197 693.397 345.354 694.336C346.172 699.205 347.26 716.486 346.435 721.108C346.27 722.036 345.794 722.687 345.252 723.431C343.934 722.679 343.215 722.193 342.526 720.751C340.471 716.45 341.844 696.022 343.444 691.166Z"/>
	<path fill="#0D7C90" d="M952.052 401.168C952.837 401.346 953.562 401.508 954.231 401.991C956.453 403.592 956.97 407.364 957.23 409.872C957.591 413.354 957.997 419.227 955.773 421.989C954.737 421.82 953.344 421.702 952.465 421.098C951.295 420.294 950.671 418.603 950.319 417.291C948.987 412.315 949.596 405.679 952.052 401.168Z"/>
	<path fill="#0D7C90" d="M112.14 401.213C112.868 401.785 113.077 402.08 113.377 402.99C115.106 408.248 117.17 423.912 116.787 429.321C116.699 430.565 116.229 431.562 115.697 432.672C115.359 432.705 115.023 432.772 114.684 432.773C113.535 432.773 112.736 432.435 112.08 431.453C109.278 427.262 111.459 406.874 112.14 401.213Z"/>
	<path fill="#0D7C90" d="M348.216 970.577C353.16 970.226 357.894 969.966 362.65 971.668C364.372 972.284 366.385 973.065 367.209 974.811C367.065 974.975 366.937 975.155 366.777 975.304C365.223 976.755 362.018 976.619 359.968 976.749C354.612 976.643 344.905 977.089 340.233 974.551L340.105 973.762C342.316 971.702 345.357 971.169 348.216 970.577Z"/>
	<path fill="#0D7C90" d="M161.93 759.615L163.088 760.312C165.193 765.768 167.653 791.739 165.771 796.804C164.302 796.757 163.624 796.655 162.49 795.692C160.731 791.537 161.354 765.422 161.93 759.615Z"/>
	<path fill="#0D7C90" d="M175.146 226.307C175.638 227.294 175.757 228.289 175.905 229.371C176.969 237.162 178.841 259.888 178.26 267.488C178.155 268.872 177.94 269.798 177.084 270.933C176.078 270.089 175.116 269.113 174.567 267.902C171.888 261.998 172.792 232.658 175.146 226.307Z"/>
	<path fill="#0D7C90" d="M269.589 1024C275.016 1019.05 284.202 1018.65 291.189 1018.97C298.735 1019.3 307.313 1020.78 314.186 1024L269.589 1024Z"/>
	<path fill="#0D7C90" d="M193.427 931.595C197.7 931.409 201.787 931.432 206.031 932.007C210.791 932.653 221.507 934.55 224.519 938.523C224.498 939.859 224.416 939.796 223.489 940.784L223.134 940.778C215.49 940.689 202.976 937.754 195.773 935.156C194.263 934.611 193.027 934.214 192.327 932.719L193.427 931.595Z"/>
	<path fill="#0D7C90" d="M1024 954.445L1024 962.389C1017.12 963.457 1009.36 965.191 1002.4 964.667C1000.58 964.529 998.734 964.326 997.526 962.904C997.601 962.761 997.656 962.606 997.75 962.475C1000.25 959.01 1019.1 955.441 1024 954.445Z"/>
	<path fill="#0D7C90" d="M206.748 178.691C207.167 179.122 207.534 179.461 207.742 180.045C209.749 185.692 212.191 209.045 211.81 215.12C211.72 216.56 211.239 217.862 210.691 219.183L208.751 219.407C208.06 219.109 207.452 219.013 207.012 218.36C204.322 214.378 205.877 184.476 206.748 178.691Z"/>
	<path fill="#0D7C90" d="M211.232 59.8727C211.414 60.0304 211.605 60.1854 211.747 60.3803C213.559 62.8701 214.843 90.1547 214.484 95.0531C214.277 97.8848 214.055 99.3149 211.848 101.209C210.991 100.799 210.487 100.58 209.915 99.7927C206.93 95.6785 209.802 65.1421 211.232 59.8727Z"/>
	<path fill="#0D7C90" d="M106.977 629.201C107.633 629.681 107.941 630.038 108.327 630.787C111.308 636.566 115.373 656.821 112.819 662.757C111.918 663.108 111.136 663.263 110.19 663.438C108.974 662.947 108.334 662.645 107.691 661.445C105.464 657.294 105.714 633.992 106.977 629.201Z"/>
	<path fill="#0D7C90" d="M234.187 650.221L235.175 650.911C237.104 657.008 238.258 680.164 238.472 687.296C238.556 690.091 238.441 691.327 236.503 693.434C235.472 693.274 234.924 693.058 234.057 692.476C230.515 687.171 233.052 657.794 234.187 650.221Z"/>
	<path fill="#0D7C90" d="M396.012 662.617C397.365 663.175 397.728 663.116 398.262 664.552C399.833 668.772 401.752 692.856 401.481 697.892C401.413 699.159 401.074 700.057 400.509 701.178C400.057 701.259 399.433 701.385 398.987 701.4C397.447 701.45 397.202 701.19 396.068 700.257C393.836 695.601 394.942 668.588 396.012 662.617Z"/>
	<path fill="#0D7C90" d="M61.7149 990.662C69.7572 990.071 78.9892 990.153 86.7216 992.716C88.5641 993.327 89.7787 993.965 90.6359 995.737C90.4639 996.489 90.3833 996.967 89.8587 997.566C89.3054 998.198 88.4203 998.012 87.6246 998.078C79.3008 997.968 69.6029 997.924 61.5106 996C59.7022 995.571 58.1947 995.186 57.1983 993.549L57.6776 992.226C58.8899 991.089 60.1484 990.964 61.7149 990.662Z"/>
	<path fill="#0D7C90" d="M317.196 993.211C329.183 992.125 342.022 994.782 352.731 1000.11C346.759 1000.04 340.69 999.352 334.729 998.914C322.041 997.652 309.135 998.218 296.527 996.63C303.32 994.431 310.12 993.736 317.196 993.211Z"/>
	<path fill="#0D7C90" d="M145.471 117.765C147.846 121.557 147.803 166.924 147.63 174.541C147.559 177.658 147.765 180.865 145.353 183.145C144.947 182.769 144.299 182.237 144.032 181.724C141.602 177.078 143.92 124.663 145.471 117.765Z"/>
	<path fill="#0D7C90" d="M248.798 965.712C259.883 964.541 277.932 966.521 288.118 971.256Q278.373 971.005 268.625 970.995C254.987 970.903 241.365 971.739 227.736 971.469C234.354 966.809 240.963 966.306 248.798 965.712Z"/>
	<path fill="#0D7C90" d="M127.867 977.665C141.624 976.398 157.058 978.508 169.775 983.945C166.814 984.217 163.846 984.207 160.875 984.235C153.146 983.949 125.053 985.319 120.067 981.872C119.418 981.422 119.616 981.517 119.542 980.667C121.725 978.453 124.921 978.017 127.867 977.665Z"/>
	<path fill="#0D7C90" d="M73.1618 948.101C86.7787 947.298 101.782 950.486 113.415 957.681C110.564 957.804 107.722 957.623 104.874 957.481C99.956 956.841 67.086 954.312 66.2499 953.933C66.0123 953.825 65.8964 953.549 65.7197 953.357L65.8381 952.367C67.5997 950.137 70.5362 948.967 73.1618 948.101Z"/>
	<path fill="#0D7C90" d="M378.145 734.762L379.058 735.482C380.744 740.368 383.281 772.621 383.462 780.084C383.526 782.743 383.527 784.364 381.641 786.362C381.445 786.339 381.249 786.324 381.054 786.293C379.479 786.044 377.941 785.631 377.066 784.177C375.113 780.936 376.758 740.137 378.145 734.762Z"/>
	<path fill="#0D7C90" d="M269.574 702.155C269.743 702.245 269.929 702.308 270.08 702.426C272.237 704.111 274.688 742.17 274.485 747.271C274.382 749.85 274.187 751.097 272.247 752.902C271.988 752.857 271.728 752.822 271.471 752.767C269.831 752.418 268.579 751.828 267.823 750.234C265.799 745.97 267.86 707.152 269.574 702.155Z"/>
	<path fill="#0D7C90" d="M1024 895.934L1024 903.589C1013.42 905.906 1002.36 910.17 991.653 911.216C989.505 911.426 985.882 911.867 984.164 910.443L984.333 909.565C989.955 902.834 1015.25 898.067 1024 895.934Z"/>
	<path fill="#0D7C90" d="M176.854 954.221C179.178 954.064 181.558 954.114 183.882 954.23C188.518 954.462 202.958 955.619 205.674 959.189C206.121 959.777 205.931 959.722 205.782 960.555C203.363 962.728 191.331 961.228 187.542 961.08C177.465 960.892 166.535 962.061 156.634 960.222C156.838 959.982 157.039 959.74 157.246 959.503C161.941 954.137 170.295 954.663 176.854 954.221Z"/>
	<path fill="#0D7C90" d="M344.577 919.191C351.956 918.468 371.647 919.389 377.735 923.936C378.95 924.844 379.127 925.854 379.436 927.239C379.125 928.51 379.195 928.531 378.137 929.278C375.64 929.719 373.201 929.009 370.75 928.515C358.138 926.585 345.218 925.484 332.716 923.031C336.704 920.706 339.992 919.68 344.577 919.191Z"/>
	<path fill="#0D7C90" d="M129.873 1011.7C132.841 1011.11 136.999 1011.14 139.772 1012.37C141.087 1012.95 141.844 1013.61 142.352 1014.94L141.669 1016.11C136.14 1019.45 118.094 1020.99 111.106 1021.88C107.262 1022.23 100.592 1023.39 97.0341 1021.9C96.9829 1020.96 96.8007 1021.06 97.2958 1020.42C100.707 1016.02 123.917 1012.45 129.873 1011.7Z"/>
	<path fill="#0D7C90" d="M199.197 661.894L199.745 662.539C201.211 671.283 203.937 709.433 201.832 716.137C200.863 717.284 199.983 717.436 198.595 717.774C197.427 717.15 195.648 716.18 195.126 714.847C192.631 708.47 196.591 669.444 199.197 661.894Z"/>
	<path fill="#0D7C90" d="M115.298 906.701C127.353 904.708 150.71 907.831 161.828 913.243C163.619 914.115 166.332 915.37 167.019 917.379L166.346 918.269C164.002 919.124 161.532 918.622 159.098 918.382C140.748 915.57 122.648 911.458 104.31 908.513C107.966 907.577 111.552 907.102 115.298 906.701Z"/>
	<path fill="#0D7C90" d="M950.122 312.86C953.265 316.804 956.525 373.787 956.018 382.119C955.877 384.427 955.139 385.093 953.508 386.558C951.86 386.405 950.348 385.959 949.251 384.628C948.029 383.147 947.741 381.022 947.566 379.18C946.401 366.859 947.974 353.59 948.706 341.262C949.268 331.798 949.349 322.306 950.122 312.86Z"/>
	<path fill="#FBFDFA" d="M167.779 493.716C177.714 496.609 187.522 500.933 197.236 504.541Q221.161 513.459 245.728 520.418C251.648 522.037 257.826 524.149 263.914 524.934C275.737 527.133 287.391 530.452 299.248 532.667C308.761 534.444 318.589 534.968 327.977 537.282C306.562 538.163 286.263 532.7 265.429 528.632C241.063 523.576 187.567 507.258 167.779 493.716Z"/>
	<path fill="#0D7C90" d="M206.65 993.707C214.172 992.977 237.807 993.467 244.11 997.472C245.11 998.108 245.569 998.756 245.785 999.918C245.956 1000.84 245.744 1000.79 245.241 1001.47C241.149 1002.07 236.679 1001.35 232.536 1001.2C227.57 1001.02 222.623 1001.09 217.656 1001.21C206.459 1001.5 189.13 1004.44 178.963 1003.2L179.222 1002.56L178.619 1003.02C178.434 1002.2 178.515 1001.97 179.023 1001.25C183.304 995.131 199.713 994.255 206.65 993.707Z"/>
	<path fill="#086177" d="M955.124 479.857C956.183 479.892 957.352 479.794 958.153 480.623C962.643 485.274 964.105 510.393 963.449 517.017C963.072 520.821 962.344 523.037 959.36 525.485C957.343 525.692 955.416 525.754 953.773 524.388C951.984 522.9 951.649 519.631 951.438 517.468C950.745 510.363 950.836 489.562 953.038 483.134C953.468 481.879 954.288 480.865 955.124 479.857Z"/>
	<path fill="#0D7C90" d="M271.158 936.706C283.527 935.725 309.85 936.195 320.653 941.312C322.056 941.976 323.517 943.287 323.973 944.803C324.211 945.592 324.066 945.411 323.592 946.255C319.946 948.122 313.403 946.717 309.379 946.369Q292.239 944.724 275.025 944.297C268.664 944.102 260.966 944.732 254.791 943.43L254.537 942.487C254.779 942.072 254.907 941.808 255.194 941.446C258.891 936.778 265.808 937.099 271.158 936.706Z"/>
	<path fill="#086177" d="M940.693 229.132C941.568 229.475 941.986 229.73 942.589 230.487C947.517 236.668 950.286 275.583 948.677 283.958C948.244 286.214 947.257 287.138 945.459 288.384C943.785 288.511 941.758 288.894 940.22 288.042C938.482 287.081 937.957 285.383 937.573 283.571C935.691 274.699 936.624 243.024 938.578 234.13C938.999 232.213 939.607 230.763 940.693 229.132Z"/>
	<path fill="#086177" d="M907.669 304.324L909.476 304.587C910.044 304.994 910.441 305.385 910.774 306.009C913.761 311.616 918.27 351.87 915.795 357.644C914.881 359.774 913.407 360.305 911.389 361.11C909.341 360.988 907.119 360.837 905.515 359.38C903.426 357.485 903.05 353.211 902.815 350.527C901.876 339.789 900.879 312.33 907.669 304.324Z"/>
	<path fill="#FBFDFA" d="M274.551 547.045C221.022 541.13 166.996 540.744 113.262 538.022L112.674 537.344C116.184 535.128 125.401 535.966 129.66 535.843C160.439 534.958 191.681 536.161 222.373 538.577C239.311 539.91 256.327 542.325 273.292 542.997C281.667 543.63 290.027 544.642 298.379 545.523C306.362 546.365 314.311 546.928 322.154 548.725C306.307 549.047 290.391 547.358 274.551 547.045Z"/>
	<path fill="#FBFDFA" d="M285.669 565.345C300.866 562.153 317.865 556.264 333.288 555.807C324.728 559.008 315.675 561.143 306.869 563.548C300.527 565.281 294.21 567.406 287.8 568.84C278.712 570.936 269.731 573.71 260.682 576C220.136 586.264 153.12 603.219 113.024 594.272C121.132 593.559 129.443 593.762 137.585 593.357Q156.454 592.357 175.138 589.533C202.551 585.493 229.82 578.925 256.741 572.441C266.397 570.115 275.952 567.419 285.669 565.345Z"/>
	<path fill="#086177" d="M851.083 0L865.873 0C866.2 10.7395 871.08 55.1651 865.523 61.4164C864.25 62.848 862.479 63.5785 860.576 63.6138C858.397 63.6543 856.16 62.6857 854.651 61.1189C849.167 55.4258 850.937 10.5836 851.083 0Z"/>
	<path fill="#FBFDFA" d="M186.223 363.193C204.702 372.466 216.058 372.756 235.894 368.005C255.937 364.041 275.872 368.219 292.882 379.616C313.971 393.747 328.088 419.083 332.904 443.718C333.36 446.046 333.504 448.189 333.42 450.566C329.413 433.401 320.081 416.609 308.429 403.463C290.329 383.043 266.937 374.132 239.896 375.6C230.47 376.111 220.61 377.848 211.202 377.215C200.56 376.498 192.959 371.033 186.223 363.193Z"/>
	<path fill="#FDD404" d="M231.949 389.384C243.409 388.264 254.048 388.265 265.49 389.837C257.538 410.85 255.463 431.36 264.987 452.354Q267.994 458.88 271.974 464.863C263.475 462.42 254.697 449.036 248.168 447.102L247.499 446.706L247.31 446.286C245.451 442.255 242.796 438.638 240.926 434.617C234.386 420.555 232.094 404.754 231.949 389.384Z"/>
	<path fill="#086177" d="M859.468 81.7994C861.811 84.8185 862.309 92.3726 862.818 96.0964C864.657 109.542 865.693 123.181 867.015 136.69C868.474 151.597 870.187 166.561 871.161 181.506C872.037 194.967 872.026 208.448 872.069 221.931C872.09 228.606 872.649 235.854 871.55 242.423C871.278 244.048 870.69 245.19 869.704 246.491C868.225 246.921 866.613 247.285 865.07 247.012C863.3 246.699 862.062 245.727 861.128 244.217C858.872 240.57 858.699 214.397 858.558 208.591C858.095 189.439 859.456 170.276 859.397 151.114C859.344 133.801 858.583 116.497 858.754 99.1778C858.808 93.6325 858.31 87.1568 859.468 81.7994Z"/>
	<path fill="#086177" d="M935.563 0L940.947 0C941.286 20.9557 940.921 42.0696 941.672 62.9973C942.356 82.0651 951.856 201.221 944.589 209.25C943.06 210.941 940.793 211.821 938.548 211.935C936.373 212.045 934.198 211.444 932.635 209.865C929.224 206.419 929.053 197.909 928.979 193.273C928.759 179.409 929.805 165.329 930.66 151.488C932.098 128.216 933.879 104.962 935.117 81.6788C935.692 70.8652 935.499 60.0135 935.519 49.187L935.563 0Z"/>
	<path fill="#0D7C90" d="M81.2859 872.212C105.395 870.724 137.326 874.685 160.552 881.806C183.649 888.887 206.39 898.281 230.755 899.999C261.86 902.191 291.213 890.287 321.802 887.223C341.205 885.279 362.028 886.091 381.102 890.262C384.055 890.908 388.968 891.766 391.195 893.883C392.118 894.76 392.835 896.242 392.771 897.559C392.699 899.045 392.539 899.218 391.484 900.12C388.58 900.64 384.093 899.052 381.034 898.648C352.737 894.085 325.403 893.731 297.282 899.698C279.23 903.529 261.082 908.754 242.504 908.888C198.981 909.2 167.505 888.301 126.517 882.94Q115.766 881.544 104.937 881.013C98.2048 880.667 69.875 881.369 65.5506 878.856C65.4683 877.772 65.5852 877.649 66.3842 876.853C70.6323 872.62 75.7177 872.638 81.2859 872.212Z"/>
	<path fill="#E75615" d="M481.782 90.0966C500.38 85.827 520.284 84.5066 539.32 84.324C591.879 83.8197 653.15 92.7697 698.439 121.145C704.542 124.968 710.436 129.654 715.211 135.066C716.1 142.191 717.185 149.352 717.798 156.503C714.119 153.812 710.766 150.622 707.038 147.921C696.994 140.645 685.93 133.954 675.091 127.929C637.043 106.781 588.222 93.8099 544.861 91.2465C534.286 90.6214 523.578 90.4628 512.986 90.5119C509.517 90.528 484.406 91.9183 483.011 91.1441C482.541 90.8829 482.192 90.4457 481.782 90.0966Z"/>
	<path fill="#E75615" d="M499.132 44.6923C503.255 44.0895 507.893 44.2591 512.059 44.3077Q513.412 44.3362 514.765 44.3976Q516.117 44.459 517.467 44.5534Q518.817 44.6478 520.165 44.7751Q521.513 44.9024 522.857 45.0625Q524.201 45.2226 525.541 45.4155Q526.88 45.6083 528.215 45.8338Q529.55 46.0592 530.879 46.3172Q532.207 46.5751 533.53 46.8654Q534.852 47.1556 536.166 47.478Q537.481 47.8004 538.787 48.1548Q540.094 48.5092 541.391 48.8953Q542.688 49.2814 543.976 49.6991Q545.264 50.1167 546.541 50.5656Q547.818 51.0145 549.083 51.4944Q550.349 51.9743 551.603 52.485Q552.856 52.9956 554.097 53.5367Q555.338 54.0777 556.565 54.6489Q557.792 55.22 559.005 55.8209Q560.218 56.4218 561.416 57.0521Q562.614 57.6824 563.796 58.3417Q564.978 59.0011 566.144 59.689Q567.31 60.377 568.458 61.0931Q569.607 61.8093 570.738 62.5533Q571.869 63.2972 572.981 64.0686Q574.093 64.8399 575.186 65.6381Q576.28 66.4363 577.353 67.2609Q578.427 68.0856 579.479 68.9361Q580.532 69.7867 581.564 70.6627Q582.596 71.5387 583.607 72.4395Q584.617 73.3404 585.605 74.2657Q586.593 75.1909 587.558 76.14Q588.523 77.0891 589.465 78.0614C568.85 76.2331 548.597 75.0107 527.876 75.7122C500.016 77.1347 473.449 81.6738 446.593 88.9827C449.292 79.9876 453.245 72.3906 459.11 65.0168C469.525 51.9202 482.878 46.601 499.132 44.6923Z"/>
	<path fill="#FBFDFA" d="M499.818 52.199C510.775 50.4439 532.562 52.5003 543.5 55.3745C520.71 55.4789 509.463 54.3996 487.79 64.0026C477.879 68.6786 468.785 74.4728 459.577 80.3702C462.255 75.8791 464.896 71.2492 468.189 67.1745C476.446 56.9551 487.104 53.5965 499.818 52.199Z"/>
	<path fill="#E75615" d="M535.04 43.4874C558.631 31.2695 580.531 28.8208 606.001 37.0134C630.202 44.7978 654.814 65.3906 666.232 87.9805Q668.891 93.1329 670.643 98.6595C659.102 94.329 647.592 89.6904 635.693 86.4225C623.081 82.9583 609.797 81.1162 596.825 79.6341L599.403 75.1467C594.027 69.3682 585.649 64.5135 578.964 60.2219C576.6 58.7045 573.597 57.2125 571.589 55.2728C563.474 51.8475 555.268 49.0441 546.901 46.3079Q540.934 45.0503 535.04 43.4874Z"/>
	<path fill="#FBFDFA" d="M546.901 46.3079C563.693 37.4957 583.784 38.6235 601.362 44.0861C613.209 47.7678 622.886 52.9898 631.515 61.9822C614.764 52.6109 597.402 49.3981 578.266 51.9878C584.159 56.5244 589.324 60.3681 592.882 67.1076C586 62.3218 579.939 57.1869 571.589 55.2728C563.474 51.8475 555.268 49.0441 546.901 46.3079Z"/>
	<path fill="#E75615" d="M257.787 76.0035C292.007 88.8653 325.106 104.734 358.28 120.048L384.534 132.217C389.236 134.41 394.125 137.158 399.044 138.78L399.878 141.425C382.117 148.719 364.566 157.852 350.13 170.713C348.308 172.337 345.223 174.703 344.147 176.885C338.236 181.194 332.061 185.394 326.483 190.122C306.66 206.924 290.568 228.398 277.694 250.824C274.197 256.917 269.226 264.518 267.982 271.42L265.091 274.043C263.811 251.43 262.04 228.862 260.934 206.234Q259.264 165.868 258.59 125.473C258.304 109.122 256.877 92.3077 257.787 76.0035Z"/>
	<path fill="#FDD404" d="M504.606 803.019C517.401 793.946 530.52 785.24 544.494 778.076C595.622 751.866 655.129 743.634 711.725 751.756C725.044 754.991 738.378 757.667 751.11 762.902Q751.368 768.67 751.412 774.443Q747.615 773.231 743.782 772.14Q739.948 771.05 736.082 770.082Q732.215 769.114 728.32 768.27Q724.425 767.426 720.505 766.706Q716.584 765.987 712.643 765.393Q708.702 764.798 704.744 764.33Q700.786 763.862 696.815 763.52Q692.844 763.178 688.864 762.963Q684.884 762.748 680.9 762.659Q676.915 762.571 672.929 762.61Q668.944 762.649 664.962 762.815Q660.979 762.981 657.004 763.273Q653.03 763.566 649.066 763.985Q645.102 764.405 641.154 764.95Q637.206 765.495 633.277 766.166Q629.348 766.837 625.443 767.633C635.098 768.184 644.453 769.922 654.007 771.294C662.447 772.507 670.943 773.453 679.334 774.982C703.526 779.388 728.669 786.558 751.057 796.811C750.902 799.299 750.82 801.817 750.527 804.292C706.833 784.687 664.12 777.166 616.349 780.883C609.445 781.42 601.879 780.85 595.147 782.306L594.582 783.14C595.032 784.403 595.345 784.85 596.609 785.412C606.056 789.613 626.612 789.419 637.803 790.775C677.366 795.568 718.447 809.202 751.914 831.157Q751.853 837.472 751.619 843.784Q749.713 842.177 747.769 840.617Q745.825 839.058 743.843 837.546Q741.861 836.034 739.843 834.571Q737.824 833.108 735.771 831.695Q733.718 830.281 731.63 828.919Q729.543 827.556 727.423 826.245Q725.303 824.933 723.152 823.674Q721.001 822.415 718.819 821.209Q716.638 820.003 714.428 818.85Q712.217 817.698 709.98 816.599Q707.742 815.501 705.478 814.458Q703.214 813.415 700.926 812.427Q698.637 811.439 696.325 810.508Q694.013 809.576 691.679 808.702Q689.344 807.827 686.99 807.009Q684.635 806.192 682.261 805.432Q679.886 804.673 677.495 803.971Q675.103 803.27 672.694 802.627Q670.286 801.984 667.862 801.4Q665.439 800.816 663.002 800.292Q660.565 799.767 658.116 799.302Q655.667 798.838 653.208 798.433Q650.748 798.028 648.279 797.683Q645.811 797.339 643.334 797.054Q640.858 796.77 638.375 796.546Q635.892 796.323 633.405 796.16Q630.918 795.997 628.427 795.894Q625.937 795.792 623.444 795.751Q620.952 795.71 618.459 795.729Q615.967 795.749 613.475 795.829Q610.984 795.91 608.495 796.051Q606.006 796.192 603.522 796.394C596.668 796.984 565.675 800.797 562.148 805.141C561.501 805.938 561.526 806.485 561.33 807.459C561.825 808.787 561.914 808.859 563.078 809.676C568.906 810.136 579.236 806.901 585.586 806.133C611.924 802.948 640.383 807.324 664.431 818.847C660.888 820.004 654.07 818.334 650.158 818.15C640.245 817.684 630.165 817.995 620.277 818.794C641.7 824.062 664.324 837.01 676.043 856.347C676.722 857.468 677.349 858.605 677.912 859.788C669.992 853.635 662.283 847.773 653.364 843.088C628.097 829.816 594.678 824.728 566.414 828.29C529.589 832.931 497.773 850.061 474.879 879.487C455.145 904.85 441.488 935.206 428.938 964.583C420.668 983.942 412.637 1003.72 406.896 1024L396.051 1024L377.056 1024L367.171 1024C370.191 1014.25 376.967 999.899 381.244 990.264C396.393 956.136 412.403 922.106 432.244 890.425C436.683 883.336 440.924 875.76 446.348 869.387C441.105 866.083 436.67 862.569 434.083 856.71C431.296 850.401 431.484 843.101 434.109 836.771Q434.38 836.127 434.683 835.498Q434.987 834.868 435.322 834.255Q435.657 833.642 436.023 833.047Q436.389 832.452 436.785 831.876Q437.181 831.3 437.606 830.746Q438.03 830.191 438.483 829.659Q438.936 829.126 439.415 828.618Q439.894 828.109 440.398 827.626Q440.903 827.142 441.431 826.685Q441.96 826.228 442.511 825.799Q443.062 825.37 443.635 824.969Q444.207 824.568 444.799 824.197Q445.391 823.826 446.001 823.486Q446.612 823.146 447.239 822.837Q447.865 822.529 448.507 822.252Q449.149 821.976 449.804 821.733C456.395 819.226 462.873 819.194 469.275 822.125C469.288 821.959 469.299 821.794 469.314 821.629C470.033 813.632 473.883 807.603 479.949 802.606C488.941 799.238 495.78 799.466 504.606 803.019Z"/>
	<path fill="#FBFDFA" d="M484.16 804.563C485.759 804.415 487.348 804.323 488.949 804.495C491.007 804.715 493.849 805.513 495.059 807.366C495.831 808.547 496.06 809.642 495.774 811.016C495.001 814.726 491.525 816.761 488.655 818.799C486.742 819.809 484.466 820.904 482.254 820.37C480.845 820.031 479.713 819.252 478.923 818.037C477.518 815.878 477.617 812.974 478.326 810.596C479.292 807.351 481.366 806.132 484.16 804.563Z"/>
	<path fill="#FBFDFA" d="M445.485 826.082C448.519 825.847 451.824 825.498 454.558 827.111C457.673 828.949 458.493 832.338 459.422 835.568Q459.082 836.764 458.669 837.937C457.317 841.811 455.497 843.354 451.884 845.135C450.765 845.357 449.73 845.547 448.585 845.459C445.929 845.254 443.164 844.109 441.474 842C439.787 839.895 439.101 837.19 439.472 834.528C440.033 830.504 442.462 828.433 445.485 826.082Z"/>
	<path fill="#00933E" d="M601.438 773.337C600.939 774.267 590.018 777.878 588.328 778.533C577.737 782.635 567.24 786.95 557.077 792.033C519.648 810.756 489.931 834.123 463.338 866.519C463.319 866.379 463.282 866.241 463.282 866.101C463.277 861.98 475.832 843.49 478.987 839.647C505.57 807.275 559.907 777.588 601.438 773.337Z"/>
	<path fill="#00933E" d="M451.584 882.286C435.44 914.772 422.422 948.656 410.148 982.753Q405.776 995.009 401.769 1007.39C399.969 1012.94 398.397 1018.65 396.051 1024L377.056 1024C381.179 1011.04 387.05 998.632 392.595 986.235C408.842 949.911 426.861 913.683 451.584 882.286Z"/>
	<path fill="#E75615" d="M768.078 128.789C774.817 138.779 781.935 161.57 786.105 173.55C806.337 231.688 821.335 292.035 835.451 351.933C846.487 398.765 856.291 445.798 866.413 492.83L898.131 634.445L990.727 1024L945.773 1024L938.202 1024L890.651 1024L853.987 715.66Q835.189 570.043 814.581 424.67L799.798 321.915C797.845 307.917 796.272 293.864 794.274 279.873Q783.914 203.856 768.078 128.789Z"/>
	<path fill="#FDD404" d="M880.815 820.477Q881.44 820.51 882.063 820.564C883.939 820.736 885.878 821.285 886.93 823.017C887.424 823.831 887.545 824.561 887.412 825.471C887.105 827.583 885.667 828.537 884.039 829.668C881.951 829.61 880.431 829.435 878.897 827.835C877.995 826.894 877.467 825.735 877.638 824.402C877.889 822.435 879.3 821.463 880.815 820.477Z"/>
	<path fill="#FDD404" d="M888.843 689.936C891.021 689.998 893.208 690.01 894.786 691.772C895.644 692.73 896.136 693.731 895.991 695.049C895.756 697.192 894.251 698.266 892.671 699.469C892.2 699.567 892.009 699.619 891.492 699.665C889.864 699.81 888.444 699.466 887.276 698.252C886.301 697.24 885.981 696.022 886.065 694.654C886.201 692.441 887.303 691.342 888.843 689.936Z"/>
	<path fill="#FDD404" d="M938.202 1024C936.612 1016.5 935.723 1008.87 934.264 1001.34L920.752 932.802Q892.756 791.997 870.021 650.249L852.356 537.596C850.525 526.48 836.748 452.475 838.134 447.303C838.915 446.38 839.693 445.801 840.967 445.737C841.547 445.707 842.257 445.856 842.607 446.35C845.089 449.854 875.77 648.723 879.693 672.041Q901.276 803.771 927.622 934.631L940.585 999.364C942.282 1007.45 943.468 1016.1 945.773 1024L938.202 1024Z"/>
	<path fill="#00933E" d="M620.277 818.794C630.165 817.995 640.245 817.684 650.158 818.15C654.07 818.334 660.888 820.004 664.431 818.847C676.433 824.288 688.162 829.765 698.546 838.04C717.204 852.907 730.406 875.71 741.244 896.631C744.073 902.09 747.141 907.571 749.342 913.319C753.529 924.257 752.866 964.942 753.55 979.016C740.764 937.624 717.199 895.29 685.897 865.098C690.198 872.539 695.015 879.649 699.072 887.254C709.318 906.463 721.376 936.081 725.352 957.671C709.905 922.651 684.746 880.052 654.608 855.722C662.435 867.21 671.589 877.655 678.981 889.505C707.164 934.686 717.403 974.198 732.322 1024L684.474 1024L674.509 1024L489.894 1024L481.182 1024L451.479 1024L446.428 1024L430.226 1024L420.725 1024L406.896 1024C412.637 1003.72 420.668 983.942 428.938 964.583C441.488 935.206 455.145 904.85 474.879 879.487C497.773 850.061 529.589 832.931 566.414 828.29C594.678 824.728 628.097 829.816 653.364 843.088C662.283 847.773 669.992 853.635 677.912 859.788C677.349 858.605 676.722 857.468 676.043 856.347C664.324 837.01 641.7 824.062 620.277 818.794Z"/>
	<path fill="#FDD404" d="M634.016 1012.14C634.73 1012.48 635.577 1012.84 636.193 1013.34C636.822 1013.85 637.306 1014.68 637.379 1015.48C637.584 1017.68 636.105 1019.16 634.733 1020.66C633.921 1020.22 632.615 1019.62 632.007 1018.93C631.431 1018.28 631.042 1017.62 631.04 1016.74C631.035 1014.64 632.608 1013.45 634.016 1012.14Z"/>
	<path fill="#FDD404" d="M446.428 1024C448.04 1017.25 449.204 1010.17 451.251 1003.55C451.525 1010.37 451.506 1017.18 451.479 1024L446.428 1024Z"/>
	<path fill="#FDD404" d="M524.496 975.952C526.671 976.039 528.528 976.144 530.036 977.946C530.859 978.93 531.176 980.126 530.997 981.393C530.681 983.615 529.259 984.753 527.619 986.06C527.471 986.063 527.323 986.07 527.175 986.067C525.063 986.038 523.166 985.85 521.747 984.068C520.909 983.015 520.764 981.865 520.941 980.571C521.24 978.379 522.864 977.189 524.496 975.952Z"/>
	<path fill="#FDD404" d="M631.013 888.391C631.633 888.389 632.134 888.372 632.763 888.445C634.434 888.638 635.927 889.505 636.823 890.947C637.54 892.101 637.689 893.425 637.335 894.721C636.769 896.796 635.413 897.752 633.635 898.779C631.437 898.564 629.429 898.388 627.949 896.528C627.076 895.43 626.965 894.402 627.199 893.058C627.583 890.857 629.36 889.642 631.013 888.391Z"/>
	<path fill="#FDD404" d="M528.054 896.466C528.341 896.485 528.629 896.498 528.916 896.522C530.631 896.667 532.175 897.454 533.14 898.923C534.023 900.267 534.144 901.948 533.67 903.457C532.972 905.678 531.595 906.746 529.579 907.733C527.555 907.238 525.719 906.676 524.476 904.872C523.594 903.592 523.372 902.075 523.86 900.582C524.578 898.388 526.179 897.551 528.054 896.466Z"/>
	<path fill="#FDD404" d="M587.049 977.971C589.01 978.288 590.901 978.783 592.145 980.481C593.062 981.733 593.307 983.218 592.891 984.703C592.221 987.098 590.566 988.169 588.498 989.313C588.322 989.293 588.145 989.281 587.971 989.253C585.97 988.927 584.142 988.03 583.146 986.183C582.472 984.934 582.429 983.528 582.848 982.195C583.573 979.893 585.063 979.09 587.049 977.971Z"/>
	<path fill="#FDD404" d="M450.466 940.141C448.388 952.645 444.055 965.082 440.857 977.37C436.831 992.837 433.64 1008.4 430.226 1024L420.725 1024C427.046 1003.8 432.746 983.75 440.23 963.908C443.282 955.818 446.265 947.73 450.466 940.141Z"/>
	<path fill="#FDD404" d="M501.136 920.343C499.425 942.789 496.663 965.372 493.961 987.721C492.507 999.751 490.689 1011.9 489.894 1024L481.182 1024C484.317 998.9 488.116 973.675 493.382 948.933C495.399 939.459 497.24 929.247 501.136 920.343Z"/>
	<path fill="#FDD404" d="M680.953 923.905C685.307 956.208 683.505 991.219 684.474 1024L674.509 1024C674.626 1008.37 675.525 992.787 676.188 977.178C676.825 962.172 676.675 937.634 680.953 923.905Z"/>
	<path fill="#FDD404" d="M566.637 843.21C584.959 841.588 604.333 845.499 621.336 852.192C614.48 851.621 607.731 850.157 600.884 849.463Q597.609 849.155 594.322 849.019Q591.035 848.884 587.745 848.921Q584.456 848.958 581.173 849.167Q577.89 849.377 574.622 849.758Q571.355 850.14 568.112 850.692Q564.869 851.245 561.659 851.967Q558.45 852.689 555.282 853.578Q552.115 854.468 548.999 855.522C517.201 866.459 494.377 888.947 479.839 918.836C473.643 932.478 468.221 946.797 464.522 961.327C463.597 935.126 474.074 895.246 490.963 875.432C509.653 853.504 538.963 845.278 566.637 843.21Z"/>
	<path fill="#E75615" d="M620.699 38.4649Q622.149 38.0406 623.613 37.6679Q625.077 37.2953 626.553 36.9748Q628.03 36.6543 629.517 36.3863Q631.003 36.1184 632.499 35.9033Q633.994 35.6882 635.496 35.5263Q636.998 35.3643 638.505 35.2558Q640.012 35.1472 641.522 35.0921Q643.031 35.037 644.542 35.0355Q646.053 35.034 647.563 35.0861Q649.073 35.1381 650.58 35.2437Q652.087 35.3492 653.589 35.5081Q655.091 35.667 656.587 35.8791Q658.083 36.0912 659.57 36.3561Q661.058 36.6211 662.535 36.9386Q664.012 37.2562 665.477 37.6259Q666.941 37.9956 668.392 38.417C690.785 44.9463 705.496 57.5929 716.649 77.9153C720.773 80.1215 725.407 81.6613 729.074 84.6286C731.835 86.4736 734.558 88.4343 736.945 90.7557C739.144 92.4318 741.116 94.1997 743.096 96.1261C745.38 98.1937 747.633 100.245 749.736 102.5C754.462 107.134 756.176 113.994 757.74 120.237C759.912 128.908 761.298 137.84 762.873 146.64L769.964 186.502Q786.417 285.056 799.025 384.175Q820.412 535.234 840.274 686.501L879.178 1024L807.061 1024L784.057 1024L773.615 1024Q771.053 809.723 764.37 595.535Q757.69 432.701 740.625 270.625C736.642 233.975 733.256 197.284 728.572 160.706L725.053 134.931C724.403 130.118 724.065 124.867 722.865 120.174C722.436 118.497 721.981 117.266 720.46 116.367L719.467 116.749C716.87 119.724 717.193 122.478 717.16 126.234C706.649 117.896 693.655 107.831 680.627 104.266C679.609 99.8692 678.086 95.4876 676.319 91.3394C665.808 66.6609 645.292 48.4527 620.699 38.4649Z"/>
	<path fill="#FDD404" d="M831.192 817.927C832.963 817.96 834.551 818.041 835.802 819.517C836.687 820.563 836.811 821.78 836.505 823.067C835.972 825.312 834.579 826.295 832.722 827.487C831.145 826.834 828.92 825.902 828.012 824.359C827.363 823.257 827.157 822.363 827.551 821.122C828.044 819.57 829.886 818.705 831.192 817.927Z"/>
	<path fill="#FDD404" d="M835.595 893.504C837.421 893.363 839.034 893.287 840.612 894.409C841.685 895.171 842.356 896.139 842.447 897.49C842.588 899.568 841.568 900.797 840.251 902.214C838.446 902.485 836.987 902.636 835.377 901.527C834.24 900.744 833.536 899.65 833.395 898.267C833.17 896.062 834.174 894.951 835.595 893.504Z"/>
	<path fill="#FDD404" d="M814.006 969.429C815.8 969.442 817.247 969.452 818.654 970.774C819.633 971.693 820.07 972.876 819.998 974.21C819.873 976.545 818.655 977.63 817.052 979.125C815.101 979.178 813.44 979.018 812.01 977.525C811.083 976.558 810.746 975.36 810.891 974.042C811.135 971.82 812.403 970.771 814.006 969.429Z"/>
	<path fill="#FDD404" d="M706.542 73.8229C714.299 81.2923 716.569 94.7365 717.198 104.956C712.082 93.157 708.61 84.1033 700.705 73.6266C702.686 73.8609 704.55 73.9062 706.542 73.8229Z"/>
	<path fill="#FBFDFA" d="M642.064 44.6219C649.52 44.2028 657.079 43.3185 664.5 44.5715C682.651 47.6368 696.132 59.3215 706.542 73.8229C704.55 73.9062 702.686 73.8609 700.705 73.6266C692.657 63.6873 679.122 58.9201 666.98 56.828C669.864 62.2625 673.477 67.2266 676.085 72.8308C665.45 62.8469 654.926 51.7328 642.064 44.6219Z"/>
	<path fill="#FDD404" d="M800.152 728.924C800.68 728.916 801.208 728.897 801.735 728.912C802.997 728.947 803.729 729.24 804.564 730.181C805.783 731.556 806.352 733.954 806.642 735.72C808.309 745.871 809.042 756.407 810.343 766.645L822.531 869.514Q827.943 912.82 832.606 956.213C833.577 965.122 836.491 983.318 835.939 991.379C835.498 990.939 835.345 990.809 834.979 990.373C832.728 987.691 832.087 982.546 831.497 979.208C827.148 954.598 824.142 929.773 820.995 904.99C819.279 891.472 817.194 877.99 815.653 864.451C813.797 848.149 812.306 831.827 810.23 815.548L802.982 757.321C801.932 748.766 799.463 737.233 800.152 728.924Z"/>
	<path fill="#FDD404" d="M743.096 96.1261C745.38 98.1937 747.633 100.245 749.736 102.5C749.588 108.98 754.507 124.236 755.917 131.491C760.253 153.799 763.849 176.294 767.858 198.668C772.413 224.095 775.452 250.051 778.805 275.674L782.053 301.975C782.653 306.684 783.641 311.591 783.745 316.333C783.78 317.924 783.753 319.6 782.71 320.896C782.18 321.553 781.398 321.674 780.577 321.721C779.296 321.794 777.998 321.448 777.101 320.496C776.226 319.567 775.777 318.201 775.568 316.967C775.002 313.627 775.121 310.105 774.689 306.718L770.019 269.851Q762.384 210.169 752.293 150.852Q750.547 139.785 748.539 128.762C746.992 120.592 742.138 103.266 743.096 96.1261Z"/>
	<path fill="#FDD404" d="M796.086 504.942C797.75 505.057 799.645 505.159 800.859 506.486C801.581 507.274 801.951 508.314 802.13 509.348C803.063 514.736 803.271 520.393 804.007 525.837L810.045 571.307L825.608 699.106C827.892 717.228 830.966 735.22 833.062 753.371C833.763 759.436 834.72 765.615 834.971 771.716C835.149 776.068 834.63 777.564 831.692 780.754C831.05 781.025 830.415 781.305 829.739 781.485C827.581 782.062 824.545 781.927 822.679 780.591C821.016 779.401 820.599 777.246 820.246 775.361C818.832 767.807 818.509 759.758 817.787 752.1C815.566 728.528 814.528 704.806 812.553 681.196C810.979 662.375 809.329 643.375 807.235 624.607C805.427 608.403 803.145 592.25 801.405 576.039C800.009 563.027 799.173 549.953 797.911 536.926C797.531 533 794.227 508.711 795.001 506.542C795.218 505.935 795.725 505.475 796.086 504.942Z"/>
	<path fill="#FDD404" d="M773.393 672.723C775.886 672.07 778.183 671.759 780.741 671.567C786.369 724.775 789.494 778.131 793.823 831.443Q800.008 902.174 803.973 973.065C804.989 990.054 806.579 1006.97 807.061 1024L784.057 1024L782.155 894.014C781.682 867.941 781.611 841.945 780.58 815.877Q778.53 765.603 775.85 715.359C775.12 701.209 773.694 686.862 773.393 672.723Z"/>
	<path fill="#FDD404" d="M729.074 84.6286C731.835 86.4736 734.558 88.4343 736.945 90.7557C737.993 105.197 742.385 119.93 744.956 134.193C748.574 154.273 750.968 174.959 753.099 195.25L775.964 425.147L799.715 626.357Q802.802 654.8 806.289 683.197C807.499 693.262 809.718 704.221 809.654 714.31C809.641 716.401 809.437 718.67 807.974 720.303C806.699 721.728 804.634 722.373 802.767 722.374C800.518 722.376 797.457 721.225 795.994 719.462C794.77 717.988 794.402 715.884 794.084 714.041C792.982 707.65 792.849 700.969 792.233 694.507C791.343 685.161 790.067 675.849 789.262 666.495C788.795 661.063 788.918 655.079 787.654 649.81C787.543 650.055 787.438 650.304 787.32 650.545C786.505 652.211 784.804 653.728 783.061 654.311C782.314 654.29 781.79 654.246 781.136 653.822C779.333 652.65 778.403 650.219 778.118 648.179C777.854 646.282 777.997 643.349 779.477 641.911C780.049 641.355 780.764 640.989 781.556 640.972C784.172 640.916 785.713 641.933 787.519 643.7C788.194 642.282 786.596 634.9 786.357 633.059C784.893 621.784 784.162 610.447 783.36 599.11Q782.696 599.449 782.021 599.764C779.168 601.087 775.428 602.03 772.374 600.809C770.163 599.925 768.615 598.068 767.805 595.864C766.653 592.727 766.94 588.944 768.473 585.981C769.552 583.895 771.298 582.234 773.604 581.627C776.995 580.733 779.548 582.189 782.352 583.923C782.164 571.017 780.531 557.884 779.629 544.999C778.742 532.328 778.258 519.609 777.139 506.956C774.792 480.408 771.558 453.872 769.01 427.327Q758.275 307.707 745.385 188.301Q741.108 154.18 735.53 120.248C734.392 113.526 728.652 89.688 729.074 84.6286Z"/>
	<path fill="#086177" d="M0 0L96.9735 0C97.3842 56.9324 88.5044 113.608 82.682 170.12C81.3488 183.06 79.8287 195.914 79.0014 208.907Q77.899 227.65 78.5917 246.413C79.0038 255.637 80.2153 264.825 80.6762 274.05C81.3799 288.132 80.6592 302.601 78.9347 316.588C74.8639 349.605 64.6128 381.604 60.699 414.602C57.6565 440.253 61.0782 466.239 57.6128 491.73C54.2917 516.159 46.6381 539.812 44.8459 564.5C43.1969 587.217 48.2643 605.637 52.4246 627.482C55.2301 642.212 57.0995 656.984 56.9887 672.007C56.8298 693.563 54.3252 715.066 52.5745 736.53L43.2702 852.453C42.2003 867.466 41.2829 882.468 41.4938 897.525C41.7713 917.335 43.3308 937.059 42.4583 956.9C41.4636 979.517 36.2443 1001.51 34.1268 1024L0 1024L0 0Z"/>
	<defs>
		<linearGradient id="gradient_0" gradientUnits="userSpaceOnUse" x1="354.6236" y1="150.22205" x2="687.69482" y2="387.35175">
			<stop offset="0" stop-color="#096279"/>
			<stop offset="1" stop-color="#066E76"/>
		</linearGradient>
	</defs>
	<path fill="url(#gradient_0)" d="M399.044 138.78C400.368 134.84 402.588 131.46 405.085 128.172C423.71 103.645 452.391 94.2576 481.782 90.0966C482.192 90.4457 482.541 90.8829 483.011 91.1441C484.406 91.9183 509.517 90.528 512.986 90.5119C523.578 90.4628 534.286 90.6214 544.861 91.2465C588.222 93.8099 637.043 106.781 675.091 127.929C685.93 133.954 696.994 140.645 707.038 147.921C710.766 150.622 714.119 153.812 717.798 156.503C718.388 158.84 718.785 161.105 719.1 163.489C719.991 172.065 721.274 180.789 721.71 189.387C722.167 191.988 722.581 194.515 722.704 197.161C723.732 205.022 725.246 213.749 724.998 221.658C732.723 291.395 750.219 424.401 704.136 482.31C699.517 488.116 693.994 492.312 687.764 496.262C685.38 497.774 682.666 499.158 680.469 500.922C679.452 501.739 679.032 502.682 678.543 503.841L678.125 503.77C676.97 502.162 674.276 501.837 672.627 500.649C669.375 498.307 668.563 495.635 668.055 491.852L667.724 492.705C665.014 491.005 649.901 466.082 646.475 461.287C639.94 452.138 633.352 442.913 626.39 434.085C619.678 425.574 612.559 417.403 605.883 408.853C608.069 407.498 610.588 406.424 612.896 405.272C614.291 404.43 615.813 403.751 617.274 403.027C618.923 401.043 621.014 399.299 622.885 397.515C617.977 395.389 612.6 393.767 607.452 392.317C604.298 391.767 601.491 390.838 598.527 389.661C593.09 389.089 585.768 387.832 580.799 385.729C580.2 384.297 578.7 383.697 577.424 382.944C575.592 380.478 572.793 378.377 570.478 376.356C555.325 363.121 538.115 352.547 520.879 342.262C501.86 330.912 481.927 321.919 461.212 314.208C411.853 295.836 364.178 287.842 311.623 287.945C297.208 287.973 274.012 288.682 260.639 292.063C259.917 292.077 259.265 291.979 258.551 291.88L257.915 290.831C257.905 289.985 257.902 289.294 258.223 288.497C259.032 286.491 260.428 284.776 262.395 283.869C262.856 282.954 263.151 282.028 263.478 281.061C263.158 280.83 262.929 280.493 262.671 280.194C263.59 278.168 264.376 276.149 265.091 274.043L267.982 271.42C269.226 264.518 274.197 256.917 277.694 250.824C290.568 228.398 306.66 206.924 326.483 190.122C332.061 185.394 338.236 181.194 344.147 176.885C345.223 174.703 348.308 172.337 350.13 170.713C364.566 157.852 382.117 148.719 399.878 141.425L399.044 138.78Z"/>
	<path fill="#FDD404" d="M565.796 317.73C566.731 317.816 567.53 317.998 568.429 318.268C569.318 319.202 569.763 319.829 569.792 321.168C569.828 322.788 569.114 324.067 568.129 325.267C567.668 325.054 567.204 324.848 566.756 324.609C565.349 323.857 564.628 323.111 564.144 321.547C564.32 319.876 564.819 319.078 565.796 317.73Z"/>
	<path fill="#FDD404" d="M633.299 339.785C634.08 339.859 634.982 339.896 635.728 340.143C636.985 340.559 637.364 341.33 637.911 342.438C637.8 344.16 637.338 344.944 636.353 346.341C635.589 346.246 634.728 346.179 633.998 345.929C632.797 345.518 632.356 344.878 631.777 343.82C631.808 342.06 632.338 341.232 633.299 339.785Z"/>
	<path fill="#FDD404" d="M470.442 220.189C471.127 220.246 472.12 220.247 472.748 220.509C474.048 221.051 474.236 221.571 474.79 222.752C474.725 224.582 474.25 225.551 473.339 227.122L471.018 226.879C469.825 226.046 469.686 225.873 469.088 224.545C469.134 222.689 469.502 221.777 470.442 220.189Z"/>
	<path fill="#FDD404" d="M596.858 198.358C597.739 198.347 598.632 198.426 599.512 198.469C600.789 199.242 600.934 199.337 601.581 200.672C601.614 202.509 601.233 203.561 600.46 205.214C599.733 205.156 598.67 205.15 598.01 204.862C596.936 204.392 596.185 203.71 595.884 202.551C595.517 201.134 596.302 199.621 596.858 198.358Z"/>
	<path fill="#FDD404" d="M423.983 247.187C424.039 247.216 424.094 247.246 424.15 247.274C424.839 247.626 425.664 247.985 426.249 248.495C427.311 249.42 427.376 250.394 427.494 251.703C426.937 253.311 426.221 253.906 424.949 254.926C424.146 254.476 423.216 254.024 422.523 253.419C421.481 252.512 421.396 251.677 421.261 250.379C421.906 248.826 422.664 248.2 423.983 247.187Z"/>
	<path fill="#FDD404" d="M477.911 167.714C478.581 167.797 479.617 167.842 480.211 168.146C481.49 168.798 481.701 169.457 482.224 170.683C482.167 172.528 481.767 173.392 480.786 174.941C479.88 175.009 478.777 174.927 477.979 174.447C477.314 174.048 476.797 173.399 476.609 172.658C476.092 170.627 476.852 169.36 477.911 167.714Z"/>
	<path fill="#FDD404" d="M366.953 223.827C367.937 223.879 369.133 223.99 369.993 224.516C370.982 225.123 371.555 226.05 371.656 227.201C371.782 228.639 370.968 229.705 370.209 230.812C369.446 230.784 368.203 230.81 367.501 230.448C366.478 229.922 365.736 229.216 365.537 228.045C365.266 226.456 366.168 225.113 366.953 223.827Z"/>
	<path fill="#FDD404" d="M603.877 362.202C604.705 362.42 605.759 362.652 606.472 363.156C607.414 363.822 608.014 364.795 608.059 365.957C608.119 367.502 607.066 368.662 606.147 369.764C605.333 369.601 604.212 369.434 603.51 368.953C602.514 368.271 601.965 367.237 601.933 366.042C601.89 364.469 602.939 363.325 603.877 362.202Z"/>
	<path fill="#FDD404" d="M567.367 176.723C567.913 176.776 568.458 176.818 568.997 176.926C570.185 177.164 571.083 177.645 571.579 178.814C572.344 180.616 571.411 182.529 570.631 184.133C569.743 184.119 568.471 184.147 567.681 183.697C567.023 183.322 566.359 182.662 566.132 181.932C565.513 179.938 566.405 178.4 567.367 176.723Z"/>
	<path fill="#FDD404" d="M595.723 291.821C596.541 291.833 597.747 291.718 598.506 291.983C599.257 292.246 599.902 292.677 600.287 293.376C601.334 295.276 600.477 297.295 599.886 299.202L597.497 299.028C596.703 298.568 595.931 298.192 595.477 297.343C594.532 295.578 595.12 293.574 595.723 291.821Z"/>
	<path fill="#FDD404" d="M429.085 167.844C430.139 167.876 431.31 167.997 432.194 168.649C433.106 169.321 433.552 170.351 433.563 171.464C433.579 173.183 432.6 174.371 431.583 175.638C430.649 175.472 429.465 175.181 428.681 174.622C427.738 173.95 427.142 172.956 427.101 171.79C427.044 170.202 428.158 169 429.085 167.844Z"/>
	<path fill="#FDD404" d="M501.32 147.23C502.494 147.271 503.749 147.349 504.782 147.988C505.81 148.625 506.493 149.49 506.647 150.708C506.836 152.197 505.877 153.345 505.041 154.444C504.061 154.467 502.634 154.409 501.773 153.873C500.761 153.242 500.088 152.523 499.936 151.3C499.742 149.741 500.532 148.486 501.32 147.23Z"/>
	<path fill="#FDD404" d="M524.953 249.27C526.305 249.315 527.765 249.316 528.887 250.199C529.867 250.969 530.437 251.942 530.488 253.205C530.552 254.764 529.698 255.988 528.822 257.178C527.316 257.165 525.565 257.287 524.331 256.26C523.366 255.457 522.848 254.597 522.855 253.321C522.864 251.649 523.938 250.469 524.953 249.27Z"/>
	<path fill="#FDD404" d="M625.909 230.504C627.662 230.69 629.279 230.888 630.696 232.035C631.943 233.044 632.16 233.924 632.287 235.467C631.633 237.101 631.207 237.516 629.74 238.488C627.328 238.214 625.052 237.714 623.552 235.573C622.776 234.467 622.834 234.027 622.937 232.77C623.712 231.398 624.537 231.097 625.909 230.504Z"/>
	<path fill="#FDD404" d="M667.261 351.77C665.447 346.645 662.425 341.409 659.886 336.588Q657.013 331.152 653.906 325.847Q650.798 320.542 647.462 315.378Q644.125 310.214 640.566 305.2Q637.008 300.186 633.233 295.333Q629.459 290.48 625.476 285.796Q621.493 281.112 617.31 276.607Q613.126 272.101 608.749 267.783Q604.373 263.465 599.812 259.342C594.843 254.901 589.75 250.421 584.438 246.396C580.29 243.251 575.609 240.457 571.885 236.811C570.566 235.52 569.786 234.508 569.772 232.636L570.566 231.907C571.063 231.883 571.325 231.839 571.85 231.985C575.779 233.076 582.939 238.817 586.51 241.316C609.034 257.084 629.512 278.04 645.419 300.436C651.315 308.737 656.393 317.568 662.16 325.951Q664.078 329.61 665.887 333.324Q667.697 337.039 669.397 340.804Q671.097 344.57 672.686 348.384Q674.275 352.198 675.751 356.056Q677.227 359.915 678.589 363.816Q679.952 367.716 681.199 371.655Q682.446 375.594 683.578 379.567Q684.709 383.541 685.723 387.546Q686.737 391.551 687.633 395.584Q688.53 399.617 689.307 403.675Q690.085 407.733 690.743 411.812Q691.401 415.89 691.94 419.987Q692.478 424.083 692.896 428.193Q693.314 432.304 693.611 436.424Q693.908 440.545 694.084 444.673Q694.26 448.801 694.315 452.932L688.987 452.547Q688.802 446.069 688.319 439.606Q687.836 433.143 687.057 426.709Q686.278 420.276 685.205 413.884Q684.131 407.493 682.766 401.158Q681.4 394.823 679.745 388.557Q678.089 382.291 676.148 376.108Q674.207 369.924 671.984 363.837Q669.761 357.749 667.261 351.77Z"/>
	<path fill="#FDD404" d="M263.478 281.061C266.766 276.477 279.144 275.44 284.687 274.525C314.236 269.643 343.166 271.227 372.705 275.338C437.731 284.388 500.456 306.578 554.105 345.053C571.085 357.231 587.525 370.681 602.16 385.615C603.718 387.205 607.098 389.963 607.586 392.032L607.452 392.317C604.298 391.767 601.491 390.838 598.527 389.661C584.034 375.291 568.927 361.891 552.285 350.016C485.328 302.238 392.302 274.401 310.255 277.741C294.096 278.399 278.308 281.197 262.395 283.869C262.856 282.954 263.151 282.028 263.478 281.061Z"/>
	<path fill="#FBFDFA" d="M344.147 176.885Q349.449 173.774 354.868 170.873Q360.288 167.971 365.816 165.284Q371.345 162.596 376.974 160.127Q382.603 157.657 388.324 155.409Q394.046 153.161 399.851 151.138Q405.655 149.115 411.535 147.32Q417.414 145.525 423.359 143.961Q429.304 142.398 435.305 141.067C439.15 140.21 446.09 137.925 449.865 139.122C450.14 139.209 450.382 139.38 450.641 139.509C450.459 139.531 450.276 139.547 450.095 139.575C439.979 141.172 429.327 145.781 419.806 149.465C379.399 165.099 341.17 187.442 316.004 223.727Q313.129 227.879 310.349 232.095C319.432 232.783 326.993 234.214 335.47 237.698C323.294 237.849 312.352 239.389 300.462 241.689C298.225 246.723 295.2 251.344 292.919 256.33C314.147 252.318 339.957 255.265 360.029 262.69C335.531 260.581 311.828 261.792 287.698 266.472C281.123 267.747 274.253 269.041 267.982 271.42C269.226 264.518 274.197 256.917 277.694 250.824C290.568 228.398 306.66 206.924 326.483 190.122C332.061 185.394 338.236 181.194 344.147 176.885Z"/>
	<path fill="#086177" d="M262.395 283.869C278.308 281.197 294.096 278.399 310.255 277.741C392.302 274.401 485.328 302.238 552.285 350.016C568.927 361.891 584.034 375.291 598.527 389.661C593.09 389.089 585.768 387.832 580.799 385.729C580.2 384.297 578.7 383.697 577.424 382.944C575.592 380.478 572.793 378.377 570.478 376.356C555.325 363.121 538.115 352.547 520.879 342.262C501.86 330.912 481.927 321.919 461.212 314.208C411.853 295.836 364.178 287.842 311.623 287.945C297.208 287.973 274.012 288.682 260.639 292.063C259.917 292.077 259.265 291.979 258.551 291.88L257.915 290.831C257.905 289.985 257.902 289.294 258.223 288.497C259.032 286.491 260.428 284.776 262.395 283.869Z"/>
	<path fill="#05131F" d="M681.914 263.928C674.154 245.221 663.292 226.083 651.675 209.492C646.997 202.81 641.109 196.521 636.882 189.613C635.757 187.775 635.502 186.98 636.072 184.851C636.617 184.41 636.809 183.956 637.569 184.145C639.924 184.731 643.229 188.673 644.886 190.446C660.669 207.34 671.682 227.17 681.715 247.839C684.556 253.691 686.959 260.105 690.189 265.716C691.901 262.661 686.889 241.727 686.108 237.507C697.273 251.545 697.83 261.234 705.039 276.21L705.435 277.021C703.132 262.511 701.307 247.73 697.63 233.494C695.75 226.216 693.185 219.184 690.653 212.115C692.579 213.113 694.49 214.159 696.011 215.735C702.822 222.789 706.238 238.241 708.675 247.635C709.341 250.203 709.944 254.349 711.724 256.33C713.766 253.547 712.612 245.69 712.801 242.087C712.821 248.562 712.267 255.55 713.062 261.942C713.831 268.113 716.29 274.069 717.546 280.171C720.06 292.387 721.571 304.869 723.031 317.25Q724.771 332.35 725.358 347.539Q725.945 362.728 725.375 377.917C724.131 408.409 717.419 461.533 695.157 483.683C691.649 487.173 687.748 489.924 683.611 492.61C681.261 488.643 679.694 487.556 675.432 486.113C667.621 472.403 660.242 458.51 651.346 445.459C651.415 445.293 651.509 445.134 651.553 444.96C652.443 441.39 646.196 426.119 644.583 421.905C639.309 408.126 635.322 393.855 629.183 380.411C624.987 371.222 620.014 361.734 614.882 353.035C610.758 346.045 606.191 339.37 602.184 332.291C636.436 350.585 645.302 367.182 662.779 399.815C663.701 383.793 665.826 367.762 667.261 351.77Q669.761 357.749 671.984 363.837Q674.207 369.924 676.148 376.108Q678.089 382.291 679.745 388.557Q681.4 394.823 682.766 401.158Q684.131 407.493 685.205 413.884Q686.278 420.276 687.057 426.709Q687.836 433.143 688.319 439.606Q688.802 446.069 688.987 452.547L694.315 452.932Q694.26 448.801 694.084 444.673Q693.908 440.545 693.611 436.424Q693.314 432.304 692.896 428.193Q692.478 424.083 691.94 419.987Q691.401 415.89 690.743 411.812Q690.085 407.733 689.307 403.675Q688.53 399.617 687.633 395.584Q686.737 391.551 685.723 387.546Q684.709 383.541 683.577 379.567Q682.446 375.594 681.199 371.655Q679.952 367.716 678.589 363.816Q677.227 359.915 675.751 356.056Q674.275 352.198 672.686 348.384Q671.097 344.57 669.397 340.804Q667.697 337.039 665.887 333.324Q664.078 329.61 662.16 325.951C662.187 325.755 662.233 325.56 662.242 325.362C662.452 320.757 638.884 285.928 635.283 280.927Q631.263 275.313 626.634 270.188C647.248 281.887 662.842 307.133 674.811 326.888L681.914 263.928Z"/>
	<path fill="#FDD404" d="M681.914 263.928C674.154 245.221 663.292 226.083 651.675 209.492C646.997 202.81 641.109 196.521 636.882 189.613C635.757 187.775 635.502 186.98 636.072 184.851C636.617 184.41 636.809 183.956 637.569 184.145C639.924 184.731 643.229 188.673 644.886 190.446C660.669 207.34 671.682 227.17 681.715 247.839C684.556 253.691 686.959 260.105 690.189 265.716C690.55 268.998 697.979 288.103 699.583 293.161C707.489 318.097 712.214 345.207 712.562 371.38C712.618 375.542 712.902 379.997 712.268 384.11C710.845 384.003 709.803 383.739 708.471 383.219C707.096 382.683 707.305 371.902 707.2 370.036C705.27 335.763 695.784 295.384 681.914 263.928Z"/>
	<path fill="#FDD404" d="M399.044 138.78C400.368 134.84 402.588 131.46 405.085 128.172C423.71 103.645 452.391 94.2576 481.782 90.0966C482.192 90.4457 482.541 90.8829 483.011 91.1441C484.406 91.9183 509.517 90.528 512.986 90.5119C523.578 90.4628 534.286 90.6214 544.861 91.2465C588.222 93.8099 637.043 106.781 675.091 127.929C685.93 133.954 696.994 140.645 707.038 147.921C710.766 150.622 714.119 153.812 717.798 156.503C718.388 158.84 718.785 161.105 719.1 163.489C719.991 172.065 721.274 180.789 721.71 189.387C722.167 191.988 722.581 194.515 722.704 197.161C723.732 205.022 725.246 213.749 724.998 221.658C732.723 291.395 750.219 424.401 704.136 482.31C699.517 488.116 693.994 492.312 687.764 496.262C685.38 497.774 682.666 499.158 680.469 500.922C679.452 501.739 679.032 502.682 678.543 503.841L678.125 503.77C676.97 502.162 674.276 501.837 672.627 500.649C669.375 498.307 668.563 495.635 668.055 491.852L667.724 492.705C665.014 491.005 649.901 466.082 646.475 461.287C639.94 452.138 633.352 442.913 626.39 434.085C619.678 425.574 612.559 417.403 605.883 408.853C608.069 407.498 610.588 406.424 612.896 405.272C614.291 404.43 615.813 403.751 617.274 403.027C630.535 415.571 640.191 431.191 651.346 445.459C660.242 458.51 667.621 472.403 675.432 486.113C679.694 487.556 681.261 488.643 683.611 492.61C687.748 489.924 691.649 487.173 695.157 483.683C717.419 461.533 724.131 408.409 725.375 377.917Q725.945 362.728 725.358 347.539Q724.771 332.35 723.031 317.25C721.571 304.869 720.06 292.387 717.546 280.171C716.29 274.069 713.831 268.113 713.062 261.942C712.267 255.55 712.821 248.562 712.801 242.087C712.844 237.796 712.997 233.572 713.565 229.314C713.737 228.03 714.017 226.868 713.588 225.602C712.21 221.539 708.409 217.426 705.682 214.194C686.058 190.937 654.129 172.324 626.668 159.559C573.934 135.047 498.688 121.987 440.976 130.54C426.989 132.612 413.14 136.56 399.878 141.425L399.044 138.78Z"/>
	<path fill="#086177" d="M612.896 405.272C622.288 414.161 629.996 425.256 637.717 435.593C650.017 452.062 662.474 468.845 672.767 486.661C670.519 488.158 668.979 489.24 668.055 491.852L667.724 492.705C665.014 491.005 649.901 466.082 646.475 461.287C639.94 452.138 633.352 442.913 626.39 434.085C619.678 425.574 612.559 417.403 605.883 408.853C608.069 407.498 610.588 406.424 612.896 405.272Z"/>
	<path fill="#E75615" d="M428.037 114.283C438.135 109.008 449.568 105.497 460.596 102.766C524.809 86.8649 604.152 99.3281 662.975 128.891C682.712 138.81 700.234 152.135 719.1 163.489C719.991 172.065 721.274 180.789 721.71 189.387C704.44 170.816 686.398 156.742 664.594 143.797C609.851 111.295 527.744 96.9116 464.864 105.631C452.126 107.398 440.423 111.115 428.037 114.283Z"/>
	<path fill="#E75615" d="M416.194 127.03C441.319 116.031 466.646 110.983 493.966 109.84C554.146 107.322 624.278 124.206 674.604 157.817C691.764 169.278 706.599 183.325 721.725 197.24L722.704 197.161C723.732 205.022 725.246 213.749 724.998 221.658C721.821 216.871 717.801 212.53 713.973 208.253C698.127 190.547 680.507 176.094 660.441 163.349C651.369 157.587 641.651 152.773 631.959 148.158C586.594 126.556 538.751 116.749 488.614 116.738C477.328 116.736 465.745 116.773 454.544 118.199C441.384 119.874 429.064 124.136 416.194 127.03Z"/>
	<path fill="#E75615" d="M260.639 292.063C274.012 288.682 297.208 287.973 311.623 287.945C364.178 287.842 411.853 295.836 461.212 314.208C481.927 321.919 501.86 330.912 520.879 342.262C538.115 352.547 555.325 363.121 570.478 376.356C572.793 378.377 575.592 380.478 577.424 382.944C578.7 383.697 580.2 384.297 580.799 385.729C585.768 387.832 593.09 389.089 598.527 389.661C601.491 390.838 604.298 391.767 607.452 392.317C612.6 393.767 617.977 395.389 622.885 397.515C621.014 399.299 618.923 401.043 617.274 403.027C615.813 403.751 614.291 404.43 612.896 405.272C610.588 406.424 608.069 407.498 605.883 408.853C612.559 417.403 619.678 425.574 626.39 434.085C633.352 442.913 639.94 452.138 646.475 461.287C649.901 466.082 665.014 491.005 667.724 492.705L668.055 491.852C668.563 495.635 669.375 498.307 672.627 500.649C674.276 501.837 676.97 502.162 678.125 503.77L678.543 503.841C678.961 506.079 679.142 507.592 680.819 509.259C683.055 510.044 684.953 511.585 685.93 513.789Q686.184 514.376 686.376 514.986Q686.569 515.596 686.697 516.223Q686.826 516.849 686.89 517.486Q686.953 518.122 686.951 518.762Q686.949 519.401 686.882 520.037Q686.814 520.673 686.682 521.299Q686.549 521.925 686.353 522.534Q686.157 523.143 685.899 523.728C685.271 525.182 684.489 526.475 683.044 527.181C681.139 528.868 677.124 531.31 676.909 533.976C679.644 534.537 682.637 534.997 684.319 537.495C685.334 539.003 685.771 540.799 686.21 542.538C685.682 544.436 685.276 546.453 684.247 548.15L684.405 549.045C687.905 550.336 696.316 550.859 701.093 552.24C718.517 557.278 733.057 572.898 740.44 588.999C748.594 606.785 748.398 628.358 741.499 646.503C735.597 662.025 722.726 678.657 707.304 685.694C706.391 686.11 705.427 686.524 704.455 686.784C704.934 701.989 706.896 717.437 708.936 732.494C709.793 738.816 711.414 745.41 711.725 751.756C655.129 743.634 595.622 751.866 544.494 778.076C530.52 785.24 517.401 793.946 504.606 803.019C495.78 799.466 488.941 799.238 479.949 802.606C479.998 791.901 479.346 781.195 478.999 770.498C478.715 761.747 478.896 752.831 477.972 744.125C472.262 742.89 467.085 740.63 463.096 736.195C458.783 731.401 456.781 724.775 457.19 718.382Q457.225 717.791 457.29 717.202Q457.355 716.613 457.449 716.028Q457.543 715.443 457.667 714.864Q457.79 714.285 457.942 713.712Q458.094 713.139 458.274 712.575Q458.455 712.011 458.663 711.456Q458.872 710.902 459.107 710.359Q459.343 709.815 459.606 709.284Q459.869 708.753 460.157 708.236Q460.446 707.719 460.76 707.217Q461.075 706.715 461.414 706.229Q461.753 705.743 462.116 705.275Q462.478 704.806 462.864 704.357Q463.25 703.907 463.657 703.477Q464.065 703.048 464.494 702.639Q464.922 702.23 465.371 701.843C469.356 698.341 474.721 695.702 480.112 696.071Q479.968 686.623 479.221 677.204Q478.473 667.785 477.124 658.433Q475.776 649.081 473.832 639.835Q471.888 630.588 469.356 621.485C442.027 633.461 415.887 639.401 385.896 633.989C346.801 626.934 310.284 601.13 287.8 568.84C294.21 567.406 300.527 565.281 306.869 563.548C315.675 561.143 324.728 559.008 333.288 555.807C317.865 556.264 300.866 562.153 285.669 565.345Q282.321 561.14 279.53 556.547Q276.74 551.954 274.551 547.045C290.391 547.358 306.307 549.047 322.154 548.725C314.311 546.928 306.362 546.365 298.379 545.523C290.027 544.642 281.667 543.63 273.292 542.997C269.86 538.837 266.872 533.852 265.429 528.632C286.263 532.7 306.562 538.163 327.977 537.282C318.589 534.968 308.761 534.444 299.248 532.667C287.391 530.452 275.737 527.133 263.914 524.934C253.151 500.498 248.116 473.253 247.499 446.706L248.168 447.102C254.697 449.036 263.475 462.42 271.974 464.863C278.821 471.725 287.839 477 297.589 478.228C306.777 479.385 317.17 476.967 324.453 471.119C329.74 466.874 333.041 461.111 333.686 454.351C333.462 453.02 333.339 451.927 333.42 450.566C333.504 448.189 333.36 446.046 332.904 443.718C328.088 419.083 313.971 393.747 292.882 379.616C275.872 368.219 255.937 364.041 235.894 368.005C236.447 362.553 238.164 356.996 239.649 351.723C245.37 331.4 253.859 312.029 260.639 292.063Z"/>
	<path fill="#FDD404" d="M680.819 509.259C683.055 510.044 684.953 511.585 685.93 513.789Q686.184 514.376 686.376 514.986Q686.569 515.596 686.697 516.223Q686.826 516.849 686.89 517.486Q686.953 518.122 686.951 518.762Q686.949 519.401 686.882 520.037Q686.814 520.673 686.682 521.299Q686.549 521.925 686.353 522.534Q686.157 523.143 685.899 523.728C685.271 525.182 684.489 526.475 683.044 527.181C680.926 526.65 677.764 527.924 675.641 528.445C674.885 528.038 674.146 527.62 673.428 527.148C670.914 525.497 668.848 523.145 668.365 520.082C668.003 517.794 668.711 515.488 670.169 513.705C673.102 510.118 676.525 509.683 680.819 509.259Z"/>
	<path fill="#FBFDFA" d="M676.813 512.353C678.584 513.14 680.956 514.218 681.927 516.016C682.556 517.18 682.755 518.291 682.287 519.562C681.501 521.696 679.502 522.623 677.651 523.669C675.985 522.917 673.769 521.953 672.797 520.31C672.103 519.136 671.867 518.162 672.259 516.824C672.949 514.469 674.854 513.537 676.813 512.353Z"/>
	<path fill="#FBFDFA" d="M437.454 575.539C446.711 575.612 468.657 586.83 478.216 590.794C490.838 596.029 503.597 601.495 516.514 605.924C522.433 607.954 542.134 613.096 546.101 617.06C545.949 617.102 545.799 617.149 545.646 617.187C537.377 619.25 448.947 582.374 437.454 575.539Z"/>
	<path fill="#FBFDFA" d="M593.469 545.72C594.551 545.698 594.803 545.462 595.672 546.174C595.336 547.011 595.498 547.017 594.867 547.454C591.405 549.847 583.85 549.634 579.636 550.053C551.969 552.801 524.198 552.66 496.425 552.584C474.157 552.523 451.528 552.795 429.38 550.212C427.666 550.115 426.302 549.911 424.672 549.363C431.644 547.537 459.331 549.623 468.537 549.769C488.236 550.083 507.987 549.974 527.69 549.881C549.664 549.777 571.625 547.931 593.469 545.72Z"/>
	<path fill="#FBFDFA" d="M429.126 560.714C438.666 561.555 448.256 564.054 457.723 565.608L531.157 578.163Q555.24 582.22 579.498 585.054C586.803 585.903 594.209 586.315 601.485 587.346C602.768 587.528 604.427 587.573 605.383 588.506L605.359 590.343C603.141 590.331 600.944 590.157 598.736 589.978C579.748 588.439 560.793 585.624 541.959 582.803C527.607 580.653 513.379 577.734 499.09 575.211C490.708 573.731 432.931 565.198 429.126 560.714Z"/>
	<path fill="#FBFDFA" d="M334.9 525.231C334.28 523.921 333.791 523.189 334.207 521.684C334.74 519.756 336.957 518.409 338.63 517.62C349.935 512.289 371.961 513.369 383.658 517.469C386.623 518.508 394.782 521.151 396.156 524.026L395.127 524.213C385.913 523.714 376.053 522.198 368.555 528.945C366.317 530.958 364.396 535.41 361.81 536.54C356.709 535.971 347.728 516.435 334.9 525.231Z"/>
	<path fill="#FBFDFA" d="M248.168 447.102C254.697 449.036 263.475 462.42 271.974 464.863C278.821 471.725 287.839 477 297.589 478.228C306.777 479.385 317.17 476.967 324.453 471.119C329.74 466.874 333.041 461.111 333.686 454.351C334.518 455.789 334.701 457.818 335.003 459.439C336.958 469.938 335.489 479.667 332.87 489.899C318.88 486.816 301.127 485.844 288.332 481.36C272.124 475.68 255.753 462.703 248.168 447.102Z"/>
	<path fill="#FBFDFA" d="M403.564 508.412L403.236 509.795L402.488 510.235C402.397 510.113 402.29 510.002 402.215 509.87C401.348 508.342 401.457 505.316 401.333 503.529C400.347 489.313 400.897 474.259 404.08 460.315C410.647 431.549 430.716 405.869 455.415 390.314C484.651 371.899 517.338 368.251 550.75 375.584C559.786 377.568 568.428 380.886 577.424 382.944C578.7 383.697 580.2 384.297 580.799 385.729C543.296 374.506 502.381 373.193 467.042 392.304Q465.775 392.978 464.525 393.684Q463.275 394.39 462.043 395.127Q460.811 395.863 459.598 396.631Q458.385 397.399 457.192 398.197Q455.998 398.995 454.825 399.822Q453.653 400.65 452.501 401.507Q451.349 402.363 450.219 403.249Q449.089 404.134 447.982 405.048Q446.875 405.962 445.791 406.903Q444.707 407.844 443.647 408.812Q442.587 409.78 441.552 410.774Q440.517 411.769 439.507 412.789Q438.497 413.809 437.513 414.854Q436.529 415.899 435.571 416.969Q434.614 418.038 433.684 419.131Q432.753 420.225 431.851 421.341Q430.948 422.457 430.074 423.596Q429.2 424.734 428.355 425.895Q427.509 427.055 426.694 428.236Q425.878 429.417 425.092 430.618Q424.306 431.819 423.55 433.04Q422.795 434.261 422.07 435.5Q421.346 436.739 420.652 437.996Q419.959 439.253 419.298 440.527Q418.636 441.801 418.007 443.091Q417.378 444.381 416.781 445.687Q416.184 446.993 415.621 448.313Q415.057 449.633 414.527 450.967Q413.997 452.301 413.5 453.648Q413.004 454.995 412.541 456.354Q412.078 457.712 411.65 459.083Q411.222 460.453 410.828 461.833C406.643 476.042 402.508 493.607 403.564 508.412Z"/>
	<path fill="#05131F" d="M334.9 525.231C347.728 516.435 356.709 535.971 361.81 536.54C364.396 535.41 366.317 530.958 368.555 528.945C376.053 522.198 385.913 523.714 395.127 524.213C398.36 524.781 401.422 525.485 404.558 526.453C391.704 530.88 380.077 536.765 368.038 543.023C368.921 549.231 369.691 555.402 370.201 561.653C377.724 572.917 391.62 579.61 404.565 582.156C411.443 583.508 418.845 584.04 425.812 583.097C417.441 589.478 409.343 592.418 398.754 591.013C385.395 589.242 374.378 582.178 364.506 573.421C360.368 580.148 355.333 585.688 347.351 587.725C340.202 589.55 333.084 588.046 326.911 584.216L326.147 583.738C336.252 583.299 343.776 579.219 350.518 571.784C352.835 569.23 355.074 566.288 356.66 563.218C354.879 555.574 354.157 548.765 355.105 540.948C347.795 538.773 340.041 535.281 336.287 528.213Q335.505 526.763 334.9 525.231Z"/>
	<path fill="#FBFDFA" d="M588.804 415.566C589.903 424.465 582.67 442.761 578.568 450.592Q574.659 457.977 569.475 464.531Q568.717 465.493 567.935 466.437Q567.154 467.38 566.35 468.304Q565.545 469.228 564.719 470.132Q563.892 471.036 563.043 471.919Q562.195 472.803 561.325 473.665Q560.455 474.528 559.564 475.369Q558.673 476.21 557.762 477.028Q556.851 477.847 555.92 478.643Q554.989 479.44 554.039 480.213Q553.089 480.986 552.12 481.736Q551.151 482.485 550.164 483.211Q549.177 483.937 548.173 484.638Q547.168 485.34 546.147 486.016Q545.126 486.693 544.088 487.344Q543.051 487.996 541.998 488.621Q540.945 489.247 539.876 489.847Q538.808 490.447 537.726 491.02Q536.643 491.593 535.547 492.14Q534.451 492.687 533.341 493.207Q532.232 493.726 531.11 494.219Q529.989 494.711 528.855 495.176Q527.722 495.641 526.578 496.078Q525.433 496.514 524.278 496.923Q523.123 497.332 521.959 497.712Q520.794 498.093 519.621 498.444Q518.448 498.796 517.266 499.119Q516.084 499.442 514.895 499.736Q513.706 500.029 512.51 500.294Q511.313 500.559 510.111 500.794Q508.909 501.029 507.701 501.235Q506.494 501.44 505.281 501.617Q504.069 501.793 502.853 501.939C477.587 505.054 447.319 497.149 427.355 481.306Q425.669 479.966 424.107 478.485C428.581 478.494 437.416 483.653 442.332 485.267C459.684 490.963 476.553 491.905 494.597 490.613C500.046 490.223 505.422 489.987 510.592 488.061C518.186 487.296 524.708 485.178 531.434 481.617C536.379 481.055 547.51 473.678 551.074 469.915C552.83 467.071 555.151 464.457 557.021 461.648C563.463 451.969 575.878 432.529 578.907 421.737L586.911 418.4C587.38 417.274 588.052 416.51 588.804 415.566Z"/>
	<path fill="#E75615" d="M578.907 421.737L586.911 418.4C582.135 434.679 564.643 459.358 551.074 469.915C552.83 467.071 555.151 464.457 557.021 461.648C563.463 451.969 575.878 432.529 578.907 421.737Z"/>
	<path fill="#FDD404" d="M495.514 701.963C494.868 696.857 496.014 692.44 499.214 688.341C503.224 683.206 509.767 680.398 516.126 679.653C522.655 678.888 528.994 680.765 534.127 684.864C539.044 688.79 542.498 694.639 542.997 700.963C543.501 707.347 541.276 714.382 536.912 719.113C532.669 723.713 526.658 725.674 520.511 725.69C513.867 725.708 506.936 723.533 502.202 718.741C502.145 725.531 500.771 731.628 495.783 736.633C490.934 741.498 484.539 743.168 477.972 744.125C472.262 742.89 467.085 740.63 463.096 736.195C458.783 731.401 456.781 724.775 457.19 718.382Q457.225 717.791 457.29 717.202Q457.355 716.613 457.449 716.028Q457.543 715.443 457.667 714.864Q457.79 714.285 457.942 713.712Q458.094 713.139 458.274 712.575Q458.455 712.011 458.663 711.456Q458.872 710.902 459.107 710.359Q459.343 709.815 459.606 709.284Q459.869 708.753 460.157 708.236Q460.446 707.719 460.76 707.217Q461.075 706.715 461.414 706.229Q461.753 705.743 462.116 705.275Q462.478 704.806 462.864 704.357Q463.25 703.907 463.657 703.477Q464.065 703.048 464.494 702.639Q464.922 702.23 465.371 701.843C469.356 698.341 474.721 695.702 480.112 696.071C485.975 697.295 490.44 698.766 495.514 701.963Z"/>
	<path fill="#FBFDFA" d="M508.322 686.1C509.623 685.933 510.944 685.826 512.257 685.849C514.508 685.889 516.936 686.747 518.421 688.507C520.896 691.439 520.252 695.18 519.819 698.658C517.907 700.726 516.121 702.134 513.628 703.467C512.066 703.723 510.255 703.955 508.69 703.609C506.457 703.116 504.399 701.622 503.227 699.66C502.023 697.645 501.772 695.167 502.374 692.916C503.282 689.523 505.429 687.835 508.322 686.1Z"/>
	<path fill="#FBFDFA" d="M473.342 702.507C474.953 702.512 476.308 702.595 477.774 703.333C479.855 704.38 481.415 706.12 482.086 708.367C482.974 711.343 482.49 714.682 481.035 717.392C479.213 720.786 476.738 721.752 473.235 722.827L472.732 722.786C470.152 722.551 466.63 721.95 465.022 719.638C462.802 716.449 463.677 712.705 464.224 709.14C466.977 705.827 469.429 704.235 473.342 702.507Z"/>
	<path fill="#05131F" d="M403.564 508.412C402.508 493.607 406.643 476.042 410.828 461.833Q411.222 460.453 411.65 459.083Q412.078 457.712 412.541 456.354Q413.004 454.995 413.5 453.648Q413.997 452.301 414.527 450.967Q415.057 449.633 415.621 448.313Q416.184 446.993 416.781 445.687Q417.378 444.381 418.007 443.091Q418.636 441.801 419.298 440.527Q419.959 439.253 420.652 437.996Q421.346 436.739 422.07 435.5Q422.795 434.261 423.55 433.04Q424.306 431.819 425.092 430.618Q425.878 429.417 426.694 428.236Q427.509 427.055 428.355 425.895Q429.2 424.734 430.074 423.596Q430.948 422.457 431.851 421.341Q432.753 420.225 433.684 419.131Q434.614 418.038 435.571 416.969Q436.529 415.899 437.513 414.854Q438.497 413.809 439.507 412.789Q440.517 411.769 441.552 410.774Q442.587 409.78 443.647 408.812Q444.707 407.844 445.791 406.903Q446.875 405.962 447.982 405.048Q449.089 404.134 450.219 403.249Q451.349 402.363 452.501 401.507Q453.653 400.65 454.825 399.822Q455.998 398.995 457.192 398.197Q458.385 397.399 459.598 396.631Q460.811 395.863 462.043 395.127Q463.275 394.39 464.525 393.684Q465.775 392.978 467.042 392.304C502.381 373.193 543.296 374.506 580.799 385.729C585.768 387.832 593.09 389.089 598.527 389.661C601.491 390.838 604.298 391.767 607.452 392.317C612.6 393.767 617.977 395.389 622.885 397.515C621.014 399.299 618.923 401.043 617.274 403.027C615.813 403.751 614.291 404.43 612.896 405.272C610.588 406.424 608.069 407.498 605.883 408.853C601.347 410.76 593.485 415.043 588.804 415.566C588.052 416.51 587.38 417.274 586.911 418.4L578.907 421.737C575.878 432.529 563.463 451.969 557.021 461.648C555.151 464.457 552.83 467.071 551.074 469.915C547.51 473.678 536.379 481.055 531.434 481.617C524.708 485.178 518.186 487.296 510.592 488.061C505.422 489.987 500.046 490.223 494.597 490.613C476.553 491.905 459.684 490.963 442.332 485.267C437.416 483.653 428.581 478.494 424.107 478.485C421.973 477.189 420.224 475.435 418.397 473.748L409.225 495.616C407.493 499.778 405.938 504.575 403.564 508.412Z"/>
	<path fill="#FDD404" d="M553.046 406.54C557.989 408.284 565.796 409.405 569.805 412.7C573.37 415.63 573.17 419.039 573.508 423.288C575.346 422.898 577.119 422.305 578.907 421.737C575.878 432.529 563.463 451.969 557.021 461.648C555.151 464.457 552.83 467.071 551.074 469.915C547.51 473.678 536.379 481.055 531.434 481.617C539.201 476.089 545.698 469.843 550.287 461.386C560.047 443.401 558.588 425.464 553.046 406.54Z"/>
	<path fill="#FDD404" d="M418.397 473.748C431.471 444.737 448.84 422.554 479.456 410.954C475.07 431.177 475.436 451.315 487.067 469.255C492.538 477.695 501.085 484.669 510.592 488.061C505.422 489.987 500.046 490.223 494.597 490.613C476.553 491.905 459.684 490.963 442.332 485.267C437.416 483.653 428.581 478.494 424.107 478.485C421.973 477.189 420.224 475.435 418.397 473.748Z"/>
	<path fill="#FDD404" d="M676.909 533.976C679.644 534.537 682.637 534.997 684.319 537.495C685.334 539.003 685.771 540.799 686.21 542.538C685.682 544.436 685.276 546.453 684.247 548.15L684.405 549.045C687.905 550.336 696.316 550.859 701.093 552.24C718.517 557.278 733.057 572.898 740.44 588.999C748.594 606.785 748.398 628.358 741.499 646.503C735.597 662.025 722.726 678.657 707.304 685.694C706.391 686.11 705.427 686.524 704.455 686.784C689.645 691.424 675.973 692.938 660.754 689.012C644.708 684.874 628.133 674.308 619.577 659.858C615.948 663.697 612.065 666.707 606.98 668.342C601.484 670.108 593.677 670.338 588.402 667.585C586.23 666.451 584.448 664.649 582.283 663.521L581.701 663.224C583.266 665.29 584.621 667.742 585.52 670.174C587.658 675.962 587.292 682.215 584.695 687.793Q584.419 688.378 584.114 688.949Q583.809 689.519 583.476 690.074Q583.142 690.628 582.781 691.165Q582.42 691.702 582.033 692.22Q581.645 692.738 581.232 693.236Q580.819 693.734 580.382 694.211Q579.944 694.687 579.483 695.141Q579.022 695.595 578.538 696.025Q578.055 696.455 577.551 696.86Q577.046 697.265 576.522 697.645Q575.998 698.024 575.455 698.376Q574.913 698.729 574.353 699.053Q573.793 699.378 573.218 699.674Q572.643 699.97 572.053 700.236Q571.464 700.503 570.861 700.739Q570.259 700.976 569.646 701.182C563.65 703.144 557.282 702.653 551.753 699.586C545.649 696.2 541.146 690.128 539.274 683.441C537.553 677.297 538.158 670.718 541.417 665.179C544.708 659.587 549.701 655.957 556.031 654.565C564.176 652.774 573.028 656.636 579.754 660.951C578.472 658.468 577.081 655.964 576.069 653.356C574.026 648.087 575.098 641.581 577.377 636.554C580.072 630.61 584.727 626.293 590.871 624.079C596.988 621.875 602.015 622.099 607.786 624.832C608.283 607.093 612.308 590.559 622.797 575.967C630.169 565.712 642.122 556.51 654.179 552.585C659.768 550.765 665.661 549.947 671.445 548.988L669.467 545.811L668.22 545.994L667.552 545.286C667.247 542.549 668.369 539.973 670.107 537.875C671.364 536.358 673.172 535.25 675.135 535.016L676.909 533.976Z"/>
	<path fill="#FBFDFA" d="M677.461 537.613C679.375 538.1 681.343 538.748 682.49 540.502C683.738 542.411 683.388 544.848 682.674 546.858C682.569 547.15 682.459 547.44 682.351 547.732C680.7 549.449 679.041 550.427 676.59 550.441C674.655 550.452 673.133 549.865 671.445 548.988L669.467 545.811C669.843 544.437 670.353 543.002 671.07 541.764C672.535 539.235 674.763 538.328 677.461 537.613Z"/>
	<path fill="#FBFDFA" d="M552.5 662.002C553.935 661.996 555.518 662.178 556.862 662.701C560.838 664.248 562.396 667.785 563.934 671.442C562.035 676.709 560.578 678.909 555.46 681.378C553.849 681.454 552.268 681.562 550.712 681.043C548.24 680.219 546.177 678.572 545.107 676.169C544.033 673.757 544.095 670.99 545.117 668.569C546.546 665.189 549.256 663.418 552.5 662.002Z"/>
	<path fill="#FBFDFA" d="M587.735 630.492C589.376 630.733 590.879 631.013 592.354 631.812Q592.793 632.05 593.206 632.33Q593.619 632.61 594.002 632.929Q594.385 633.249 594.734 633.605Q595.084 633.961 595.396 634.351Q595.708 634.74 595.98 635.158Q596.252 635.577 596.481 636.02Q596.71 636.463 596.894 636.927Q597.077 637.391 597.214 637.871Q597.365 638.396 597.46 638.933Q597.555 639.471 597.593 640.015Q597.631 640.56 597.612 641.105Q597.593 641.651 597.517 642.191Q597.44 642.732 597.308 643.262Q597.175 643.791 596.987 644.304Q596.8 644.816 596.56 645.307Q596.319 645.797 596.029 646.259C594.28 649.04 592.054 649.937 588.984 650.732C587.546 650.636 586.085 650.55 584.699 650.126C582.442 649.436 580.425 647.875 579.359 645.745C578.172 643.373 578.329 640.551 579.298 638.134C580.938 634.047 583.891 632.18 587.735 630.492Z"/>
	<path fill="#FBFDFA" d="M653.69 558.066C655.015 557.98 656.418 557.86 657.739 558.027C659.168 558.208 660.372 559.006 661.221 560.155C662.147 561.408 662.44 562.957 662.084 564.47C661.687 566.152 660.402 567.583 658.848 568.293C656.647 569.298 655.073 568.698 652.931 567.923C640.724 578.841 629.318 589.678 625.271 606.093C623.959 611.413 623.475 616.782 623.402 622.251C623.225 635.537 626.267 644.061 633.041 655.268C633.383 655.954 633.58 656.679 633.816 657.407L633.202 657.667C629.644 655.569 626.794 649.977 624.929 646.359C617.608 632.16 617.483 614.765 622.503 599.734C627.341 585.246 636.997 573.558 650.618 566.729C650.4 565.374 649.979 563.691 650.2 562.327C650.563 560.087 651.971 559.275 653.69 558.066Z"/>
	<path fill="#FBFDFA" d="M687.46 566.545C688.624 566.471 689.843 566.36 691.005 566.463C692.702 566.614 694.218 567.631 695.165 569.011C697.282 572.097 695.815 578.185 695.322 581.62C700.796 584.047 706.402 586.304 711.048 590.178C716.166 594.447 720.079 600.428 720.53 607.213C720.993 614.175 717.456 618.984 713.012 623.844C718.447 629.239 722.586 634.567 722.672 642.616C722.748 649.627 719.631 656.138 714.647 660.978C707.586 667.835 698.022 670.094 688.449 669.907C688.718 673.148 689.252 677.196 687.109 679.939C685.558 681.925 683.746 682.087 681.425 682.273C679.427 681.794 677.511 680.86 676.221 679.205C673.916 676.245 674.8 671.989 675.18 668.562C668.581 667.585 658.046 667.405 653.272 661.975C652.344 660.92 651.749 659.546 651.993 658.118C652.316 656.228 653.57 654.713 655.113 653.652C658.852 651.084 661.849 651.718 665.995 652.529C665.991 633.95 668.09 615.553 668.704 596.994C665.363 597.375 662.576 597.888 659.52 596.189C657.813 595.241 656.362 593.834 655.912 591.872C655.489 590.029 656.042 588.08 657.133 586.569C660.968 581.261 676.015 581.609 682.62 580.757C682.787 578.337 682.889 575.839 683.225 573.439C683.681 570.184 684.815 568.437 687.46 566.545Z"/>
	<path fill="#EBCE12" d="M682.788 595.319Q684.574 595.308 686.358 595.407C692.199 595.704 700.351 598.784 704.185 603.306C705.404 604.745 706.098 606.278 705.812 608.211C705.427 610.812 702.901 612.896 700.956 614.387C694.272 617.834 689.076 618.952 681.515 617.77C681.33 610.402 682.366 602.703 682.788 595.319Z"/>
	<path fill="#EBCE12" d="M682.838 632.115C684.785 631.917 686.791 631.753 688.747 631.879C694.632 632.26 703.181 634.572 707.11 639.161C708.337 640.595 709.107 642.422 708.854 644.334C708.392 647.823 705.263 650.454 702.675 652.473Q702.209 652.75 701.733 653.007C694.44 656.932 687.953 656.151 680.364 653.807C680.545 647.897 679.195 641.428 680.167 635.646C680.49 633.726 681.329 633.13 682.838 632.115Z"/>
</svg>
