<?xml version="1.0" encoding="utf-8" ?>
<svg xmlns="http://www.w3.org/2000/svg" xmlns:xlink="http://www.w3.org/1999/xlink" width="1024" height="1024">
	<path fill="#00000F" d="M0 0L0.424402 0L1023.4 0L1024 0L1024 213.5L1024 316.5L1024 568.518L1024 571.365L1024 594.269L1024 617.008L1024 619.065L1024 1024L1010.02 1024L970.525 1024L966.346 1024L953.272 1024L947.831 1024L798.891 1024L797.389 1024L709.979 1024L699.358 1024L656.17 1024L654.712 1024L638.13 1024L635.423 1024L609.135 1024L607.173 1024L542.512 1024L536.728 1024L486.32 1024L467.303 1024L392.083 1024L385.398 1024L344.096 1024L340.643 1024L190.048 1024L183.638 1024L79.6437 1024L60.8164 1024L15.509 1024L0 1024L0 593.913L0 574.726L0 571.511L0 319.751L0 237.731L0 0Z"/>
	<path fill="#0187E7" d="M120.965 903.757L122.062 904.179C123.166 907.065 120.129 917.656 119.168 920.977C118.446 920.549 118.254 920.654 118.02 919.79C116.975 915.939 118.886 907.061 120.965 903.757Z"/>
	<path fill="#0187E7" d="M108.906 902.341L109.583 902.912C110.468 906.976 107.594 916.413 105.911 920.273C105.727 920.127 105.531 919.996 105.36 919.835C104.707 919.217 104.592 918.42 104.524 917.573C104.127 912.574 105.591 906.135 108.906 902.341Z"/>
	<path fill="#0187E7" d="M343.691 647.124C344.72 647.581 345.075 647.638 345.616 648.681C347.165 651.671 351.405 664.507 350.461 667.363C349.701 667.253 349.26 667.399 348.761 666.739C346.415 663.634 343.252 650.785 343.691 647.124Z"/>
	<path fill="#0187E7" d="M797.389 1024C797.338 1019.42 799.482 1013.31 802.633 1009.95C803.713 1008.79 804.965 1007.53 806.537 1007.28C807.113 1011.55 800.867 1019.88 798.891 1024L797.389 1024Z"/>
	<path fill="#0187E7" d="M385.398 1024C384.231 1021.16 382.009 1017.35 383.056 1014.25C383.8 1013.87 383.767 1013.67 384.633 1013.96C387.694 1014.98 390.26 1019.75 391.502 1022.5C391.848 1023.27 391.85 1023.32 392.083 1024L385.398 1024Z"/>
	<path fill="#0187E7" d="M788.884 841.22C789.442 841.47 789.563 841.732 789.915 842.215C790.34 848.767 787.837 858.006 784.587 863.705L783.982 863.52C783.748 863.124 783.685 863.077 783.581 862.555C782.71 858.186 786.391 844.964 788.884 841.22Z"/>
	<path fill="#0187E7" d="M339.17 525.173C340.118 525.614 339.677 525.285 340.412 526.261C341.272 532.749 339.605 547.997 338.2 554.423L337.007 553.221C335.537 547.786 337.091 530.533 339.17 525.173Z"/>
	<path fill="#0187E7" d="M269.169 685.845C269.256 686.066 269.349 686.285 269.431 686.508C271.305 691.598 270.655 708.209 268.294 713.104C268.186 712.875 268.07 712.65 267.972 712.418C264.892 705.102 266.447 693.132 269.169 685.845Z"/>
	<path fill="#0187E7" d="M229.076 861.63C229.903 862.001 230.404 862.071 230.671 863.041C231.445 865.853 231.19 869.868 231.514 872.821C231.822 875.632 234.187 885.903 233.736 887.751C233.652 888.096 233.353 888.349 233.162 888.647C231.346 885.431 230.139 882.171 229.218 878.596C227.926 873.584 226.328 866.32 229.076 861.63Z"/>
	<path fill="#0187E7" d="M658.655 343.272C658.827 343.407 659.017 343.522 659.172 343.676C660.741 345.244 660.64 357.122 660.679 360.103C660.719 363.144 661.242 368.057 659.031 370.299C657.785 366.016 657.369 361.349 656.997 356.921C656.641 352.677 655.77 346.662 658.655 343.272Z"/>
	<path fill="#0187E7" d="M715.874 642.823C717.755 643.674 737.19 664.591 738.341 667.121C736.915 666.786 735.837 666.088 734.624 665.297C727.847 660.874 717.514 651.032 715.874 642.823Z"/>
	<path fill="#0187E7" d="M270.542 814.81C271.501 815.695 271.479 816.545 271.595 817.788C271.942 821.524 273.302 845.443 272.229 847.411C271.997 847.835 271.608 848.152 271.298 848.522C268.345 840.633 268.248 823.125 270.542 814.81Z"/>
	<path fill="#0187E7" d="M150.598 893.193L151.785 893.7C154.905 898.099 155.241 916.478 154.357 922.268C153.695 922.361 154.124 922.367 153.142 921.845C150.572 915.062 149.936 900.434 150.598 893.193Z"/>
	<path fill="#0187E7" d="M342.831 675.257C343.065 675.39 343.317 675.497 343.534 675.658C343.736 675.809 359.907 703.909 360.54 705.25C360.861 705.929 360.984 706.522 361.139 707.251L359.537 707.322C354.101 703.097 343.913 682.23 342.831 675.257Z"/>
	<path fill="#0187E7" d="M359.071 480.59C359.65 480.775 360.285 480.789 360.607 481.359C361.996 483.825 359.522 509.383 358.217 513.452C357.726 513.387 357.337 513.156 356.892 512.948C355.08 508.492 358.022 486.038 359.071 480.59Z"/>
	<path fill="#0187E7" d="M357.313 200.275C357.685 200.511 358.049 200.953 358.365 201.265C359.615 206.543 354.033 224.6 351.766 229.81C351.129 229.466 350.908 229.523 350.644 228.957C348.951 225.33 355.409 204.346 357.313 200.275Z"/>
	<path fill="#0187E7" d="M172.391 732.374L172.94 733.249C171.897 737.279 170.089 741.033 169.03 745.095C167.453 751.145 166.586 757.536 164.672 763.472C164.36 764.439 163.963 765.002 163.29 765.74C162.84 764.887 162.361 764.042 162.2 763.077C160.731 754.288 167.421 739.369 172.391 732.374Z"/>
	<path fill="#0187E7" d="M601.932 126.27C604.465 126.686 605.784 128.142 607.598 129.844C612.76 134.683 624.901 146.855 625.149 153.792C624.958 153.67 624.763 153.553 624.577 153.425C622.998 152.34 602.259 128.182 602.19 127.967C602.016 127.422 602.018 126.835 601.932 126.27Z"/>
	<path fill="#0187E7" d="M270.083 734.317C270.239 734.445 270.42 734.547 270.55 734.701C272.508 737.023 274.956 764.439 274.754 768.376C273.888 767.92 273.486 767.866 272.956 767C269.352 761.117 268.239 740.854 270.083 734.317Z"/>
	<path fill="#0187E7" d="M754.769 715.818C754.835 716.025 754.909 716.229 754.965 716.438C756.045 720.498 748.173 742.821 745.501 746.829C745.191 746.159 744.914 745.534 744.868 744.782C744.403 737.166 749.504 721.419 754.769 715.818Z"/>
	<path fill="#0187E7" d="M544.459 84.0658C545.152 84.0017 545.79 83.9468 546.484 84.0344C553.178 84.8783 570.823 92.8505 574.955 98.286C575.782 99.3738 575.462 99.9145 575.299 101.206C575.098 101.129 574.893 101.061 574.695 100.975C569.421 98.6921 564.485 94.9391 559.364 92.24C555.036 89.9587 549.762 88.3705 545.723 85.7107C545.067 85.2783 544.768 84.7645 544.459 84.0658Z"/>
	<path fill="#0187E7" d="M656.983 268.399C657.236 268.604 657.513 268.783 657.741 269.016C661.634 272.986 663.817 301.141 662.864 307.145C662.257 306.788 661.388 306.488 661.057 305.839C659.718 303.211 659.386 290.381 658.885 286.508C658.221 281.365 656.633 275.617 656.559 270.49C656.548 269.734 656.757 269.108 656.983 268.399Z"/>
	<path fill="#0187E7" d="M329.042 567.694C329.832 568.025 330.109 568.269 330.715 568.844C331.92 574.042 332.584 604.804 330.904 609.107C327.426 604.579 328.482 574.355 329.042 567.694Z"/>
	<path fill="#0187E7" d="M377.384 444.61L378.742 445.142C380.206 449.395 376.908 478.544 375.326 483.722C374.79 483.412 374.632 483.444 374.368 482.955C372.831 480.107 375.943 448.879 377.384 444.61Z"/>
	<path fill="#0187E7" d="M509.09 47.7735C509.664 48.2763 509.699 48.1334 509.854 48.8002C511.264 54.8599 504.226 80.0549 500.831 85.6961L500.177 84.9669C499.385 79.4511 506.759 54.5291 509.09 47.7735Z"/>
	<path fill="#0187E7" d="M115.131 843.326L115.669 844.018C116.073 850.393 110.445 874.437 107.15 879.77C106.793 879.274 106.434 878.81 106.261 878.213C104.86 873.401 112.218 847.939 115.131 843.326Z"/>
	<path fill="#0187E7" d="M387.869 407.579L389.361 408.316C391.609 412.922 390.722 436.932 389.4 442.316C388.616 442.082 388.324 441.925 387.682 441.468C386.162 437.425 386.43 411.796 387.869 407.579Z"/>
	<path fill="#0187E7" d="M336.312 328.606C337.217 328.81 337.588 328.962 338.359 329.412C338.974 335.541 338.596 362.81 336.873 367.936L335.341 366.475C333.355 359.553 335.389 336.7 336.312 328.606Z"/>
	<path fill="#0187E7" d="M607.173 1024C609.907 1017.74 622.176 992.573 627.738 990.305L628.029 990.347C627.499 995.53 612.929 1018.71 609.135 1024L607.173 1024Z"/>
	<path fill="#0187E7" d="M939.435 996.157C945.977 1004.19 949.396 1014.5 953.272 1024L947.831 1024Q945.036 1017.27 942.931 1010.29Q940.827 1003.31 939.435 996.157Z"/>
	<path fill="#0187E7" d="M300.985 824.364C301.161 824.492 301.354 824.6 301.513 824.749C304.843 827.848 312.693 858.618 313.351 864.23L312.552 863.915C307.282 857.068 301.168 833.678 300.985 824.364Z"/>
	<path fill="#0187E7" d="M818.104 634.055C818.17 634.078 818.237 634.1 818.303 634.125C827.655 637.567 846.449 655.016 850.564 663.924C850.118 663.772 850.053 663.763 849.566 663.519C846.112 661.788 819.046 636.66 818.104 634.055Z"/>
	<path fill="#0187E7" d="M368.056 385.842C368.599 386.032 369.159 386.214 369.548 386.671C372.033 389.59 370.853 420.666 370.296 426.387C369.635 426.432 369.084 426.346 368.432 426.254C366.904 423.573 367.225 389.775 368.056 385.842Z"/>
	<path fill="#0187E7" d="M795.434 981.995L795.587 982.281C795.56 983.509 794.446 984.106 793.581 984.936L794.27 985.703L793.156 985.744C782.788 995.093 773.439 1005.12 764.154 1015.54L763.74 1014.79C767.253 1003.53 785.398 987.611 795.434 981.995Z"/>
	<path fill="#0187E7" d="M758.748 873.375C759.175 873.855 759.22 873.737 759.259 874.34C759.642 880.393 746.771 905.634 742.842 910.71L742.145 909.745C742.689 901.626 753.984 880.636 758.748 873.375Z"/>
	<path fill="#0187E7" d="M635.423 1024C639.144 1012.35 644.765 995.944 654.797 988.204C651.709 996.491 647.499 1004.4 643.56 1012.31C641.689 1016.07 639.418 1020 638.13 1024L635.423 1024Z"/>
	<path fill="#0187E7" d="M644.78 854.787L645.36 855.384C645.499 859.789 632.953 891.086 629.948 894.536C629.442 893.947 629.282 893.984 629.203 893.337C628.529 887.831 641.324 859.122 644.78 854.787Z"/>
	<path fill="#0187E7" d="M861.206 706.652C861.812 706.91 862.271 707.138 862.694 707.672C868.17 714.578 874.126 740.126 873.322 748.774L872.67 748.617C871.671 747.686 871.404 746.63 871.004 745.363C869.127 739.414 868.003 733.069 866.432 727.016C864.704 720.357 862.138 713.443 861.206 706.652Z"/>
	<path fill="#0187E7" d="M655.271 661.821C656.112 662.42 657.03 663.291 657.372 664.298C658.919 668.857 645.528 690.853 642.426 695.813L641.643 696.58L641.013 696.387C641.002 689.845 652.35 669.391 655.271 661.821Z"/>
	<path fill="#0187E7" d="M471.428 923.716C472.134 923.939 471.745 923.743 472.476 924.496C472.315 926.588 470.66 928.985 469.658 930.864C464.036 941.407 457.286 951.217 448.348 959.223L447.746 959.257L447.55 958.588C449.193 955.409 451.583 952.654 453.551 949.668C459.345 940.876 464.922 932.013 471.428 923.716Z"/>
	<path fill="#0187E7" d="M324.74 979.167C332.054 993.579 337.492 1009.22 344.096 1024L340.643 1024C334.416 1011.25 326.308 993.148 324.74 979.167Z"/>
	<path fill="#0187E7" d="M635.851 786.866C635.901 787.08 635.979 787.29 636.003 787.509C636.399 791.243 620.1 823.305 617.01 827.794C616.767 827.185 616.645 827.066 616.643 826.434C616.621 819.103 630.169 791.97 635.851 786.866Z"/>
	<path fill="#0187E7" d="M926.49 807.803C927.006 808.158 927.086 808.167 927.537 808.739C931.183 813.37 934.841 833.761 935.508 839.751C935.994 844.125 936.101 848.393 935.922 852.787L935.047 852.101C932.493 846.781 926.543 814.311 926.49 807.803Z"/>
	<path fill="#0187E7" d="M272.062 888.826C272.216 888.962 272.395 889.074 272.523 889.235C273.501 890.466 279.017 925.481 279.392 929.649C279.563 931.552 279.665 933.323 279.14 935.18Q278.639 934.157 278.198 933.107C274.697 924.765 268.834 896.848 272.062 888.826Z"/>
	<path fill="#0187E7" d="M340.568 463.673C341.513 464.016 341.801 464.199 342.534 464.823C343.214 471.383 342.343 500.131 341.043 506.348C340.177 506.092 339.777 505.823 339.121 505.205C337.202 499.938 338.946 469.76 340.568 463.673Z"/>
	<path fill="#0187E7" d="M328.38 867.233C328.564 867.347 328.766 867.437 328.932 867.576C330.282 868.706 347.522 912.855 347.959 916.466L347.017 916.21C340.196 909.59 329.59 877.205 328.38 867.233Z"/>
	<path fill="#0187E7" d="M313.923 493.614C315.154 493.866 315.29 493.721 316.216 494.663C317.393 502.186 317.852 533.391 316.557 540.403C315.496 540.216 314.934 540.16 314.17 539.368C313.4 533.155 313.874 526.496 313.816 520.223C313.735 511.471 313.084 502.32 313.923 493.614Z"/>
	<path fill="#0187E7" d="M708.634 529.709C709.325 529.83 710.11 529.756 710.581 530.327C713.137 533.426 723.269 571.102 722.978 574.93C717.88 570.174 709.212 537.668 708.634 529.709Z"/>
	<path fill="#0187E7" d="M422.393 125.95L422.679 126.513C421.777 131.248 401.726 150.196 397.06 155.7L396.33 154.739C396.336 154.081 396.334 153.454 396.491 152.811C398.676 143.87 414.899 130.563 422.393 125.95Z"/>
	<path fill="#0187E7" d="M361.379 946.789C361.545 946.854 361.723 946.895 361.878 946.983C364.163 948.29 368.506 957.794 370.232 960.583C373.268 965.488 390.323 988.927 391.012 991.232C389.839 991.31 389.31 991.132 388.372 990.452C381.013 985.113 362.41 955.609 361.379 946.789Z"/>
	<path fill="#0187E7" d="M669.395 379.21C670.712 379.462 670.977 379.26 671.89 380.315C673.402 389.833 674.013 413.765 672.83 422.916C671.976 422.526 671.73 422.353 671.097 421.721C669.262 416.536 668.173 384.525 669.395 379.21Z"/>
	<path fill="#0187E7" d="M551.503 924.749L552.121 924.944L552.343 925.806C548.942 932.523 545.553 939.162 542.363 945.986C538.968 953.25 535.805 960.97 531.457 967.715C531.171 967.747 530.894 967.594 530.619 967.513C530.61 967.306 530.582 967.098 530.591 966.89C530.88 960.325 541.102 939.501 544.642 933.737C546.653 930.461 548.904 927.574 551.503 924.749Z"/>
	<path fill="#0187E7" d="M698.161 296.128L699.901 296.652C703.094 301.439 706.714 338.22 705.632 345.325L704.484 344.243C702.479 337.952 697.835 302.941 698.161 296.128Z"/>
	<path fill="#0187E7" d="M895.318 955.244C895.826 955.655 896.151 955.917 896.511 956.513C900.534 963.159 902.124 993.738 900.63 1001.26C900.124 1000.89 899.807 1000.76 899.504 1000.24C897.683 997.126 894.441 959.702 895.318 955.244Z"/>
	<path fill="#0187E7" d="M467.25 56.562C468.407 56.5988 468.392 56.4254 469.356 57.1967C469.018 58.1652 468.658 58.554 467.756 59.0266C462.891 61.575 457.129 62.6509 451.997 64.5913C443.795 67.6926 436.289 72.0611 428.713 76.4153C428.286 76.3903 427.553 76.1239 427.131 76.0088L426.867 75.1798C430.084 70.2846 447.161 62.545 453.307 60.4177C457.851 58.8447 462.594 57.7555 467.25 56.562Z"/>
	<path fill="#0187E7" d="M902.041 740.187C902.675 740.465 903.025 740.641 903.429 741.245C907.526 747.356 911.855 778.91 910.892 786.674C910.509 786.44 910.298 786.348 909.997 785.955C907.118 782.203 902.013 746.794 902.041 740.187Z"/>
	<path fill="#0187E7" d="M735.27 718.371C735.581 718.685 735.732 719.086 735.931 719.478C733.864 726.163 730.675 732.715 728.025 739.203C724.321 748.268 720.884 757.441 717.097 766.473L716.434 765.728C716.365 754.537 728.745 726.93 735.27 718.371Z"/>
	<path fill="#001BD3" d="M515.567 430.702C517.964 430.42 520.477 430.495 522.894 430.428C506.464 436.907 487.154 436.197 469.769 435.827L460.51 435.052C478.676 432.288 497.314 432.821 515.567 430.702Z"/>
	<path fill="#0187E7" d="M633.224 176.175C633.866 176.325 634.499 176.589 635.122 176.807C642.943 184.764 650.973 208.815 651.125 219.901C650.288 219.603 649.944 219.387 649.262 218.861C646.946 212.084 644.889 205.174 642.304 198.497C639.919 192.337 633.814 182.231 633.224 176.175Z"/>
	<path fill="#0187E7" d="M314.477 276.203C314.99 276.604 315.215 276.94 315.576 277.473C316.086 283.522 314.283 320.323 312.271 324.269C312.134 324.212 311.991 324.169 311.86 324.098C311.128 323.7 310.794 323.588 310.558 322.778C309.042 317.572 311.655 281.538 314.477 276.203Z"/>
	<path fill="#0187E7" d="M662.647 546.206C663.122 546.567 663.444 546.742 663.781 547.224C665.89 550.244 675.214 591.592 674.557 594.573C673.914 594.129 673.56 593.714 673.112 593.053C668.795 586.688 661.432 553.918 662.647 546.206Z"/>
	<path fill="#0187E7" d="M677.204 730.894L677.65 731.486C676.622 737.227 659.637 770.406 655.591 776.435C654.902 775.617 654.984 776.015 655 775.101C655.137 766.93 671.391 736.783 677.204 730.894Z"/>
	<path fill="#0187E7" d="M163.757 708.866C164.544 709.427 164.22 709.026 164.497 710.223C163.282 713.725 152.035 726.375 148.994 730.461C144.267 736.811 140.595 744.005 135.645 750.142C134.99 749.429 134.931 749.274 135.009 748.271C135.709 739.261 156.72 714.531 163.757 708.866Z"/>
	<path fill="#FD0844" d="M352.189 563.806C352.497 564.736 352.487 564.432 352.488 565.251C352.497 570.309 353.16 575.358 353.405 580.416C353.681 586.13 353.501 591.886 353.438 597.605C353.422 599.075 353.81 601.305 352.783 602.31L351.357 600.412C350.431 598.055 349.633 595.704 349.028 593.244C346.737 583.932 347.135 572.217 352.189 563.806Z"/>
	<path fill="#0187E7" d="M826.732 703.303C827.279 703.692 827.71 704.093 828.096 704.647C833.005 711.696 839.592 741.645 837.817 750.157L836.595 749.706C835.262 747.608 826.298 705.937 826.732 703.303Z"/>
	<path d="M295.922 612.222Q296.065 609.838 296.351 607.467L296.926 607.541L297.749 609.246L297.942 611.482C297.889 613.664 297.821 615.795 297.55 617.965L297.441 615.308C297.167 622.062 297.739 628.825 297.983 635.574Q298.577 649.362 299.809 663.107Q301.042 676.852 302.91 690.526Q304.778 704.199 307.278 717.771Q309.778 731.343 312.904 744.785C313.674 748.073 321.077 777.05 320.803 777.537L320.445 777.564C317.704 771.366 315.864 760.643 314.167 753.803Q308.071 728.686 304.001 703.162Q299.931 677.638 297.912 651.871C296.868 638.713 296.711 625.41 295.922 612.222Z"/>
	<path fill="#0187E7" d="M675.274 491.615C675.861 491.788 676.382 492.028 676.939 492.278C678.846 496.129 686.528 534.818 685.493 538.665C684.902 538.512 684.395 538.228 683.847 537.961C680.093 532.207 674.341 498.842 675.274 491.615Z"/>
	<path fill="#0187E7" d="M690.214 192.217C691.3 192.684 691.48 192.8 692.113 193.87C697.537 203.046 706.267 237.602 703.806 246.73C703.297 246.212 702.935 245.731 702.689 245.038C700.706 239.465 700.302 232.787 699.042 226.959C697.315 218.97 694.9 211.26 692.463 203.472C691.525 200.477 688.963 195.081 690.214 192.217Z"/>
	<path fill="#0187E7" d="M199.585 690.781L200.331 691.725C198.458 701.505 195.135 711.245 192.614 720.894C190.521 728.909 189.137 737.383 186.648 745.253C186.39 746.069 186.126 746.527 185.533 747.141C185.188 746.765 184.826 746.411 184.584 745.952C181.128 739.382 196.304 699.697 199.585 690.781Z"/>
	<path fill="#0187E7" d="M346.01 379.106C346.927 379.404 347.311 379.565 347.904 380.337C348.402 387.889 349.193 429.085 346.908 433.471C346.025 432.649 345.494 432.323 345.191 431.119C344.076 426.696 344.53 387.153 345.097 381.747C345.206 380.712 345.51 380.001 346.01 379.106Z"/>
	<path fill="#0187E7" d="M661.468 114.707C662.21 114.864 662.582 115.09 663.211 115.549C671.639 121.708 690.605 149.528 691.95 159.849C691.269 159.828 690.957 159.644 690.353 159.355C685.573 153.288 682.23 145.803 677.936 139.341C673.589 132.8 668.209 126.909 664.015 120.286C662.885 118.502 662.101 116.719 661.468 114.707Z"/>
	<path fill="#0187E7" d="M682.997 371.741C683.929 372.06 684.283 372.267 685.038 372.843C686.265 379.86 686.546 387.141 687.405 394.225C688.568 403.815 690.481 413.908 690.834 423.539C690.877 424.734 690.744 425.524 690.378 426.647C689.952 426.428 689.522 426.014 689.143 425.716C686.215 418.36 681.16 379.225 682.997 371.741Z"/>
	<path fill="#0187E7" d="M312.806 393.63C313.805 393.678 314.715 393.849 315.692 394.058C317.306 398.633 316.279 436.843 315.869 443.595C315.059 443.464 314.552 443.262 313.811 442.935C311.756 439.105 312.574 400.405 312.806 393.63Z"/>
	<path fill="#0187E7" d="M716.509 439.822L717.517 440.729C719.945 447.165 728.206 488.717 727.352 494.6C726.666 494.081 726.25 493.683 725.822 492.918C722.552 487.064 714.624 446.213 716.509 439.822Z"/>
	<path fill="#0187E7" d="M699.898 756.947L700.218 757.264C700.544 760.411 677.264 799.23 673.571 804.021C673.146 803.569 673.105 803.185 673.192 802.539C674.38 793.777 692.578 762.304 699.898 756.947Z"/>
	<path fill="#0187E7" d="M688.784 572.185C689.635 572.397 690.282 572.571 690.825 573.314C693.095 576.417 703.588 613.147 704.788 618.895C705.073 620.261 705.089 621.444 704.965 622.827C704.29 622.086 704.36 622.21 703.788 621.395C699.511 615.302 687.425 578.789 688.784 572.185Z"/>
	<path fill="#0187E7" d="M416.893 105.976C417.146 106.307 417.172 106.749 417.262 107.152C413.893 113.656 389.956 134.051 383.204 136.485L382.612 135.269C384.536 128.627 410.319 110.083 416.893 105.976Z"/>
	<path fill="#001BD3" d="M434.849 515.347C440.755 503.418 446.017 490.681 448.767 477.611C449.972 471.879 450.803 462.337 452.595 457.227L453.359 457.457L452.803 457.082C452.858 457.271 452.927 457.456 452.968 457.648C453.59 460.612 452.964 464.494 452.756 467.55C451.508 485.842 447.623 504.45 439.722 521.109C438.673 516.321 445.862 508.585 445.088 502.951C444.902 501.593 444.258 501.029 443.223 500.243C441.378 501.396 437.535 512.407 435.505 515.408L434.849 515.347Z"/>
	<path fill="#0187E7" d="M180.598 771.745C180.714 771.983 180.863 772.207 180.947 772.457C181.958 775.493 180.752 782.099 180.613 785.434C180.208 795.138 180.266 804.669 180.872 814.367C181.089 817.825 182.999 825.355 181.424 828.185L180.483 827.797C179.893 826.636 179.458 825.485 179.062 824.243C175.394 812.712 175.146 782.205 180.598 771.745Z"/>
	<path fill="#0187E7" d="M795.806 596.333C796.356 596.408 796.61 596.421 797.119 596.56C808.884 599.785 838.75 626.267 844.291 636.23C842.493 635.759 841.236 634.734 839.81 633.606C832.675 627.96 826.118 621.485 819.156 615.607C811.446 609.097 803.299 603.096 795.806 596.333Z"/>
	<path fill="#0187E7" d="M822.453 774.215C823.259 774.84 823.119 774.586 823.552 775.42C827.892 783.776 828.205 825.483 825.685 834.832C825.479 835.137 825.101 835.282 824.789 835.476L824.211 834.721C823.495 828.251 823.688 821.47 823.39 814.946C822.94 805.108 820.918 782.841 822.453 774.215Z"/>
	<path fill="#0187E7" d="M646.801 169.782C647.255 169.762 647.547 169.731 648.014 169.799C649.535 170.02 651.119 172.147 651.966 173.306C659.739 183.951 673.587 226.068 671.44 239.306L670.633 239.314C668.503 235.729 665.506 217.879 663.788 211.928Q660.077 198.714 654.613 186.123C652.16 180.604 649.167 175.336 646.801 169.782Z"/>
	<path fill="#0187E7" d="M544.873 112.126C551.53 111.206 559.86 115.978 565.52 118.998C571.028 121.937 576.415 125.159 581.35 128.997C591.142 136.614 608.372 154.019 612.029 165.898C608.393 161.271 605.222 156.316 601.374 151.847C590.929 139.716 576.765 129.352 562.506 122.062C558.565 120.048 546.665 115.131 544.873 112.126Z"/>
	<path fill="#0187E7" d="M950.527 891.34C950.706 891.465 950.907 891.564 951.065 891.715C958.455 898.753 973.21 949.134 973.539 960.154C973.417 960.074 973.284 960.006 973.173 959.912C968.636 956.067 951.485 899.597 950.527 891.34Z"/>
	<path fill="#0187E7" d="M754.227 763.855C754.706 764.334 754.577 764.095 754.789 764.759C755.412 766.704 734.247 825.621 730.549 832.329C730.048 831.872 729.976 831.608 729.735 830.99C730.984 818.884 746.064 772.195 754.227 763.855Z"/>
	<path fill="#0187E7" d="M541.674 60.4082C555.056 60.2897 581.585 69.2546 594.272 75.1057C599.747 77.6309 613.961 84.2139 616.184 90.2298C615.627 90.2975 615.069 90.5041 614.512 90.433C613.075 90.2494 599.992 81.8075 597.405 80.4744C585.436 74.3067 573.008 70.0528 559.907 67.0518C555.46 66.0333 548.17 65.5433 544.254 63.7563C542.629 63.0146 542.36 61.9188 541.674 60.4082Z"/>
	<path fill="#0187E7" d="M628.992 729.279L629.581 729.51L629.797 730.262C624.554 741.328 618.277 751.924 612.664 762.811C606.258 775.237 600.408 788.203 593.371 800.27L592.659 800.193C592.633 800.04 592.588 799.889 592.58 799.734C592.242 793.198 613.212 752.269 617.705 744.837C621.052 739.3 624.792 734.196 628.992 729.279Z"/>
	<path fill="#0187E7" d="M336.989 234.249C337.918 234.68 338.849 235.015 339.483 235.861C340.733 237.531 338.319 246.799 337.926 248.988C336.113 259.097 335.329 269.151 334.731 279.389C334.374 285.507 334.28 291.752 333.383 297.817C332.426 297.698 332.161 297.634 331.358 297.215C329.781 293.218 330.352 288.066 330.379 283.826C330.476 268.823 330.979 248.206 336.989 234.249Z"/>
	<path fill="#0187E7" d="M346.585 165.77L347.149 166.367C348.021 170.169 330.305 208.074 327.754 214.942C324.636 223.335 322.827 232.204 319.543 240.504C318.913 239.785 318.652 239.549 318.555 238.555C317.323 225.957 338.153 176.104 346.585 165.77Z"/>
	<path fill="#0187E7" d="M926.088 897.736L927.058 898.437C930.998 909.534 934.053 966.318 930.977 976.679C930.826 976.533 930.648 976.411 930.524 976.242C928.816 973.915 925.268 911.031 925.248 903.659C925.242 901.565 925.45 899.74 926.088 897.736Z"/>
	<path fill="#0187E7" d="M97.3095 826.387C97.5597 836.086 67.4697 898.745 61.1014 913.135C57.7479 920.713 55.0021 928.53 51.6924 936.121C51.7934 923.455 89.3935 841.818 97.3095 826.387Z"/>
	<path fill="#0187E7" d="M948.966 950.327C960.392 969.88 968.728 1001.36 970.525 1024L966.346 1024L955.002 975.542C952.986 967.17 950.297 958.838 948.966 950.327Z"/>
	<path fill="#0187E7" d="M402.76 82.9425C403.062 83.1368 403.254 83.4648 403.484 83.7403C403.182 84.3525 403.14 84.5117 402.636 85.1081C399.454 88.8753 391.734 94.2937 387.594 98.0906C373.975 110.583 357.575 127.842 348.238 143.817C345.668 148.214 343.2 154.62 339.579 158.113L338.802 157.051C338.689 156.336 338.671 155.702 338.826 154.989C339.461 152.086 341.189 149.251 342.493 146.596C353.866 123.449 380.499 96.6655 402.76 82.9425Z"/>
	<path fill="#0187E7" d="M536.728 1024C542.367 1004.79 553.317 968.78 567.915 955.252C564.582 964.78 560.251 973.971 556.498 983.341C551.225 996.505 546.467 1010.38 542.512 1024L536.728 1024Z"/>
	<path fill="#0187E7" d="M896.644 809.654L897.742 810.19C901.733 818.295 904.829 882.095 905.008 894.207C905.11 901.081 905.185 908.1 904.017 914.89C903.512 915.23 903.838 915.086 902.972 915.122C902.511 914.264 902.315 913.549 902.205 912.596C900.779 900.206 900.82 887.606 900.055 875.167C898.992 857.881 897.273 840.554 896.583 823.255Q896.299 816.453 896.644 809.654Z"/>
	<path fill="#0187E7" d="M652.592 394.846C653.35 395.15 655.005 395.551 655.459 396.21C657.408 399.032 657.609 428.158 657.822 433.632C658.388 448.195 659.032 462.894 659.998 477.437C660.556 485.832 663.44 511.153 662.004 517.9C661.486 517.742 660.933 517.687 660.547 517.276C655.895 512.312 652.599 409.65 652.592 394.846Z"/>
	<path fill="#0187E7" d="M644.422 639.791C645.064 640.315 645.365 640.349 645.543 641.225C645.951 643.228 645.327 644.902 644.491 646.703C639.209 658.077 632.601 669.033 626.518 679.997C620.828 690.251 615.48 700.72 609.901 711.04C600.375 728.662 591.934 746.941 581.893 764.265C581.437 764.34 581.741 764.331 581.017 764.018C581.264 753.261 634.595 650.53 644.422 639.791Z"/>
	<path fill="#0187E7" d="M255.235 730.829C256.145 734.103 252.521 759.7 252.019 764.662Q249.591 789.362 249.097 814.176C248.866 826.423 249.175 838.704 248.506 850.94C248.412 852.643 248.347 854.283 247.494 855.805L246.565 855.87L245.68 854.908C239.754 823.524 243.079 780.76 249.921 749.653C251.287 743.442 252.594 736.622 255.235 730.829Z"/>
	<path fill="#0187E7" d="M116.806 935.705C118.079 935.513 119.484 935.519 120.772 935.503C147 935.172 169.585 951.398 187.606 968.98C182.815 966.291 178.345 962.724 173.672 959.777C163.195 953.169 152.07 949.313 140.113 946.413C120.195 942.461 100.179 942.365 81.3606 950.843C75.1871 953.624 69.4498 957.199 63.5673 960.528C78.0767 945.708 96.2346 937.558 116.806 935.705Z"/>
	<path fill="#0187E7" d="M677.539 605.121C679.158 605.826 679.725 606.548 680.467 608.155C682.593 612.761 683.886 617.936 685.516 622.743C689.916 635.72 695.501 648.777 704.178 659.509C719.137 678.011 742.675 684.297 765.662 684.578C771.197 684.646 777.283 683.095 782.628 683.645C781.522 684.65 780.736 684.88 779.339 685.287Q774.619 686.529 769.822 687.431C750.34 691.101 731.155 689.564 714.461 678.015C697.154 666.041 688.244 645.993 681.47 626.838C679.63 621.637 677.44 616.22 676.576 610.758C676.2 608.381 676.076 607.116 677.539 605.121Z"/>
	<path fill="#0187E7" d="M703.399 846.538C703.219 857.652 701.508 869.163 699.797 880.155C694.054 917.061 683.654 951.875 670.751 986.849C666.173 999.258 659.981 1011.34 656.17 1024L654.712 1024C658.01 1011.79 662.051 999.864 665.556 987.726Q676.492 949.183 686.851 910.48Q691.132 894.03 694.706 877.413C696.903 867.628 698.768 856.997 702.836 847.807L703.183 847.012C703.253 846.853 703.327 846.696 703.399 846.538Z"/>
	<path fill="#0187E7" d="M285.891 823.101C286.126 823.272 286.381 823.418 286.595 823.614C287.78 824.702 287.275 830.874 287.33 832.824C287.609 842.711 288.681 852.526 289.439 862.382Q293.119 907.773 300.113 952.773C301.839 963.315 303.65 974.024 305.823 984.487C306.861 989.484 309.325 995.085 309.454 1000.12L309.014 999.963C288.475 957.345 283.713 899.9 284.179 853.242C284.275 843.697 283.299 832.275 285.891 823.101Z"/>
	<path fill="#0187E7" d="M699.358 1024C708.675 1014.79 717.989 1005.63 728.254 997.46C749.437 980.594 791.058 955.239 817.987 953.541C792.087 965.684 768.155 982.633 745.059 999.403C733.465 1007.82 722.325 1016.66 709.979 1024L699.358 1024Z"/>
	<path fill="#0187E7" d="M792.498 800.498C792.285 802.249 774.324 824.234 771.591 827.98C766.013 835.625 760.551 843.491 755.706 851.625C746.451 867.161 737.183 883.144 729.135 899.34C721.985 913.728 715.772 928.56 709.403 943.304C700.778 963.271 692.387 983.616 686.607 1004.62C685.628 1002.57 686.112 1000.35 686.421 998.182C687.196 992.74 688.549 987.315 689.683 981.936C692.464 968.741 695.393 955.813 700.14 943.157C716.165 900.427 746.469 850.306 776.903 816.283C781.751 810.863 786.667 804.89 792.498 800.498Z"/>
	<path fill="#0187E7" d="M467.303 1024C456.941 1012.84 446.379 1001.89 436.538 990.266Q431.255 984.07 426.189 977.697Q421.123 971.323 416.28 964.778Q411.437 958.233 406.822 951.525Q402.207 944.817 397.826 937.955Q393.445 931.092 389.303 924.082Q385.161 917.072 381.263 909.924Q377.366 902.776 373.716 895.497Q370.067 888.219 366.671 880.819C362.169 871.097 355.12 856.41 352.635 846.289L353.056 846.919C357.539 853.701 360.942 861.498 364.64 868.73Q372.12 883.286 380.32 897.449C405.362 940.78 446.558 993.754 486.32 1024L467.303 1024Z"/>
	<path fill="#0187E7" d="M60.8164 1024C76.8439 1008.62 94.4772 998.557 117.282 998.998C143.282 999.501 168.706 1009.44 190.048 1024L183.638 1024L79.6437 1024L60.8164 1024Z"/>
	<path fill="#00000F" d="M79.6437 1024C85.6175 1020.65 92.2654 1018.46 98.8192 1016.55C119.584 1010.5 139.111 1009.75 160.039 1015.7C167.701 1017.88 176.586 1020.34 183.638 1024L79.6437 1024Z"/>
	<path fill="#0187E7" d="M35.9415 1022.34C37.9793 1014.89 39.9429 1007.25 42.9478 1000.11C49.519 984.522 62.0796 970.431 76.726 961.975C89.5359 954.581 102.033 951.545 116.589 955.456C127.319 958.339 136.917 964.244 146.503 969.674C164.92 980.107 181.945 989.914 196.243 1006C198.902 1008.99 201.885 1012.15 203.924 1015.62C204.233 1016.14 204.415 1016.65 204.613 1017.23L204.346 1017.88C201.971 1015.9 200.108 1013.28 198 1011.01C194.949 1007.72 191.498 1004.71 187.993 1001.92C163.711 982.562 132.865 976.863 102.503 979.502C98.1092 979.884 93.352 980.438 89.1286 981.734C83.7954 982.768 77.6303 984.388 72.9428 987.176C68.6914 988.49 64.8979 991.193 60.5563 992.126L58.6594 992.858C58.7827 992.685 58.9013 992.51 59.0294 992.341C61.7421 988.764 67.269 986.176 71.1214 984.023C74.7814 981.978 78.543 979.178 82.2996 977.473C96.0911 971.212 111.046 971.781 125.678 969.91C104.72 966.317 85.3279 968.72 67.635 981.259C57.2894 988.591 49.1421 999.673 42.7832 1010.5C40.4884 1014.41 38.4876 1018.6 35.9415 1022.34Z"/>
	<path d="M125.678 969.91Q130.708 970.868 135.625 972.293Q140.543 973.718 145.306 975.597C112.402 969.064 93.3722 969.931 64.9666 988.901C63.4409 989.919 61.9599 990.941 60.5563 992.126L58.6594 992.858C58.7827 992.685 58.9013 992.51 59.0294 992.341C61.7421 988.764 67.269 986.176 71.1214 984.023C74.7814 981.978 78.543 979.178 82.2996 977.473C96.0911 971.212 111.046 971.781 125.678 969.91Z"/>
	<path fill="#0187E7" d="M863.211 890.214C866.708 889.967 870.223 890.649 873.662 891.192C863.074 891.65 853.482 893.722 843.555 897.503C831.014 902.28 819.537 909.728 808.04 916.555C794.751 924.447 781.319 932.09 769.131 941.648C766.17 943.971 749.566 956.17 749.269 958.639C751.79 957.871 754.813 954.427 757.151 952.856C776.203 940.05 814.225 927.213 837.261 924.488C848.971 923.103 861.926 923.293 873.534 925.644C866.958 926.855 860.047 926.826 853.384 927.488C840.423 928.775 828.208 931.641 815.88 935.798Q805.139 939.448 794.657 943.788Q784.175 948.128 773.996 953.138Q763.818 958.149 753.986 963.809Q744.155 969.469 734.711 975.756C725.374 981.888 716.784 989.359 707.183 995.035L706.461 995.458C715.195 982.856 724.691 970.101 734.767 958.537Q740.445 952.138 746.756 946.362Q753.066 940.585 759.94 935.492C766.679 930.499 774.012 926.335 781.218 922.063C805.869 907.451 834.159 892.171 863.211 890.214Z"/>
	<path fill="#0187E7" d="M296.237 592.608L296.864 590.699C298.17 592.946 297.709 604.127 297.089 606.971C297.047 607.164 296.98 607.351 296.926 607.541L296.351 607.467Q296.065 609.838 295.922 612.222C296.711 625.41 296.868 638.713 297.912 651.871Q299.931 677.638 304.001 703.162Q308.071 728.686 314.167 753.803C315.864 760.643 317.704 771.366 320.445 777.564C322.575 787.876 325.785 798.21 328.864 808.278Q336.914 834.591 345.731 860.657C350.661 875.435 355.9 890.27 359.456 905.449C356.383 900.926 354.336 895.42 352.163 890.414Q343.907 871.737 337.4 852.38C316.763 792.96 299.121 736.014 292.521 673.071C289.54 698.022 292.011 723.306 289.687 748.229C280.642 719.16 284.529 673.857 289.128 643.957C290.373 635.864 292.302 627.902 293.588 619.813C287.751 628.857 280.492 646.084 276.187 656.415C274.79 659.768 272.534 670.429 270.237 672.259C269.764 668.242 271.226 663.118 272.019 659.109C274.429 646.914 277.481 634.616 281.92 622.986C286.09 612.057 291.315 601.604 295.193 590.543C296.214 591.207 295.987 591.469 296.237 592.608Z"/>
	<path fill="#0C1A4F" d="M296.237 592.608L296.864 590.699C298.17 592.946 297.709 604.127 297.089 606.971C297.047 607.164 296.98 607.351 296.926 607.541L296.351 607.467Q296.065 609.838 295.922 612.222C294.773 606.08 295.598 598.774 296.237 592.608Z"/>
	<path fill="#0187E7" d="M620.152 183.304C622.864 184.856 624.928 193.944 625.964 197.221C639.454 239.888 640.989 287.158 641.984 331.569C642.702 363.621 642.89 395.774 643.962 427.804C645.15 463.269 646.445 499.178 649.84 534.497C653.332 570.828 658.753 610.201 674.284 643.563C684.759 666.064 699.444 683.088 723.22 691.525C749.213 700.75 780.829 695.667 805.54 684.645C812.725 681.441 819.203 677.06 826.291 673.719C823.831 675.878 821.295 677.88 818.686 679.855Q815.696 682.145 812.568 684.244Q809.44 686.342 806.187 688.241Q802.934 690.14 799.569 691.832Q796.203 693.524 792.739 695.002Q789.274 696.479 785.724 697.738Q782.174 698.996 778.552 700.03Q774.93 701.063 771.25 701.868Q767.571 702.674 763.848 703.247C737.448 707.123 705.42 704.295 683.441 687.797C666.644 675.189 653.19 652.352 647.186 632.347C637.994 601.714 636.34 569.415 635.629 537.675C635.107 514.404 635.223 491.246 635.349 467.977C635.654 411.53 637.285 354.913 634.986 298.501Q633.954 277.838 631.67 257.275Q629.385 236.712 625.856 216.326C624.328 207.701 619.101 194.187 618.701 186.49C618.617 184.866 619.213 184.466 620.152 183.304Z"/>
	<path d="M644.697 567.464C646.538 576.475 647.437 585.663 649.39 594.662C655.426 622.473 665.802 654.277 685.515 675.377C692.424 682.772 700.407 688.546 708.87 693.998C696.251 690.84 683.817 680.335 675.408 670.815C656.004 648.849 650.126 616.056 646.617 587.904C645.796 581.323 644.28 574.065 644.697 567.464Z"/>
	<path fill="#FD0844" d="M620.291 608.883C617.785 603.705 616.092 598.483 616.256 592.67C616.599 580.563 625.203 565.418 633.894 557.352C634.045 562.383 634.322 568.046 632.654 572.887C634.23 575.671 634.452 590.658 633.626 593.89C634.365 594.136 634.691 594.019 635.027 594.796C636.533 598.277 636.468 603.628 636.771 607.391C638.716 614.831 640.042 622.994 641.264 630.593C640.008 633.92 638.677 638.89 636.34 641.624C633.179 648.266 628.483 654.097 624.566 660.299C615.487 674.674 606.418 689.285 597.822 703.952C588.322 720.164 579.746 737.112 570.745 753.631C566.398 761.61 562.353 770.602 556.571 777.607C551.952 771.553 546.886 766.425 541.046 761.551C537.909 759.199 534.502 757.117 531.254 754.912L526.929 752.873L518.019 749.372C519.853 744.001 522.502 738.457 525.407 733.594C533.159 720.62 543.12 713.459 557.703 709.832C556.514 702.905 557.653 696.056 560.27 689.58C566.028 675.336 576.917 666.042 590.79 660.128C588.691 652.852 588.81 646.919 591.255 639.742C596.182 625.28 606.928 615.548 620.291 608.883Z"/>
	<path fill="#051454" d="M632.654 572.887C634.23 575.671 634.452 590.658 633.626 593.89C632.214 596.29 630.57 598.166 628.689 600.199C627.705 598.597 627.004 596.805 626.24 595.089C627.448 587.227 629.727 580.24 632.654 572.887Z"/>
	<path fill="#051454" d="M594.415 668.988C594.505 669.138 594.612 669.279 594.683 669.438C596.394 673.278 594.197 679.489 592.542 683.084C587.484 694.066 578.723 704.963 567.141 709.267L566.649 708.712C565.649 704.614 567.897 697.035 569.561 693.06C574.226 681.913 583.425 673.586 594.415 668.988Z"/>
	<path fill="#051454" d="M624.36 616.877C625.183 617.429 625.768 618.023 626.198 618.938C628.014 622.801 626.545 627.893 625.014 631.588C620.957 641.387 612.238 653.361 602.257 657.513C601.629 657.149 601.081 656.663 600.512 656.214C598.961 653.112 599.525 650.14 600.268 646.871C603.382 633.172 612.843 624.127 624.36 616.877Z"/>
	<path fill="#051454" d="M526.929 752.873C530.582 740.488 538.463 728.288 550.073 721.958C554.085 719.771 558.462 718.609 562.944 717.829C562.36 728.924 557.012 738.487 548.82 745.94C543.83 750.48 537.747 753.26 531.254 754.912L526.929 752.873Z"/>
	<path fill="#051454" d="M631.715 609.229C633.354 608.514 635.082 607.979 636.771 607.391C638.716 614.831 640.042 622.994 641.264 630.593C640.008 633.92 638.677 638.89 636.34 641.624C633.179 648.266 628.483 654.097 624.566 660.299C615.487 674.674 606.418 689.285 597.822 703.952C588.322 720.164 579.746 737.112 570.745 753.631C566.398 761.61 562.353 770.602 556.571 777.607C551.952 771.553 546.886 766.425 541.046 761.551C543.144 759.994 546.037 759.04 548.379 757.813C554.762 754.47 560.271 749.11 564.573 743.378C570.1 736.012 573.987 725.976 572.68 716.658C582.057 713.159 588.73 707.022 594.724 699.123C602.014 689.516 607.393 678.564 605.666 666.205C608.189 665.474 610.403 664.644 612.657 663.252C624.548 655.911 632.773 643.595 635.914 630.076C637.621 620.676 635.528 617.567 631.715 609.229Z"/>
	<path fill="#0187E7" d="M251.493 579.921C259.674 576.159 288.751 562.037 295.845 561.578C296.862 562.612 296.746 563.755 296.968 565.157L296.989 571.776C296.931 575.09 297.873 585.374 296.379 587.484C292.316 591.095 289.167 596.785 286.042 601.258C273.118 619.748 260.255 638.57 251.855 659.638C244.913 675.754 241.839 694.652 239.963 711.998C239.263 718.469 239.007 725.074 237.923 731.484L237.815 732.09C231.317 708.115 242.034 680.84 250.416 658.566C251.708 655.645 253.057 652.734 254.261 649.777C245.809 660.364 236.668 683.3 232.017 696.54C226.035 713.569 220.15 731.356 216.709 749.089C211.453 776.173 210.507 804.239 209.45 831.749C208.221 863.75 207.478 895.764 205.933 927.748L204.521 962.65C204.265 967.73 204.243 972.998 203.529 978.03C201.079 962.192 197.365 946.136 196.667 930.111C166.14 893.481 137.777 845.926 142.706 796.247C142.76 795.704 142.896 795.301 143.147 794.82C144.794 798.561 144.631 803.331 145.54 807.33C146.553 811.784 147.973 816.232 149.251 820.623C157.038 847.357 169.769 873.967 186.272 896.44L185.965 895.699C182.376 887.158 177.356 879.149 173.388 870.747C161.793 846.199 148.668 808.892 154.223 782.02L154.319 781.573C154.359 781.767 154.402 781.96 154.44 782.155C156.462 792.484 156.127 803.226 158.226 813.661Q159.692 821.027 161.589 828.293Q163.486 835.56 165.806 842.703Q168.127 849.845 170.863 856.839Q173.599 863.833 176.742 870.654C182.8 883.749 189.927 896.462 196.418 909.357C193.74 895.985 194.793 881.738 195.468 868.19C196.568 846.107 198.395 824.281 201.76 802.419C205.077 780.873 210.461 759.444 215.477 738.245C218.272 726.431 220.491 714.475 223.511 702.717Q227.145 688.921 231.679 675.394Q236.212 661.867 241.626 648.667C245.444 639.347 249.583 629.487 255.18 621.098C256.612 618.951 258.26 616.92 259.951 614.972C238.397 628.56 222.278 637.367 202.717 654.271C196.838 659.35 191.281 664.671 185.808 670.181C181.268 674.751 176.83 679.742 171.663 683.606C191.496 656.445 216.347 634.108 244.008 615.196C248.198 612.331 252.385 609.245 256.777 606.707C260.521 604.544 265.483 602.692 268.793 600.005C271.908 597.477 274.483 593.828 277.34 590.968C282.127 586.172 287.686 582.014 293.165 578.043C284.588 581.004 276.377 585.52 268.186 589.435C225.858 609.671 186.381 640.948 158.357 678.728C146.847 694.245 137.057 711.425 128.611 728.779C119.411 747.683 111.027 766.624 103.505 786.246C95.3286 807.579 87.9909 829.742 78.3277 850.457C78.3201 850.314 78.3027 850.171 78.3048 850.028C78.3702 845.711 86.3376 824.538 88.1711 818.403C95.8092 792.844 106.153 767.82 116.831 743.406C132.972 706.498 148.609 672.5 174.211 640.844C179.631 634.141 185.436 627.597 191.675 621.644C196.167 617.357 201.028 613.467 205.559 609.218C207.664 608.322 218.207 599.796 221.887 597.378C231.046 591.359 240.749 586.204 250.094 580.485L251.493 579.921Z"/>
	<path fill="#051454" d="M296.989 571.776C300.023 578.051 300.925 590.136 301.867 597.328C306.645 628.389 318.08 678.695 335.173 704.859C342.288 715.749 351.839 725.11 362.336 732.743C371.506 739.411 381.476 743.771 392.287 747.047C368.207 710.676 356.002 656.062 358.102 612.753C358.414 612.204 358.517 611.95 359.057 611.598C360.782 612.789 362.476 613.927 364.319 614.932C362.382 628.628 364.419 641.274 372.987 652.51C377.909 658.966 384.281 663.72 391.978 666.302C391.237 679.643 396.191 692.388 405.152 702.343C410.618 708.416 418.062 713.36 425.815 715.964C425.869 729.999 429.719 740.781 439.77 750.846C441.576 752.654 443.514 754.338 445.435 756.023C425.33 769.288 411.725 787.266 406.794 811.034Q406.596 812.005 406.422 812.981Q406.249 813.957 406.099 814.937Q405.949 815.917 405.824 816.9Q405.698 817.883 405.597 818.869Q405.496 819.855 405.419 820.843Q405.343 821.832 405.29 822.821Q405.238 823.811 405.21 824.802Q405.182 825.793 405.179 826.784Q405.175 827.775 405.196 828.766Q405.217 829.757 405.263 830.747Q405.308 831.737 405.378 832.726Q405.448 833.715 405.542 834.701Q405.637 835.688 405.755 836.672Q405.874 837.656 406.017 838.637Q406.159 839.618 406.326 840.595Q406.493 841.572 406.684 842.544Q406.875 843.517 407.091 844.485Q407.306 845.452 407.544 846.414Q407.783 847.376 408.046 848.332Q408.308 849.288 408.594 850.237Q408.88 851.186 409.189 852.128Q409.499 853.069 409.831 854.003Q410.164 854.937 410.519 855.862Q410.875 856.787 411.253 857.704Q411.631 858.62 412.032 859.526Q412.432 860.433 412.855 861.33Q413.278 862.226 413.723 863.112Q414.168 863.998 414.634 864.872Q415.101 865.747 415.589 866.609Q416.077 867.472 416.586 868.322Q417.095 869.173 417.625 870.01Q418.155 870.848 418.706 871.672C425.944 882.654 435.096 890.754 446.379 897.373L446.233 898.73C443.193 901.237 420.177 911.718 415.71 913.303C410.607 906.36 406.124 898.636 401.407 891.406C365.703 836.681 328.073 763.931 312.684 700.563C305.581 671.314 302.994 641.127 297.942 611.482L297.749 609.246L296.926 607.541C296.98 607.351 297.047 607.164 297.089 606.971C297.709 604.127 298.17 592.946 296.864 590.699L296.237 592.608C295.987 591.469 296.214 591.207 295.193 590.543C295.531 589.687 295.996 589.566 296.732 589.049L296.379 587.484C297.873 585.374 296.931 575.09 296.989 571.776Z"/>
	<path fill="#FDF855" d="M476.278 744.446C490.833 743.464 504.283 744.049 518.019 749.372L526.929 752.873L531.254 754.912C534.502 757.117 537.909 759.199 541.046 761.551C546.886 766.425 551.952 771.553 556.571 777.607C560.003 783.057 563.511 788.497 566.043 794.441C572.204 808.902 572.845 826.836 569.435 842.04Q569.202 843.042 568.944 844.038Q568.686 845.035 568.404 846.024Q568.122 847.014 567.816 847.996Q567.51 848.979 567.18 849.954Q566.85 850.928 566.496 851.895Q566.142 852.861 565.765 853.819Q565.388 854.776 564.988 855.724Q564.588 856.672 564.164 857.61Q563.741 858.548 563.295 859.476Q562.849 860.403 562.381 861.319Q561.912 862.235 561.421 863.14Q560.931 864.045 560.418 864.937Q559.906 865.829 559.371 866.709Q558.837 867.588 558.282 868.454Q557.726 869.321 557.15 870.173Q556.573 871.026 555.976 871.864Q555.379 872.702 554.762 873.525Q554.144 874.349 553.507 875.157Q552.87 875.965 552.213 876.757Q551.557 877.549 550.881 878.325Q550.205 879.101 549.51 879.861Q548.816 880.62 548.103 881.362Q547.39 882.104 546.659 882.829Q545.929 883.554 545.181 884.26Q544.432 884.967 543.667 885.655Q542.902 886.343 542.12 887.012Q541.339 887.681 540.541 888.331Q539.743 888.981 538.929 889.612Q538.116 890.242 537.287 890.852Q536.459 891.463 535.616 892.052Q534.773 892.642 533.915 893.212Q533.058 893.781 532.187 894.329C513.72 905.967 491.507 910.709 470.147 905.81Q463.971 904.428 458.008 902.311Q452.044 900.194 446.379 897.373C435.096 890.754 425.944 882.654 418.706 871.672Q418.155 870.848 417.625 870.01Q417.095 869.173 416.586 868.322Q416.077 867.472 415.589 866.609Q415.101 865.747 414.634 864.872Q414.168 863.998 413.723 863.112Q413.278 862.226 412.855 861.33Q412.432 860.433 412.031 859.527Q411.631 858.62 411.253 857.704Q410.875 856.788 410.519 855.862Q410.164 854.937 409.831 854.003Q409.499 853.069 409.189 852.128Q408.88 851.186 408.594 850.237Q408.308 849.288 408.046 848.332Q407.783 847.376 407.544 846.414Q407.305 845.452 407.09 844.485Q406.875 843.517 406.684 842.545Q406.493 841.572 406.326 840.595Q406.159 839.618 406.016 838.637Q405.874 837.656 405.755 836.672Q405.636 835.688 405.542 834.701Q405.448 833.715 405.378 832.726Q405.308 831.737 405.263 830.747Q405.217 829.757 405.196 828.766Q405.175 827.775 405.179 826.784Q405.182 825.793 405.21 824.802Q405.238 823.811 405.29 822.821Q405.343 821.832 405.419 820.843Q405.496 819.855 405.597 818.869Q405.698 817.883 405.824 816.9Q405.949 815.917 406.099 814.937Q406.249 813.957 406.422 812.981Q406.596 812.005 406.794 811.034C411.725 787.266 425.33 769.288 445.435 756.023C448.659 753.976 451.92 752.242 455.36 750.584C458.983 749.416 462.536 748.102 466.096 746.757C469.489 745.795 472.782 744.935 476.278 744.446Z"/>
	<path d="M540.203 850.672C541.157 850.681 541.8 850.79 542.695 851.12C543.411 852.462 543.156 853.222 543.045 854.717C542.073 854.656 541.37 854.404 540.469 854.044C539.791 852.744 540.051 852.107 540.203 850.672Z"/>
	<path d="M546.396 836.872C547.435 837.128 548.012 837.449 548.866 838.089C548.989 839.486 548.561 839.888 547.888 841.089C546.955 840.741 546.208 840.253 545.378 839.707C545.163 838.282 545.618 838.042 546.396 836.872Z"/>
	<path d="M540.257 793.082C541.26 793.378 541.749 793.67 542.602 794.239C543.196 795.506 542.882 796.406 542.589 797.698C541.481 797.691 541.031 797.597 540.107 796.978C539.52 795.667 539.973 794.423 540.257 793.082Z"/>
	<path d="M487.739 757.673C488.499 758.024 489.234 758.455 489.973 758.85C490.441 760.33 489.926 760.807 489.32 762.198C488.036 761.764 487.407 761.591 486.525 760.495C486.624 759.15 486.972 758.809 487.739 757.673Z"/>
	<path d="M434.943 871.346C436.096 872.069 436.171 871.978 436.521 873.272C435.9 874.586 434.705 875.188 433.536 875.962C432.546 875.23 432.048 874.839 431.58 873.685C432.371 872.314 433.547 872.044 434.943 871.346Z"/>
	<path d="M524.796 873.672C526.327 873.967 526.701 874.001 527.869 875.001C527.953 876.671 527.584 877.194 526.874 878.674C525.721 878.416 525.226 878.065 524.345 877.286C523.92 875.781 524.244 875.048 524.796 873.672Z"/>
	<path d="M438.09 815.74C439.058 816.284 439.717 817.048 440.484 817.838C440.633 819.596 440.168 819.935 439.262 821.402C438.026 820.811 437.402 820.554 436.635 819.358C436.685 817.572 437.119 817.194 438.09 815.74Z"/>
	<path d="M442.199 846.141C442.415 846.231 442.642 846.3 442.849 846.41C443.955 846.996 444.684 847.732 445.039 848.957C445.463 850.424 445.036 851.729 444.44 853.057C443.638 852.913 443.367 852.762 442.696 852.344C441.5 850.221 441.743 848.44 442.199 846.141Z"/>
	<path d="M436.896 831.628C438.528 831.988 438.864 832.244 439.889 833.495C440.164 835.144 439.928 835.769 439.305 837.251C437.725 837.062 437.243 836.855 436.202 835.705C435.9 834.042 436.289 833.129 436.896 831.628Z"/>
	<path d="M528.357 879.156C529.947 879.76 530.942 880.333 531.692 881.883C531.523 883.647 531.24 883.831 530.162 885.159C528.722 884.713 528.19 883.981 527.438 882.734C527.318 880.865 527.373 880.756 528.357 879.156Z"/>
	<path d="M440.921 798.11C442.02 798.447 442.422 798.752 443.177 799.615C443.96 801.711 443.561 803.885 443.385 806.071C442.776 805.869 441.83 805.741 441.414 805.225C439.978 803.443 440.695 800.217 440.921 798.11Z"/>
	<path d="M469.054 888.211C469.26 888.356 469.484 888.48 469.673 888.646C470.558 889.42 470.617 890.932 470.485 892.013C470.248 893.948 469.737 895.156 468.261 896.407C467.509 895.766 467.127 895.359 466.733 894.447C466.778 892.143 468.03 890.222 469.054 888.211Z"/>
	<path d="M460.673 885.26C461.527 885.825 461.599 885.921 462.052 886.773C462.187 889.447 461.64 892.015 459.906 894.107C459.246 893.579 458.744 893.245 458.401 892.442C457.611 890.586 459.86 886.955 460.673 885.26Z"/>
	<path d="M477.005 890.075C477.661 890.328 478.601 890.461 478.968 891.101C480.034 892.96 479.005 896.067 478.577 898.046C477.278 897.672 476.876 897.686 476.013 896.677C475.528 894.571 476.478 892.135 477.005 890.075Z"/>
	<path d="M489.918 890.923C491.004 891.157 491.461 891.327 492.253 892.115C493.067 894.178 492.657 896.325 492.477 898.488C491.437 898.413 490.841 898.301 489.928 897.787C488.78 895.458 489.433 893.375 489.918 890.923Z"/>
	<path d="M535.675 872.217C536.035 872.258 536.368 872.287 536.725 872.375C538.052 872.703 538.934 873.137 539.617 874.379C540.268 875.564 540.242 876.883 539.938 878.154C539.694 878.143 539.45 878.144 539.208 878.123C537.54 877.98 536.592 877.53 535.535 876.246C534.996 874.604 535.199 873.795 535.675 872.217Z"/>
	<path d="M495.588 751.75C496.047 751.736 496.506 751.711 496.964 751.723C498.517 751.766 499.133 752.103 500.137 753.172C500.411 754.666 500.092 755.517 499.587 756.886C499.21 757.043 498.581 757.326 498.191 757.386C496.956 757.575 496.652 757.16 495.818 756.402C495.296 754.703 495.379 753.503 495.588 751.75Z"/>
	<path d="M550.992 855.925C551.423 855.921 551.855 855.911 552.285 855.932C553.755 856.007 553.888 855.895 554.819 856.962C554.688 858.728 553.614 860.083 552.701 861.545C551.298 861.609 550.432 861.655 549.338 860.709C549.223 858.998 550.252 857.419 550.992 855.925Z"/>
	<path d="M546.025 863.713C547.35 864.303 548.622 864.711 549.495 865.934C549.159 867.728 547.886 868.838 546.743 870.23C546.326 870.521 545.782 870.692 545.313 870.891C544.599 870.427 544.583 870.627 544.42 869.882C543.926 867.618 544.917 865.611 546.025 863.713Z"/>
	<path d="M446.414 764.373C447.852 765.78 449.28 767.058 450.234 768.86C450.259 770.576 449.882 770.753 448.877 772.084C447.47 770.366 445.436 769.342 444.327 767.433C444.536 765.881 445.332 765.466 446.414 764.373Z"/>
	<path d="M499.153 888.165L500.196 888.758C501.797 891.62 502.384 893.808 501.83 897.068C500.739 897.07 499.932 897.141 498.952 896.612C497.473 894.009 498.599 890.931 499.153 888.165Z"/>
	<path d="M439.53 770.426C440.69 771.19 441.924 772.275 442.841 773.319C443.645 774.235 443.652 774.964 443.626 776.118L441.995 777.487C440.388 776.306 438.467 775.188 437.451 773.435C437.659 771.764 438.319 771.542 439.53 770.426Z"/>
	<path d="M477.082 752.647L477.92 752.546C479.55 752.362 480.509 752.299 481.827 753.349C482.412 755.357 481.618 757.85 481.237 759.878L479.884 759.258C478.625 757.101 476.866 755.164 477.082 752.647Z"/>
	<path d="M424.601 848.698C425.664 848.622 425.516 848.427 426.406 849.168L426.051 850.208C424.153 851.258 422.851 852.31 421.396 853.927C421.246 854.093 421.1 854.262 420.953 854.43C419.617 853.584 418.834 852.826 418.385 851.327L419.006 850.331C420.85 849.227 422.495 849.005 424.601 848.698Z"/>
	<path d="M432.487 777.155C433.713 777.406 434.289 777.67 435.182 778.58C436.4 779.821 437.326 781.069 437.289 782.881L436.319 783.716C434.649 782.87 431.581 781.928 430.721 780.233C430.933 778.677 431.477 778.322 432.487 777.155Z"/>
	<path d="M488.724 750.866C489.237 751.178 489.837 751.501 490.288 751.909C491.291 752.818 491.49 753.372 491.565 754.684C490.832 756.143 489.789 756.576 488.416 757.307C487.096 756.3 486.089 755.579 485.568 753.99C486.325 752.375 487.304 751.911 488.724 750.866Z"/>
	<path d="M454.79 759.809L456.139 760.723C457.028 762.384 458.135 764.79 457.587 766.62L456.785 766.697C455.871 766.032 456.208 766.209 455.36 765.796C454.502 765.378 453.608 765.024 452.862 764.415C451.973 763.688 451.95 763.527 451.817 762.452C452.497 761.084 453.538 760.573 454.79 759.809Z"/>
	<path d="M554.585 847.766C555.566 847.797 556.497 847.949 557.464 848.11C558.482 848.927 558.584 848.925 558.882 850.179C558.503 851.962 557.557 853.037 556.446 854.446L555.676 854.731C554.732 853.877 554.21 852.592 553.887 851.374C553.459 849.757 553.824 849.212 554.585 847.766Z"/>
	<path d="M428.463 854.49C428.69 854.725 428.946 854.934 429.145 855.193C429.957 856.251 430.143 856.633 429.848 857.839C428.257 859.412 425.811 860.03 423.748 860.812C422.756 860.727 422.639 860.822 421.785 860.218C423.188 857.476 426.067 856.372 428.463 854.49Z"/>
	<path d="M452.492 881.302C453.432 881.724 453.773 881.903 454.512 882.668C454.509 885.224 452.955 887.875 451.932 890.201C450.529 889.46 449.999 889.35 449.201 887.939C449.439 885.721 451.461 883.319 452.492 881.302Z"/>
	<path d="M422.455 791.649C424.563 792.354 427.698 793.524 428.877 795.479C429.395 796.339 428.916 796.959 428.664 797.864C426.431 797.005 423.473 797.01 421.739 795.285C421.361 793.683 421.836 793.142 422.455 791.649Z"/>
	<path d="M426.365 785.12C428.235 785.401 431.522 786.282 432.699 787.842C433.679 789.142 433.202 789.873 432.848 791.27C432.402 791.191 432.285 791.179 431.791 791.036C429.72 790.436 426.918 789.779 425.933 787.679C425.56 786.885 426.112 785.926 426.365 785.12Z"/>
	<path d="M462.028 755.158C462.928 755.185 463.463 755.365 464.279 755.739C464.57 756.934 464.845 758.126 465.255 759.286C465.758 760.706 466.049 761.402 465.675 762.947C464.866 763.015 464.279 763.079 463.527 762.685C462.099 761.935 461.169 760.768 460.781 759.225C460.307 757.337 461.065 756.614 462.028 755.158Z"/>
	<path d="M560.253 822.475C561.306 822.544 562.2 822.769 563.211 823.061C564.257 824.099 564.476 824.264 564.819 825.677C564.294 826.907 564.119 827.07 563.043 827.878C562.062 827.764 560.942 827.694 560.007 827.378C558.765 826.959 558.242 826.271 557.746 825.135C558.421 823.61 558.917 823.412 560.253 822.475Z"/>
	<path d="M518.268 883.106C518.753 883.216 519.236 883.292 519.673 883.557C521.057 884.394 522.228 886.252 522.574 887.798C522.858 889.069 522.519 889.091 521.882 890.146C520.565 890.808 520.218 891.155 518.724 890.962C517.279 888.595 517.992 885.767 518.268 883.106Z"/>
	<path d="M559.809 805.357C560.814 806.171 561.879 806.884 562.103 808.265C562.322 809.618 561.934 810.396 561.181 811.463C559.893 812.117 559.828 812.128 558.402 811.897C556.928 810.806 556.574 809.672 556.042 807.999C557.233 806.94 558.438 806.164 559.809 805.357Z"/>
	<path d="M469.416 753.14C470.744 753.353 471.593 753.334 472.49 754.485C473.84 756.217 473.221 759.744 473.067 761.784C472.62 761.612 472.329 761.526 471.932 761.292C470.504 760.45 468.664 758.241 468.384 756.546C468.092 754.782 468.507 754.509 469.416 753.14Z"/>
	<path d="M504.149 753.154C505.57 753.273 506.594 753.531 507.935 754.021C510.176 756.75 505.712 758.215 506.34 761.572C506.603 761.989 506.466 761.702 506.55 762.504L505.809 762.444C505.291 761.951 505.187 761.897 504.741 761.242C503.324 759.162 503.67 755.473 504.149 753.154Z"/>
	<path d="M511.99 754.707C512.837 754.848 513.751 754.963 514.565 755.235C515.918 755.686 516.295 756.221 516.938 757.435C516.976 759.259 516.214 760.539 515.418 762.142L513.964 762.889L513.191 762.45C512.056 760.115 512.164 757.267 511.99 754.707Z"/>
	<path d="M423.484 841.24L423.98 841.371C424.619 842.146 424.819 842.499 424.908 843.505C423.337 844.996 419.225 845.377 417.02 845.889C416.184 845.181 415.916 844.656 415.512 843.645L416.109 842.674C418.443 841.609 420.961 841.51 423.484 841.24Z"/>
	<path d="M519.288 757.793C520.153 758.027 521.007 758.36 521.834 758.704C523.427 759.368 523.999 759.912 524.681 761.487C524.318 763.191 523.659 763.722 522.541 765.028C521.789 765.662 521.675 765.777 520.663 765.956C520.307 765.099 520.026 764.313 519.809 763.406C519.279 761.203 518.774 760.104 519.288 757.793Z"/>
	<path d="M557.786 830.956C559.788 830.912 561.387 830.693 563.155 831.678C563.872 833.334 563.39 835.038 563.135 836.761C561.449 836.84 559.993 836.893 558.564 835.875C557.548 834.275 557.746 832.797 557.786 830.956Z"/>
	<path d="M415.863 808.163C417.754 808.535 419.561 808.49 421.432 808.766C422.743 808.96 423.389 809.245 424.223 810.248L423.843 812.538C421.489 812.559 418.249 813.102 416.191 811.879C415.359 810.452 415.684 809.775 415.863 808.163Z"/>
	<path d="M560.189 813.826C562.161 814.028 562.769 814.249 564.028 815.763C564.294 817.223 564.292 817.301 563.654 818.639C562.094 819.616 561.521 819.522 559.724 819.583C558.478 818.832 557.736 818.568 557.008 817.288C557.696 816.194 558.734 815.528 559.572 814.552L560.189 813.826Z"/>
	<path d="M463.526 780.984C464.908 780.923 466.233 780.665 467.422 781.505C468.477 783.219 467.93 786.051 467.825 788.018C466.067 788.014 465.225 788.195 463.683 787.3C462.796 785.511 463.361 782.936 463.526 780.984Z"/>
	<path d="M414.168 816.589C417.092 816.953 420.391 815.978 422.761 817.993L422.886 820.316C420.351 820.432 417.039 821.27 414.697 820.25C413.722 818.944 414.072 818.182 414.168 816.589Z"/>
	<path d="M557.205 839.406C558.135 839.466 559.483 839.583 560.331 839.953C561.491 840.458 561.501 840.846 561.818 841.95C561.348 843.797 560.242 844.641 558.873 845.899C557.473 845.013 555.166 843.483 554.582 841.91C555.048 840.359 555.856 840.234 557.205 839.406Z"/>
	<path d="M421.87 833.232L422.793 833.094L422.644 833.419L423.426 833.505C423.67 834.481 423.547 834.476 423.234 835.373C421.045 836.822 418.646 837.102 416.113 837.572C414.915 837.698 415.177 837.691 414.269 837.141C414.046 835.854 413.848 835.657 414.486 834.544C416.638 833.336 419.447 833.433 421.87 833.232Z"/>
	<path d="M433.916 861.057C434.109 861.297 434.358 861.501 434.493 861.778C435.019 862.862 434.866 863.638 434.48 864.664C432.284 865.833 430.326 867.156 428.319 868.609C428.112 868.544 427.885 868.524 427.698 868.413C426.617 867.772 426.358 867.36 426.244 866.218C427.794 863.789 431.395 862.372 433.916 861.057Z"/>
	<path d="M508.97 884.709L510.196 885.453C511.085 887.486 512.324 889.945 512.099 892.218C511.948 893.743 511.115 894.121 510.05 895.071C509.335 894.997 508.909 894.798 508.258 894.512C506.634 892.094 507.881 890.519 508.345 887.942C508.54 886.86 508.747 885.786 508.97 884.709Z"/>
	<path d="M419.265 799.565C421.6 800.268 424.156 800.778 426.108 802.288C426.81 803.809 426.399 804.106 425.857 805.639C423.551 805.015 419.792 804.997 418.123 803.256C418.025 801.701 418.596 800.952 419.265 799.565Z"/>
	<path d="M463.452 864.96C464.354 864.935 465.429 864.816 466.314 864.96C467.662 865.18 467.845 865.574 468.634 866.582C468.807 868.315 468.607 869.869 468.375 871.589C467.332 871.557 466.211 871.575 465.183 871.395C463.96 871.18 463.555 870.647 462.886 869.681C462.762 867.966 463.044 866.623 463.452 864.96Z"/>
	<path d="M420.756 824.723L422.094 824.761L422.648 825.496L422.454 826.776C420.836 828.715 418.118 829.249 415.796 830.081C414.528 829.592 413.855 828.892 412.932 827.945C412.847 827.095 412.648 827.096 413.142 826.523C414.843 824.551 418.374 824.789 420.756 824.723Z"/>
	<path d="M553.88 802.765L552.952 801.021C553.194 800.391 553.408 799.952 553.797 799.4C554.78 798.006 554.981 795.925 556.507 795.052C557.503 795.362 557.808 795.357 558.351 796.321C559.106 797.66 560.141 800.875 559.788 802.437C559.67 802.958 559.474 803.252 559.229 803.697C558.458 803.597 558.007 803.518 557.333 803.097C556.614 802.648 555.918 802.261 555.161 801.878L553.88 802.765Z"/>
	<path d="M480.777 866.138C481.865 866.198 481.327 866.028 482.338 866.792C483.03 869.742 483.149 871.712 482.016 874.573C480.797 875.53 480.115 875.316 478.594 875.36C478.33 875.324 477.458 875.222 477.238 875.128C476.34 874.743 476.469 874.763 476.231 874.021C475.311 871.155 475.17 869.922 476.555 867.188C478.023 866.057 478.957 866.258 480.777 866.138Z"/>
	<path d="M475.988 778.536L482.524 778.513L482.501 788.435C480.334 788.106 478.091 788.109 475.903 788.016L475.988 778.536Z"/>
	<path d="M528.137 762.338C536.185 767.793 544.405 773.497 550.252 781.428C551.468 783.077 551.001 785.376 552.154 786.815C553.248 788.181 555.204 789.036 556.026 790.653C556.639 791.859 556.72 792.603 556.362 793.882C555.078 794.872 554.165 794.947 552.522 794.942C551.34 794.939 550.544 794.899 549.68 794.048C550.109 792.967 550.679 791.79 550.946 790.662C551.333 789.024 550.783 788.436 550.076 787.044C548.621 787.129 547.211 787.141 545.754 787.104C544.679 786.407 544.554 786.602 544.163 785.301C544.99 784.683 545.633 784.111 546.297 783.32C546.193 782.123 546.02 781.833 545.213 780.873C543.747 779.131 542.166 779.534 540.154 779.328C539.897 777.1 539.547 774.888 539.205 772.671C537.668 772.889 535.603 772.741 534.331 773.681C534.148 775.372 534.746 776.175 535.435 777.707C534.002 777.081 532.8 776.222 531.525 775.333C532.356 774.132 533.37 772.817 533.706 771.369C533.961 770.267 533.505 769.131 532.869 768.262C530.929 767.667 529.012 768.496 527.104 769.061L526.389 768.566C526.464 766.379 527.389 764.37 528.137 762.338Z"/>
	<path d="M474.581 802.161C480.328 802.253 487.426 801.813 492.292 805.362C493.837 806.489 494.871 807.882 495.07 809.829C495.35 812.576 493.699 815.356 492.079 817.414C487.053 820.378 480.319 819.828 474.606 820.067L474.581 802.161Z"/>
	<path fill="#FDF855" d="M483.907 804.998C486.907 804.883 489.632 805.07 491.959 807.207C493.212 808.358 493.829 809.655 493.852 811.383C493.886 813.96 491.97 815.861 490.165 817.391C488.471 817.762 486.339 818.378 484.599 817.988C483.24 817.683 482.247 816.793 481.468 815.672C480.386 814.116 480.173 812.365 480.512 810.534C481.018 807.795 481.563 806.557 483.907 804.998Z"/>
	<path d="M475.006 833.627C481.658 833.541 489.445 832.739 494.96 837.197C496.305 838.284 497.369 839.54 497.519 841.348C497.762 844.273 495.917 847.094 494.05 849.15C488.711 852.443 481.138 851.888 475.032 852.014L475.006 833.627Z"/>
	<path fill="#FDF855" d="M483.352 837.206C485.24 837.076 487.258 836.836 489.145 836.978C491.251 837.136 494.561 838.611 495.799 840.389C496.579 841.509 496.814 842.359 496.532 843.707C496.085 845.836 494.026 847.828 492.349 849.059C488.625 850.468 485.463 850.53 481.552 850.433C481.461 847.149 480.65 841.497 481.758 838.411C482.09 837.486 482.501 837.582 483.352 837.206Z"/>
	<path d="M451.484 800.625L459.375 801.077C459.58 819.033 459.361 837.032 459.239 854.989L451.099 855.003L451.484 800.625Z"/>
	<path d="M490.456 776.846C492.332 776.761 494.622 776.352 496.314 777.274C497.362 778.771 497.085 780.762 497.067 782.523C499.525 783.44 502.063 784.313 504.419 785.469C510.646 788.527 515.612 793.572 517.75 800.267C520.327 808.335 518.064 815.039 514.415 822.219C515.76 823.511 517.115 824.923 518.233 826.421C521.521 830.829 523.729 836.321 522.768 841.881C521.175 851.094 513.772 854.776 507.021 859.757L507.167 866.615C503.435 869.42 499.446 870.58 495.054 871.957L494.41 878.844C493.329 878.571 492.446 878.164 491.452 877.663C488.927 874.552 490.038 868.935 490.135 865.146C499.52 862.356 507.617 858.269 512.54 849.312C514.873 845.067 515.991 839.977 514.49 835.26C512.724 829.712 507.954 826.177 502.987 823.649C506.842 820.2 510.234 816.243 511.083 810.953C511.786 806.572 510.463 802.116 507.88 798.558C503.41 792.397 497.553 790.871 490.465 789.832L490.456 776.846Z"/>
	<path fill="#FD0844" d="M364.707 275.027C364.646 274.497 364.582 274.084 364.571 273.563C364.445 267.352 366.368 259.905 367.528 253.763C374.154 218.688 388.264 183.023 412.315 156.147C436.023 129.654 463.802 119.093 498.796 117.184C528.657 115.554 562.14 126.3 584.349 146.328C609.307 168.835 625.902 217.262 627.528 250.679L625.023 251.347C624.429 253.997 623.338 256.453 621.985 258.796C616.564 268.179 607.233 274.453 596.874 277.16C585.613 280.103 573.023 279.371 562.88 273.35C553.438 267.745 549.232 261.684 546.481 251.088C518.994 239.782 495.19 235.788 466.942 247.589C463.607 248.983 459.618 250.526 456.706 252.666C455.324 260.488 451.029 266.438 444.657 270.965C435.098 277.755 423.3 279.954 411.823 277.947C401.738 276.183 391.528 270.784 385.689 262.17C383.73 259.282 382.627 256.405 381.723 253.082C374.6 258.175 369.964 268.094 364.707 275.027Z"/>
	<path d="M514.094 213.242L515.363 213.816C517.079 216.741 515.977 224.55 515.839 228.094L514.615 227.786C512.768 225.204 513.818 216.557 514.094 213.242Z"/>
	<path d="M485.394 213.969L486.819 214.452C489.015 216.995 487.942 226.07 487.857 229.673L486.264 229.376C484.317 227.246 485.362 217.025 485.394 213.969Z"/>
	<path d="M499.908 213.698L501.18 214.539C503.132 218.412 502.316 225.98 501.896 230.248L500.254 229.564C498.362 226.029 499.479 217.67 499.908 213.698Z"/>
	<path fill="#00000F" d="M381.723 253.082C382.672 244.584 384.042 238.843 389.864 232.408C397.151 224.352 407.594 220.488 418.287 219.952Q419.245 219.895 420.205 219.886Q421.165 219.878 422.124 219.917Q423.083 219.957 424.039 220.045Q424.995 220.133 425.945 220.269Q426.895 220.405 427.837 220.589Q428.779 220.773 429.711 221.004Q430.642 221.235 431.561 221.512Q432.48 221.79 433.384 222.114Q434.288 222.437 435.174 222.806Q436.06 223.175 436.926 223.588Q437.793 224.001 438.638 224.457Q439.482 224.913 440.303 225.411Q441.123 225.909 441.918 226.448Q442.712 226.986 443.478 227.565Q444.245 228.143 444.981 228.759Q445.717 229.375 446.421 230.027C451.481 234.639 456.238 241.444 456.536 248.471L456.706 252.666C455.324 260.488 451.029 266.438 444.657 270.965C435.098 277.755 423.3 279.954 411.823 277.947C401.738 276.183 391.528 270.784 385.689 262.17C383.73 259.282 382.627 256.405 381.723 253.082Z"/>
	<path fill="#0187E7" d="M431.114 259.095C432.506 259.057 432.625 258.966 433.734 259.772L433.895 261.063C433.113 263.025 431.872 263.925 430.056 264.914C425.27 267.522 419.707 267.62 414.545 266.219C413.619 265.909 412.424 265.485 411.746 264.753C410.868 263.807 410.818 263.266 411.01 262.121C411.646 261.622 412.1 261.063 412.928 260.944C415.259 260.608 417.744 261.507 420.112 261.47C423.511 261.416 427.757 259.904 431.114 259.095Z"/>
	<path fill="white" d="M408.101 230.626C410.377 230.458 412.663 230.24 414.902 230.823C417.082 231.39 420.167 232.798 421.152 235.001C421.7 236.225 421.784 237.322 421.213 238.563C420.015 241.168 417.042 242.22 414.577 243.198C412.483 243.409 410.487 243.62 408.401 243.199C405.874 242.69 402.907 241.296 401.657 238.911C401.034 237.723 401.066 236.608 401.522 235.372C402.483 232.771 405.783 231.542 408.101 230.626Z"/>
	<path fill="#00000F" d="M546.481 251.088C547.305 241.857 551.461 234.153 558.586 228.232C567.916 220.479 579.847 218.211 591.693 219.435Q592.628 219.531 593.557 219.674Q594.486 219.816 595.407 220.005Q596.327 220.193 597.237 220.427Q598.148 220.662 599.045 220.941Q599.942 221.22 600.825 221.543Q601.707 221.867 602.572 222.234Q603.438 222.601 604.284 223.01Q605.129 223.42 605.954 223.871Q606.778 224.323 607.579 224.814Q608.38 225.306 609.156 225.837Q609.931 226.368 610.679 226.937Q611.427 227.506 612.146 228.111Q612.865 228.716 613.553 229.357Q614.24 229.997 614.896 230.671Q615.551 231.345 616.172 232.051Q616.792 232.756 617.377 233.492C621.744 238.94 624.098 244.432 625.023 251.347C624.429 253.997 623.338 256.453 621.985 258.796C616.564 268.179 607.233 274.453 596.874 277.16C585.613 280.103 573.023 279.371 562.88 273.35C553.438 267.745 549.232 261.684 546.481 251.088Z"/>
	<path fill="#0187E7" d="M602.611 258.508C604.071 258.786 605.05 259.307 606.05 260.394C605.709 261.589 604.978 262.028 604.02 262.725C603.829 262.864 603.634 262.998 603.444 263.137C599.168 266.27 594.162 267.282 588.989 267.667C588.369 267.334 587.476 266.952 586.973 266.468C586.068 265.597 586.154 265.263 586.267 264.133C589.266 261.019 598.349 259.89 602.611 258.508Z"/>
	<path fill="white" d="M574.33 231.55C576.457 231.439 578.708 231.265 580.759 231.965C582.727 232.637 584.731 234.175 585.478 236.174C585.939 237.408 585.856 238.684 585.266 239.859C584.004 242.373 581.297 243.301 578.82 244.155C576.292 244.305 573.675 244.507 571.307 243.418C569.668 242.664 567.737 241.093 567.214 239.289C566.821 237.936 566.973 236.907 567.61 235.66C568.859 233.216 571.933 232.299 574.33 231.55Z"/>
	<path fill="#FDF855" d="M456.706 252.666C459.618 250.526 463.607 248.983 466.942 247.589C495.19 235.788 518.994 239.782 546.481 251.088C549.232 261.684 553.438 267.745 562.88 273.35C573.023 279.371 585.613 280.103 596.874 277.16C607.233 274.453 616.564 268.179 621.985 258.796C623.338 256.453 624.429 253.997 625.023 251.347L627.528 250.679C631.64 284.117 632.358 317.895 632.625 351.553C613.02 380.393 581.378 396.5 547.799 402.855C503.724 411.197 451.982 405.825 414.309 380.032C390.627 363.817 371.583 338.762 366.457 310.121C364.385 298.542 364.157 286.75 364.707 275.027C369.964 268.094 374.6 258.175 381.723 253.082C382.627 256.405 383.73 259.282 385.689 262.17C391.528 270.784 401.738 276.183 411.823 277.947C423.3 279.954 435.098 277.755 444.657 270.965C451.029 266.438 455.324 260.488 456.706 252.666Z"/>
	<path fill="#00000F" d="M499.103 279.187C503.847 278.615 509.046 278.875 513.749 279.689C519.834 280.743 527.09 283.021 530.663 288.407C533.376 292.497 533.562 297.586 532.461 302.241C529.539 314.601 520.413 322.851 510.12 329.334C513.592 332.951 518.037 336.537 523.183 337.141C534.316 338.446 535.285 328.797 542.035 324.029C543.35 323.1 544.258 323.086 545.803 323.316C547.399 324.394 548.354 325.385 548.863 327.301C549.636 330.218 547.405 333.68 545.791 335.89C542.139 340.891 535.076 346.81 528.743 347.546C519.346 348.637 512.058 344.573 505.085 338.879L504.464 338.373C502.233 338.806 494.277 345.067 490.002 346.457C483.91 348.438 475.712 347.641 470.255 344.453C465.38 341.604 460.016 335.973 458.743 330.325C458.338 328.527 458.041 326.11 459.276 324.556C459.954 323.702 461.003 322.771 462.144 322.693C466.416 322.401 470.427 330.237 473.326 332.91C476.074 335.444 479.81 337.448 483.654 337.129C489.445 336.648 494 333.206 497.676 329.004C494.667 327.345 491.693 325.611 488.887 323.622C480.965 318.004 474.492 309.023 473.058 299.267C472.478 295.325 472.888 291.409 475.434 288.204C480.659 281.626 491.309 280.14 499.103 279.187Z"/>
	<path fill="white" d="M488.381 288.111C491.809 287.759 495.243 287.533 498.45 289.01C500.41 289.912 502.707 291.625 503.325 293.813C503.708 295.169 503.545 296.135 502.862 297.362C501.553 299.715 498.202 300.736 495.82 301.417C492.426 301.772 489.335 302.149 486.075 300.81C483.611 299.798 480.87 297.976 480.056 295.285C479.665 293.994 479.972 292.951 480.682 291.845C482.254 289.398 485.767 288.686 488.381 288.111Z"/>
	<path fill="#051454" d="M0 574.726C23.0613 564.203 45.5053 558.741 70.1383 568.034C76.1458 570.3 81.1854 573.101 85.6085 577.837C97.9582 575.485 110.198 573.676 122.783 575.35C140.128 577.658 149.16 582.665 168.065 581.492C188.352 580.233 201.659 568.948 220.996 570.123C228.937 570.606 235.589 573.519 242.62 577.033C244.966 578.205 247.552 579.836 250.094 580.485C240.749 586.204 231.046 591.359 221.887 597.378C218.207 599.796 207.664 608.322 205.559 609.218C201.028 613.467 196.167 617.357 191.675 621.644C185.436 627.597 179.631 634.141 174.211 640.844C148.609 672.5 132.972 706.498 116.831 743.406C106.153 767.82 95.8092 792.844 88.1711 818.403C86.3376 824.538 78.3702 845.711 78.3048 850.028C78.3027 850.171 78.3201 850.314 78.3277 850.457C76.7059 857.808 72.2627 865.287 69.2663 872.211C64.9178 882.259 60.9773 892.52 56.9401 902.696Q40.2871 945.628 26.2738 989.492C22.5992 1001 18.4933 1012.28 15.509 1024L0 1024L0 593.913L0 574.726Z"/>
	<path fill="#0187E7" d="M88.3267 701.229C95.0541 701.056 102.028 701.434 108.734 702.012C101.27 703.232 93.7841 703.061 86.2449 703.078C79.7067 703.08 72.5246 703.707 66.1009 702.507C67.4152 701.512 85.303 701.341 88.3267 701.229Z"/>
	<path fill="#0187E7" d="M38.2249 668.214C43.3067 667.982 61.2205 667.38 65.3775 668.982C63.057 669.962 60.9088 670.032 58.4389 670.148C51.3905 670.914 38.4753 671.446 31.7985 669.628L31.9038 669.156C33.9777 668.329 36.0252 668.327 38.2249 668.214Z"/>
	<path fill="#0187E7" d="M107.5 616.733C135.983 616.161 164.676 615.912 193.098 617.836C176.272 620.898 155.957 620.486 138.75 620.509C125.935 620.531 61.7056 620.633 53.6416 617.299C71.5753 617.588 89.5648 617.046 107.5 616.733Z"/>
	<path fill="#051454" d="M463.466 450.923C480.466 450.918 498.394 452.036 515.241 449.862C525.276 448.567 534.872 445.098 544.782 443.211C569.961 438.417 593.422 447.114 611.466 465.081C616.386 469.98 620.108 475.515 623.866 481.311C627.179 486.422 631.047 492.001 632.81 497.879C635.349 506.341 634.035 527.458 634.007 536.909L633.894 557.352C625.203 565.418 616.599 580.563 616.256 592.67C616.092 598.483 617.785 603.705 620.291 608.883C606.928 615.548 596.182 625.28 591.255 639.742C588.81 646.919 588.691 652.852 590.79 660.128C576.917 666.042 566.028 675.336 560.27 689.58C557.653 696.056 556.514 702.905 557.703 709.832C543.12 713.459 533.159 720.62 525.407 733.594C522.502 738.457 519.853 744.001 518.019 749.372C504.283 744.049 490.833 743.464 476.278 744.446C472.782 744.935 469.489 745.795 466.096 746.757C462.536 748.102 458.983 749.416 455.36 750.584C451.92 752.242 448.659 753.976 445.435 756.023C443.514 754.338 441.576 752.654 439.77 750.846C429.719 740.781 425.869 729.999 425.815 715.964C418.062 713.36 410.618 708.416 405.152 702.343C396.191 692.388 391.237 679.643 391.978 666.302C384.281 663.72 377.909 658.966 372.987 652.51C364.419 641.274 362.382 628.628 364.319 614.932C362.476 613.927 360.782 612.789 359.057 611.598C357.091 609.023 358.499 596.84 358.802 593.073C359.53 586.912 357.673 571.508 359.607 566.998C358.417 565.316 358.215 563.705 358.58 561.677C358.928 559.743 359.876 557.924 360.684 556.148C365.443 560.437 370.042 564.747 374.101 569.727C393.229 564.882 413.512 545.973 424.988 530.517C428.399 525.923 430.769 520.175 434.396 515.872C434.545 515.695 434.698 515.522 434.849 515.347L435.505 515.408C437.535 512.407 441.378 501.396 443.223 500.243C444.258 501.029 444.902 501.593 445.088 502.951C445.862 508.585 438.673 516.321 439.722 521.109C437.687 527.768 432.958 533.343 430.242 539.7C451.967 517.18 464.189 487.782 463.653 456.372Q463.605 453.646 463.466 450.923Z"/>
	<path fill="#FD0844" d="M360.684 556.148C365.443 560.437 370.042 564.747 374.101 569.727C381.575 581.704 385.598 596.589 382.341 610.597L382.184 611.249C394.602 619.786 404.324 629.655 407.265 644.99C408.222 649.98 408.078 654.949 407.856 659.999C420.482 665.293 431.645 675.446 436.813 688.304C439.506 695.004 440.093 701.24 440.012 708.398C454.301 713.491 466.978 723.335 473.64 737.246C474.739 739.54 475.74 741.955 476.278 744.446C472.782 744.935 469.489 745.795 466.096 746.757C462.536 748.102 458.983 749.416 455.36 750.584C451.92 752.242 448.659 753.976 445.435 756.023C443.514 754.338 441.576 752.654 439.77 750.846C429.719 740.781 425.869 729.999 425.815 715.964C418.062 713.36 410.618 708.416 405.152 702.343C396.191 692.388 391.237 679.643 391.978 666.302C384.281 663.72 377.909 658.966 372.987 652.51C364.419 641.274 362.382 628.628 364.319 614.932C362.476 613.927 360.782 612.789 359.057 611.598C357.091 609.023 358.499 596.84 358.802 593.073C359.53 586.912 357.673 571.508 359.607 566.998C358.417 565.316 358.215 563.705 358.58 561.677C358.928 559.743 359.876 557.924 360.684 556.148Z"/>
	<path fill="#051454" d="M358.802 593.073C359.53 586.912 357.673 571.508 359.607 566.998C368.318 577.043 375.374 590.271 374.343 603.997C374.222 605.608 373.93 606.492 372.698 607.532C370.924 607.663 369.836 606.862 368.546 605.737C364.539 602.244 361.726 597.449 358.802 593.073Z"/>
	<path fill="#051454" d="M434.013 715.957C436.888 716.999 439.759 718.049 442.507 719.398C454.884 725.475 461.678 733.841 466.096 746.757C462.536 748.102 458.983 749.416 455.36 750.584C441.218 739.862 438.996 732.592 434.013 715.957Z"/>
	<path fill="#051454" d="M373.223 616.925C378.741 619.887 384.046 624.24 388.163 628.954C395.716 637.601 399.02 647.465 398.238 658.857C392.828 657.4 388 654.217 384.142 650.202C375.083 640.774 372.918 629.584 373.223 616.925Z"/>
	<path fill="#051454" d="M400.829 666.028C407.644 668.078 414.737 673.859 419.396 679.113C426.132 686.71 430.767 696.645 430.106 706.921C429.895 706.957 429.687 707.017 429.474 707.028C426.127 707.195 421.684 703.675 419.133 701.687C407.224 692.41 402.648 680.593 400.829 666.028Z"/>
	<path fill="#051454" d="M0 0L0.424402 0L1023.4 0L1024 0L1024 213.5L1024 316.5L1024 568.518L1024 571.365L1024 594.269L1024 617.008L1024 619.065L1024 1024L1010.02 1024C1006.82 1018.28 1004.59 1011.25 1002.39 1005.06C996.129 987.382 991.145 969.17 985.631 951.237Q967.379 892.58 950.799 833.429Q942.136 801.433 932.934 769.589C915.015 706.343 896.003 655.581 846.766 609.724C835.895 602.107 825.193 594.783 813.631 588.21C807.035 584.461 799.948 581.505 793.506 577.536L793.382 576.887C789.059 576.067 784.686 572.643 781.496 569.696C774.153 562.915 768.465 553.703 764.499 544.594C757.517 528.554 753.75 510.25 750.263 493.152C738.415 435.043 734.525 376.46 732.031 317.333C731.585 307.581 732.047 297.705 731.9 287.933C731.756 278.246 730.615 268.575 730.169 258.898C729.426 242.75 729.287 226.437 726.712 210.438C724.621 197.442 720.917 184.587 716.55 172.185C713.753 164.242 710.929 156.285 707.283 148.684C693.386 119.714 670.848 93.8352 644.869 75.0912C609.906 49.8659 564.13 35.9851 521.151 35.9142C514.265 35.9028 507.301 35.7694 500.485 36.8736C488.315 37.775 476.108 40.1491 464.247 42.9598C419.551 53.5513 384.304 74.2518 354.164 109.157Q350.778 113.091 347.59 117.186Q344.402 121.282 341.421 125.531Q338.439 129.779 335.671 134.169Q332.902 138.559 330.354 143.081Q327.806 147.603 325.484 152.244Q323.162 156.886 321.072 161.637Q318.982 166.388 317.129 171.236Q315.276 176.084 313.665 181.018C301.35 218.416 297.293 272.874 296.522 312.489C296.318 323.006 296.79 333.539 296.711 344.06C296.608 357.89 296.001 371.704 295.946 385.542C296.695 403.432 295.942 421.598 295.632 439.509Q295.312 465.335 295.497 491.161Q295.531 515.081 296.102 538.994C296.341 547.674 297.353 556.495 296.968 565.157C296.746 563.755 296.862 562.612 295.845 561.578C288.751 562.037 259.674 576.159 251.493 579.921L250.094 580.485C247.552 579.836 244.966 578.205 242.62 577.033C235.589 573.519 228.937 570.606 220.996 570.123C201.659 568.948 188.352 580.233 168.065 581.492C149.16 582.665 140.128 577.658 122.783 575.35C110.198 573.676 97.9582 575.485 85.6085 577.837C81.1854 573.101 76.1458 570.3 70.1383 568.034C45.5053 558.741 23.0613 564.203 0 574.726L0 571.511L0 319.751L0 237.731L0 0Z"/>
	<path fill="white" d="M920.374 176.896C925.377 177.056 932.372 180.765 936.086 183.939C931.778 182.972 925.389 181.904 921.703 179.464C920.486 178.658 920.626 178.269 920.374 176.896Z"/>
	<path fill="white" d="M126.299 34.3737C131.654 34.4935 139.203 37.4821 143.318 40.8628C137.083 40.3452 130.953 38.7348 126.299 34.3737Z"/>
	<path fill="white" d="M900.088 33.187C900.813 33.3221 901.148 33.4739 901.781 33.8161L901.451 34.6118C897.568 36.6413 892.94 37.4697 888.678 38.3375C887.798 38.2211 887.722 38.2901 886.965 37.7294C887.04 37.6078 887.098 37.4746 887.189 37.3645C889.244 34.8697 896.925 33.518 900.088 33.187Z"/>
	<path fill="#0187E7" d="M1023.37 617.033L1024 617.008L1024 619.065C1014.01 619.127 1004.11 619.276 994.212 617.749Q1008.79 617.275 1023.37 617.033Z"/>
	<path fill="white" d="M104.005 176.493C105.425 176.534 105.925 176.421 107.136 177.218L106.814 178.088C103.123 181.156 98.3175 182.449 93.814 183.842C92.9125 184.089 92.5862 184.222 91.6502 184.02C93.2963 180.714 100.589 177.646 104.005 176.493Z"/>
	<path fill="#0187E7" d="M966.583 667.214C975.138 666.462 985.705 666.481 994.05 668.231L993.597 668.291C988.366 668.952 983.175 669.157 977.912 669.356C969.38 669.441 960.649 669.236 952.135 668.689C953.967 667.088 963.753 667.347 966.583 667.214Z"/>
	<path fill="#0187E7" d="M959.387 641.217C965.75 640.798 980.43 640.203 985.981 642.418C983.636 644.247 975.485 643.898 972.233 644.012C962.828 644.156 953.696 643.489 944.332 642.738L944.415 642.44C949.322 641.585 954.419 641.507 959.387 641.217Z"/>
	<path fill="#0187E7" d="M877.117 609.949C874.173 609.435 871.064 609.381 868.077 609.223L868.433 608.883C875.14 607.891 947.792 607.861 951.499 609.296C942.571 610.823 932.726 610.071 923.663 610.056L877.117 609.949Z"/>
	<path fill="#0187E7" d="M870.586 622.722C880.911 621.797 927.76 622.971 936.843 626.249C926.266 627.306 878.655 625.522 870.586 622.722Z"/>
	<path fill="#0187E7" d="M945.795 631.209C950.271 630.65 955.194 630.877 959.719 630.858C971.486 630.809 983.138 630.941 994.82 632.452C987.751 634.042 980.333 633.729 973.125 633.756C957.19 633.734 940.158 634.739 924.417 632.571C930.508 631.252 939.289 631.702 945.795 631.209Z"/>
	<path fill="white" d="M984.495 54.972C984.352 57.1067 982.626 59.4794 981.428 61.2638C973.17 73.5672 958.908 83.713 944.354 86.6387C944.344 86.5231 944.295 86.4039 944.325 86.2919C944.405 85.9933 944.493 85.6819 944.677 85.4339C946.417 83.0963 964.623 70.6024 968.805 67.3914C974.096 63.3288 979.134 58.9428 984.495 54.972Z"/>
	<path fill="#0187E7" d="M888.32 616.727C901.659 616.403 915.055 616.844 928.394 617.082C936.973 617.235 946.104 616.804 954.586 618.021C945.222 619.523 935.359 619.257 925.875 619.541C909.524 620.249 892.917 620.382 876.566 619.646C871.891 619.436 866.816 619.54 862.236 618.661L862.534 618.296C870.47 616.415 880.125 617.034 888.32 616.727Z"/>
	<path fill="white" d="M41.6419 54.7717C43.0768 55.27 82.315 82.7439 85.6328 85.5168Q80.9621 85.1636 76.4542 83.8914C61.0244 79.4246 49.3475 68.5597 41.6419 54.7717Z"/>
	<path d="M0 571.511C21.2996 561.271 44.9087 556.006 67.9815 564.043C75.1751 566.549 81.4695 570.243 87.6164 574.693C98.8481 572.554 110.082 571.005 121.516 572.484C138.517 574.682 148.608 579.983 167.104 578.928Q172.031 578.655 176.88 577.739Q181.728 576.823 186.415 575.279C198.204 571.361 207.472 566.567 220.305 567.483C230.17 568.188 237.48 572.786 245.951 577.328C247.729 578.282 249.843 578.808 251.493 579.921L250.094 580.485C247.552 579.836 244.966 578.205 242.62 577.033C235.589 573.519 228.937 570.606 220.996 570.123C201.659 568.948 188.352 580.233 168.065 581.492C149.16 582.665 140.128 577.658 122.783 575.35C110.198 573.676 97.9582 575.485 85.6085 577.837C81.1854 573.101 76.1458 570.3 70.1383 568.034C45.5053 558.741 23.0613 564.203 0 574.726L0 571.511Z"/>
	<path d="M946.937 573.973C951.713 570.947 956.55 567.935 961.692 565.567C982.992 555.758 1003.04 560.734 1024 568.518L1024 571.365C1002.29 564.161 983.536 558.468 961.879 569.339Q958.238 571.158 954.829 573.383Q951.421 575.608 948.29 578.209C918.608 567.365 904.119 581.67 876.675 582.489C863.348 582.887 850.489 580.056 837.365 578.267C828.481 577.055 819.626 576.609 810.672 576.28C805.103 576.075 799.398 575.668 793.858 576.463C794.002 576.357 794.136 576.237 794.289 576.144C794.929 575.757 795.093 575.706 795.782 575.495C800.282 574.12 805.014 574.033 809.678 573.856Q817.326 573.574 824.968 573.982Q832.61 574.391 840.184 575.486C850.95 577.02 861.832 579.403 872.749 579.254C891.487 578.999 908.953 570.118 927.53 570.751C934.099 570.975 940.534 572.616 946.937 573.973Z"/>
	<path fill="#0187E7" d="M287.994 315.561C287.917 298.297 287.699 280.893 288.85 263.663C291.45 224.729 300.486 183.36 318.45 148.499C342.903 101.046 383.52 61.8119 435.088 45.5707C445.978 42.1408 492.399 32.6601 500.485 36.8736C488.315 37.775 476.108 40.1491 464.247 42.9598C419.551 53.5513 384.304 74.2518 354.164 109.157Q350.778 113.091 347.59 117.186Q344.402 121.282 341.421 125.531Q338.439 129.779 335.671 134.169Q332.902 138.559 330.354 143.081Q327.806 147.603 325.484 152.244Q323.162 156.886 321.072 161.637Q318.982 166.388 317.129 171.236Q315.276 176.084 313.665 181.018C301.35 218.416 297.293 272.874 296.522 312.489C296.318 323.006 296.79 333.539 296.711 344.06C296.608 357.89 296.001 371.704 295.946 385.542C292.703 380.534 288.89 326.406 287.994 315.561Z"/>
</svg>
