<?xml version="1.0" encoding="utf-8" ?>
<svg xmlns="http://www.w3.org/2000/svg" xmlns:xlink="http://www.w3.org/1999/xlink" width="1024" height="1024">
	<path fill="#FDFEEA" d="M0 0L1024 0L1024 1024L887.244 1024L882.719 1024L805.12 1024L798.828 1024L780.106 1024L773.843 1024L749.602 1024L743.593 1024L721.045 1024L720.439 1024L661.549 1024L615.567 1024L567.38 1024L539.933 1024L440.744 1024L420.048 1024L414.373 1024L395.868 1024L389.485 1024L388.211 1024L380.365 1024L320.033 1024L309.572 1024L179.233 1024L171.875 1024L160.208 1024L156.026 1024L0 1024L0 0Z"/>
	<path fill="#FE0100" d="M592.96 617.082L593.139 617.573C578.315 632.311 557.774 639.742 537.673 643.466L537.495 643.393C537.629 642.829 544.82 640.715 545.902 640.384C562.688 635.252 578.524 627.013 592.96 617.082Z"/>
	<path fill="#FE0100" d="M614.505 563.548L614.664 563.999C610.625 567.039 606.841 570.415 602.687 573.303C590.22 581.972 572.804 590.777 557.211 590.411L556.986 590.336C578.455 585.06 595.929 575.027 614.505 563.548Z"/>
	<path fill="#FE0100" d="M603.48 589.076L603.583 589.151L603.528 589.739C588.27 605.075 567.053 615.397 545.697 618.506L545.394 618.171C566.091 612.507 586.355 601.943 603.48 589.076Z"/>
	<path fill="#03BFFA" d="M507.916 683.601C509.94 683.475 512.077 683.362 514.02 684.039C516.796 685.006 519.276 687.076 520.482 689.78Q520.668 690.186 520.812 690.609Q520.956 691.032 521.057 691.467Q521.158 691.903 521.215 692.346Q521.272 692.789 521.284 693.235Q521.296 693.682 521.264 694.128Q521.231 694.573 521.155 695.013Q521.078 695.453 520.957 695.884Q520.837 696.314 520.674 696.73C519.342 700.189 516.715 701.761 513.497 703.243C511.553 703.606 509.776 703.628 507.855 703.075C505.172 702.303 502.977 700.624 501.674 698.131Q501.439 697.682 501.251 697.211Q501.062 696.741 500.922 696.254Q500.782 695.767 500.692 695.268Q500.601 694.769 500.561 694.264Q500.522 693.759 500.533 693.252Q500.544 692.745 500.606 692.242Q500.668 691.739 500.78 691.245Q500.893 690.75 501.054 690.27C502.24 686.755 504.714 685.119 507.916 683.601Z"/>
	<path fill="#03BFFA" d="M584.544 673.095C586.541 673.006 588.505 673.08 590.387 673.834C593.18 674.952 595.532 677.183 596.602 680.012C597.514 682.422 597.454 685.039 596.343 687.373C594.695 690.834 591.817 692.102 588.383 693.323C586.264 693.277 584.037 693.109 582.024 692.394C579.58 691.527 577.335 689.521 576.303 687.134Q576.115 686.699 575.974 686.247Q575.832 685.795 575.739 685.33Q575.645 684.866 575.6 684.394Q575.554 683.923 575.559 683.449Q575.563 682.975 575.616 682.504Q575.669 682.034 575.771 681.571Q575.872 681.108 576.022 680.658Q576.171 680.209 576.366 679.777C577.953 676.233 581.02 674.35 584.544 673.095Z"/>
	<path fill="#03BFFA" d="M458.654 669.577C460.666 669.472 462.486 669.384 464.377 670.186Q464.922 670.413 465.442 670.693Q465.961 670.973 466.45 671.303Q466.939 671.633 467.393 672.011Q467.847 672.389 468.26 672.809Q468.674 673.23 469.044 673.69Q469.414 674.15 469.736 674.645Q470.057 675.14 470.329 675.664Q470.6 676.188 470.817 676.737C471.781 679.214 471.878 681.972 470.778 684.425C469.218 687.907 466.324 688.947 462.947 690.122C458.78 690.165 456.656 689.373 453.205 687.264C452.479 685.997 451.827 684.71 451.279 683.355C450.225 680.747 449.77 677.826 450.984 675.173C452.405 672.065 455.585 670.578 458.654 669.577Z"/>
	<path fill="#03BFFA" d="M373.466 681.61C375.915 681.363 378.433 681.068 380.787 681.973C383.69 683.089 386.193 685.411 387.449 688.258C388.511 690.668 388.714 693.389 387.74 695.862C386.436 699.172 384.032 700.369 380.926 701.72C377.888 702.142 374.975 701.982 372.226 700.475C368.896 698.648 367.456 695.847 366.407 692.349C367.733 686.985 368.779 684.687 373.466 681.61Z"/>
	<path fill="#03BFFA" d="M629.832 730.021C631.64 729.944 633.095 730.101 634.763 730.852C637.337 732.01 639.234 733.866 640.128 736.578Q640.299 737.114 640.417 737.664Q640.534 738.213 640.599 738.772Q640.663 739.331 640.672 739.893Q640.682 740.455 640.637 741.015Q640.593 741.576 640.494 742.13Q640.395 742.683 640.243 743.224Q640.092 743.766 639.888 744.29Q639.684 744.814 639.431 745.316C637.518 749.112 634.641 750.706 630.727 751.961Q629.395 751.972 628.095 751.684Q626.795 751.397 625.592 750.825C623.096 749.665 621.253 747.646 620.472 744.99C619.601 742.026 620.086 738.831 621.553 736.139C623.507 732.554 626.068 731.211 629.832 730.021Z"/>
	<path fill="#03BFFA" d="M560.255 680.538C562.652 680.304 564.534 680.307 566.75 681.359C569.483 682.656 571.539 684.926 572.464 687.819Q572.619 688.295 572.726 688.784Q572.833 689.274 572.89 689.771Q572.947 690.269 572.954 690.77Q572.961 691.271 572.917 691.77Q572.874 692.269 572.78 692.761Q572.687 693.253 572.545 693.733Q572.402 694.213 572.212 694.677Q572.022 695.14 571.787 695.582C570.239 698.506 567.612 700.063 564.532 700.974C562.169 701.041 559.606 701.061 557.372 700.185C554.887 699.211 552.781 697.17 551.875 694.648C550.956 692.089 551.203 689.175 552.411 686.758C554.135 683.306 556.744 681.793 560.255 680.538Z"/>
	<path fill="#03BFFA" d="M484.429 678.613C486.22 678.498 487.97 678.686 489.642 679.387C492.494 680.584 494.732 682.856 495.775 685.779C496.69 688.342 496.604 691.181 495.337 693.611C493.63 696.885 490.696 698.085 487.332 699.072C484.537 699.074 481.722 699.051 479.25 697.563C476.087 695.66 475.164 692.546 474.239 689.22C474.746 687.409 475.199 685.475 476.173 683.847C478.132 680.575 480.854 679.45 484.429 678.613Z"/>
	<path fill="#03BFFA" d="M588.22 764.04C590.662 763.936 592.895 764.111 595.048 765.388C598.237 767.279 599.207 770.67 600.164 773.997C599.718 775.68 599.29 777.391 598.512 778.957C596.752 782.499 594.172 783.923 590.54 785.162C588.43 785.132 586.337 785.11 584.367 784.257C581.917 783.196 579.854 781.2 578.92 778.679C577.973 776.125 578.171 773.346 579.39 770.918C581.248 767.218 584.447 765.372 588.22 764.04Z"/>
	<path fill="#03BFFA" d="M435.708 658.594C438.031 658.542 440.077 658.802 442.208 659.791C444.957 661.068 447.182 663.306 448.201 666.185C449.093 668.705 448.976 671.478 447.74 673.856C446.002 677.203 443.078 678.41 439.625 679.419C437.506 679.418 435.456 679.199 433.486 678.349C430.733 677.161 428.445 674.893 427.461 672.036Q427.303 671.571 427.191 671.092Q427.079 670.614 427.015 670.126Q426.95 669.639 426.934 669.148Q426.918 668.657 426.951 668.166Q426.983 667.676 427.063 667.191Q427.144 666.706 427.272 666.231Q427.399 665.757 427.573 665.297Q427.747 664.837 427.965 664.397C429.602 661.143 432.339 659.589 435.708 658.594Z"/>
	<path fill="#03BFFA" d="M624.111 642.092C626.002 641.855 627.876 641.658 629.763 642.037C632.956 642.679 635.983 644.622 637.627 647.466C638.948 649.753 639.273 652.41 638.491 654.934C637.382 658.513 634.788 660.43 631.651 662.181C629.65 662.674 627.655 663.082 625.594 662.693Q625.107 662.604 624.631 662.467Q624.155 662.329 623.695 662.145Q623.235 661.961 622.795 661.733Q622.356 661.504 621.941 661.233Q621.527 660.961 621.142 660.65Q620.756 660.339 620.404 659.991Q620.051 659.643 619.735 659.261Q619.419 658.88 619.142 658.469C617.486 655.956 617.053 652.823 617.779 649.92C618.716 646.177 620.91 644.032 624.111 642.092Z"/>
	<path fill="#03BFFA" d="M414.922 645.123C417.091 645.07 419.238 645.11 421.243 646.039Q421.734 646.264 422.199 646.539Q422.664 646.815 423.097 647.138Q423.53 647.461 423.926 647.828Q424.323 648.195 424.678 648.601Q425.034 649.008 425.344 649.45Q425.655 649.892 425.917 650.365Q426.179 650.837 426.389 651.335Q426.6 651.832 426.757 652.349Q426.91 652.862 427.01 653.389Q427.11 653.915 427.156 654.449Q427.201 654.983 427.192 655.519Q427.182 656.055 427.117 656.587Q427.053 657.119 426.934 657.641Q426.815 658.164 426.643 658.671Q426.471 659.179 426.248 659.666Q426.025 660.153 425.753 660.615C423.888 663.767 421.135 665.021 417.736 665.959C415.336 666.031 413.286 665.633 411.198 664.388Q410.687 664.086 410.21 663.733Q409.733 663.38 409.295 662.981Q408.857 662.581 408.461 662.139Q408.066 661.696 407.718 661.216Q407.369 660.735 407.072 660.222Q406.775 659.709 406.531 659.168Q406.288 658.626 406.101 658.063Q405.914 657.5 405.786 656.921C405.21 654.304 405.622 651.578 407.127 649.343C409.067 646.462 411.65 645.645 414.922 645.123Z"/>
	<path fill="#03BFFA" d="M513.775 767.592C515.753 767.811 517.509 768.201 519.275 769.164C521.915 770.604 524.014 772.849 524.847 775.783Q524.977 776.249 525.059 776.726Q525.141 777.202 525.174 777.685Q525.208 778.167 525.193 778.65Q525.178 779.134 525.115 779.613Q525.051 780.093 524.94 780.563Q524.829 781.034 524.671 781.491Q524.513 781.948 524.309 782.387Q524.106 782.826 523.86 783.242C522.01 786.362 518.979 787.959 515.562 788.76C512.987 788.773 510.785 788.722 508.462 787.47C506.097 786.196 504.318 784.133 503.611 781.518Q503.479 781.018 503.398 780.507Q503.317 779.996 503.286 779.48Q503.256 778.964 503.277 778.447Q503.298 777.93 503.37 777.418Q503.441 776.906 503.564 776.403Q503.686 775.901 503.857 775.413Q504.029 774.925 504.248 774.456Q504.467 773.988 504.731 773.543C506.783 770.055 509.983 768.513 513.775 767.592Z"/>
	<path fill="#03BFFA" d="M533.507 685.571C535.798 685.389 538.092 685.482 540.388 685.523C542.815 686.87 544.998 688.408 546.404 690.864C547.718 693.16 548.111 695.822 547.25 698.349C545.892 702.331 542.878 704.179 539.259 705.854C536.796 706.062 534.485 706.132 532.153 705.173Q531.636 704.963 531.143 704.7Q530.65 704.438 530.187 704.126Q529.724 703.814 529.296 703.456Q528.868 703.098 528.479 702.697Q528.09 702.297 527.745 701.858Q527.399 701.42 527.101 700.948Q526.803 700.476 526.555 699.975Q526.307 699.475 526.112 698.952Q525.943 698.502 525.82 698.038Q525.697 697.573 525.622 697.099Q525.546 696.624 525.519 696.144Q525.491 695.665 525.512 695.185Q525.532 694.704 525.601 694.229Q525.67 693.753 525.786 693.287Q525.903 692.821 526.065 692.369Q526.228 691.917 526.435 691.483C527.877 688.453 530.468 686.734 533.507 685.571Z"/>
	<path fill="#03BFFA" d="M609.459 748.548C611.35 748.413 613.12 748.549 614.901 749.265C617.483 750.305 619.505 752.244 620.567 754.826Q620.784 755.347 620.946 755.887Q621.108 756.427 621.215 756.981Q621.321 757.535 621.37 758.097Q621.419 758.659 621.411 759.223Q621.403 759.786 621.337 760.347Q621.271 760.907 621.148 761.457Q621.025 762.008 620.846 762.543Q620.668 763.078 620.436 763.592C618.749 767.313 615.993 768.593 612.349 769.902C610.234 769.977 608.398 770.005 606.417 769.169C603.688 768.016 601.584 765.972 600.565 763.163Q600.376 762.635 600.242 762.091Q600.108 761.547 600.03 760.991Q599.953 760.436 599.933 759.876Q599.913 759.315 599.951 758.756Q599.989 758.197 600.084 757.644Q600.179 757.092 600.331 756.552Q600.482 756.012 600.688 755.491Q600.894 754.969 601.153 754.472C603.048 750.823 605.73 749.679 609.459 748.548Z"/>
	<path fill="#03BFFA" d="M463.358 744.552C465.557 744.552 467.651 744.806 469.694 745.675C472.445 746.846 474.723 749.108 475.757 751.928Q475.929 752.392 476.053 752.872Q476.178 753.351 476.255 753.84Q476.331 754.329 476.358 754.824Q476.385 755.318 476.363 755.813Q476.341 756.307 476.27 756.797Q476.199 757.287 476.079 757.768Q475.959 758.248 475.792 758.715Q475.625 759.181 475.413 759.628C473.772 763.061 471.039 764.467 467.59 765.621C465.054 765.793 462.795 765.525 460.482 764.382C456.399 762.365 454.9 758.488 453.667 754.418C454.073 753.123 454.516 751.85 455.125 750.634C456.964 746.962 459.605 745.769 463.358 744.552Z"/>
	<path fill="#03BFFA" d="M414.991 713.562C417.441 713.382 419.901 713.516 422.354 713.585Q423.3 714.087 424.193 714.676C428.302 717.339 428.844 720.487 429.757 724.999C428.294 729.963 426.94 731.747 422.478 734.357C420.446 734.559 418.211 734.914 416.205 734.4C413.248 733.641 410.589 731.428 409.139 728.766C407.764 726.244 407.377 723.068 408.304 720.331C409.461 716.911 411.842 715.052 414.991 713.562Z"/>
	<path fill="#03BFFA" d="M604.869 659.576C607.339 659.379 609.791 659.488 612.265 659.559C614.552 660.929 616.556 662.269 617.959 664.607C619.467 667.12 620.025 670.102 619.202 672.943C618.112 676.707 615.684 678.491 612.406 680.301C610.528 680.499 608.597 680.647 606.714 680.405C603.991 680.056 601.231 678.427 599.621 676.202C597.893 673.814 597.362 670.779 598.009 667.917C598.885 664.046 601.608 661.547 604.869 659.576Z"/>
	<path fill="#03BFFA" d="M438.486 729.599C440.981 729.465 443.209 729.379 445.538 730.416Q446.084 730.659 446.605 730.954Q447.125 731.249 447.614 731.594Q448.102 731.938 448.555 732.329Q449.008 732.72 449.421 733.153Q449.833 733.586 450.202 734.057Q450.57 734.528 450.891 735.033Q451.211 735.538 451.481 736.072Q451.751 736.605 451.967 737.163C452.931 739.715 452.974 742.672 451.729 745.139C450.203 748.163 447.702 749.475 444.61 750.493C442.512 750.621 440.371 750.493 438.269 750.453C435.475 748.975 433.31 747.346 431.899 744.428C430.6 741.741 430.196 738.691 431.314 735.867C432.633 732.537 435.322 730.894 438.486 729.599Z"/>
	<path fill="#03BFFA" d="M564.265 774.056C566.397 773.96 568.25 773.855 570.211 774.811C572.989 776.166 575.048 778.332 576.011 781.297Q576.188 781.83 576.31 782.378Q576.431 782.925 576.496 783.483Q576.561 784.041 576.568 784.602Q576.575 785.163 576.524 785.722Q576.473 786.281 576.365 786.832Q576.258 787.383 576.094 787.92Q575.93 788.456 575.712 788.974Q575.494 789.491 575.224 789.983C573.336 793.392 570.629 794.621 566.993 795.558C564.732 795.381 562.175 794.981 560.124 793.991C556.466 792.224 555.33 789.088 554.184 785.491C554.623 783.902 555.027 782.215 555.72 780.716C557.493 776.878 560.459 775.389 564.265 774.056Z"/>
	<path fill="#03BFFA" d="M487.198 757.573C489.541 757.505 491.625 757.405 493.793 758.445C496.629 759.806 498.876 762.069 499.818 765.115Q499.985 765.644 500.096 766.187Q500.207 766.73 500.262 767.282Q500.316 767.833 500.313 768.388Q500.311 768.942 500.25 769.493Q500.19 770.044 500.073 770.586Q499.956 771.128 499.783 771.655Q499.611 772.182 499.384 772.688Q499.158 773.194 498.881 773.674C496.965 776.937 494.223 778.126 490.682 778.929C488.888 778.892 487.166 778.777 485.475 778.116Q484.94 777.91 484.429 777.651Q483.917 777.392 483.434 777.082Q482.952 776.773 482.503 776.417Q482.054 776.06 481.643 775.66Q481.232 775.26 480.864 774.82Q480.496 774.381 480.174 773.906Q479.852 773.432 479.58 772.927Q479.308 772.422 479.088 771.893Q478.88 771.392 478.725 770.872Q478.57 770.352 478.471 769.819Q478.372 769.285 478.33 768.745Q478.287 768.204 478.302 767.661Q478.317 767.119 478.389 766.581Q478.46 766.044 478.588 765.516Q478.716 764.989 478.899 764.479Q479.082 763.968 479.317 763.479C480.973 760.084 483.762 758.691 487.198 757.573Z"/>
	<path fill="#03BFFA" d="M663.417 690.531C665.217 690.413 666.755 690.442 668.464 691.087C671.106 692.083 673.215 693.753 674.321 696.404Q674.532 696.922 674.688 697.459Q674.844 697.995 674.944 698.545Q675.044 699.095 675.087 699.653Q675.13 700.21 675.115 700.769Q675.099 701.328 675.027 701.882Q674.954 702.437 674.824 702.981Q674.695 703.524 674.51 704.052Q674.325 704.579 674.086 705.085C672.275 708.991 669.26 710.623 665.365 712.001Q663.885 712.09 662.403 712.073C660.049 712.022 657.676 711.068 656.079 709.297C653.297 706.213 653.403 702.125 653.551 698.263C656.175 693.745 658.557 692.088 663.417 690.531Z"/>
	<path fill="#03BFFA" d="M646.803 710.016C648.386 709.986 649.891 710.25 651.392 710.769C654.316 711.78 656.808 713.637 658.047 716.533Q658.238 716.992 658.384 717.467Q658.529 717.942 658.627 718.429Q658.725 718.916 658.775 719.41Q658.825 719.905 658.826 720.401Q658.827 720.898 658.779 721.393Q658.731 721.887 658.635 722.375Q658.539 722.862 658.396 723.338Q658.252 723.814 658.063 724.273C656.396 728.312 653.129 730.233 649.318 731.883C647.795 732.013 646.322 732.091 644.816 731.762C641.396 731.015 639.516 728.818 637.661 726.023C637.127 722.476 636.728 719.12 638.504 715.839C640.236 712.64 643.496 711.106 646.803 710.016Z"/>
	<path fill="#03BFFA" d="M395.144 696.595C397.217 696.466 399.02 696.452 400.998 697.169Q401.524 697.364 402.028 697.611Q402.533 697.857 403.01 698.152Q403.488 698.447 403.933 698.788Q404.379 699.129 404.789 699.512Q405.199 699.896 405.57 700.317Q405.94 700.739 406.266 701.196Q406.593 701.652 406.873 702.139Q407.153 702.625 407.383 703.137C408.641 705.945 408.831 709.17 407.684 712.05C406.314 715.491 403.811 717.109 400.504 718.439C398.523 718.529 396.647 718.626 394.752 717.945C391.738 716.863 389.19 714.711 387.842 711.78C386.554 708.978 386.396 705.781 387.617 702.928C389.119 699.42 391.764 697.997 395.144 696.595Z"/>
	<path fill="#FE0100" d="M605.481 529.086L605.737 529.373C605.638 529.543 605.551 529.72 605.441 529.883C599.808 538.182 584.588 544.483 575.051 546.396C555.366 550.345 536.948 546.376 520.273 535.327C518.425 534.186 516.813 532.877 515.144 531.499C525.094 535.342 535.105 539.236 545.668 541.036C566.698 544.618 587.924 541.58 605.481 529.086Z"/>
	<path fill="#03BFFA" d="M537.594 775.575C539.954 775.465 541.945 775.396 544.135 776.386C546.957 777.663 549.169 779.978 550.177 782.923C551.123 785.686 550.961 788.897 549.577 791.487C547.888 794.647 545.395 796 542.115 797.113C539.161 797.041 536.387 797.034 533.748 795.496C530.119 793.383 529.166 789.768 528.194 785.988C528.478 784.923 528.772 783.855 529.179 782.83C530.807 778.728 533.784 777.226 537.594 775.575Z"/>
	<path fill="#FE0100" d="M626.358 530.011C626.309 532.513 623.004 536.592 621.408 538.548C608.932 553.839 588.299 562.146 569.063 564.136C542.132 566.923 516.048 561.408 494.781 544.213C493.176 542.99 491.728 541.379 490.267 539.978C506.299 550.727 523.253 557.532 542.637 559.147C574.325 561.789 602.422 550.132 626.358 530.011Z"/>
	<path fill="#FE0100" d="M563.105 203.151C571.45 204.03 579.268 205.424 587.163 208.344C617.719 219.646 650.608 249.496 671.022 274.689C682.27 288.571 691.026 304.703 698.027 321.092Q699.938 326.577 701.739 332.099C701.775 332.256 701.809 332.413 701.848 332.569C703.063 337.471 706.951 343.04 706.492 348.083L705.988 348.632C693.604 338.221 679.3 332.751 662.989 334.104C649.154 335.251 636.66 341.045 627.653 351.746C624.343 355.678 622.195 359.733 619.996 364.341C634.185 352.385 649.338 338.041 669.456 339.798C682.673 340.952 696.695 349.584 705.17 359.56C706.648 361.299 706.934 363.652 706.61 365.864C706.571 366.129 706.522 366.392 706.477 366.657L705.841 366.71L705.318 366.182L704.22 365.08C701.355 362.153 697.288 359.826 693.795 357.687C694.394 369.886 693.055 380.399 684.46 389.76Q684.019 390.242 683.555 390.701Q683.091 391.161 682.606 391.597Q682.12 392.033 681.613 392.445Q681.107 392.857 680.581 393.244Q680.054 393.631 679.51 393.991Q678.966 394.352 678.404 394.685Q677.843 395.019 677.266 395.325Q676.689 395.63 676.097 395.907Q675.506 396.184 674.902 396.432Q674.298 396.68 673.682 396.898Q673.067 397.116 672.441 397.303Q671.816 397.491 671.182 397.648Q670.548 397.804 669.907 397.93Q669.267 398.056 668.62 398.15Q667.974 398.244 667.324 398.306Q666.674 398.368 666.022 398.399Q665.32 398.433 664.617 398.432Q663.914 398.431 663.212 398.396Q662.51 398.361 661.81 398.292Q661.111 398.223 660.415 398.119Q659.72 398.016 659.031 397.878Q658.341 397.741 657.659 397.57Q656.977 397.399 656.305 397.195Q655.632 396.991 654.97 396.754Q654.308 396.518 653.659 396.249Q653.009 395.98 652.373 395.68Q651.738 395.38 651.118 395.049Q650.497 394.718 649.894 394.357Q649.291 393.996 648.706 393.607Q648.121 393.217 647.556 392.799Q646.991 392.381 646.447 391.935Q645.903 391.49 645.381 391.019C640.203 386.314 637.689 380.242 637.515 373.316C637.36 367.132 638.961 361.355 641.341 355.702C633.698 359.707 628.115 365.51 623.681 372.883C628.305 384.836 638.03 392.216 649.513 397.343C660.111 402.074 670.567 401.405 681.228 397.211C691.694 393.094 700.087 386.142 706.248 376.787C704.973 384.03 704.3 391.344 703.103 398.594C698.565 426.082 690.711 452.188 673.084 474.305C667.412 481.422 661.42 488.149 653.913 493.386C641.453 502.08 626.138 507.018 610.875 504.304C608.475 503.878 606.218 503.172 603.923 502.363C593.145 507.248 582.429 508.662 571.133 504.41Q569.352 503.733 567.597 502.992C546.289 509.089 521.971 506.089 502.622 495.393C495.379 491.39 489.289 486.07 483.871 479.851C502.994 493.647 526.184 501.482 549.91 497.647C560.354 495.958 570.588 491.185 576.869 482.395C578.956 479.474 580.124 476.653 581.12 473.221L580.936 472.546C579.632 467.901 577.53 464.936 573.214 462.624C564.94 458.192 555.687 457.392 552.275 447.104C550.013 440.284 548.264 427.444 551.753 420.944C554.335 416.135 559.604 413.936 564.618 412.588C575.878 409.561 600.78 408.141 610.94 414.05C614.401 416.063 616.762 419.299 617.694 423.186C619.673 431.431 617.396 444.356 614.55 452.238C612.943 453.665 611.531 455.366 609.818 456.652C603.287 461.559 594.503 465.32 594.069 474.789C593.833 479.951 596.607 484.52 600.076 488.117C606.787 495.075 614.841 497.599 624.31 497.696C633.461 497.789 644.74 495.346 651.473 488.699C656.067 484.164 657.365 476.937 657.201 470.722C657.099 466.829 656.614 462.875 656.042 459.025C657.217 458.576 658.169 458.117 659.241 457.435C658.325 457.272 657.415 457.155 656.49 457.053C654.832 455.746 654.532 452.812 654.023 450.835C660.833 448.678 668.119 448.248 674.447 444.754C667.639 446.121 660.78 447.728 653.909 448.71C649.36 434.97 641.482 424.946 633.336 413.304C629.174 407.356 625.24 401.298 620.445 395.823C615.361 390.02 608.563 385.476 605.174 378.387C604.975 379.828 605.087 380.807 604.109 381.913L602.917 381.729C599.902 378.747 598.583 373.286 597.19 369.311C598.778 371.025 601.567 375.079 603.616 375.749C602.709 374.048 601.577 372.206 601.96 370.219L602.785 370.222C604.761 371.691 605.505 373.725 606.532 375.889C604.821 369.316 603.101 362.69 601.911 356.002C604.063 358.21 606.02 360.634 608.025 362.977C607.742 357.796 606.957 352.719 605.979 347.629C607.314 348.99 608.635 350.75 610.649 350.893C612.752 348.773 611.261 345.328 611.697 342.658Q613.892 345.708 616.216 348.66C616.147 344.02 616.189 339.473 616.536 334.839L620.386 341.774C620.803 338.143 620.231 333.255 621.355 329.938C622.161 330.666 622.816 331.446 623.51 332.278L624.037 331.884C624.941 326.618 620.381 316.497 619.493 310.407C620.481 311.865 621.583 314.537 623.109 315.305C624.2 313.824 624.116 310.451 624.316 308.599C625.873 312.717 626.787 316.492 627.378 320.845Q629.003 313.292 630.192 305.659C631.859 307.378 632.622 309.24 633.543 311.399L633.429 310.352L633.37 311.166L633.7 311.495C635.204 308.587 632.647 300.532 631.82 297.419L637.027 301.363C636.649 300.621 636.295 299.873 635.937 299.121C634.582 296.274 634.435 292.761 634.209 289.642C634.949 290.253 635.628 290.893 636.327 291.55L636.883 291.462C636.115 288.795 632.322 286.667 630.908 283.973L631.259 283.386C632.305 283.301 633.253 283.177 634.27 282.918C632.321 279.534 627.502 277.888 626.603 273.812Q628.121 274.329 629.659 274.783C629.47 272.449 626.709 269.153 625.301 267.302C618.565 258.444 610.674 251.177 601.581 244.788C590.612 237.081 578.97 230.604 569.843 220.606C566.129 214.733 563.849 210.173 563.105 203.151Z"/>
	<path fill="#FDFEEA" d="M604.949 441.892C606.346 441.857 607.462 441.865 608.824 442.271C609.673 443.694 609.529 444.406 609.552 446.037C608.911 445.989 608.247 445.814 607.615 445.692C606.107 444.675 605.674 443.521 604.949 441.892Z"/>
	<path fill="#FDFEEA" d="M575.76 501.196C581.007 500.526 588.501 500.415 593.771 501.265L593.75 501.829C588.323 503.202 580.854 503.636 575.76 501.196Z"/>
	<path fill="#FDFEEA" d="M591.554 425.054C595.664 424.737 600.22 425 604.225 426.02C606.262 426.539 608.463 427.281 609.581 429.178C607.902 430.86 598.349 428.536 593.77 430.392C593.611 430.456 593.455 430.525 593.298 430.592C590.386 435.038 592.863 438.588 592.057 443.269L591.507 443.635C589.076 440.816 588.565 431.597 588.15 427.737C588.881 426.301 590.188 425.869 591.554 425.054Z"/>
	<path fill="#FDFEEA" d="M675.413 354.47C676.323 354.527 677.258 354.674 678.132 354.945C680.018 355.529 681.737 357.096 682.629 358.842C683.413 360.377 683.586 362.117 683.038 363.76C682.322 365.909 680.858 366.807 678.93 367.788C678.745 367.778 678.56 367.774 678.375 367.759C675.786 367.54 673.468 366.763 671.806 364.635C670.785 363.327 670.375 361.716 670.658 360.08C671.132 357.349 673.257 355.899 675.413 354.47Z"/>
	<path fill="#FDFEEA" d="M571.117 425.662C573.002 425.598 575.363 425.426 577.168 425.971C578.752 426.449 580.262 428.071 581.048 429.487C582.769 432.592 582.413 436.545 581.418 439.819C580.884 441.577 579.577 443.407 577.86 444.151C577.135 444.465 577.328 444.392 576.624 444.119C574.795 441.139 579.45 436.995 579.653 433.861C579.726 432.729 579.325 431.964 578.404 431.33C576.454 429.987 571.45 430.226 569.115 430.503C568.891 430.529 568.668 430.562 568.445 430.591Q567.277 430.935 566.121 431.319C564.212 431.969 562.033 433.053 561.302 435.113C560.512 437.341 561.232 439.05 562.28 441.014C562.893 442.163 563.33 443.066 563.631 444.329C563.29 445.684 563.174 446.313 562.093 447.284L561.052 447.154C559.811 445.99 559.351 444.774 559.073 443.121C558.363 438.897 558.983 433.328 561.733 429.886C564.232 426.758 567.307 426.083 571.117 425.662Z"/>
	<path fill="#FE0100" d="M414.804 486.153C406.506 457.299 400.838 417.419 400.39 387.299C400.146 370.952 400.839 353.613 404.713 337.698C412.088 307.404 433.096 278.999 454.561 256.908C476.061 234.781 507.985 212.927 538.286 205.654C545.97 203.81 553.625 203.202 561.507 203.084C561.46 214.252 556.602 221.712 549.941 230.295C541.327 238.657 531.462 245.902 523.89 255.314C520.883 259.051 518.496 263.427 515.887 267.451C514.282 269.926 511.83 272.27 510.578 274.879C511.642 275.488 511.066 275.236 512.316 275.61C509.902 279.308 503.617 281.373 503.712 286.443C505.054 286.262 506.172 285.531 507.345 284.897C507.925 285.6 507.786 285.195 507.671 286.249C507.396 288.777 505.601 291.639 505.859 294.067C507.01 293.229 508.05 292.435 509.396 291.924L510.058 292.19C511.418 295.531 508.023 301.81 506.865 305.152C508.413 303.203 509.789 301.325 511.005 299.138L512.051 298.558C513.079 299.181 513.791 300.267 514.065 301.447C514.472 303.195 513.954 305.294 513.699 307.038C514.739 305.61 515.935 303.363 517.486 302.554C518.139 303.52 518.2 304.838 517.971 305.968C517.818 306.723 517.454 307.477 517.134 308.174C518.215 307.896 518.664 307.497 519.569 306.855C520.254 308.059 519.976 309.174 519.942 310.499C519.918 311.439 519.856 311.076 520.278 311.896C520.413 311.752 520.543 311.604 520.681 311.463C521.229 310.9 520.97 311.068 521.634 310.839C521.497 312.849 520.857 314.782 520.978 316.788L521.329 316.984C522.049 315.615 522.733 314.275 523.304 312.836L525.158 315.659L525.837 315.709C527.302 314.091 527.938 311.953 528.434 309.856L528.931 310.082C530.459 315.339 526.672 329.665 525.756 335.912C527.593 332.823 529.345 329.601 531.412 326.663C530.711 333.259 531.711 339.709 530.671 346.24C532.478 342.411 534.358 338.695 536.47 335.025Q537.388 347.319 537.453 359.648C539.314 355.937 541.518 352.529 543.528 348.918C543.471 354.018 543.198 359.014 542.758 364.09C544.281 361.143 545.714 358.215 546.971 355.144C547.176 359.917 547.83 372.721 546.613 376.782L546.077 376.738C545.658 375.271 545.235 373.825 544.711 372.392C543.85 372.802 543.845 373.084 543.564 373.968C542.694 376.706 543.084 380.076 541.769 382.598L541.163 380.272L540.548 380.218C539.589 381.598 536.906 388.444 536.198 388.627L536.212 386.731L535.751 386.449C533.928 388.183 532.659 390.924 530.576 392.236C530.137 391.083 531.029 389.377 531.398 388.187C529.022 389.505 516.858 408.186 513.553 412.191C508.364 418.478 502.433 424.806 495.934 429.759C488.053 435.766 482.923 433.653 479.515 435.71C482.172 436.188 485.989 435.323 488.3 436.331C485.171 439.065 476.893 439.502 472.844 439.214C465.211 438.672 457.993 435.571 450.697 433.508C457.253 438.096 464.777 440.712 471.434 444.996C460.787 442.496 450.888 439.099 440.718 435.124C442.925 437.913 445.179 440.478 447.707 442.98C446 442.713 444.371 442.108 442.806 442.903C442.284 445.526 446.686 451.342 447.828 454.049L440.604 448.131C442.57 452.7 444.882 457.015 447.259 461.377C444.682 460.059 442.092 458.767 439.573 457.341C441.188 461.099 443.05 464.613 445.07 468.169L436.595 461.64C439.295 468.019 443.821 472.058 447.401 477.74C445.105 476.219 442.829 474.634 440.494 473.177C443.085 478.19 446.391 482.291 449.78 486.777L449.634 487.112C446.019 486.485 442.709 483.858 439.758 481.797C442.329 487.374 446.254 492.299 449.489 497.51C446.996 495.27 444.586 493.161 441.753 491.355C447.194 498.725 452.678 504.358 459.719 510.164C453.568 508.358 448.832 506.033 443.46 502.54C450.178 509.295 455.501 517.301 462.226 524.143C455.61 520.54 449.322 516.669 443.047 512.498C447.909 517.938 453.843 522.661 458.332 528.366C457.142 528.226 456.28 527.717 455.211 527.229C454.512 526.91 454.805 526.982 454.071 526.997C458.679 533.608 473.804 543.885 480.658 548.691C459.719 543.819 436.748 528.318 425.292 509.958C420.68 502.565 417.934 494.227 414.804 486.153Z"/>
	<path fill="#FDFEEA" d="M492.932 352.034C493.674 352.191 494.396 352.374 495.113 352.625C497.4 353.426 499.169 354.559 500.207 356.825C500.877 358.286 500.996 359.803 500.344 361.315C499.393 363.52 497.6 364.684 495.473 365.588C495.009 365.547 494.944 365.552 494.417 365.439C492.215 364.967 490.407 363.932 489.184 361.988C488.182 360.394 487.885 358.466 488.432 356.657C489.152 354.281 490.836 353.133 492.932 352.034Z"/>
	<path fill="#FDFEEA" d="M476.817 333.71C486.219 332.679 497.2 334.464 505.799 338.407C514.514 342.404 520.395 347.884 523.718 356.996C519.532 353.514 515.13 349.999 510.474 347.17C497.48 339.274 484.477 337.105 469.673 340.635C460.008 343.214 451.079 348.93 443.743 355.607C440.924 358.173 436.251 365.577 433.242 366.459C432.353 365.628 432.027 365.048 431.995 363.783C431.91 360.404 437.307 354.312 439.503 351.791C449.74 340.039 461.329 334.771 476.817 333.71Z"/>
	<path fill="#FDFEEA" d="M508.132 355.54C508.327 355.607 508.526 355.665 508.718 355.741C513.232 357.522 523.787 365.54 525.186 370.309C525.916 372.798 524.497 376.515 523.351 378.695C518.258 388.384 506.562 396.388 496.302 399.572C484.802 403.142 473.671 401.295 463.12 395.714C456.38 392.148 440.988 379.826 438.817 372.688C443.915 366.16 449.417 360.845 456.04 355.878C455.549 367.284 454.012 378.033 461.417 387.851C465.936 393.842 473.18 397.53 480.544 398.478C488.503 399.504 497.008 397.761 503.367 392.71C508.303 388.788 511.3 383.568 511.901 377.28C512.404 372.015 513.409 362.43 509.828 358.185C509.217 357.461 508.737 356.966 508.332 356.088C508.251 355.912 508.199 355.723 508.132 355.54Z"/>
	<path fill="#FE0100" d="M609.244 165.82C612.733 161.236 615.767 156.267 619.126 151.577Q627.858 139.477 637.366 127.978C650.81 111.597 665.841 96.2849 680.883 81.3831C694.307 68.0848 708.538 53.7365 724.34 43.3151C730.539 39.2272 737.799 35.3919 745.266 34.4354C750.656 33.7449 755.35 34.7277 759.642 38.1451C774.061 49.6236 777.317 74.7113 778.934 91.9408C782.437 129.266 774.195 168.07 761.394 202.991C757.477 213.677 752.186 223.922 748.581 234.682C746.52 240.831 745.63 247.32 744.124 253.616C741.939 262.75 738.448 272.153 734.419 280.618C725.712 298.911 712.441 314.395 704.714 333.255C704.485 331.246 704.406 329.056 703.746 327.14C702.605 317.026 698.701 306.187 695.81 296.462C693.607 290.24 691.848 283.845 689.646 277.609C684.413 262.787 678.166 247.993 670.921 234.037C666.419 225.366 659.951 217.679 655.617 209.03C654.719 207.237 654.338 205.785 654.346 203.773C654.379 195.729 660.373 174.222 663.037 166.352C665.729 158.396 669.204 150.675 671.777 142.702L671.266 141.849L670.673 141.993C663.147 158.36 658.41 174.98 654.739 192.573C653.769 197.219 652.297 201.518 652.943 206.269C645.027 197.275 636.778 188.703 627.423 181.178C628.684 178.467 630.365 175.549 630.604 172.538L629.942 172.797C628.16 175.013 627.345 177.63 626.39 180.266C624.005 178.033 610.236 167.788 609.801 167.206C609.503 166.807 609.43 166.282 609.244 165.82Z"/>
	<path fill="#FE0100" d="M343.678 338.396Q342.113 337.121 340.719 335.661C328.321 322.817 318.804 305.198 310.636 289.455C280.949 232.244 267.957 183.646 269.188 118.86C269.594 97.4788 271.899 54.7136 287.827 39.9816Q288.256 39.5771 288.706 39.1954Q289.156 38.8137 289.625 38.4559Q290.094 38.098 290.58 37.7648Q291.067 37.4317 291.57 37.1242Q292.074 36.8168 292.592 36.5358Q293.111 36.2548 293.644 36.001Q294.176 35.7473 294.721 35.5214Q295.266 35.2956 295.822 35.0983Q296.378 34.9009 296.943 34.7327Q297.508 34.5644 298.081 34.4256Q298.655 34.2869 299.234 34.178Q299.814 34.0691 300.399 33.9904Q300.983 33.9117 301.571 33.8633Q302.159 33.815 302.749 33.7971Q303.338 33.7793 303.928 33.792Q304.518 33.8048 305.106 33.848C324.659 35.3593 342.267 56.3053 355.291 69.4365C366.027 80.2611 376.776 90.6896 386.687 102.324C393.308 110.096 399.459 118.34 405.911 126.263C414.375 136.656 423.127 146.798 431.617 157.16C436.483 163.099 440.88 169.397 445.999 175.135C424.393 190.483 403.811 206.737 389.1 229.302C385.316 232.751 382.034 239.184 379.285 243.503Q375.852 248.883 372.704 254.436Q369.557 259.988 366.704 265.697Q363.85 271.406 361.299 277.257Q358.748 283.107 356.506 289.082Q354.263 295.058 352.336 301.142Q350.409 307.227 348.802 313.404Q347.196 319.581 345.914 325.833Q344.632 332.085 343.678 338.396Z"/>
	<path fill="#FDFEEA" d="M390.698 187.682C391.376 187.976 392.001 188.358 392.644 188.721C394.075 191.507 393.712 197.996 393.276 201.013L392.367 200.873C390.525 198.481 390.867 190.869 390.698 187.682Z"/>
	<path fill="#03BFFA" d="M448.938 175.948C468.633 163.375 490.964 155.207 513.842 150.664C545.567 144.364 579.131 148.258 606.4 166.474C613.288 173.328 621.151 178.917 628.332 185.426C643.814 199.457 655.954 214.586 666.237 232.757C669.544 238.602 672.761 244.428 674.996 250.781C674.067 251.91 673.208 252.94 672.56 254.265C672.756 255.558 672.754 255.599 673.691 256.505C674.919 256.597 675.154 256.557 676.271 256.041C676.673 254.999 676.766 254.307 676.741 253.192C682.755 267.106 689.411 281.375 693.298 296.069C695.217 301.848 699.094 311.213 698.929 317.081C693.485 306.764 688.749 296.311 682.143 286.628C660.916 255.514 619.906 216.373 583.51 204.997C556.111 196.433 529.174 203.716 504.533 216.7C463.402 238.373 417.387 285.772 403.64 330.749C393.897 362.626 396.549 400.759 401.249 433.387C402.628 442.964 404.604 452.44 406.079 461.999C407.308 469.958 406.957 478.726 408.919 486.445C408.879 495.912 410.905 506.043 412.049 515.463C413.511 527.512 414.445 539.621 415.855 551.677C416.67 558.645 419.794 575.337 417.957 581.477C412.056 591.903 404.211 600.143 396.231 608.93C387.416 573.651 386.592 528.014 385.712 491.429C385.62 487.623 386.232 478.341 385.353 475.21C385.096 474.292 384.853 474.103 384.097 473.51L383.33 473.938C381.858 480.159 383.242 491.73 383.464 498.553C384.674 535.778 385.392 574.277 393.799 610.732C387.498 617.659 380.801 624.775 373.897 631.097C371.133 634.903 367.315 638.459 364.147 641.965L344.567 663.769C342.851 658.585 341.303 653.622 340.304 648.246C339.33 643.001 340.17 637.512 339.018 632.345L338.411 632.361C338.294 632.71 338.115 633.205 338.03 633.583C335.861 643.294 338.22 656.653 343.539 664.976C339.87 669.277 336.491 673.042 334.527 678.419C341.646 672.176 347.373 663.825 353.82 656.833Q366.844 642.544 380.178 628.544C391.832 616.479 410.978 599.276 418.365 584.443C420.484 590.056 420.377 599.953 418.023 605.316C414.368 613.642 405.545 621.414 399.007 627.647C402.174 629.01 405.16 630.464 406.519 633.904C407.701 636.896 408.597 640.916 407.131 643.947C406.017 646.25 403.743 647.941 401.32 648.66C398.103 649.615 394.45 649.072 391.595 647.326C388.882 645.668 387.861 643.579 386.939 640.636C382.31 642.561 350.521 680.725 345.581 687.431C343.037 690.885 340.682 694.582 339.035 698.558C336.806 703.937 336.847 710.69 337.557 716.377C338.918 727.285 342.625 737.689 345.678 748.194C350.502 764.794 355.203 781.478 360.408 797.969C363.619 808.142 367.922 819.443 370.661 829.534C372.55 837.348 375.226 844.622 377.734 852.231C383.211 868.843 387.91 884.73 398.303 899.167C410.912 916.68 424.818 922.311 445.46 925.606C437.549 921.768 428.776 920.378 420.904 916.188C398.604 904.32 387.161 877.514 380.055 854.46Q380.556 854.754 381.066 855.032C407.025 869.128 452.082 875.481 481.646 875.006C498.567 874.734 516.655 872.586 532.975 867.941C528.053 867.069 505.437 870.617 498.467 871.109C460.583 873.786 412.946 869.344 379.061 850.688C375.994 843.913 374.094 836.18 371.911 829.079C377.62 831.587 383.029 834.771 388.792 837.225C404.991 844.12 422.462 848.234 439.838 850.784C488.358 857.903 537.538 853.303 586.287 851.294C612.925 850.195 647.62 850.703 673.231 844.39C690.682 840.088 704.577 832.564 718.846 821.933C717.504 812.314 717.999 802.17 716.96 792.424C713.57 760.637 706.731 730.271 690.229 702.502C687.536 697.97 684.795 692.805 681.229 688.945C679.985 690.018 678.976 690.935 677.241 690.923C675.142 690.909 673.379 689.606 671.928 688.22C670.446 686.804 668.991 685.091 669.034 682.919C669.09 680.054 671.035 678.185 672.989 676.362C665.213 668.354 658.301 659.477 650.626 651.335C645.706 646.116 639.91 641.681 635.282 636.237L635.842 636.584C632.908 632.701 629.431 629.471 626.187 625.875C622.021 621.258 619.823 612.938 620.137 606.688C642.888 629.526 665.665 652.472 686.936 676.702C692.068 682.548 710.415 705.542 715.387 708.031C714.716 703.363 696.598 688.749 693.963 678.655C690.713 666.205 694.244 647.572 693.915 634.258C689.291 645.847 689.46 666.593 691.893 678.911C686.699 673.094 672.774 659.558 669.896 653.574C667.454 648.498 667.595 641.202 667.174 635.631C666.004 620.121 665.971 604.739 666.091 589.19C666.164 579.74 669.609 540.425 667.243 534.57C665.956 537.869 666.264 548.829 666.014 552.924C664.162 583.202 660.988 621.301 666.866 650.993C661.097 645.749 653.83 639.292 649.632 632.708C649.287 628.57 648.924 624.416 648.753 620.267C648.537 615.051 649.916 603.963 647.755 599.539C644.616 604.776 646.756 625.684 647.866 631.912C638.832 622.95 630.224 613.556 621.128 604.667C619.963 603.282 619.796 603.08 619.586 601.334C618.318 590.799 619.832 579.05 619.866 568.384C619.89 561.113 618.936 553.585 619.498 546.36C619.564 545.506 619.719 544.823 620.037 544.029L620.877 543.62C622.358 544.524 624.002 547.592 625.366 547.947C626.018 545.727 625.425 543.701 624.895 541.514C629.489 536.013 634.551 530.3 637.064 523.479C638.349 519.992 638.633 515.09 640.743 512.07C644.123 507.229 649.437 503.175 653.738 499.114Q661.854 491.503 669.138 483.093C677.713 473.008 685.694 461.415 691.19 449.319C693.013 445.305 694 440.191 696.131 436.498C694.426 464.186 692.339 486.993 697.038 514.701Q699.052 526.335 701.556 537.874C703.21 545.174 705.405 552.37 705.91 559.874C707.123 577.906 700.341 594.86 700.339 612.748C700.338 626.56 707.752 638.336 710.579 651.514C712.33 659.674 711.484 667.368 711.586 675.595C711.788 691.937 717.314 711.242 728.392 723.611C735.325 731.353 743.571 733.484 752.059 738.664C758.01 742.295 762.869 747.393 767.359 752.661C772.697 758.924 777.682 765.528 782.757 772.005C789.751 780.933 797.58 789.726 802.125 800.227C807.288 812.157 810.315 825.293 816.059 836.876C818.679 842.159 821.941 847.227 824.929 852.314C831.56 863.603 838.316 874.899 843.931 886.738C852.104 903.973 857.988 922.168 863.844 940.29C872.728 967.781 880.856 995.824 887.244 1024L882.719 1024L805.12 1024L798.828 1024L780.106 1024L773.843 1024L749.602 1024L743.593 1024L721.045 1024L720.439 1024L661.549 1024L615.567 1024L567.38 1024L539.933 1024L440.744 1024L420.048 1024L414.373 1024L395.868 1024L389.485 1024L388.211 1024L380.365 1024L320.033 1024L309.572 1024L179.233 1024L171.875 1024L160.208 1024L156.026 1024C161.176 1007.91 165.375 991.561 170.279 975.405C177.908 950.271 186.697 925.344 195.041 900.427C208.892 859.064 222.264 816.76 243.804 778.629C249.737 768.127 256.55 758.285 263.39 748.363C272.501 735.148 280.867 723.3 292.036 711.638C300.621 702.674 310.475 692.62 321.449 686.751C319.713 648.079 315.031 630.39 334.043 594.061C323.596 566.257 324.071 538.171 331.07 509.695C333.107 501.406 336.802 492.702 337.396 484.201C337.913 476.805 335.02 469.141 334.107 461.806C332.879 451.944 333.157 441.508 333.432 431.582C333.854 416.309 337.711 401.407 340.015 386.358C342.421 370.635 343.748 354.682 345.842 338.898C353.869 298.222 367.781 262.91 392.412 229.438C398.971 220.525 405.845 211.809 413.754 204.044C424.607 193.388 436.46 184.591 448.938 175.948Z"/>
	<path fill="#FDFEEA" d="M710.46 875.383C712.443 877.092 714.276 877.164 715.162 879.93C714.726 881.821 713.392 882.764 712.01 884.038C710.412 882.814 708.947 881.796 707.883 880.05C708.102 878.885 708.646 878.31 709.673 877.676C709.934 877.515 710.216 877.39 710.488 877.248L710.46 875.383Z"/>
	<path fill="#FDFEEA" d="M349.035 557.81L350.098 558.258C350.821 559.133 351.385 559.856 351.741 560.949C352.372 562.892 351.939 564.116 351.106 565.864C349.793 567.031 348.775 567.015 347.116 567.122C345.77 565.399 344.946 563.644 344.114 561.628C344.532 558.916 345.446 559.913 347.38 559.397C347.668 559.321 348.746 558.088 349.035 557.81Z"/>
	<path fill="#FDFEEA" d="M410.355 878.988C414.095 880.291 417.2 883.65 420.66 885.6C434.057 893.149 448.397 895.527 463.576 892.985C468.287 892.196 481.943 887.514 484.802 887.646L484.338 888.443C470.016 894.996 453.514 898.745 437.87 895.181C429.381 893.247 415.035 886.494 410.355 878.988Z"/>
	<path fill="#FDFEEA" d="M386.728 276.414C387.155 278.629 382.266 288.641 381.498 291.59C377.14 308.329 373.83 325.391 369.646 342.193C368.217 347.93 367.221 354.704 364.706 360.018C364.449 359.183 364.221 358.375 364.181 357.496C363.834 349.734 369.705 332.314 371.673 323.953C374.395 312.388 376.154 300.318 379.982 289.059C381.553 284.437 383.346 280.018 386.728 276.414Z"/>
	<path fill="#FDFEEA" d="M490.189 897.969L490.705 898.197C487.526 902.606 473.759 911.728 468.554 916.533C448.285 935.247 438.845 954.085 437.736 981.62L437.215 981.481C435.219 977.9 436.633 969.214 437.321 965.223C443.09 931.732 464.388 916.335 490.189 897.969Z"/>
	<path fill="#FDFEEA" d="M682.202 486.846C682.992 487.83 683.043 488.181 683.159 489.477C684.361 502.864 683.852 516.735 684.141 530.195C684.355 540.172 685.37 550.058 685.305 560.057C685.22 573.175 684.54 586.237 683.834 599.333L683.126 599.813C682.708 599.02 682.692 599.22 682.643 598.489C682.243 592.516 682.537 586.327 682.544 580.336Q682.612 562.546 682.48 544.757L681.823 511.65C681.646 503.412 681.139 495.035 682.202 486.846Z"/>
	<path fill="#FDFEEA" d="M721.165 834.311C721.397 834.899 721.515 835.328 721.464 835.986C721.21 839.269 716.151 844.985 713.783 847.33C696.019 864.926 658.278 866.183 634.284 865.884L634.223 865.369C635.636 864.19 664.068 862.069 668.666 861.343C682.921 859.091 701.093 854.58 712.249 844.827C715.776 841.743 718.423 838.073 721.165 834.311Z"/>
	<path fill="#1AB6E7" d="M734.013 855.038C733.337 853.329 733.144 850.785 733.099 848.931C733.038 846.409 733.334 845.042 735.061 843.164C736.066 848.656 736.075 853.944 735.985 859.506C737.926 872.787 736.76 939.909 731.903 950.45C730.943 946.74 731.675 942.153 731.851 938.326C732.157 931.648 732.221 924.933 732.695 918.266C732.988 914.142 733.824 910.001 733.925 905.875C734.34 888.967 733.993 871.958 734.013 855.038Z"/>
	<path fill="#FDFEEA" d="M649.308 872.603C661.191 874.174 677.739 882.951 687.022 890.507C705.634 905.656 715.867 925.879 718.373 949.592C716.489 947.859 714.422 938.076 713.441 935.168C706.189 913.653 689.393 893.839 669.786 882.641C663.336 878.957 656.185 876.599 649.775 872.88L649.308 872.603Z"/>
	<path fill="#FDFEEA" d="M369.856 498.216L370.909 498.172C372.602 501.374 370.424 524.861 370.428 530.372C370.446 552.974 370.742 575.733 371.777 598.312C372.276 609.196 374.285 620.223 373.897 631.097C370.077 625.92 369.028 596.744 368.675 589.075C368.026 574.954 368.448 560.669 368.319 546.525C368.204 534.017 367.303 514.06 369.062 502.31C369.268 500.937 369.556 499.571 369.856 498.216Z"/>
	<path d="M820.946 855.319C825.002 862.061 828.419 869.134 831.977 876.143C850.626 912.872 862.903 951.103 873.722 990.744C876.736 1001.79 880.369 1012.81 882.719 1024L805.12 1024C821.437 988.124 832.358 944.335 829.724 904.673C828.615 887.973 825.178 871.465 820.946 855.319Z"/>
	<path fill="#FDFEEA" d="M837.882 946.837C838.38 946.848 838.787 946.844 839.289 946.922C840.501 947.113 840.961 947.724 841.706 948.626C841.818 950.189 841.8 950.257 840.966 951.583Q839.562 951.579 838.158 951.6L837.259 950.537C837.209 949.125 837.481 948.17 837.882 946.837Z"/>
	<path d="M704.555 706.812C715.891 718.794 729.234 730.572 738.36 744.368C763.5 782.373 768.002 850.411 766.758 894.785C765.527 938.718 758.845 982.621 743.593 1024L721.045 1024L720.439 1024C720.399 1015.03 723.695 1005.49 725.431 996.661Q728.455 980.429 730.214 964.012Q731.106 957.237 731.903 950.45C736.76 939.909 737.926 872.787 735.985 859.506C736.075 853.944 736.066 848.656 735.061 843.164C732.81 824.776 730.711 805.791 726.793 787.674C724.843 778.656 722.389 769.628 719.954 760.729C718.049 753.768 713.519 741.529 713.713 734.907C711.049 725.396 707.247 716.267 704.555 706.812Z"/>
	<path fill="#FDFEEA" d="M713.713 734.907C718.455 751.13 723.303 767.332 727.031 783.826Q729.114 793.077 730.819 802.406Q732.524 811.734 733.847 821.125Q735.17 830.515 736.109 839.951Q737.049 849.388 737.603 858.854Q738.157 868.321 738.325 877.803Q738.493 887.284 738.274 896.765Q738.055 906.245 737.451 915.709Q736.846 925.173 735.856 934.604C735.123 941.301 733.909 959.848 732.252 965.337Q728.505 995.023 721.045 1024L720.439 1024C720.399 1015.03 723.695 1005.49 725.431 996.661Q728.455 980.429 730.214 964.012Q731.106 957.237 731.903 950.45C736.76 939.909 737.926 872.787 735.985 859.506C736.075 853.944 736.066 848.656 735.061 843.164C732.81 824.776 730.711 805.791 726.793 787.674C724.843 778.656 722.389 769.628 719.954 760.729C718.049 753.768 713.519 741.529 713.713 734.907Z"/>
	<path d="M741.585 738.565C746.078 741.453 750.465 744.261 754.338 747.979C772.178 765.106 780.411 792.517 785.565 816.108C786.933 822.372 788.314 828.801 789.117 835.164C789.592 838.918 789.544 842.959 790.31 846.645C790.568 847.888 790.788 848.808 791.655 849.784C792.954 850.297 793.124 850.307 794.498 850.047C795.729 848.761 795.735 848.17 795.709 846.418C795.603 839.016 794.095 831.632 792.756 824.373C789.66 807.587 786.48 794.181 780.434 778.098C795.313 798.573 801.893 814.727 809.694 838.313C823.148 878.991 827.925 908.265 821.112 951.237C817.078 976.682 810.035 1000.78 798.828 1024L780.106 1024L773.843 1024L749.602 1024Q751.536 1018.26 753.313 1012.47Q755.09 1006.68 756.708 1000.84Q758.327 995.002 759.786 989.122Q761.246 983.243 762.545 977.326Q763.844 971.409 764.981 965.459Q766.118 959.509 767.094 953.531Q768.069 947.552 768.881 941.549Q769.693 935.546 770.342 929.523Q770.99 923.5 771.474 917.461Q771.959 911.423 772.279 905.374Q772.599 899.324 772.754 893.269Q772.91 887.213 772.9 881.155Q772.891 875.097 772.717 869.042Q772.543 862.987 772.204 856.939Q771.865 850.89 771.362 844.854Q770.858 838.817 770.191 832.796C767.51 806.99 762.009 777.863 750.618 754.457C747.953 748.982 744.756 743.758 741.585 738.565Z"/>
	<path fill="#FDFEEA" d="M801.203 893.874C801.287 894.485 801.339 895.152 801.466 895.758C801.589 896.347 801.741 896.599 801.703 897.216C801.626 898.437 801.006 899.316 800.129 900.049C797.984 900.184 797.953 900.012 796.278 898.849C796.465 897.712 796.69 896.711 797.083 895.627C798.29 896.177 798.524 896.584 799.854 896.243L801.203 893.874Z"/>
	<path fill="#03BFFA" d="M773.843 1024C779.635 1010.07 785.272 996.1 789.356 981.549C791.586 973.601 792.553 964.976 795.201 957.237C795.842 955.365 796.246 954.504 798.04 953.611C798.764 953.761 799.123 953.614 799.506 954.336C803.195 961.292 786.282 1008.35 782.615 1017.66L780.106 1024L773.843 1024Z"/>
	<path fill="#FDFEEA" d="M579.399 876.472Q589.106 876.214 598.817 876.164L598.625 896.859C613.854 897.735 629.197 903.232 639.483 914.939C646.33 922.733 649.234 932.188 648.535 942.486C647.779 953.635 643.241 960.964 635.044 968.248C647.38 973.251 657.434 979.676 662.845 992.445C667.005 1002.26 666.511 1012.9 662.238 1022.58C662.025 1023.06 661.794 1023.53 661.549 1024L615.567 1024L567.38 1024L539.933 1024L539.896 917.685Q526.703 917.943 513.507 917.998L513.516 896.776L546.549 896.845L546.526 876.414L565.982 876.243L565.966 896.873L579.969 896.669C579.311 889.999 579.282 883.173 579.399 876.472Z"/>
	<path fill="#03BFFA" d="M567.291 918.547Q576.211 918.529 585.13 918.709C594.546 918.954 605.197 920.502 611.907 927.888C615.49 931.832 616.839 937.193 616.443 942.433C615.973 948.63 612.835 952.963 608.318 956.92C596.182 966.353 582.026 966.112 567.376 965.639Q567.53 942.093 567.291 918.547Z"/>
	<path fill="#03BFFA" d="M567.363 980.209C584.662 980.081 610.127 977.025 623.666 990.168Q624.014 990.505 624.345 990.859Q624.675 991.213 624.987 991.584Q625.299 991.954 625.592 992.341Q625.884 992.727 626.156 993.128Q626.428 993.529 626.679 993.943Q626.93 994.357 627.159 994.784Q627.389 995.211 627.596 995.649Q627.803 996.087 627.987 996.535Q628.171 996.983 628.332 997.44Q628.493 997.897 628.63 998.361Q628.767 998.826 628.88 999.297Q628.992 999.768 629.081 1000.24Q629.169 1000.72 629.233 1001.2Q629.297 1001.68 629.336 1002.16Q629.375 1002.65 629.389 1003.13Q629.403 1003.62 629.392 1004.1C629.309 1010.08 626.658 1015.21 622.313 1019.23C620.305 1021.08 617.93 1022.64 615.567 1024L567.38 1024L567.363 980.209Z"/>
	<path d="M283.988 729.873C273.568 750.228 273.05 774.757 270.688 797.067C270.301 800.724 268.427 807.492 269.365 810.815C269.734 812.122 269.943 812.236 271.039 812.872C272.275 812.792 272.916 812.708 273.958 812.021C276.3 808.527 276.238 799.111 276.625 794.676C279.58 760.743 281.629 730.311 307.88 705.198C312.828 700.464 318.055 695.937 323.811 692.208C329.265 688.675 335.113 685.805 340.895 682.856C336.566 691.848 332.678 700.904 333.024 711.114C333.407 722.439 337.625 734.2 340.621 745.064Q348.343 773.843 357.371 802.24C367.522 835.173 377.017 868.173 388.403 900.724C395.39 920.701 404.226 940.191 412.611 959.615Q426.222 992.006 440.744 1024L420.048 1024L414.373 1024L395.868 1024L389.485 1024L388.211 1024L380.365 1024L320.033 1024L309.572 1024L179.233 1024L171.875 1024L160.208 1024C165.344 1008.27 169.675 992.289 174.592 976.49Q190.93 922.84 209.731 870.002C220.883 838.36 240.285 785.155 261.976 759.921C257.887 768.402 253.915 776.899 250.844 785.812C247.117 796.633 227.908 866.247 230.766 874.468C231.118 875.479 231.479 875.972 232.43 876.486C233.839 875.857 234.298 874.901 234.821 873.468C236.222 869.633 236.677 865.271 237.439 861.259Q239.472 850.474 241.768 839.742C248.441 809.38 257.268 779.912 271.074 751.99C274.837 744.381 278.756 736.592 283.988 729.873Z"/>
	<path fill="#03BFFA" d="M389.485 1024C380.385 1008.66 371.351 993.419 361.773 978.365C356.866 970.653 351.449 963.229 346.643 955.469C343.127 949.793 339.789 944.02 336.202 938.379C331.983 931.744 327.292 925.366 323.167 918.686C322.143 917.029 321.45 915.443 321.161 913.514L321.551 912.254C322.287 911.995 322.591 911.85 323.382 911.947L322.74 912.552L323.687 912.019C324.766 912.372 325.392 912.663 326.12 913.574C328.742 916.858 330.955 920.685 333.278 924.202C339.359 933.408 345.148 942.786 351.066 952.097C366.182 975.883 381.909 999.513 395.868 1024L389.485 1024Z"/>
	<path fill="#03BFFA" d="M171.875 1024C187.57 1007.43 209.26 995.692 232.314 995.006C264.844 994.038 292.83 1007.94 320.033 1024L309.572 1024C290.472 1010.95 259.912 1000.07 237.059 999.726C215.183 999.397 194.811 1008.84 179.233 1024L171.875 1024Z"/>
	<path fill="#03BFFA" d="M274.258 909.32Q308.363 945.47 343.899 980.215L369.929 1005.76C376.102 1011.78 382.514 1017.51 388.211 1024L380.365 1024Q343.011 987.575 306.802 950.013C294.748 937.743 280.917 925.985 270.208 912.563C271.524 911.41 272.803 910.295 274.258 909.32Z"/>
	<path fill="#03BFFA" d="M414.373 1024C407.364 1006.18 397.237 989.302 388.337 972.367L337.545 875.947C331.158 863.972 323.59 852.439 317.629 840.272C316.601 838.175 315.555 836.053 316.031 833.672C317.06 832.892 317.196 832.884 318.493 832.802C324.023 836.072 412.533 1004.76 420.048 1024L414.373 1024Z"/>
	<path d="M179.233 1024C194.811 1008.84 215.183 999.397 237.059 999.726C259.912 1000.07 290.472 1010.95 309.572 1024L179.233 1024Z"/>
</svg>
