<?xml version="1.0" encoding="utf-8" ?>
<svg xmlns="http://www.w3.org/2000/svg" xmlns:xlink="http://www.w3.org/1999/xlink" width="1024" height="1024">
	<path fill="#FEFEFE" d="M0 0L1024 0L1024 967.666L1024 1024L912.308 1024L898.281 1024L773.705 1024L685.362 1024L581.59 1024L562.624 1024L547.322 1024L530.941 1024L507.172 1024L493.038 1024L456.818 1024L436.473 1024L170.409 1024L158.242 1024L0 1024L0 962.496L0 0Z"/>
	<path fill="#8A6DBF" d="M623.004 394.269L623.228 394.515C623.034 395.233 623.047 394.876 623.175 395.588L624.574 396.25C624.927 395.514 625.266 394.901 625.715 394.21C625.965 395.208 626.083 395.59 626.702 396.45L627.767 396.268L628.303 394.758L629.029 394.605C629.372 395.305 629.711 396.186 630.432 396.58C631.778 397.315 633.709 397.858 635.226 397.639C634.376 396.834 633.843 396.443 633.346 395.376C635.563 395.843 635.601 397.203 637.283 398.189C638.901 399.137 642.933 399.013 645.041 399.738C645.498 400.908 645.695 401.81 646.685 402.635C647.034 401.93 646.942 402.195 647.151 401.501C647.197 401.349 647.238 401.196 647.282 401.043Q648.293 401.988 649.273 402.965C650.211 402.663 650.387 402.595 651.395 402.793L652.116 404.723Q653.014 404.519 653.909 404.303C653.601 405.309 653.504 405.63 653.653 406.706L654.637 406.729L655.233 405.292L656.288 406.203C656.209 406.847 656.094 407.377 655.898 408.002C655.831 408.216 655.758 408.428 655.688 408.641C656.559 409.963 657.177 410.138 658.562 410.848L658.819 410.333L657.376 407.428C658.469 408.306 659.468 409.17 660.426 410.194C660.8 412.247 661.114 413.587 662.334 415.299C663.367 415.506 664.106 415.641 664.974 416.256L664.675 417.724L665.226 418.349Q666.443 417.661 667.653 416.96C669.085 417.28 669.848 418.416 670.783 419.46C670.084 420.011 669.371 420.522 668.644 421.035L668.67 421.703C669.009 421.697 669.351 421.649 669.689 421.684C671.605 421.882 675.4 426.04 676.535 427.528L675.819 428.307L676.005 428.943L677.774 428.977L677.852 429.801C677.113 430.526 677.312 430.088 677.248 431.113C678.191 431.495 679.029 431.905 679.902 432.428L680.332 434.737L681.451 434.843C683.007 437.181 682.992 439.933 683.898 442.515C684.877 441.893 684.344 442.023 685.496 442.122C686.501 443.478 686.723 445.104 687.097 446.716L686.769 447.13L684.775 445.98C685.766 447.537 686.589 449.087 687.358 450.765C686.562 451.203 686.46 451.318 685.88 452.106L686.229 453.391C683.415 453.246 680.732 453.236 678.322 451.649C677.452 450.5 677.448 449.698 677.4 448.32C677.394 448.149 677.391 447.977 677.387 447.806C676.779 446.738 676.347 446.197 675.326 445.484C675.193 445.391 674.464 444.924 674.349 444.767C673.715 443.899 673.963 442.895 673.993 441.888C673.182 440.314 672.228 439.688 670.737 438.792C670.534 438.671 670.328 438.557 670.123 438.439C669.84 437.553 669.745 436.919 669.833 436.001C669.862 435.703 669.897 435.405 669.928 435.108C669.38 434.98 668.845 434.867 668.287 434.785C668.13 434.763 667.972 434.743 667.815 434.722L664.134 428.363C663.489 428.148 662.964 428.039 662.278 427.959C662.038 427.93 661.797 427.91 661.556 427.885Q662.231 427.154 662.886 426.404C662.067 425.288 661.523 424.929 660.257 424.378C659.229 424.74 659.431 424.922 658.486 424.258C657.285 423.414 656.169 421.982 655.058 420.983C651.164 417.482 641.619 408.859 636.591 407.682C635.948 407.532 636.105 407.52 635.69 407.805C635.839 408.67 635.962 409.527 636.056 410.401L635.559 410.439C634.829 409.443 633.953 408.117 632.983 407.341C630.103 405.036 627.85 408.51 624.97 408.817C624.712 407.865 624.955 407.437 625.181 406.496L624.457 406.045L623.729 406.466L624.189 407.16L623.832 407.685C622.266 407.664 620.719 407.592 619.198 408.028C618.887 408.117 618.579 408.217 618.269 408.311C618.366 408.056 618.455 407.798 618.56 407.546C618.673 407.272 618.802 407.006 618.923 406.735C617.502 407.029 616.267 407.411 614.91 407.928L614.418 408.533L613.429 408.543L613.417 407.911C611.066 407.957 609.013 409.129 606.745 409.65L605.857 409.847C607.373 409.979 608.892 409.944 610.412 409.939C607.514 410.791 604.86 412.409 601.967 413.097L601.864 411.848C601.029 412.4 600.305 412.95 599.593 413.65L598.888 414.35L598.35 413.799C595.179 413.869 592.218 419.278 589.537 420.882C588.476 421.517 588.214 421.259 587.118 420.907C586.739 421.504 587.161 422.115 587 422.76C586.77 423.677 583.012 425.761 582.223 426.82L583.231 427.272L583.424 427.967C582.59 428.675 583.009 428.492 581.991 428.718C581.082 428.92 580.269 429.165 579.391 429.473C578.845 430.72 579.054 430.902 579.415 432.24L578.79 432.573L577.49 430.695C576.56 431.111 576.931 430.773 576.452 431.784L577.341 432.796L577.264 433.612L576.474 433.954L575.824 433.477C574.718 433.491 574.536 433.843 573.654 434.46L573.844 434.93L574.491 435.405C572.824 437.857 566.711 446.544 564.673 447.854C562.508 449.246 562.086 451.485 560.882 453.736L559.487 453.172C559.085 454.136 559.179 453.787 558.971 454.707C558.926 454.905 558.887 455.105 558.846 455.304Q557.857 454.788 556.886 454.24L556.715 455.935C556.552 455.858 556.376 455.803 556.225 455.704C554.565 454.625 554.127 454.051 553.936 452.146L553.39 451.841L553.149 453.696L552.268 454.005C552.036 453.367 551.805 452.67 551.269 452.205C551.031 451.998 550.708 451.916 550.427 451.772L550.678 451.232L552.494 451.184C552.548 450.572 552.252 450.177 552.009 449.622C552.304 447.289 554.82 443.835 556.414 442.101L556.789 442.365L556.228 445.877C557.815 444.292 557.672 442.071 558.856 440.441C559.234 439.922 559.813 440.081 560.303 439.287L558.689 437.729C560.68 435.981 564.466 435.53 565.836 433.36L562.898 433.934L562.73 433.636C564.46 432.337 565.608 431.325 566.666 429.419C567.353 428.182 567.618 427.885 568.936 427.329C569.733 426.992 570.194 426.783 570.933 426.283C570.252 425.756 569.349 425.516 568.547 425.209C569.886 424.993 571.349 425.084 572.308 424.101L570.594 423.077C570.819 421.74 572.179 422.757 573.353 421.656C573.071 421.244 572.39 421.039 571.943 420.814L571.984 420.593C578.764 418.453 581.264 409.142 588.258 407.696C589.319 407.477 589.741 407.472 590.621 406.715C590.709 406.182 590.784 405.33 591.018 404.818C591.492 403.78 591.688 403.44 592.719 403.018L593.21 404.784C594.301 404.368 593.866 404.721 594.495 403.701L593.774 402.488L594.652 402.145L595.325 402.931C597.68 402.518 598.685 399.813 600.738 399.12C602.744 398.444 605.123 399.511 606.968 398.598C606.831 397.48 606.739 397.1 607.148 396.019L608.19 395.931L608.397 397.257L608.94 397.396C609.506 396.614 610.097 395.939 610.769 395.246C613.566 394.701 616.594 395.091 619.417 395.369C620.751 395.5 621.786 394.795 623.004 394.269Z"/>
	<path fill="#A2A1EE" d="M158.242 1024L157.32 1022.56C156.421 1022.64 156.073 1022.7 155.282 1023.02C154.913 1020.66 155.905 1018.71 156.299 1016.44C156.879 1013.08 153.543 1002.11 156.132 1000.05C156.31 999.912 156.499 999.785 156.683 999.651C156.523 998.757 155.817 997.037 156.309 996.362C156.757 995.745 156.583 995.96 157.341 995.512C156.762 993.867 154.555 989.038 154.9 987.577L156.324 987.658L156.487 986.423C155.987 985.784 155.56 985.323 154.952 984.765L154.992 983.724L156.347 982.711C156.038 981.509 155.577 981.487 154.61 980.775C155.92 979.72 156.366 979.512 156.945 977.887C156.871 976.155 155.752 974.997 154.765 973.659L154.845 973.132C155.295 969.968 154.748 963.898 156.065 961.21C156.614 961.152 156.942 961.072 157.471 961.259L157.81 960.799C156.952 959.082 154.865 958.143 154.486 956.351C154.703 956.239 154.926 956.136 155.138 956.015C155.371 955.883 155.592 955.732 155.819 955.59C155.989 952.472 156.147 948.833 155.703 945.756C155.464 944.104 154.008 941.777 154.212 940.167C154.464 938.173 156.137 936.649 155.96 934.52L154.588 933.43C154.246 927.193 155.624 920.184 154.57 914.159C154.411 914.142 154.252 914.129 154.094 914.109C153.374 914.021 153.65 914.072 152.913 913.806C153.39 912.955 153.918 912.246 154.536 911.492L154.592 904.016C153.829 903.634 153.82 903.823 153.044 904.062L152.956 903.326L154.529 902.033C154.47 898.59 153.187 895.562 154.27 892.256C154.837 890.524 153.748 888.635 153.89 886.852C154.035 885.025 154.77 883.014 155.359 881.269C155.076 880.577 154.422 879.463 154.33 878.759C154.126 877.198 156.18 874.022 154.685 873.274L153.695 873.403C153.878 871.172 155.655 868.539 155.443 866.431C155.233 864.344 153.827 863.201 154.152 860.878C155.292 860.233 156.495 860.088 157.766 859.822C162.359 863.618 164.327 889.15 164.952 895.803C165.519 901.841 166.16 908.057 166.442 914.105C166.575 916.966 166.208 919.918 166.389 922.733C166.452 923.71 166.909 924.676 167.377 925.519L166.841 926.496C166.26 926.024 165.796 925.59 165.286 925.052L164.923 925.758C165.561 926.482 166.046 926.785 166.861 927.276C167.539 929.042 167.028 930 166.279 931.674Q166.034 932.223 165.78 932.767C166.417 933.966 167.499 935.519 167.914 936.78C168.929 939.866 166.677 943.112 168.387 946.397C168.329 948.184 168.361 950.009 168.029 951.768C167.697 953.534 168.452 964.604 169.253 965.645C169.417 965.858 170.335 966.559 170.571 966.744L170.338 967.218L168.919 967.257C168.593 968.81 169.076 970.109 169.702 971.57C171.299 975.3 168.396 980.045 169.849 984.054C170.351 985.441 170.691 986.448 170.429 987.943L169.351 988.305C169.491 990.933 172.611 994.577 170.807 996.994C170.582 997.296 170.053 997.756 169.762 998.021C169.939 999.036 170.268 999.719 170.729 1000.62C171.397 1001.93 171.633 1002.77 171.337 1004.23L171.004 1004.15C170.513 1003.21 170.489 1002.61 170.382 1001.58L170.23 1001.43C169.596 1002.84 169.226 1004.17 168.885 1005.68L169.668 1005.9L170.59 1005.21C171.033 1007.01 171.048 1010.96 170.311 1012.67C170.268 1012.76 170.167 1012.82 170.095 1012.9L170.229 1013.4C170.814 1015.63 171.688 1021.89 170.651 1023.65C170.58 1023.77 170.49 1023.88 170.409 1024L158.242 1024Z"/>
	<path fill="#ADE1DF" d="M370.672 349.052L371.529 348.604L372.483 349.344C372.644 349.271 372.803 349.193 372.965 349.124C375.529 348.035 378.599 346.847 381.388 346.736C381.897 347.331 382.175 348.088 383.031 348.058C384.139 348.02 384.944 347.374 385.838 346.79C386.801 347.035 387.403 347.426 388.215 347.991L389.425 347.918L390.515 346.545C394.415 346.561 407.866 348.484 410.334 346.393L409.188 345.621L435.154 349.626C439.021 350.197 443.232 350.229 447 351.238C448.377 351.607 450.013 352.456 450.936 353.573C451.507 354.262 451.899 355.288 452.257 356.097C453.264 356.093 453.784 355.935 454.722 355.619L455.696 356.058C456.316 359.206 456.74 362.474 457.766 365.517C457.525 366.284 457.291 367.048 457.071 367.821L456.526 369.689C452.102 372.595 448.966 373.811 443.526 372.67C439.109 371.742 434.813 370.172 430.378 369.362C422.659 367.953 414.592 367.77 406.774 367.362C406.037 367.324 406.268 367.324 405.501 366.883L406.361 366.147L406.029 365.831C404.619 365.917 403.879 366.535 402.783 367.329C400.903 367.44 399.168 366.855 397.347 366.986C392.753 367.316 380.393 370.463 376.749 369.788C375.954 369.641 375.444 369.125 374.868 368.626L374.276 369.036L374.405 370.27C371.251 371.879 364.119 372.411 360.305 373.252C355.403 374.332 331.725 381.608 329.05 383.651C328.335 384.198 327.258 385.323 326.376 385.213L326.953 383.835C325.871 383.542 325.307 383.825 324.27 384.135C323.046 384.499 322.189 384.864 320.97 384.238C319.509 383.487 318.164 382.249 316.739 381.371L316.671 380.714L318.195 379.917C318.084 378.812 318.334 379.214 317.689 378.644C316.853 377.905 316.052 377.341 315.68 376.251C315.957 374.578 316.528 371.961 317.934 370.913C318.135 370.763 318.355 370.639 318.558 370.491C318.581 370.474 318.592 370.443 318.609 370.419L317.886 369.718L318.028 368.85C320.273 366.589 322.928 364.616 325.667 362.992C327.909 361.663 330.503 359.574 333.056 360.215C335.873 357.615 348.988 353.121 352.719 352.76L353.606 353.743L353.96 352.906C356.763 350.409 362.869 349.387 366.549 349.319C367.811 349.072 369.374 349.131 370.672 349.052Z"/>
	<path fill="#ADE1DF" d="M606.744 334.565L607.463 334.465L608.123 335.016C611.422 334.157 619.726 332.902 622.789 334.361L622.011 335.638C622.934 335.89 623.753 334.28 625.516 334.07C629.999 335.986 635.602 337.115 640.439 337.772C641.081 337.341 641.206 337.157 641.598 336.522C642.888 336.406 643.223 336.667 644.23 337.34C645.906 338.459 647.502 338.37 649.453 338.402L649.976 338.112C661.952 336.494 692.146 348.369 701.821 355.845C704.519 357.93 707.41 361.014 707.663 364.601C707.858 367.377 706.404 369.318 704.551 371.226C702.001 373.852 699.315 374.827 695.691 374.785C693.597 374.761 691.492 374.222 689.432 373.866C687.124 373.142 684.999 372.153 682.811 371.14Q678.2 368.96 673.448 367.107C666.063 364.09 648.632 357.648 641.089 358.452L641.33 359.303L640.384 359.291C640.449 358.344 640.581 358.763 640.005 358.028C638.51 357.803 637.405 357.726 635.908 357.92L635.388 359.189L634.939 359.255L634.003 357.881C631.793 357.181 628.987 357.347 626.674 357.227C614.346 356.587 604.62 357.511 592.474 358.764C590.092 359.009 587.393 358.887 585.07 359.384C582.914 359.845 581.15 361.627 578.957 362.196L578.405 361.591C575.786 360.825 574.6 363.045 572.404 363.938C571.387 364.352 570.531 363.639 569.558 363.209C567.725 363.414 566.315 363.844 564.601 364.528L563.991 364.777C563.001 364.313 563.214 364.549 562.586 363.826C560.499 361.422 557.171 358.159 557.568 354.722C557.917 351.701 559.41 349.317 561.797 347.504C562.037 347.321 562.284 347.148 562.523 346.965C566.241 344.131 569.915 342.137 574.676 341.774C574.838 341.762 575 341.753 575.161 341.743C576.008 340.849 576.676 340.267 577.767 339.692L578.233 339.956L578.155 341.463C579.574 341.039 579.825 340.107 580.627 338.917C583.827 339.412 590.355 336.336 594.346 336.172C594.977 336.738 595.144 336.946 595.995 337.132L596.475 336.532C596.621 336.314 596.737 336.072 596.914 335.877C598.644 333.971 604.333 334.515 606.744 334.565Z"/>
	<path fill="#8A6DBF" d="M610.973 567.259C611.842 567.51 611.555 567.369 612.28 567.779C614.223 568.877 616.196 569.874 617.942 571.276C617.39 571.999 617.209 571.917 617.311 572.87L618.446 572.643L618.953 573.251C618.865 575.45 617.966 578.614 616.546 580.289L615.576 579.197L614.805 579.359C614.446 580.451 614.386 580.763 613.517 581.569C612.781 581.035 612.544 580.834 611.623 580.682C610.65 584.385 607.792 582.595 606.395 585.073L607.727 586.53L607.51 587.234C605.66 587.651 602.637 588.117 601.519 589.761L601.975 591L601.488 591.508C600.949 590.725 600.63 590.349 599.774 589.922L599.595 591.531C597.598 593.658 594.572 594.688 592.094 596.198L592.628 597.143L592.127 597.602Q591.463 597.702 590.801 597.818C589.394 598.076 589.203 597.927 588.413 599.066C589.146 599.067 589.585 598.892 590.178 599.357L589.074 600.123C587.576 600.076 586.715 600.172 585.309 600.685C586.048 600.857 586.734 601.044 587.455 601.273C586.06 602.387 583.89 601.449 582.458 602.41C579.457 604.423 576.651 606.96 573.856 609.262L571.879 608.973C570.705 609.749 570.256 611.23 569.683 612.467C568.95 612.289 568.224 612.145 567.48 612.019L566.81 612.632L567.137 613.473L566.712 614.345C566.498 614.303 566.273 614.301 566.072 614.219C565.806 614.112 565.577 613.93 565.33 613.785C562.922 614.674 560.69 617.249 558.484 618.691L557.304 617.779C556.898 618.895 556.448 620.421 555.743 621.391C554.918 622.526 554.034 622.663 552.74 622.93C552.094 622.398 551.761 622.182 550.959 621.859L550.321 622.423L550.499 624.195L549.767 624.852C549.563 624.464 549.351 624.08 549.129 623.702L548.09 624.085L548.581 625.335L547.566 625.444C546.828 624.648 547.102 625.02 546.501 624.035C545.922 623.085 546.347 623.437 545.383 622.998C544.878 624.185 544.395 625.59 543.703 626.675C542.995 627.785 542.45 628.116 541.214 628.452C540.539 627.469 540.773 627.878 540.234 626.826L539.866 626.091L538.778 625.86C537.357 626.495 536.351 627.536 535.227 628.579C536.403 627.972 537.179 627.642 538.52 627.477C539.652 627.989 539.744 627.916 540.252 629.028L539.685 629.987C538.107 630.619 536.91 631.003 535.206 631.071L534.585 630.128C532.922 631.186 533.798 631.18 532.934 632.521C532.738 632.824 528.994 634.113 528.415 634.363C525.548 635.601 523.147 637.198 520.71 639.126C519.895 638.426 515.951 641.136 513.834 640.601C513.029 640.398 512.853 640.323 511.984 640.409L512.328 642.303C511.413 642.073 510.434 640.471 509.803 639.723L509.283 640.175L509.509 641.733C507.61 643.858 503.966 642.71 501.761 644.586C501.394 645.542 501.145 646.22 500.52 647.043C499.889 646.146 499.56 645.549 498.502 645.164C497.94 645.431 497.523 645.674 497.094 646.131C493.868 649.568 486.04 650.88 481.558 652.257L482.684 652.439L481.585 652.676L481.749 653.184L481.388 653.712C476.87 655.193 470.525 657.694 465.758 657.54L466.308 656.113L465.62 655.529L464.883 656.499C463.871 656.555 464.227 656.648 463.337 656.29C463.138 656.21 462.944 656.116 462.747 656.028L462.121 656.49L463.161 657.959L462.472 658.393C460.699 658.096 460.761 657.85 459.694 656.498L458.818 656.607C458.89 657.761 458.877 657.183 458.857 658.341C456.533 657.775 454.064 657.016 451.747 657.891L452.772 658.994C449.802 659.7 446.155 658.255 442.923 658.674C442.781 658.693 442.64 658.718 442.498 658.74C441.722 658.056 440.927 657.592 439.861 657.518C438.4 657.418 437.414 658.102 436.405 659C433.91 658.237 431.359 658.325 428.862 657.396C428.746 656.472 428.927 656.907 428.228 656.131C427.704 656.467 427.192 656.806 426.686 657.168L426.234 657.496C425.12 656.885 425.148 656.494 424.591 655.395L426.098 655.979L426.296 655.285L425.065 653.739C426.669 651.955 429.001 651.016 431.333 650.644C432.017 650.933 432.563 651.125 433.296 651.293L433.56 650.241C435.894 648.889 438.58 648.641 441.065 647.599C441.831 647.278 442.268 647.086 443.098 646.951L442.777 648.689L443.438 648.642C444.038 647.519 444.522 646.648 445.412 645.718C447.14 645.429 449.353 644.798 451.078 645.057C452.28 645.237 450.928 645.182 452.309 645.186C451.972 644.134 451.816 644.248 452.251 643.146C452.934 643.668 453.42 644.014 454.219 644.359C454.4 643.36 454.344 642.991 454.997 642.18L456.213 642.872L456.907 642.588L456.341 641.783L456.751 641.28C458.162 640.83 459.045 641.053 460.436 641.378L460.969 641.508C461.34 640.609 461.265 640.93 461.425 640.074C461.46 639.892 461.487 639.708 461.517 639.525L462.498 639.521L463.027 640.655C464.032 640.574 463.528 639.346 464.447 638.455L465.419 639.101C465.59 638.979 465.768 638.866 465.932 638.735C469.604 635.786 475.75 634.549 480.33 633.433C481.901 633.05 481.045 631.947 482.493 631.097L483.375 632.593L483.947 632.153C483.992 631.914 483.991 631.663 484.083 631.438C484.304 630.895 484.749 630.658 484.951 630.001C485.131 629.41 485.322 628.868 485.556 628.296C486.127 628.746 486.658 629.196 487.185 629.7L487.676 630.18C488.629 629.477 489.615 628.809 490.556 628.092C493.529 625.824 496.035 627.028 499.108 625.618C500.589 624.939 500.909 623.932 501.357 622.468C503.951 620.762 506.987 619.168 510.147 619.254C511.056 619.279 511.821 619.277 512.728 619.117C512.631 617.904 512.623 618.453 512.697 617.471C514.354 616.907 519.22 615.745 520.332 614.695C521.273 613.807 521.065 613.301 522.305 612.479L522.793 613.573C523.834 613.709 524.386 613.417 525.325 612.992C525.563 612.408 525.787 611.833 525.98 611.232L526.134 610.734C527.069 611.031 527.225 611.155 527.905 611.87C529.369 611.326 530.197 610.835 531.386 609.822L531.345 608.777C531.916 607.839 532.003 607.84 533.029 607.418C533.143 607.592 533.227 607.791 533.373 607.94C533.54 608.112 533.715 608.337 533.954 608.365C535.128 608.5 539.033 603.337 541.127 603.625C541.72 603.707 541.896 604.325 542.784 604.391L542.563 603.09C544.902 600.762 549.525 598.916 552.731 598.056C553.413 597.874 555.169 597.672 555.694 597.343C556.899 596.589 557.287 594.89 558.786 594.091L559.502 594.955C561.068 594.912 562.852 592.289 564.569 591.657L565.1 592.787L565.88 592.446L565.969 590.779L566.484 590.376L567.489 591.332C569.782 589.875 573.354 588.341 575.069 586.28C575.221 586.096 575.351 585.895 575.493 585.702L577.708 586.468L577.589 585.372L578.028 586.614L577.817 585.707L576.663 585.949L576.817 584.249L577.346 585.002L576.984 584.334C577.898 584.805 578.736 585.15 579.722 585.441C579.839 585.14 579.936 584.83 580.073 584.537C580.518 583.591 581.469 583.398 582.368 583.081C583.586 582.652 584.62 582.225 585.746 581.597L586.023 579.897L586.658 579.619L587.257 581.063L588.174 581.186C589.568 580.647 591.284 580.166 592.463 579.234L591.28 578.791C593.376 576.657 594.009 576.246 597.018 575.952C597.255 575.928 597.493 575.911 597.73 575.89C597.966 575.384 598.229 574.773 598.541 574.313C600.058 572.07 602.192 573.899 604.055 573.66L603.646 571.303C604.222 571.246 604.907 571.899 605.391 572.21C605.161 571.39 605.18 571.172 605.308 570.365L606.943 571.513C608.217 570.978 608.721 569.958 609.458 568.854L609.813 568.315L609.836 569.435L609.81 568.323Q611.349 568.981 612.908 569.59L610.973 567.259Z"/>
	<path fill="#D6B82E" d="M495.918 930.126C511.112 926.157 532.282 929.823 545.74 937.672C557.793 944.701 565.088 950.385 572.673 962.522C575.081 966.375 577.233 970.971 580.09 974.472C583.3 980.829 584.531 990.1 585.254 997.072C585.6 1000.41 585.501 1003.7 586.377 1006.96C584.218 1012.79 584.684 1018.26 581.59 1024L562.624 1024C566.542 1012.55 569.098 1001.53 566.261 989.534C563.365 977.285 555.197 964.529 544.295 957.982C540.274 955.567 524.638 946.37 520.16 947.736C519.131 948.05 519.034 948.129 518.036 947.767L517.885 946.073L516.977 945.903C516.781 946.106 516.076 946.852 515.864 946.987C514.321 947.973 514.821 946.628 513.729 946.126C512.143 945.398 507.885 947.525 505.968 947.589C504.757 947.629 503.949 946.666 502.63 946.491L502.7 947.527C486.941 948.867 475.075 956.136 465.395 968.359C463.687 970.517 461.33 973.047 460.117 975.494C458.537 978.683 458.996 983.983 455.769 986.037C454.353 986.937 453.326 987.296 452.653 988.861C453.986 989.149 454.414 989.111 455.36 990.061C455.533 990.966 455.529 991.401 455.108 992.233C450.886 1000.58 454.281 1015.4 456.818 1024L436.473 1024C435.826 1021.01 435.165 1017.99 434.817 1014.95C434.328 1010.67 433.756 1005.89 434.018 1001.59C434.185 998.851 435.561 996.367 436.108 993.72C437.213 988.38 436.197 981.955 439.933 977.344C440.915 976.132 440.906 975.408 440.868 973.886C440.805 971.334 444.229 968.287 445.841 966.387C445.767 965.141 445.86 964.228 446.162 963.018L447.005 962.599C449.774 956.859 456.102 952.955 460.146 948.101C464.902 941.518 475.724 935.778 483.278 933.35C487.397 931.995 491.755 931.539 495.918 930.126Z"/>
	<path fill="#F5E672" d="M483.278 933.35C487.397 931.995 491.755 931.539 495.918 930.126C495.932 930.867 496.195 932.353 495.708 932.914C493.976 934.91 489.213 935.69 486.695 935.649C485.464 935.63 484.905 935.448 484.088 934.489C483.842 934.2 483.5 933.678 483.278 933.35Z"/>
	<path fill="#F5E672" d="M447.005 962.599C449.774 956.859 456.102 952.955 460.146 948.101L460.427 948.951C460.769 949.957 461.23 950.707 461.816 951.586C458.514 955.225 454.43 958.081 450.902 961.494C450.036 962.331 449.352 962.683 448.227 963.097L447.005 962.599Z"/>
	<path fill="#ADE1DF" d="M504.815 447.719C507.801 447.593 510.807 447.657 513.794 447.739C524.286 448.03 535.171 452.206 542.447 460.035C543.793 461.483 544.379 463.728 545.772 465.016C549.319 468.297 551.751 473.119 553.339 477.695C553.953 479.466 554.179 479.977 553.323 481.67C553.398 482.363 553.538 482.758 553.871 483.377C554.345 484.258 554.957 485.196 555.188 486.179C555.64 488.108 555.329 490.77 555.27 492.751C554.974 502.618 552.305 510.885 546.818 519.143C540.547 528.583 529.375 534.268 518.586 536.453Q515.19 536.695 511.786 536.635C494.957 536.334 481.703 527.71 470.387 516.004C470.706 514.781 470.663 515.392 470.536 514.174C469.96 513.983 469.477 513.861 468.867 513.793C468.684 513.773 468.499 513.76 468.314 513.744C467.599 508.913 464.93 504.789 464.222 499.844C462.454 487.499 467.185 474.774 474.52 465.024C481.352 455.942 493.674 449.299 504.815 447.719Z"/>
	<path fill="#FEFEFE" d="M456.818 1024C454.281 1015.4 450.886 1000.58 455.108 992.233C455.529 991.401 455.533 990.966 455.36 990.061C454.414 989.111 453.986 989.149 452.653 988.861C453.326 987.296 454.353 986.937 455.769 986.037C458.996 983.983 458.537 978.683 460.117 975.494C461.33 973.047 463.687 970.517 465.395 968.359C475.075 956.136 486.941 948.867 502.7 947.527L502.63 946.491C503.949 946.666 504.757 947.629 505.968 947.589C507.885 947.525 512.143 945.398 513.729 946.126C514.821 946.628 514.321 947.973 515.864 946.987C516.076 946.852 516.781 946.106 516.977 945.903L517.885 946.073L518.036 947.767C519.034 948.129 519.131 948.05 520.16 947.736C524.638 946.37 540.274 955.567 544.295 957.982C555.197 964.529 563.365 977.285 566.261 989.534C569.098 1001.53 566.542 1012.55 562.624 1024L547.322 1024L530.941 1024L507.172 1024L493.038 1024L456.818 1024Z"/>
	<path fill="#D6B82E" d="M493.038 1024C490.771 1021.71 490.567 1019.06 490.699 1015.91C490.827 1012.85 492.696 1008.8 492.311 1005.92C492.104 1004.38 490.897 1002.93 490.683 1001.51C490.578 1000.81 491.843 999.646 492.269 999.214C491.892 992.632 492.323 985.744 491.198 979.291C487.045 977.899 482.797 977.887 480.713 973.357C479.562 970.854 480.13 968.307 481.125 965.859C481.181 965.723 481.239 965.589 481.296 965.453L482.107 965.568L482.697 965.291C482.463 964.519 482.255 964.055 481.865 963.372C482.99 961.488 484.762 961.042 486.792 960.547C489.913 959.787 493.127 959.492 496.296 959.005C499.224 958.555 502.155 957.721 505.119 957.584C512.105 957.261 520.869 961.302 526.678 964.958C532.357 968.533 537.148 974.017 538.657 980.672C540.002 986.602 538.555 992.886 536.317 998.443L534.946 999.092C540.742 1003.84 547.771 1004.37 548.643 1013.78C548.93 1016.87 548.795 1021.04 547.403 1023.82C547.373 1023.88 547.349 1023.94 547.322 1024L530.941 1024L507.172 1024L493.038 1024Z"/>
	<path fill="#FEFEFE" d="M508.246 977.274C508.365 977.282 508.484 977.302 508.604 977.3C511.369 977.26 514.091 977.818 516.654 978.902C518.465 979.668 519.969 980.889 520.685 982.764C521.853 985.822 520.717 988.241 519.402 990.963C519.064 991.452 518.847 991.809 518.41 992.238C517.307 993.322 515.345 993.127 513.92 993.032C512.035 992.907 510.57 992.43 509.342 990.882C507.224 988.211 508.024 980.574 508.246 977.274Z"/>
	<path fill="#FEFEFE" d="M507.172 1024L507.336 1023.32C508.358 1018.9 507.507 1013.72 508.866 1009.57L509.487 1009.34L510.643 1010.86C511.501 1010.69 512.274 1010.5 513.115 1010.26C516.229 1009.38 523.857 1011.16 526.698 1012.83C528.613 1013.96 530.543 1016.22 530.94 1018.46C531.247 1020.2 531.016 1022.24 530.941 1024L507.172 1024Z"/>
	<path fill="#D6302F" d="M335.666 880.167C333.485 880.806 329.249 882.825 327.243 882.473L326.468 881.448L325.87 881.663L326.285 882.807C325.458 883.496 322.469 883.395 321.363 883.305C312.649 882.589 303.998 875.08 298.809 868.543C293.533 861.896 289.069 853.896 290.221 845.054C290.412 843.594 290.607 842.255 291.496 841.069C291.639 841.165 291.778 841.267 291.925 841.357C292.612 841.777 292.344 841.645 293.238 841.726C291.512 837.888 286.458 830.604 282.368 829.156C278.573 827.813 275.701 832.283 272.462 829.705C268.947 826.907 263.672 827.902 260.397 824.505L261.108 823.798C254.753 816.885 247.48 812.548 244.67 802.946C243.792 799.946 243.649 795.589 242.011 793.007C242.636 792.477 243.183 792.103 243.877 791.682C243.184 790.442 242.546 789.847 242.712 788.392C243.582 788.289 244.207 788.347 245.064 788.526L245.991 787.994L245.979 787.214C245.392 786.991 244.549 786.848 244.17 786.343C244.884 785.61 244.964 785.553 245.961 785.337C246.64 785.887 246.845 786.11 247.307 786.898C248.295 786.341 247.801 786.654 248.782 785.948C249.725 786.78 249.931 788.405 250.062 789.643C250.169 790.666 250.059 791.654 249.966 792.672Q252.3 795.782 254.782 798.775C254.675 799.069 254.519 799.349 254.461 799.656C254.156 801.263 258.851 806.498 260.186 807.874C262.132 809.88 265.629 812.997 268.6 813.008C270.017 813.013 271.178 812.602 272.516 812.193C275.056 811.416 276.707 811.532 279.113 812.735C281.065 813.711 282.656 815.071 284.208 816.581L284.793 818.661L285.423 818.789L286.087 817.719C288.204 818.218 290.309 820.892 291.451 822.732C293.317 825.741 295.441 828.888 299.034 830.022L299.66 829.693C305.495 826.691 311.59 826.271 317.847 828.417C323.763 830.445 328.206 835.55 332.494 839.864C332.652 840.91 332.706 840.391 332.296 841.417C342.254 850.054 336.583 850.387 341.554 859.963C344.937 866.483 336.131 867.557 345.143 875.294C346.748 876.671 348.332 878.215 350.279 879.083L351.012 878.911C350.949 877.951 351.111 878.288 350.806 877.809C352.345 876.075 357.383 875.631 359.722 875.452C367.016 874.895 373.248 878.32 378.527 882.995C383.548 887.441 392.37 901.724 392.669 908.285C392.695 908.848 392.564 909.389 392.493 909.942C392.16 912.535 392.481 915.005 392.469 917.599C392.46 919.844 392.68 921.815 394.301 923.511C395.539 924.806 397.129 925.365 398.787 925.924C401.445 925.229 402.735 922.18 405.228 921.699L406.322 922.799C407.96 922.333 409.572 921.89 411.245 921.572L412.206 922.714C412.445 922.622 412.676 922.511 412.921 922.439C415.219 921.767 417.796 923.228 419.666 924.469C429.224 930.815 435.831 940.721 439.239 951.511L439.164 951.631L438.844 951.19C439.603 954.12 440.356 956.95 440.595 959.979C439.863 961.083 440.3 960.588 439.278 961.458L439.256 962.183C439.095 966.467 438.206 970.241 434.892 973.244C431.958 975.902 424.244 979.823 420.158 979.35C419.195 979.238 418.974 978.918 418.263 978.401C416.076 976.811 413.116 977.846 410.644 976.876C399.255 972.406 394.154 962.316 389.124 952.015C388.505 949.683 388.019 947.436 387.932 945.017C387.818 941.83 388.069 938.314 390.297 935.865C389.692 933.729 388.682 930.845 386.619 929.694C382.912 927.624 376.393 933.497 373.751 931.401L373.872 929.858L373.278 929.64C372.698 930.218 372.257 930.789 371.799 931.466C364.769 931.592 357.768 926.485 352.926 921.743C346.152 915.11 340.43 904.788 340.397 895.187C340.362 885.155 346.13 891.054 335.666 880.167Z"/>
	<path fill="#FEFEFE" d="M309.009 837.921C309.887 838 310.714 838.085 311.563 838.348C317.026 840.038 321.595 844.722 324.12 849.715C325.778 852.992 326.718 856.719 325.436 860.291C324.316 863.412 322.378 865.084 319.458 866.484C315.726 866.362 313.174 865.641 310.094 863.499C304.322 859.483 300.51 854.001 299.342 847.098C302.003 844.416 303.928 841.288 306.49 838.551C307.142 838.428 307.761 838.289 308.4 838.104L309.009 837.921Z"/>
	<path fill="#FEFEFE" d="M367.321 915.985C359.932 913.434 354.416 908.192 350.966 901.168C350.057 899.315 349.597 897.272 348.682 895.433L348.399 894.873C350.549 893.945 352.537 892.935 354.544 891.727C355.535 890.537 355.414 889.393 355.463 887.921L355.48 887.251C356.268 886.635 355.943 886.735 356.88 886.564C360.282 885.946 366.984 888.907 369.58 890.978C375.371 895.598 375.969 902.034 376.676 908.788C376.699 909.016 376.732 909.244 376.76 909.472C375.018 910.913 374.123 911.406 373.56 913.617L372.628 913.591C370.892 914.556 369.184 915.301 367.321 915.985Z"/>
	<path fill="#FEFEFE" d="M405.22 932.228C411.039 933.587 415.98 935.712 419.96 940.375C423.176 944.142 425.572 949.983 425.017 955.003C424.538 959.342 421.874 961.037 418.622 963.488C414.463 963.352 409.832 962.241 406.145 960.337C403.152 955.823 397.536 948.852 397.477 943.334C397.433 939.21 400.635 941.285 402.165 939.375C403.088 938.222 403.497 936.886 404.572 935.765C405.167 935.144 405.392 934.867 405.857 934.081L405.22 932.228Z"/>
	<path fill="#D6302F" d="M759.786 779.942C764.972 783.343 768.586 786.578 769.824 792.99C771.806 803.26 767.053 814.096 761.205 822.402C756.79 828.671 750.069 832.424 742.584 833.652C738.208 834.37 730.619 833.082 727.172 835.718C728.032 840.687 729.586 845.791 730.145 850.774C730.999 858.4 726.469 868.068 722.229 874.149C717.5 880.934 709.93 887.554 701.604 889.155C699 889.656 696.17 889.717 693.576 889.122C690.341 888.38 682.691 883.201 680.06 886.648C679.948 886.793 679.527 887.753 679.473 887.87C678.369 890.266 676.547 892.049 675.216 894.299C679.62 902.016 681.075 908.81 678.689 917.477C676.254 926.318 669.072 933.388 661.197 937.696C655.795 940.65 648.727 942.5 642.707 940.625C639.488 939.622 633.579 933.744 630.673 935.28C629.96 935.657 629.152 936.649 629.113 937.443C629.101 937.685 629.255 938.878 629.288 939.15L629.171 939.081C630.219 938.899 629.755 938.947 630.557 938.894C633.447 949.486 633.819 957.9 628.184 967.669C623.485 975.817 617.09 981.904 607.842 984.351C601.436 986.046 594.806 985.559 589.02 982.142C586.195 980.473 584.411 978.374 582.541 975.739C582.104 975.124 581.429 974.71 581.029 974.152C580.915 973.993 580.883 973.788 580.81 973.606C579.895 971.166 579.248 968.789 579.439 966.155C579.966 958.9 584.47 946.332 589.944 941.582C590.787 941.921 590.512 941.775 591.222 942.179C591.375 942.266 591.525 942.356 591.676 942.445L592.238 941.821L591.253 940.309L591.485 939.572C601.366 931.707 603.73 929.718 616.907 929.607C618.012 930.252 619.763 931.633 620.984 931.493C623.684 927.608 625.399 923.1 627.831 919.04L629.691 918.802L629.641 918.394L627.649 917.724C628.341 917.137 628.788 916.69 629.236 915.898C628.894 915.385 628.569 914.879 628.254 914.347C629.794 912.835 629.356 911.166 630.643 909.739C630.797 909.568 630.985 909.433 631.156 909.28C631.218 908.354 631.274 907.57 631.568 906.68C631.635 906.476 631.718 906.277 631.793 906.075L631.091 905.338C631.975 906.169 632.027 906.499 633.272 906.664C633.364 905.04 632.258 905.395 632.315 903.919L634.27 902.939L634.446 902.019L633.114 901.732C633.723 898.877 636.924 896.983 639.005 895.17C640.082 894.232 640.428 894.059 640.543 892.604C641.525 891.041 643.095 889.778 644.603 888.727C647.833 886.475 654.245 883.491 658.279 883.839C660.524 884.033 662.733 884.734 664.968 885.019C671.612 885.866 671.41 875.513 675.649 872.178C680.467 868.386 678.199 866.71 679.545 861.67C680.805 856.95 685.256 845.172 689.74 842.572C690.01 842.416 690.303 842.297 690.56 842.12C692.055 841.09 696.41 837.268 696.824 835.77C695.125 835.76 694.687 837.861 692.773 837.974L692.789 837.364C695.863 834.834 699.715 833.715 702.921 831.378L702.744 830.776L703.745 830.019C707.399 831.346 710.969 827.733 714.542 827.233C716.44 826.967 717.223 828.622 719.05 828.195C719.015 827.889 718.977 827.584 718.946 827.277C718.568 823.572 720.905 815.339 723.231 812.472C724.45 812.589 725.643 812.672 726.869 812.703C726.262 811.557 726.44 812.154 726.307 810.919C726.892 810.169 727.217 809.679 728.118 809.294C729.188 808.837 728.408 809.341 729.517 808.433L728.906 806.913C730.184 805.809 732.803 807.092 734.43 805.71C733.978 804.634 733.62 803.91 733.577 802.72C734.21 803.278 734.779 803.667 735.528 804.056L736.021 803.665L736.1 801.352L736.62 801.179C739.461 804.925 735.426 810.492 737.407 814.541C737.934 815.617 738.87 816.046 740.006 816.235C742.654 816.676 749.094 813.136 751.094 811.337C755.785 807.116 758.782 798.986 759.173 792.805C759.191 792.534 759.198 792.262 759.215 791.991C759.394 789.076 756.893 787.702 756.721 785.189C756.638 783.961 758.651 781.289 759.461 780.311C759.565 780.185 759.677 780.065 759.786 779.942Z"/>
	<path fill="#FEFEFE" d="M717.859 837.631C718.834 838.45 719.196 839.636 719.312 840.874C720.011 848.353 719.581 853.499 715.793 860.143C711.832 867.09 706.936 870.79 699.264 872.857L696.846 871.614L696.597 870.769C697.59 870.154 697.152 870.505 697.928 869.734L696.899 868.297L698.156 868.06C698.806 866.152 698.193 863.116 698.143 861.024C700.489 859.036 703.403 849.501 705.749 845.775C708.977 840.649 712.169 838.876 717.859 837.631Z"/>
	<path fill="#FEFEFE" d="M662.911 895.854L663.295 896.465C664.425 895.922 665.158 895.48 666.445 895.541C666.602 896.03 666.481 895.796 666.934 896.3C667.057 896.437 667.184 896.57 667.309 896.705L667.078 897.366L667.053 896.336C667.926 898.058 668.94 899.848 669.562 901.677C670.841 905.441 669.53 910.014 667.87 913.44C665.219 918.913 661.192 922.406 655.51 924.454C653.248 924.583 650.038 925.114 648.041 923.938C646.421 922.985 646.099 921.12 645.591 919.443C647.101 914.52 648.613 909.806 651.284 905.361C653.17 902.224 656.938 897.031 660.759 896.32C662.57 895.983 660.067 896.616 662.252 896.036L662.911 895.854Z"/>
	<path fill="#FEFEFE" d="M616.641 940.963L616.923 940.918C619.912 942.869 621.18 944.918 622.798 947.987Q622.652 949.784 622.37 951.565C621.447 957.54 618.342 963.713 613.296 967.24C609.898 969.615 606.166 970.353 602.118 969.634C599.229 969.236 597.739 967.486 595.81 965.532C600.092 959.527 602.214 952.233 606.974 946.388C608.818 944.122 611.815 942.407 614.756 942.154C615.08 942.126 615.406 942.113 615.731 942.092L616.641 940.963Z"/>
	<path fill="#ADE1DF" d="M305.506 470.205C309.762 469.452 319.302 469.465 323.001 471.756L322.65 472.614L323.503 472.997C324.468 472.068 323.901 472.362 325.198 472.103C328.685 473.15 333.278 474.474 336.098 476.775L335.299 477.547C336.21 478.219 336.278 478.578 337.45 478.478C337.252 477.684 337.191 478.045 337.567 477.388C341.085 478.865 345.581 483.356 348.256 486.194C353.445 491.701 357.056 496.799 360.161 503.708C365.471 515.526 365.377 523.03 365.027 535.716C363.804 536.083 364.35 535.815 363.371 536.482C363.79 537.515 363.929 537.505 364.749 538.169C364.498 539.631 364.326 539.571 363.147 540.512C363.559 541.278 363.914 542.094 363.761 542.995C363.443 544.865 362.012 543.501 361.231 545.267C358.734 550.917 359.056 557.219 353.11 561.013C351.804 561.846 350.043 562.729 349.589 564.273C350.606 563.968 350.184 563.881 350.881 564.222C345.781 571.832 333.308 577.09 324.962 580.145L324.288 579.822Q322.251 580.539 320.149 581.033Q318.046 581.527 315.903 581.792Q313.76 582.057 311.601 582.089Q309.441 582.122 307.291 581.922C306.569 581.326 306.071 580.899 305.165 580.61C303.332 580.025 300.941 580.198 299.01 579.892C292.636 578.885 283.636 575.943 278.748 571.619L279.021 570.4L278.532 569.953C277.703 570.335 277.507 570.366 276.531 570.391L275.785 569.587C275.871 569.125 276.069 568.17 276.061 567.721C276.037 566.491 275.423 566.199 274.563 565.506C273.766 565.923 273.231 566.155 272.33 566.23C266.199 560.595 259.735 550.445 258.276 542.225L259.482 542.006L259.512 541.007C258.446 540.627 258.968 540.879 257.957 540.232C257.242 535.078 256.041 529.494 256.225 524.294C256.313 521.79 256.74 519.094 257.461 516.691C257.704 515.882 259.09 513.062 259.029 512.438C258.972 511.849 258.146 511.551 258.03 510.97C260.066 503.99 263.471 496.24 268.276 490.745C277.626 480.051 291.026 471.129 305.506 470.205Z"/>
	<path fill="#ADE1DF" d="M702.736 472.281C704.83 472.128 718.288 471.282 719.289 472.318C719.786 472.832 719.386 473.307 720.22 474.023C721.05 473.944 721.684 473.776 722.446 473.454L723.275 473.097L724.005 473.579C723.253 473.951 722.923 473.882 722.624 474.7L723.731 475.46C727.911 474.417 727.161 476.85 730.494 477.863C731.223 478.085 733.113 477.752 733.952 477.717C739.149 480.523 744.333 484.455 748.578 488.559C758.85 498.49 763.396 512.788 763.631 526.808C763.877 541.55 757.968 555.078 747.723 565.583C744.706 568.677 733.673 577.95 729.571 578.001L729.506 576.539C727.52 577.189 727.095 579.57 724.503 579.71L723.622 578.284L722.887 578.185L721.429 579.88C717.339 581.526 713.913 581.235 709.631 580.875C707.869 580.92 707.016 581.51 705.404 581.938C702.643 582.672 698.443 581.723 696.059 580.237C695.334 579.785 695.026 579.59 694.18 579.307L693.156 580.504C692.987 580.477 692.813 580.47 692.648 580.423C691.049 579.972 689.994 578.386 688.48 577.675C674.864 571.277 665.334 565.813 658.309 551.735C656.689 548.49 652.557 539.222 653.911 535.853C654.267 534.967 654.388 534.519 654.451 533.574L653.098 533.012C653.014 532.748 652.889 532.494 652.845 532.22C652.545 530.323 652.86 527.865 652.891 525.922C653.054 515.881 654.973 506.957 661.006 498.648C663.405 495.343 666.691 492.499 668.581 488.887C669.15 487.799 669.42 487.234 670.491 486.532C670.754 486.489 671.018 486.452 671.279 486.403C673.626 485.962 673.893 484.364 675.189 482.614C675.375 482.364 676.483 480.973 676.703 480.895C676.882 480.831 677.619 481.375 677.884 481.356C679.687 481.232 688.064 474.998 691.718 474.393L692.08 475.857C693.362 475.942 692.756 476.086 693.888 475.384L693.654 474.255L694.104 473.775L697.483 474.006C697.811 473.735 698.39 473.234 698.749 473.041C700.054 472.342 701.367 472.937 702.712 473.229L702.736 472.281Z"/>
	<path fill="#A2A1EE" d="M394.42 370.704C396.534 370.317 398.85 370.585 400.998 370.696C413.654 371.353 425.511 375.578 436.044 382.532C451.092 392.467 462.072 409.777 465.195 427.466C466.023 432.153 465.206 437.048 466.16 441.521C466.45 442.885 466.59 443.871 466.504 445.261L465.423 445.849L465.21 446.752L465.988 447.121L466.099 447.721C464.488 451.031 463.702 454.495 462.466 457.942C460.003 464.814 455.817 470.889 450.894 476.222C438.44 489.713 423.584 497.371 405.072 498.037C396.759 498.216 388.573 497.229 380.717 494.49C364.712 488.911 351.703 478.136 344.305 462.654C342.071 457.978 337.358 443.066 338.966 438.884C339.013 438.762 339.57 437.413 339.587 437.21C339.696 435.895 338.275 433.666 337.672 432.443C338.218 430.537 338.362 429.259 339.8 427.798C339.694 427.704 339.585 427.615 339.483 427.517C338.456 426.52 337.846 425.757 337.773 424.3C338.66 424.199 338.353 424.172 339.154 424.291C339.327 424.317 339.499 424.351 339.671 424.381C339.335 416.948 340.246 417.042 342.887 410.559C343.691 408.584 343.872 406.412 344.647 404.416C346.654 399.254 351.325 393.382 354.937 389.194C365.222 377.269 378.959 371.861 394.42 370.704Z"/>
	<path fill="#FEFEFE" d="M452.082 442.566L452.634 443.174C452.694 450.411 452.173 456.871 447.902 463.043C440.697 473.456 427.289 481.73 414.886 483.953C408.308 485.132 398.383 485.902 391.957 483.847C389.169 482.955 386.458 481.565 383.735 480.475C377.647 478.038 374.732 477.088 369.111 473.148C367.069 471.716 364.178 469.941 362.569 468.042C361.589 466.885 361.568 465.16 360.683 463.917C358.576 460.959 352.987 458.022 352.394 454.346C351.614 449.507 347.939 445.174 347.435 439.998C347.071 436.265 348.298 432.106 348.353 428.279L347.239 427.91L347.006 427.283L348.552 425.336C348.69 424.388 348.859 423.455 349.047 422.515C351.72 409.172 360.547 398.772 371.74 391.469C383.761 383.625 394.973 382.082 408.954 385.027C418.137 386.961 437.245 398.581 442.179 406.619C442.963 407.896 442.94 407.978 442.577 409.354C442.733 409.632 442.871 409.921 443.045 410.188C444.167 411.916 446.161 412.997 447.3 414.847C449.409 418.274 449.772 424.015 452.861 426.303L452.682 427.026L451.622 427.133C451.71 428.638 452.531 428.497 452.821 429.527C453.363 431.455 450.762 430.939 453.327 435.299L452.147 435.94L451.935 437.24C452.859 437.626 452.383 437.546 453.36 437.495C453.521 438.418 453.47 438.926 453.209 439.825L452.207 439.713C451.778 440.986 452.009 440.358 452.18 441.693C452.217 441.984 452.115 442.275 452.082 442.566Z"/>
	<path fill="#1C1B3B" d="M413.196 400.578C414.71 400.956 416.126 401.463 417.69 401.113C418.175 400.747 418.93 400.027 419.49 399.845C421.206 399.287 421.868 401.224 423.283 401.768C425.998 402.811 429.554 401.25 432.578 402.864C432.783 402.974 432.98 403.101 433.183 403.215C435.006 404.235 437.125 405.399 438.522 406.993C439.653 408.282 440.31 408.513 441.933 409.119L442.577 409.354C442.733 409.632 442.871 409.921 443.045 410.188C444.167 411.916 446.161 412.997 447.3 414.847C449.409 418.274 449.772 424.015 452.861 426.303L452.682 427.026L451.622 427.133C451.71 428.638 452.531 428.497 452.821 429.527C453.363 431.455 450.762 430.939 453.327 435.299L452.147 435.94L451.935 437.24C452.859 437.626 452.383 437.546 453.36 437.495C453.521 438.418 453.47 438.926 453.209 439.825L452.207 439.713C451.778 440.986 452.009 440.358 452.18 441.693C452.217 441.984 452.115 442.275 452.082 442.566C451.702 443.312 451.747 443.05 451.658 443.752C451.141 447.831 449.383 452.227 446.871 455.515C445.448 457.378 443.974 459.598 442.088 461.014C438.619 463.618 436.827 462.728 434.454 466.722C432.567 468.085 429.797 468.199 427.537 468.581C427.342 469.36 427.264 469.586 426.754 470.249C426.235 469.854 425.735 469.458 425.234 469.041C423.317 469.535 421.13 470.244 419.156 470.313C417.848 470.358 416.356 469.806 415.066 469.549C408.074 468.153 402.299 465.891 397.04 460.954C392.745 456.923 387.343 449.53 387.16 443.451C387.952 444.847 388.716 446.158 389.724 447.411C389.546 444.852 387.864 443.474 386.233 441.691C385.594 438.879 385.62 436.774 386.648 434.054C388.222 429.892 386.741 430.092 387.195 427.055C388.365 419.227 395.676 411.902 401.32 407.128L400.978 407.178C404.845 404.312 408.796 402.474 413.196 400.578Z"/>
	<path fill="#70BF8D" d="M820.15 696.847L820.898 696.446L820.684 697.147L821.112 697.066C829.329 695.593 834.062 701.878 837.606 702.167C838.673 702.254 838.456 701.449 839.904 701.909C839.907 702.142 839.908 702.376 839.913 702.609C839.939 703.685 839.917 703.272 840.088 704.443C842.323 705.579 844.663 705.427 847.034 706.226C847.287 707.203 847.314 706.714 846.912 707.689L847.736 708.089L848.207 707.092C849.164 708.034 849.351 708.045 849.332 709.422C849.328 709.771 849.267 710.276 849.229 710.636C850.342 710.974 851.182 710.59 852.261 710.28L852.735 710.722L852.034 711.636L852.449 712.426C853.525 712.265 853.456 711.201 854.228 711.814C856.957 713.98 859.07 717.946 860.002 721.219L859.737 722.188L858.449 722.246L858.311 723.058C858.77 723.685 859.093 724.159 859.725 724.614C860.576 725.226 861.308 726.77 861.435 727.793C859.849 729.73 861.595 734.368 859.949 735.301C859.183 735.216 858.284 734.89 857.616 735.301L858.878 736.359L858.804 737.939L860.324 737.27L860.456 737.941C859.743 738.944 858.534 739.188 858.429 740.198C859.239 740.769 860.034 741.287 860.903 741.764L860.524 742.305L858.322 742.226L857.991 742.993C858.922 744.546 859.832 743.408 860.121 745.279L859.141 747.487C859.398 747.706 859.673 747.905 859.911 748.144C860.062 748.296 860.172 748.484 860.303 748.654L860.049 748.106C859.577 749.152 859.791 749.071 858.677 749.671C858.085 751.036 857.875 755.853 857.171 756.262L855.816 755.671L855.399 756.436C855.575 756.65 855.756 756.861 855.928 757.079C856.635 757.974 856.408 757.581 856.763 758.594L854.094 761.195C854.364 762.507 854.499 762.306 855.513 763.056L855.218 763.011C856.229 763.742 856.261 763.774 856.633 764.963C856.474 766.346 855.462 767.234 854.589 768.244L854.931 769.04C855.285 769.881 855.454 770.646 855.582 771.552C854.321 772.703 852.531 773.536 852.536 775.41C852.538 776.51 852.964 777.552 853.829 778.251C854.069 778.445 854.361 778.562 854.627 778.717L851.279 782.249C851.101 782.225 850.924 782.198 850.746 782.177C850.019 782.09 850.311 782.09 849.636 782.193L851.717 784.102L851.49 784.52L849.615 784.212L849.363 784.61L851.36 786.73C850.761 787.39 850.398 787.658 849.655 788.106L849.775 789.013C850.645 789.407 851.048 789.419 851.583 790.239L851.011 790.771L848.753 790.047L848.101 790.485L848.338 791.084L850.301 791.782L850.473 792.722L850.013 793.028L848.449 792.142L847.99 792.73L848.39 793.746L849.824 794.128C848.313 797.724 844.97 799.209 845.244 803.522C846.018 803.897 846.599 804.03 847.453 804.123L847.358 805.171C846.253 805.853 845.813 805.769 844.494 805.801C844.187 807.213 843.939 808.248 844.292 809.693C845.37 809.509 845.264 809.317 845.925 808.512L845.779 807.288L846.782 806.748C847.003 808.78 845.789 809.993 844.581 811.533C844.714 812.782 844.452 812.248 845.399 813.122L844.14 814.302C844.564 815.373 844.326 814.852 844.853 815.864L844.132 816.349L843.054 815.937L842.514 816.498C843.143 817.269 843.81 817.967 844.511 818.673C843.609 818.905 843.117 818.601 842.236 818.352C842.17 822.065 842.291 825.902 841.337 829.513C840.401 830.161 839.465 830.796 838.511 831.417C837.876 831.831 838.094 831.606 837.747 832.226C837.994 832.171 838.241 832.114 838.488 832.062C839.363 831.877 840.218 831.759 841.104 831.655L841.36 832.221C840.678 833.347 840.158 833.775 839.03 834.443C838.864 834.421 838.699 834.397 838.534 834.377C837.747 834.283 838.043 834.312 837.143 834.32C837.518 835.308 837.841 835.734 838.5 836.533C837.434 838.94 834.97 840.482 834.106 842.966L834.773 844.477L834.361 844.985C833.436 846.149 832.641 846.93 832.597 848.491L833.029 849.009L833.986 849.013C833.674 850.347 832.978 850.25 832.53 851.268C831.72 853.107 833.333 856.743 831.525 858.199C830.684 858.877 831.009 858.594 830.24 859.361C829.961 867.317 828.241 872.224 825.41 879.605C823.846 880.229 823.987 878.716 823.062 880.426C823.758 881.377 824.097 881.49 825.132 881.981L825.039 882.807C823.775 882.685 823.574 882.392 822.562 881.588C821.905 882.893 823.08 884.002 821.817 884.831C821.352 886.761 822.12 889.087 822.289 891.057L821.635 891.138L821.154 890.756L820.561 891.438L820.552 890.976C820.289 892.523 821.608 892.588 821.241 893.836L819.506 893.642L819.039 894.302C819.537 895.103 819.757 895.28 820.504 895.798C819.629 896.538 818.412 895.416 817.554 896.235C818.221 897.129 819.794 897.682 819.765 898.411C818.352 898.432 817.848 898.265 816.68 899.111C815.917 900.529 815.776 901.31 815.712 902.921C816.291 903.221 816.766 903.426 817.394 903.633C817.346 905.412 815.578 905.381 815.759 907.246L816.906 907.768L816.842 908.698C816.165 908.748 815.595 908.762 814.913 908.713L814.569 909.399C815.368 909.875 815.608 909.873 816.05 910.727C814.447 911.365 813.346 910.125 812.153 911.399C813.091 911.981 813.736 912.162 814.788 912.439C815.378 913.458 815.317 912.965 815.221 913.863C813.865 913.63 814.564 912.524 813.062 913.304C812.847 914.339 812.612 915.207 812.754 916.268L814.419 916.622C813.585 917.944 811.803 917.228 811.677 918.624L812.634 920.621C811.785 920.246 810.913 919.582 810.017 919.871C809.701 921.338 810.359 922.603 810.858 923.96C810.529 925.414 809.367 926.037 808.278 927.015C808.082 926.949 807.895 926.847 807.69 926.818C807.408 926.777 807.119 926.81 806.834 926.807C806.946 928.574 807.281 930.571 806.651 932.247C805.264 932.695 804.146 931.739 803.103 932.378C804.392 933.322 804.969 933.625 805.205 935.26C805.517 937.422 804.736 939.734 804.271 941.822C802.991 943.13 801.61 944.312 800.99 946.079C801.188 947.677 801.388 949.099 801.121 950.707L798.857 951.139C798.152 952.424 799.217 953.961 798.335 954.8C797.338 955.001 796.513 954.943 795.82 955.72C797.02 955.868 797.957 955.575 799.071 955.613C799.297 955.621 799.51 955.726 799.73 955.783C799.444 956.812 799.741 956.404 798.82 956.99C797.897 958.709 795.705 961.44 796.414 963.331C796.557 963.713 796.923 964.363 797.127 964.74C795.948 965.804 794.791 966.899 793.528 967.865L794.844 968.808C794.64 971.213 791.637 972.443 790.854 974.574C789.646 977.863 790.331 980.367 787.859 983.434L786.579 983.35L786.112 984.056L786.436 985.205C786.66 985.319 786.885 985.43 787.106 985.548C788.051 986.049 787.693 985.819 788.498 986.509C788.386 987.884 785.552 990.396 786.289 991.029C786.52 991.227 786.812 991.339 787.074 991.494L786.751 991.983C785.188 991.521 785.033 991.474 783.487 991.956L782.514 992.993C783.174 993.079 783.593 992.954 784.234 992.809L785.064 993.208C784.098 993.969 784.607 993.613 783.531 994.271L783.572 994.851L784.571 995.493L784.481 996.09C783.876 996.04 783.247 996.034 782.659 995.884L783.279 996.517L782.45 995.865C781.818 997.476 779.135 1003.74 779.215 1004.94L780.529 1005.54C780.11 1005.64 779.689 1005.73 779.267 1005.82L778.547 1006.53L778.84 1008.42L778.265 1008.86L777.323 1008.48C777.05 1009.75 777.157 1010.91 777.248 1012.19L777.58 1012.54L778.826 1012.25C778.732 1013.11 778.93 1013.03 778.339 1013.48C777.487 1014.14 776.556 1014.36 775.557 1014.7C774.729 1014.98 775.076 1014.84 774.223 1015.3C775.213 1016.59 775.858 1015.19 776.049 1017.03C775.009 1017.66 774.878 1017.41 773.727 1017.24C773.91 1018.06 774.183 1018.72 774.546 1019.48C774.118 1020.78 772.497 1020.98 772.95 1022.03C773.031 1022.21 773.559 1022.91 773.694 1023.09L773.705 1024L685.362 1024C688.237 1020.6 693.286 1014.47 693.075 1009.85C692.994 1008.07 698.66 1002.49 699.861 1000.41L699.297 999.652L699.583 998.974L701.449 998.898L701.906 998.167C700.826 998.155 699.761 998.194 698.683 998.244L698.619 997.603L700.145 996.014L700.008 996.022C701.456 994.576 702.729 993.166 703.904 991.489C703.72 990.07 703.729 988.856 703.825 987.428C704.965 986.476 704.927 987.986 706.369 988.019L706.662 987.549L706.125 986.355Q706.919 983.928 707.847 981.549L709.208 981.252Q709.365 980.586 709.531 979.922C711.31 972.805 714.366 961.473 721.085 957.528C721.222 957.447 721.362 957.371 721.5 957.293L721.045 956.941L719.36 957.625L719.114 956.913C721.774 952.458 724.917 947.54 726.913 942.758C728.724 938.422 729.876 928.684 733.016 925.559C733.67 924.908 733.349 925.112 734.413 925.146C733.311 926.587 731.53 930.76 730.798 932.626L731.109 933.311C732.538 931.843 734.052 928.519 734.654 926.537C735.112 925.027 734.555 924.489 733.899 923.182L734.278 922.457L735.73 922.845C736.443 921.006 735.848 919.241 736.691 917.471C736.99 917.791 737.311 918.09 737.629 918.391C738.473 916.654 737.273 915.431 738.255 913.625C741.135 908.327 744.496 899.523 746.543 893.671C747.202 891.787 747.601 889.711 748.36 887.88C749.883 884.205 752.527 885.948 753.656 880.943C753.563 881.084 753.478 881.231 753.377 881.367C752.533 882.503 751.773 882.993 750.425 883.195C750.255 882.073 750.033 882.099 750.699 881.098C751.665 880.673 752.356 880.42 752.998 879.526C754.058 878.051 754.069 876.936 753.63 875.253C754.206 873.79 755.451 874.07 756.183 872.839C755.262 871.698 755.101 870.014 754.781 868.611C754.968 867.543 755.268 867.18 756.03 866.469C759.546 863.193 757.162 859.031 759.538 856.491L760.709 857.516L761.043 856.797C760.86 855.445 760.749 854.168 760.724 852.805L760.971 853.776L761.769 854.068L760.973 853.744L761.85 853.714L761.724 854.279C762.099 850.545 763.163 847.149 764.53 843.665C765.297 843.23 765.766 842.951 766.382 842.302C765.489 841.973 765.873 842.251 765.274 841.411L766.501 838.307L765.626 837.229C766.516 835.667 768.204 835.734 768.928 834.266L767.813 833.865C768.672 831.735 769.61 830.197 770.144 827.862L770.292 827.187C771.351 826.968 770.804 827.114 771.929 826.73C771.574 825.697 770.859 824.699 770.595 823.67C770.297 822.505 770.762 821.796 771.342 820.829C772.357 820.732 772.093 820.72 772.91 820.744C773.064 820.748 773.218 820.758 773.372 820.765C774.289 818.045 772.515 815.208 773.253 812.704C773.855 810.661 776.664 809.183 777.126 807.255C777.387 806.163 776.624 803.402 777.549 802.557C778.218 801.946 778.713 802.332 779.262 801.391L777.976 800.623L778.094 800.09C779.115 799.965 779.373 799.947 780.251 799.341L779.94 798.958L778.142 798.866L778.233 797.949C779.018 797.728 779.622 797.519 780.364 797.16C779.796 796.291 779.462 795.736 779.149 794.731C780.912 792.637 782.54 790.478 784.16 788.273L783.829 787.798L781.673 788.783L780.932 788.633C781.007 788.736 781.13 788.796 781.235 788.869L781.374 787.143C781.419 787.078 781.465 787.014 781.509 786.949C782.397 785.616 783.29 783.956 784.603 783.004C784.819 782.847 785.044 782.704 785.264 782.554C784.463 782.263 783.761 781.826 783.015 781.412L782.979 780.734C788.143 774.354 785.57 765.504 790.12 758.692C790.943 759.174 790.544 758.979 791.304 759.3C791.36 758.645 791.456 757.927 791.347 757.268C791.098 755.762 790.024 754.834 788.917 753.917C789.82 753.736 790.651 753.493 791.522 753.194L791.771 752.628C791.072 752.255 790.477 751.896 789.823 751.438L791.994 750.469C791.106 749.707 791.468 750.181 790.967 749.004C791.322 747.29 792.19 746.265 793.245 744.889C793.878 744.064 793.735 743.799 793.799 742.79L793.366 742.615C793.16 743.542 792.961 744.153 792.439 744.949L791.849 744.78C792.128 740.098 795.693 739.335 797.789 735.697C797.498 734.708 797.255 733.811 797.165 732.783L797.805 732.817L798.663 733.365C799.257 732.253 798.905 732.737 799.686 731.89C800.243 732.885 800.043 732.985 801.192 733.367L801.527 732.724C800.691 731.977 800.076 731.55 799.701 730.457C798.969 728.323 803.47 726.926 804.336 725.141L802.355 725.03C802.531 724.814 802.704 724.596 802.882 724.383C803.72 723.378 804.068 722.919 804.306 721.61C804.484 720.629 804.688 719.9 805.127 718.987L805.991 718.696C806.7 719.225 807.383 719.742 808.032 720.345C808.187 720.489 808.337 720.638 808.49 720.785L809.414 720.748C809.834 719.796 809.419 719.2 809.165 718.219L810.431 716.44C809.927 715.901 809.46 715.914 808.761 715.723L808.738 714.805C809.877 714.479 810.066 714.92 811.064 715.469L811.319 714.828L810.293 713.152L812.316 712.798C813.67 711.801 814.231 710.952 815.008 709.471C814.68 707.951 813.207 706.889 812.131 705.84Q813.586 706.152 815.03 706.511C815.564 705.432 814.514 702.924 814.452 701.547C815.376 700.957 814.991 701.163 815.884 700.73C817.271 700.058 818.378 699.527 819.502 698.463L819.274 697.938C818.473 697.46 817.728 697.078 816.847 696.778L815.997 696.496L816.47 696.084C817.728 696.278 818.917 696.528 820.15 696.847Z"/>
	<path fill="#D6302F" d="M199.316 242.761C203.495 236.382 206.961 229.654 211.045 223.245C214.698 217.515 218.772 212.286 222.774 206.82L220.953 207.645L220.836 207.168C222.051 205.982 222.921 206.482 224.213 205.545L223.476 204.912C223.391 203.937 223.225 204.332 223.889 203.716C226.026 201.734 229.552 199.029 230.827 196.477C231.453 195.224 230.287 194.867 231.205 193.474L232.445 193.991L233.214 193.615C233.192 192.63 233.22 192.581 233.735 191.648L234.286 192.531C235.969 191.005 237.087 188.562 238.512 186.753C240.909 183.709 256.309 164.791 258.115 163.439C258.123 164.462 258.062 163.969 258.28 164.92C260.166 163.025 261.025 162.275 261.095 159.544L261.993 158.909L262.522 159.515C262.797 159.517 263.075 159.553 263.349 159.522C264.66 159.373 265.939 158.154 266.786 157.251L266.13 157.266L267.051 156.592C266.006 156.386 266.493 156.535 265.583 156.169C266.359 155.584 267.12 154.978 267.899 154.398C273.512 150.215 277.378 144.049 282.47 139.297C285.262 136.692 290.253 135.899 291.48 132.2C291.762 131.351 292.009 131.395 292.736 130.927L293.989 131.354C294.833 130.819 294.574 131.073 295.198 130.34C295.395 130.108 295.582 129.868 295.777 129.633C296.207 129.114 296.655 128.61 297.066 128.075C300.343 123.809 305.219 121.968 309.408 118.743C314.072 115.152 318.017 109.307 322.872 106.214C325.261 104.692 328.249 103.9 330.752 102.466C334.467 100.338 337.933 97.1471 341.783 95.3684C344.662 94.0388 347.875 93.5635 350.736 92.1705C351.422 91.8368 351.892 91.5943 352.653 91.42C352.823 91.3811 352.997 91.3652 353.17 91.3378L351.756 91.5141L351.035 90.6587C353.519 90.1623 355.427 90.1576 357.374 88.4676L356.29 88.3155L356.424 87.9866C366.004 82.4221 375.733 77.5398 386.263 73.9772C390.589 72.5138 395.051 71.5558 399.362 70.15C401.477 69.4603 403.011 67.7993 405.178 67.0382C405.391 67.2533 405.565 67.5143 405.815 67.6836C406.258 67.9825 414.065 63.9658 416.411 63.8675C420.784 63.6844 425.402 61.3538 429.657 61.7384L429.48 62.8341C432.365 62.8181 433.795 59.2297 436.704 59.2489C437.408 59.2535 437.812 60.0708 438.241 60.5585C438.686 59.7256 438.402 60.0932 439.091 59.4547C440.875 59.1299 442.694 59.0965 444.464 58.7248C450.089 57.5435 456.482 54.6739 462.316 55.2745C463.745 55.4216 464.065 55.9093 464.886 56.9622C466.431 56.2129 468.202 54.6691 469.864 54.3055C474.368 53.3201 479.753 56.5932 484.266 54.5628C484.554 54.4336 484.838 54.298 485.124 54.1656C486.785 54.8125 485.279 54.9574 486.002 56.2848C487.821 55.2064 489.249 54.3547 491.382 54.1218L491.588 54.9868C492.63 55.7806 493.033 55.7139 494.304 55.893L493.941 54.7991L493.871 55.0907L494.405 54.4749C495.938 54.2579 497.252 54.0989 498.793 54.3016C498.519 54.9584 498.281 55.6106 498.062 56.2877L498.52 56.3549C498.908 55.9219 499.276 55.489 499.634 55.0304L499.985 54.5758C501.652 54.4858 502.49 55.5169 503.882 56.2136C506.674 57.611 505.786 55.1958 508.016 54.521C509.031 55.2223 509.81 55.847 511.078 55.9817C511.859 55.613 512.798 55.0622 513.633 54.8696C515.189 54.5107 515.937 55.5543 517.093 56.426C518.524 56.7119 519.361 56.6233 520.76 56.3542L520.118 56.3826C523.223 55.3933 527.147 57.751 530.555 57.5712C531.582 57.517 532.055 57.3845 533.032 57.7793C537.673 59.655 543.69 59.4224 548.62 60.7547C552.11 61.6979 555.104 63.9687 558.529 65.0069C564.225 66.7333 570.08 67.3547 575.682 69.5897C584.485 73.1022 595.414 77.4959 603.322 82.5997C607.712 85.433 611.183 89.7625 615.949 91.9418C617.107 92.4714 618.182 93.1112 619.281 93.7516L619.277 94.799L619.285 94.7921C620.669 97.8424 625.309 99.4182 627.937 101.4C630.934 103.661 635.944 107.278 638.038 110.368C638.949 111.714 637.626 112.182 638.798 113.591C642.028 117.473 645.648 118.171 646.306 123.73C646.323 123.875 646.334 124.021 646.347 124.166C647.194 124.718 648.091 125.26 648.875 125.898C651.499 128.029 649.47 128.61 649.64 130.753L651.213 130.973C654.699 136.611 659.064 141.86 661.573 148.034C662.891 151.278 663.326 154.787 664.147 158.173C664.73 160.577 665.677 162.854 666.427 165.203C666.958 166.865 667.013 167.895 666.182 169.426L664.451 169.883L663.507 170.786C663.341 170.692 663.185 170.58 663.01 170.503C658.142 168.359 651.315 170.611 646.65 167.609C643.774 165.759 638.019 168.052 634.284 167.491C630.712 166.954 627.603 164.536 624.01 164.345L622.762 164.888C623.648 165.792 624.682 165.962 625.862 166.345C623.569 166.629 622.771 166.115 620.88 164.779C618.094 164.929 615.29 166.129 612.584 166.125C609.101 166.118 601.822 163.054 599.116 165.581L598.622 164.849C598.312 164.975 597.535 165.393 597.216 165.349L597.889 164.141C596.529 163.316 586.286 164.607 583.106 164.112C583.016 163.353 582.915 162.605 582.797 161.849L582.156 162.101L581.412 164.141C579.335 163.959 577.058 161.701 575.158 162.145L574.937 163.557C572.564 164.183 570.276 163.773 567.993 162.946L569.902 161.501L569.679 161.086C568.16 161.05 567.135 162.016 565.95 162.85L565.048 162.715L565.478 161.532C563.107 160.793 560.78 162.483 558.496 162.878C555.415 163.411 551.358 162.711 548.236 162.468L547.779 163.193C544.749 163.61 543.95 163.744 541.469 161.846L540.995 161.478C540.582 162.203 540.447 162.634 540.261 163.428C539.209 163.895 539.457 163.966 538.214 163.653L537.666 161.888C536.232 161.88 536.021 163.45 535.02 162.617L534.747 161.752C533.797 161.867 533.263 162.168 532.449 162.627C531.307 163.27 530.567 163.455 529.275 163.592C528.121 162.903 527.502 162.144 526.652 161.127C525.158 161.233 524.211 162.501 523.022 162.669C521.108 162.94 519.193 160.556 517.253 160.646C516.037 160.702 515.6 162.268 514.138 162.351L514.325 162.418L514.08 160.734L513.782 162.057C512.136 161.465 510.945 161.314 509.2 161.214C508.474 161.173 507.842 161.05 507.131 160.924C505.741 160.678 505.148 161.063 503.91 161.562C503.511 161.723 503.102 161.857 502.698 162.003L502.572 161.631L503.167 161.021L502.532 160.52L500.849 160.939L500.589 161.777C499.588 161.635 499.367 161.542 498.55 161.034C497.754 161.658 497.923 161.848 497.741 162.801C496.279 162.175 495.178 161.202 493.634 161.914C493.493 161.98 492.615 162.528 492.509 162.591C491.669 163.094 491.023 163.586 489.995 163.354C489.06 163.142 488.085 162.665 487.199 162.294C485.792 162.702 484.419 163.074 483.074 163.667C479.525 165.23 475.737 163.414 474.504 163.895C473.771 164.182 472.378 165.578 471.741 166.086L468.764 164.234L466.518 166.167C465.381 165.795 464.506 165.183 463.5 164.551C462.724 165.074 462.311 165.623 461.769 166.38C460.122 166.581 458.475 166.665 456.819 166.757C456.473 165.888 456.575 165.888 456.738 165.025L455.709 165.162C455.289 165.825 455.108 166.294 454.961 167.064C450.303 166.933 446.958 166.019 442.194 166.818C441.121 166.998 438.177 167.869 437.303 167.401C439.489 166.87 441.958 166.521 443.785 165.134L443.63 165.537L442.979 165.507C439.947 165.387 437.706 165.612 435.041 167.11C434.3 167.526 433.283 168.494 432.509 168.133L432.978 166.558C431.195 166.535 429.061 167.626 427.391 168.238C427.101 168.579 426.928 168.999 426.469 169.046L426.694 170.1C424.791 170.19 422.89 168.955 421.096 169.158C417.774 169.533 414.621 172.401 411.187 172.603L411.071 172.056L411.948 171.107L411.66 170.783C410.541 171.224 409.533 171.718 408.486 172.31C405.204 172.32 401.791 170.427 398.658 170.892L398.539 171.347L400.525 173.074L400.412 173.67C396.352 173.84 398.089 170.045 393.551 173.883C392.407 173.842 392.499 173.791 391.615 173.232C391.539 173.972 391.479 173.589 391.914 174.354L390.636 174.284L389.541 172.808C388.729 173.189 388.658 173.687 388.228 174.45C387.22 173.961 386.904 173.534 386.192 172.696L385.583 172.804L386.434 175.251L385.949 175.455L384.052 174.37L383.427 174.688L383.087 175.869L380.727 176.415C380.929 174.98 382.505 174.466 382.236 173.037L380.919 173.168C380.831 173.685 380.751 174.203 380.68 174.722C377.997 174.787 374.041 173.585 372.075 175.533L374.104 176.545L373.921 177.035C373.154 177.208 372.556 177.541 371.818 177.227C370.878 176.826 369.928 176.276 368.918 176.741C368.058 177.137 367.22 177.752 366.427 178.271C365.773 177.662 366.114 178.032 365.456 177.113C364.454 177.589 364.476 178.449 363.858 178.772C361.811 179.843 359.149 177.698 356.818 180.165L356.934 181.183C355.444 181.409 354.38 180.954 353.005 180.467C351.252 180.808 350.503 181.874 349.349 183.183L348.796 183.237C346.295 183.501 343.681 183.857 341.271 184.592C338.46 185.449 325.342 191.643 323.534 190.922C323.717 190.519 324.327 190.112 324.662 189.816C320.67 189.757 316.81 190.366 313.223 192.152C310.081 193.718 306.648 194.182 303.289 195.108C294.934 197.411 274.894 203.428 268.863 209.058C268.586 209.316 268.293 209.555 268.009 209.804L267.454 210.297C266.892 209.739 267.133 210.101 266.875 209.129C266.098 209.609 265.604 210.107 265.004 210.792L263.798 210.371L262.61 211.013C262.609 211.304 262.612 211.595 262.606 211.887C262.6 212.159 262.584 212.431 262.573 212.703C261.773 213.281 261.709 213.654 260.624 213.366C260.426 213.314 259.881 212.981 259.686 212.866C256.21 215.3 254.473 218.942 250.246 220.485L248.905 219.757C232.302 231.974 215.595 243.334 200.658 257.718C196.636 261.592 192.445 266.315 189.14 270.819C187.838 272.593 186.908 275.919 185.067 276.922C184.307 275.878 184.564 274.57 184.535 273.294C183.485 276.008 182.697 278.598 181.248 281.144C183.721 266.374 193.569 256.04 199.316 242.761Z"/>
	<path fill="#FEFEFE" d="M773.705 1024L773.694 1023.09C773.559 1022.91 773.031 1022.21 772.95 1022.03C772.497 1020.98 774.118 1020.78 774.546 1019.48C774.183 1018.72 773.91 1018.06 773.727 1017.24C774.878 1017.41 775.009 1017.66 776.049 1017.03C775.858 1015.19 775.213 1016.59 774.223 1015.3C775.076 1014.84 774.729 1014.98 775.557 1014.7C776.556 1014.36 777.487 1014.14 778.339 1013.48C778.93 1013.03 778.732 1013.11 778.826 1012.25L777.58 1012.54L777.248 1012.19C777.157 1010.91 777.05 1009.75 777.323 1008.48L778.265 1008.86L778.84 1008.42L778.547 1006.53L779.267 1005.82C779.689 1005.73 780.11 1005.64 780.529 1005.54L779.215 1004.94C779.135 1003.74 781.818 997.476 782.45 995.865L783.279 996.517L782.659 995.884C783.247 996.034 783.876 996.04 784.481 996.09L784.571 995.493L783.572 994.851L783.531 994.271C784.607 993.613 784.098 993.969 785.064 993.208L784.234 992.809C783.593 992.954 783.174 993.079 782.514 992.993L783.487 991.956C785.033 991.474 785.188 991.521 786.751 991.983L787.074 991.494C786.812 991.339 786.52 991.227 786.289 991.029C785.552 990.396 788.386 987.884 788.498 986.509C787.693 985.819 788.051 986.049 787.106 985.548C786.885 985.43 786.66 985.319 786.436 985.205L786.112 984.056L786.579 983.35L787.859 983.434C790.331 980.367 789.646 977.863 790.854 974.574C791.637 972.443 794.64 971.213 794.844 968.808L793.528 967.865C794.791 966.899 795.948 965.804 797.127 964.74C796.923 964.363 796.557 963.713 796.414 963.331C795.705 961.44 797.897 958.709 798.82 956.99C799.741 956.404 799.444 956.812 799.73 955.783C799.51 955.726 799.297 955.621 799.071 955.613C797.957 955.575 797.02 955.868 795.82 955.72C796.513 954.943 797.338 955.001 798.335 954.8C799.217 953.961 798.152 952.424 798.857 951.139L801.121 950.707C801.388 949.099 801.188 947.677 800.99 946.079C801.61 944.312 802.991 943.13 804.271 941.822C804.736 939.734 805.517 937.422 805.205 935.26C804.969 933.625 804.392 933.322 803.103 932.378C804.146 931.739 805.264 932.695 806.651 932.247C807.281 930.571 806.946 928.574 806.834 926.807C807.119 926.81 807.408 926.777 807.69 926.818C807.895 926.847 808.082 926.949 808.278 927.015C809.367 926.037 810.529 925.414 810.858 923.96C810.359 922.603 809.701 921.338 810.017 919.871C810.913 919.582 811.785 920.246 812.634 920.621L811.677 918.624C811.803 917.228 813.585 917.944 814.419 916.622L812.754 916.268C812.612 915.207 812.847 914.339 813.062 913.304C814.564 912.524 813.865 913.63 815.221 913.863C815.317 912.965 815.378 913.458 814.788 912.439C813.736 912.162 813.091 911.981 812.153 911.399C813.346 910.125 814.447 911.365 816.05 910.727C815.608 909.873 815.368 909.875 814.569 909.399L814.913 908.713C815.595 908.762 816.165 908.748 816.842 908.698L816.906 907.768L815.759 907.246C815.578 905.381 817.346 905.412 817.394 903.633C816.766 903.426 816.291 903.221 815.712 902.921C815.776 901.31 815.917 900.529 816.68 899.111C817.848 898.265 818.352 898.432 819.765 898.411C819.794 897.682 818.221 897.129 817.554 896.235C818.412 895.416 819.629 896.538 820.504 895.798C819.757 895.28 819.537 895.103 819.039 894.302L819.506 893.642L821.241 893.836C821.608 892.588 820.289 892.523 820.552 890.976L820.561 891.438L821.154 890.756L821.635 891.138L822.289 891.057C822.12 889.087 821.352 886.761 821.817 884.831C823.08 884.002 821.905 882.893 822.562 881.588C823.574 882.392 823.775 882.685 825.039 882.807L825.132 881.981C824.097 881.49 823.758 881.377 823.062 880.426C823.987 878.716 823.846 880.229 825.41 879.605C828.241 872.224 829.961 867.317 830.24 859.361C831.009 858.594 830.684 858.877 831.525 858.199C833.333 856.743 831.72 853.107 832.53 851.268C832.978 850.25 833.674 850.347 833.986 849.013L833.029 849.009L832.597 848.491C832.641 846.93 833.436 846.149 834.361 844.985L834.773 844.477L834.106 842.966C834.97 840.482 837.434 838.94 838.5 836.533C837.841 835.734 837.518 835.308 837.143 834.32C838.043 834.312 837.747 834.283 838.534 834.377C838.699 834.397 838.864 834.421 839.03 834.443C840.158 833.775 840.678 833.347 841.36 832.221L841.104 831.655C840.218 831.759 839.363 831.877 838.488 832.062C838.241 832.114 837.994 832.171 837.747 832.226C838.094 831.606 837.876 831.831 838.511 831.417C839.465 830.796 840.401 830.161 841.337 829.513C842.291 825.902 842.17 822.065 842.236 818.352C843.117 818.601 843.609 818.905 844.511 818.673C843.81 817.967 843.143 817.269 842.514 816.498L843.054 815.937L844.132 816.349L844.853 815.864C844.326 814.852 844.564 815.373 844.14 814.302L845.399 813.122C844.452 812.248 844.714 812.782 844.581 811.533C845.789 809.993 847.003 808.78 846.782 806.748L845.779 807.288L845.925 808.512C845.264 809.317 845.37 809.509 844.292 809.693C843.939 808.248 844.187 807.213 844.494 805.801C845.813 805.769 846.253 805.853 847.358 805.171L847.453 804.123C846.599 804.03 846.018 803.897 845.244 803.522C844.97 799.209 848.313 797.724 849.824 794.128L848.39 793.746L847.99 792.73L848.449 792.142L850.013 793.028L850.473 792.722L850.301 791.782L848.338 791.084L848.101 790.485L848.753 790.047L851.011 790.771L851.583 790.239C851.048 789.419 850.645 789.407 849.775 789.013L849.655 788.106C850.398 787.658 850.761 787.39 851.36 786.73L849.363 784.61L849.615 784.212L851.49 784.52L851.717 784.102L849.636 782.193C850.311 782.09 850.019 782.09 850.746 782.177C850.924 782.198 851.101 782.225 851.279 782.249L854.627 778.717C854.361 778.562 854.069 778.445 853.829 778.251C852.964 777.552 852.538 776.51 852.536 775.41C852.531 773.536 854.321 772.703 855.582 771.552C855.454 770.646 855.285 769.881 854.931 769.04L854.589 768.244C855.462 767.234 856.474 766.346 856.633 764.963C856.261 763.774 856.229 763.742 855.218 763.011L855.513 763.056C854.499 762.306 854.364 762.507 854.094 761.195L856.763 758.594C856.408 757.581 856.635 757.974 855.928 757.079C855.756 756.861 855.575 756.65 855.399 756.436L855.816 755.671L857.171 756.262C857.875 755.853 858.085 751.036 858.677 749.671C859.791 749.071 859.577 749.152 860.049 748.106L860.303 748.654C860.172 748.484 860.062 748.296 859.911 748.144C859.673 747.905 859.398 747.706 859.141 747.487L860.121 745.279C859.832 743.408 858.922 744.546 857.991 742.993L858.322 742.226L860.524 742.305L860.903 741.764C860.034 741.287 859.239 740.769 858.429 740.198C858.534 739.188 859.743 738.944 860.456 737.941L860.324 737.27L858.804 737.939L858.878 736.359L857.616 735.301C858.284 734.89 859.183 735.216 859.949 735.301C861.595 734.368 859.849 729.73 861.435 727.793L862.473 729.195C862.739 729.087 863 728.965 863.272 728.871C864.527 728.438 865.277 728.886 866.36 729.548C873.071 733.657 881.466 739.312 887.358 744.43C889.304 746.12 895.851 753.826 896.718 754.301C897.276 754.606 898.722 754.519 899.368 754.53C899.805 755.479 899.918 756.345 900.06 757.374C901.225 758.758 912.691 769.919 913.61 770.204L915.049 769.832C915.892 771.334 915.025 771.285 915.297 772.615C915.593 774.062 927.19 786.658 929.038 789.083C931.715 792.596 929.113 791.57 932.737 794.976C937.304 799.269 940.027 804.484 943.624 809.509C945.366 811.942 947.062 811.006 947.002 812.698C946.948 814.195 946.239 815.206 947.311 816.617C948.87 818.667 951.665 819.232 953.029 821.466C952.694 822.446 952.165 823.136 952.641 824.096C954.736 828.316 960.595 838.487 963.358 842.072C964.244 841.95 964.241 841.683 964.817 841.042C965.578 842.067 965.455 842.061 965.286 843.267C965.075 844.772 964.599 846.284 964.199 847.751C965.798 847.926 965.849 846.834 967.355 847.765C968.076 849.142 968.36 850.401 968.711 851.91C968.905 852.74 968.778 852.413 969.155 853.082L969.13 852.753L969.547 853.395L971.249 852.989L971.579 853.678C970.84 854.417 970.747 854.282 969.765 854.444C971.221 858.343 975.041 860.789 977.094 864.272C978.145 866.055 978.612 868.238 979.549 870.112Q983.315 877.621 988.195 884.458C988.881 885.425 989.523 885.644 989.039 886.782L988.159 887.466C993.676 895.878 1006.82 920.828 1008.54 930.275C1009.54 935.792 1016.93 947.251 1019.3 953.41C1021.06 957.989 1020.92 963.722 1024 967.666L1024 1024L912.308 1024L898.281 1024L773.705 1024Z"/>
	<path fill="#ADE1DF" d="M876.666 882.07C876.636 881.953 876.567 881.839 876.577 881.719C876.828 878.619 875.911 875.676 875.618 872.541C875.359 869.777 875.533 866.936 875.624 864.165C874.873 863.398 874.523 863.06 874.12 862.04L875.788 860.917L875.823 860.213C875.029 859.436 874.341 858.696 873.688 857.795L874.542 856.405C869.733 852.781 875.234 851.875 871.699 846.067C870.651 844.345 872.085 839.652 871.638 837.227C871.605 837.047 871.559 836.87 871.52 836.691L872.044 835.958L873.159 835.993C874.041 837.05 874.075 837.464 874.348 838.836Q875.414 839.026 876.487 839.173L876.092 840.269C876.584 842.074 878.328 842.74 879.129 844.275C879.734 845.435 879.712 846.363 879.501 847.608L878.231 848.405L878.473 849.297C879.653 850.385 880.205 851.263 880.87 852.717L880.172 853.403C881.191 856.15 882.957 859.536 882.334 862.492L883.186 862.901C883.289 863.601 883.28 864.254 883.351 864.948C883.783 869.195 886.131 874.353 885.599 878.505C885.505 879.235 885.698 879.808 885.651 880.484C885.638 880.669 885.553 880.843 885.504 881.022C886.482 881.909 886.564 881.764 886.872 883.025C887.536 885.748 889.89 888.209 888.904 891.237C888.843 891.425 888.738 891.595 888.655 891.774L887.492 891.918L887.847 891.057C887.199 890.221 886.977 889.775 886.918 888.741C886.861 887.741 886.668 887.034 886.295 886.092C883.393 883.671 880.505 885.75 877.058 885.246C876.915 885.225 876.773 885.198 876.63 885.174L876.666 882.07Z"/>
	<path fill="#A2A1EE" d="M876.63 885.174C876.773 885.198 876.915 885.225 877.058 885.246C880.505 885.75 883.393 883.671 886.295 886.092C886.668 887.034 886.861 887.741 886.918 888.741C886.977 889.775 887.199 890.221 887.847 891.057L887.492 891.918C890.691 894.869 890.586 902.542 891.791 906.811C892.526 909.413 892.041 910.981 891.238 913.46C892.564 914.102 892.528 912.765 893.511 913.992C893.015 914.845 892.48 915.201 891.669 915.747L892.336 916.252L894.261 915.943L895 916.5L894.977 917.214L893 916.972L892.754 917.429C893.382 917.974 893.987 918.468 894.687 918.918C894.774 920.401 894.092 921.611 894.209 923C894.451 925.885 896.282 928.908 896.098 931.765L894.71 931.855L894.669 932.531L897.267 933.846C896.874 935.301 896.074 937.245 896.137 938.736L897.754 939.086C897.863 938.94 897.949 938.774 898.082 938.649C898.291 938.454 898.54 938.306 898.769 938.135C899.345 942.374 895.514 942.462 899.74 946.57C899.958 948.653 898.92 950.564 899.207 952.611C899.564 955.158 900.52 957.804 901.069 960.338Q902.711 967.752 903.359 975.317C903.469 976.475 903.286 977.049 904.293 977.801C904.576 978.012 905.184 978.332 905.51 978.51L905.293 978.993L904.123 979.107C903.616 982.926 906.606 987.835 907.059 991.715C907.399 994.63 904.605 992.905 907.457 999.206C908.034 1000.48 908.825 1001.64 908.599 1003.09L907.145 1003.13C907.331 1004.48 907.633 1007.74 908.68 1008.54L909.718 1006.89C911.875 1011.93 909.256 1017.33 910.56 1022.33L911.289 1020.47C911.98 1021.62 912.109 1022.7 912.308 1024L898.281 1024C897.692 1021.91 897.48 1020.12 897.643 1017.95L897.712 1017.13L896.223 1017.41C896.15 1015.92 896.041 1014.49 896.289 1013.01L897.695 1012.05L897.582 1011.24C896.743 1011.4 897.019 1011.31 896.304 1011.58C896.151 1011.64 895.999 1011.71 895.847 1011.77C896.837 1007.98 895.245 1007.37 895.149 1004.14C895.084 1001.99 892.421 983.571 891.817 982.666C891.179 983.153 890.973 983.329 890.163 983.491L890.28 982.428L891.72 981.723C892.014 977.035 889.595 972.092 888.694 967.492C889.077 966.519 888.86 966.907 889.499 966C890.169 965.052 889.98 964.742 889.988 963.609C889.129 963.838 889.542 963.878 888.75 963.498C888.325 960.688 889.147 957.703 888.838 954.858C888.492 951.681 885.375 946.934 886.808 944.081C887.321 943.061 887.208 943.286 886.982 942.262C885.926 942.277 886.03 942.229 885.2 941.737C884.206 939.722 883.414 922.151 882.793 917.938C882.406 915.314 881.161 913.103 880.739 910.521C881.317 909.49 881.855 908.454 882.371 907.39L882.004 906.687L880.367 906.692C880.609 905.61 881.149 904.571 880.583 903.591L878.93 904.258L878.662 903.777L879.633 903.07C880.399 901.267 879.709 898.937 879.77 896.979C879.775 896.807 879.79 896.634 879.8 896.462L878.499 895.547C879.093 894.186 879.018 893.4 878.809 891.985C878.784 891.82 878.756 891.657 878.73 891.493C879.147 891.73 879.592 891.917 880.022 892.129L880.009 891.291C879.767 891.216 879.527 891.13 879.282 891.065C878.975 890.985 878.663 890.927 878.354 890.858Q877.472 888.022 876.63 885.174Z"/>
	<path fill="#F5E672" d="M0 0L1024 0L1024 967.666C1020.92 963.722 1021.06 957.989 1019.3 953.41C1016.93 947.251 1009.54 935.792 1008.54 930.275C1006.82 920.828 993.676 895.878 988.159 887.466L989.039 886.782C989.523 885.644 988.881 885.425 988.195 884.458Q983.315 877.621 979.549 870.112C978.612 868.238 978.145 866.055 977.094 864.272C975.041 860.789 971.221 858.343 969.765 854.444C970.747 854.282 970.84 854.417 971.579 853.678L971.249 852.989L969.547 853.395L969.13 852.753L969.155 853.082C968.778 852.413 968.905 852.74 968.711 851.91C968.36 850.401 968.076 849.142 967.355 847.765C965.849 846.834 965.798 847.926 964.199 847.751C964.599 846.284 965.075 844.772 965.286 843.267C965.455 842.061 965.578 842.067 964.817 841.042C964.241 841.683 964.244 841.95 963.358 842.072C960.595 838.487 954.736 828.316 952.641 824.096C952.165 823.136 952.694 822.446 953.029 821.466C951.665 819.232 948.87 818.667 947.311 816.617C946.239 815.206 946.948 814.195 947.002 812.698C947.062 811.006 945.366 811.942 943.624 809.509C940.027 804.484 937.304 799.269 932.737 794.976C929.113 791.57 931.715 792.596 929.038 789.083C927.19 786.658 915.593 774.062 915.297 772.615C915.025 771.285 915.892 771.334 915.049 769.832L913.61 770.204C912.691 769.919 901.225 758.758 900.06 757.374C899.918 756.345 899.805 755.479 899.368 754.53C898.722 754.519 897.276 754.606 896.718 754.301C895.851 753.826 889.304 746.12 887.358 744.43C881.466 739.312 873.071 733.657 866.36 729.548C865.277 728.886 864.527 728.438 863.272 728.871C863 728.965 862.739 729.087 862.473 729.195L861.435 727.793C861.308 726.77 860.576 725.226 859.725 724.614C859.093 724.159 858.77 723.685 858.311 723.058L858.449 722.246L859.737 722.188L860.002 721.219C859.07 717.946 856.957 713.98 854.228 711.814C853.456 711.201 853.525 712.265 852.449 712.426L852.034 711.636L852.735 710.722L852.261 710.28C851.182 710.59 850.342 710.974 849.229 710.636C849.267 710.276 849.328 709.771 849.332 709.422C849.351 708.045 849.164 708.034 848.207 707.092L847.736 708.089L846.912 707.689C847.314 706.714 847.287 707.203 847.034 706.226C844.663 705.427 842.323 705.579 840.088 704.443C839.917 703.272 839.939 703.685 839.913 702.609C839.908 702.376 839.907 702.142 839.904 701.909C838.456 701.449 838.673 702.254 837.606 702.167C834.062 701.878 829.329 695.593 821.112 697.066L820.684 697.147L820.898 696.446L820.15 696.847C817.716 693.108 822.512 689.823 822.125 686.153C821.307 686.018 821.194 686.013 820.534 685.448L821.073 684.574C821.31 684.61 821.988 684.72 822.2 684.715C824.687 684.662 825.66 674.75 827.299 672.786C827.577 673.769 827.704 674.187 828.341 675.017L829.328 674.876C829.507 673.525 829.033 672.929 828.394 671.742C826.991 669.137 831.469 666.079 832.226 663.696C832.843 661.75 831.127 658.681 832.179 656.574C833.275 654.378 835.972 653.137 836.366 650.496L835.145 649.242L835.442 648.524C835.836 648.581 836.624 648.714 837.005 648.678C838.219 648.565 838.415 647.771 838.964 646.844C839.099 644.206 837.882 641.837 837.19 639.325C838.471 637.847 840.421 638.577 841.354 637.012L840.944 636.292C839.818 636.235 838.935 636.197 837.863 635.808L837.81 634.971C838.871 634.332 839.862 633.748 840.76 632.88L839.975 631.03L840.417 630.148C841.209 630.545 841.381 630.771 842.29 630.689L842.111 628.967C842.041 628.806 841.966 628.646 841.902 628.482C840.258 624.286 841.091 616.207 842.99 612.099L844.54 611.537C844.21 607.738 846.426 604.37 846.699 600.622L845.242 599.811C845.036 598.687 845.035 598.486 845.416 597.413L847.042 597.017C847.616 595.214 846.176 593.736 845.88 592.01C845.673 590.804 846.259 590.015 846.852 589.037C847.213 588.441 848.302 586.896 848.179 586.205C848.094 585.727 847.523 585.425 847.446 584.946C847.354 584.37 850.215 563.653 850.554 561.3C850.876 559.068 849.209 557.493 847.96 555.785C850.399 550.628 848.007 550.327 848.949 547.373C849.576 547.467 850.139 547.582 850.751 547.764C850.944 547.821 851.136 547.884 851.329 547.945L851.391 547.082C850.666 546.758 849.76 546.438 849.118 545.98C848.237 545.352 847.944 544.992 847.991 543.915C848.128 540.776 850.316 537.819 850.156 534.591C849.982 531.083 847.387 526.834 846.807 523.126C846.083 518.493 846.066 513.772 845.657 509.108C844.995 501.565 844.016 494.009 843.193 486.476L844.065 485.506C843.389 483.908 841.385 482.991 840.098 481.744C840.17 479.998 841.022 480.809 841.784 479.401C841.069 478.527 840.417 477.669 839.807 476.718C840.006 475.224 840.514 474.766 841.404 473.576C839.772 470.829 838.761 467.486 837.95 464.41C836.96 463.963 836.358 463.871 835.695 462.985C836.084 462.45 838.575 461.789 839.309 461.527L839.376 460.88C838.124 459.892 837.315 459.826 835.751 459.717C835.477 459.698 835.203 459.686 834.929 459.671L834.707 458.839Q835.062 458.258 835.406 457.671C836.303 456.137 836.619 455.521 836.178 453.8L834.468 453.838C833.8 452.121 834.924 450.766 835.174 448.929C834.35 448.059 834.739 448.321 833.675 447.784C833.427 447.659 833.173 447.546 832.922 447.427C832.02 444.264 831.131 441.056 830.439 437.84C831.484 438.302 832.178 438.85 833.328 438.645C832.491 435.715 829.404 437.547 827.124 430.348C828.189 429.707 828.929 429.169 829.743 428.227C829.08 427.682 829.349 427.8 828.675 427.556C827.366 427.083 826.403 426.735 825.598 425.508C824.677 424.102 825.176 422.127 825.513 420.598L825.703 419.772C824.543 419.548 823.42 419.417 822.246 419.308C821.716 417.729 823.376 417.849 823.768 416.25C823.174 416.11 822.595 415.995 821.991 415.902L821.359 415.808C820.75 413.801 822.85 413.076 822.809 410.959C821.389 409.983 820.261 410.528 818.75 409.807L818.75 408.391L819.37 407.872C819.937 404.543 811.964 394.918 810.673 390.773L812.061 389.288L811.97 388.43C810.354 386.521 810.502 387.88 808.685 387.083C808.24 385.82 807.81 384.912 807.899 383.55C808.69 383.542 808.936 383.645 809.633 383.226C808.747 381.188 807.242 380.446 805.326 379.559L804.789 379.316C804.359 378.438 804.104 378.001 804.195 376.996C804.217 376.762 804.315 376.531 804.286 376.298C804.202 375.613 803.915 375.407 803.47 374.937C802.433 373.842 801.391 372.895 800.66 371.555C800.501 371.264 800.353 370.968 800.2 370.675C805.496 366.961 811.489 364.279 816.333 359.914C816.979 359.331 816.586 359.501 817.397 359.378L817.736 360.768L818.295 360.961C820.095 359.664 822.609 358.272 823.879 356.456L823.167 355.079C824.427 353.037 827.359 353.327 828.878 351.416C833.331 345.809 834.983 337.937 839.564 332.366C842.098 329.284 843.129 325.826 844.518 322.136C851.123 304.591 850.15 286.263 845.299 268.393C844.447 265.255 840.949 261.916 841.006 259.341L842.638 258.792C841.929 256.219 839.647 257.201 838.626 255.313C839.106 254.654 839.479 254.036 839.83 253.3C837.787 250.124 834.752 247.827 832.692 244.626C833.116 243.384 832.94 244.013 833.222 242.737C829.875 237.324 821.224 226.866 816.488 222.445C808.44 214.931 786.775 200.672 776.656 196.892C771.88 195.107 766.599 194.944 761.694 193.146C755.901 191.021 750.255 187.866 744.371 186.134C743.867 186.89 743.584 187.229 742.856 187.818C740.357 186.547 737.723 185.156 735.051 184.285C731.829 183.235 727.579 183.933 724.891 181.9C722.354 179.98 721.408 181.936 718.896 181.357C714.757 180.402 710.859 178.016 706.708 176.864C699.57 179.605 687.902 173.464 680.492 171.809C677.801 171.207 674.781 171.483 672.034 171.474C669.247 171.466 666.521 171.963 664.451 169.883L666.182 169.426C667.013 167.895 666.958 166.865 666.427 165.203C665.677 162.854 664.73 160.577 664.147 158.173C663.326 154.787 662.891 151.278 661.573 148.034C659.064 141.86 654.699 136.611 651.213 130.973L649.64 130.753C649.47 128.61 651.499 128.029 648.875 125.898C648.091 125.26 647.194 124.718 646.347 124.166C646.334 124.021 646.323 123.875 646.306 123.73C645.648 118.171 642.028 117.473 638.798 113.591C637.626 112.182 638.949 111.714 638.038 110.368C635.944 107.278 630.934 103.661 627.937 101.4C625.309 99.4182 620.669 97.8424 619.285 94.7921L619.277 94.799L619.281 93.7516C618.182 93.1112 617.107 92.4714 615.949 91.9418C611.183 89.7625 607.712 85.433 603.322 82.5997C595.414 77.4959 584.485 73.1022 575.682 69.5897C570.08 67.3547 564.225 66.7333 558.529 65.0069C555.104 63.9687 552.11 61.6979 548.62 60.7547C543.69 59.4224 537.673 59.655 533.032 57.7793C532.055 57.3845 531.582 57.517 530.555 57.5712C527.147 57.751 523.223 55.3933 520.118 56.3826L520.76 56.3542C519.361 56.6233 518.524 56.7119 517.093 56.426C515.937 55.5543 515.189 54.5107 513.633 54.8696C512.798 55.0622 511.859 55.613 511.078 55.9817C509.81 55.847 509.031 55.2223 508.016 54.521C505.786 55.1958 506.674 57.611 503.882 56.2136C502.49 55.5169 501.652 54.4858 499.985 54.5758L499.634 55.0304C499.276 55.489 498.908 55.9219 498.52 56.3549L498.062 56.2877C498.281 55.6106 498.519 54.9584 498.793 54.3016C497.252 54.0989 495.938 54.2579 494.405 54.4749L493.871 55.0907L493.941 54.7991L494.304 55.893C493.033 55.7139 492.63 55.7806 491.588 54.9868L491.382 54.1218C489.249 54.3547 487.821 55.2064 486.002 56.2848C485.279 54.9574 486.785 54.8125 485.124 54.1656C484.838 54.298 484.554 54.4336 484.266 54.5628C479.753 56.5932 474.368 53.3201 469.864 54.3055C468.202 54.6691 466.431 56.2129 464.886 56.9622C464.065 55.9093 463.745 55.4216 462.316 55.2745C456.482 54.6739 450.089 57.5435 444.464 58.7248C442.694 59.0965 440.875 59.1299 439.091 59.4547C438.402 60.0932 438.686 59.7256 438.241 60.5585C437.812 60.0708 437.408 59.2535 436.704 59.2489C433.795 59.2297 432.365 62.8181 429.48 62.8341L429.657 61.7384C425.402 61.3538 420.784 63.6844 416.411 63.8675C414.065 63.9658 406.258 67.9825 405.815 67.6836C405.565 67.5143 405.391 67.2533 405.178 67.0382C403.011 67.7993 401.477 69.4603 399.362 70.15C395.051 71.5558 390.589 72.5138 386.263 73.9772C375.733 77.5398 366.004 82.4221 356.424 87.9866L356.29 88.3155L357.374 88.4676C355.427 90.1576 353.519 90.1623 351.035 90.6587L351.756 91.5141L353.17 91.3378C352.997 91.3652 352.823 91.3811 352.653 91.42C351.892 91.5943 351.422 91.8368 350.736 92.1705C347.875 93.5635 344.662 94.0388 341.783 95.3684C337.933 97.1471 334.467 100.338 330.752 102.466C328.249 103.9 325.261 104.692 322.872 106.214C318.017 109.307 314.072 115.152 309.408 118.743C305.219 121.968 300.343 123.809 297.066 128.075C296.655 128.61 296.207 129.114 295.777 129.633C295.582 129.868 295.395 130.108 295.198 130.34C294.574 131.073 294.833 130.819 293.989 131.354L292.736 130.927C292.009 131.395 291.762 131.351 291.48 132.2C290.253 135.899 285.262 136.692 282.47 139.297C277.378 144.049 273.512 150.215 267.899 154.398C267.12 154.978 266.359 155.584 265.583 156.169C266.493 156.535 266.006 156.386 267.051 156.592L266.13 157.266L266.786 157.251C265.939 158.154 264.66 159.373 263.349 159.522C263.075 159.553 262.797 159.517 262.522 159.515L261.993 158.909L261.095 159.544C261.025 162.275 260.166 163.025 258.28 164.92C258.062 163.969 258.123 164.462 258.115 163.439C256.309 164.791 240.909 183.709 238.512 186.753C237.087 188.562 235.969 191.005 234.286 192.531L233.735 191.648C233.22 192.581 233.192 192.63 233.214 193.615L232.445 193.991L231.205 193.474C230.287 194.867 231.453 195.224 230.827 196.477C229.552 199.029 226.026 201.734 223.889 203.716C223.225 204.332 223.391 203.937 223.476 204.912L224.213 205.545C222.921 206.482 222.051 205.982 220.836 207.168L220.953 207.645L222.774 206.82C218.772 212.286 214.698 217.515 211.045 223.245C206.961 229.654 203.495 236.382 199.316 242.761C199.15 242.762 198.985 242.766 198.82 242.765C194.753 242.723 190.76 241.513 186.74 240.965C183.767 240.559 180.736 240.535 177.74 240.479C152.553 240.012 125.08 249.313 106.763 266.923C106.203 267.461 105.326 268.584 104.675 268.953C103.312 269.723 102.273 269.082 101.136 270.765C99.639 272.981 99.5741 275.418 97.3401 277.239C96.6434 277.049 95.9683 276.847 95.2807 276.622L94.8303 277.313L96.1338 278.254C95.6956 280.164 92.5616 282.923 91.4296 284.78C89.6447 287.709 88.7247 291.07 87.054 294.025C85.3298 297.074 83.0401 299.825 81.4097 302.928C80.4509 304.753 81.1322 304.888 81.2884 306.703C81.3863 307.84 80.1427 310.629 79.7756 311.943C78.378 316.945 76.8278 322.255 76.1531 327.405C73.21 349.872 78.1104 375.191 90.2266 394.482C93.2321 399.267 97.2537 403.27 101.041 407.426C106.343 413.246 111.204 419.064 117.469 423.94C124.628 429.513 144.859 437.735 153.812 439.753C162.446 441.7 172.46 438.759 180.553 441.676L180.336 442.269C178.782 446.402 175.599 449.437 174.086 453.323C174.652 453.967 174.866 454.154 175.572 454.553L175.474 455.407C175.238 455.545 175 455.681 174.766 455.822C174.017 456.271 173.346 456.743 172.653 457.27L173.675 458.447C173.377 460.584 172.078 462.754 171.168 464.705L169.346 464.221L168.606 464.783L168.735 465.645L171.07 466.125C171.482 467.661 170.445 469.13 169.676 470.459C165.139 478.296 168.368 477.316 166.609 483.435C165.185 488.391 160.447 496.536 160.659 501.399L161.881 502.443C161.88 504.767 159.55 507.863 158.382 509.954L158.799 509.488C158.919 511.703 159.126 513.573 158.242 515.664C157.624 517.124 156.951 518.415 156.924 520.032C157.483 520.691 158.042 521.239 158.702 521.797C158.642 523.404 157.277 524.138 156.491 525.519L157.392 526.483L157.175 526.976L155.3 526.022C154.356 526.935 154.602 527.049 154.512 528.297L155.131 529.188L157.33 529.566C159.089 533.606 153.569 538.596 155.494 542.612C154.881 543.255 154.524 543.485 153.762 543.895C153.271 546.694 157.265 548.427 153.664 550.706C153.27 550.955 152.625 551.241 152.186 551.445C152.774 551.911 153.114 552.041 153.809 552.279C154.26 556.645 152.455 561.036 152.415 565.406C152.388 568.395 154.2 572.539 153.855 575.225C153.779 575.812 152.676 576.683 152.498 577.306C151.643 580.297 154.898 588.961 153.141 592.313C152.542 593.456 150.831 595.103 151.775 596.193C152.619 597.169 153.942 598.342 153.847 599.731C153.711 601.719 153.034 603.756 152.799 605.765L154.071 604.548L153.345 603.886C154.365 604.508 154.682 604.38 155.001 605.607C155.841 608.837 154.201 612.196 154.696 615.334C154.959 617.005 156.404 617.579 156.202 619.502L154.919 620.786C155.218 623.129 158.741 634.521 159.836 637.76C160.443 639.559 161.624 641.926 161.855 643.74C161.993 644.823 161.419 645.97 161.03 646.951C161.619 648.312 163.207 650.201 163.118 651.545L160.711 652.868L160.658 653.687C161.519 653.78 162.489 653.57 163.014 654.337C165.665 658.216 165.565 664.239 167.423 668.568C168.281 670.569 170.089 671.855 170.55 673.979C169.84 675.858 168.449 674.638 169.421 677.15C170.323 679.48 173.301 680.909 173.738 683.368L172.362 684.506L172.636 685.322C174.217 685.625 174.707 685.425 175.662 686.778C175.463 687.671 175.38 687.932 174.924 688.658C176.411 692.293 178.374 695.779 180.433 699.116C181.443 700.753 182.9 702.365 183.638 704.125L182.904 704.095L183.623 703.951C183.485 703.961 183.347 703.985 183.208 703.981C182.322 703.956 181.581 703.55 180.781 703.205C181.052 704.474 182.743 705.939 183.638 706.947C186.504 709.35 189.821 714.619 190.346 718.473C190.39 718.795 190.398 719.121 190.424 719.445C191.838 721.479 194.274 724.134 193.859 726.766C193.725 727.622 193.401 728.065 192.859 728.692C188.813 730.613 183.978 731.073 179.678 732.327C177.034 733.098 174.422 734.384 171.888 735.467Q169.174 736.629 166.496 737.871Q163.818 739.113 161.177 740.433Q158.537 741.754 155.936 743.151Q153.336 744.548 150.777 746.021Q148.219 747.495 145.705 749.043Q143.191 750.591 140.724 752.212Q138.257 753.833 135.838 755.526Q133.42 757.219 131.052 758.983Q128.685 760.746 126.37 762.579Q124.056 764.411 121.796 766.311Q119.536 768.211 117.334 770.176Q115.131 772.142 112.987 774.171Q110.843 776.201 108.759 778.292Q106.676 780.384 104.655 782.536Q102.634 784.688 100.678 786.899Q98.7211 789.11 96.8304 791.377C95.0447 793.554 91.26 799.148 89.1714 800.443C88.4188 800.91 87.8557 800.782 87.0731 800.663L86.7227 801.314L87.4586 802.244C86.9192 803.858 84.8986 805.446 83.6247 806.607C79.3105 810.538 75.9023 816.957 72.5548 821.8C69.1588 826.712 65.3677 831.425 62.1529 836.449C60.0187 839.784 58.336 843.446 56.3056 846.856C51.7863 854.446 46.9377 861.855 42.7276 869.626C39.4255 875.72 36.7932 882.006 33.8045 888.242C28.7077 898.878 23.523 909.303 18.7823 920.126C18.3092 921.206 16.8971 925.542 16.2767 926.074C15.273 926.934 14.4741 926.168 14.528 927.918C14.5396 928.297 14.6889 929.074 14.7585 929.467C13.0536 933.317 11.0462 937.085 9.5046 940.995C6.56792 948.442 4.30945 955.673 0 962.496L0 0Z"/>
</svg>
