<?xml version="1.0" encoding="utf-8" ?>
<svg xmlns="http://www.w3.org/2000/svg" xmlns:xlink="http://www.w3.org/1999/xlink" width="1024" height="1024">
	<path fill="#FE675F" d="M0 0L1024 0L1024 1024L0 1024L0 0Z"/>
	<path fill="#040406" d="M690.177 936.443C690.671 935.328 691.128 934.199 691.647 933.094C694.153 927.754 701.247 920.24 706.846 918.212L708.326 918.931C709.026 918.099 708.802 918.065 708.735 917.036C713.74 913.497 723.539 913.399 729.395 913.82C730.133 914.619 730.498 915.048 731.582 915.363C731.825 915.434 732.077 915.471 732.324 915.525C733.005 916.479 732.926 915.984 732.845 916.722C731.735 926.787 732.968 937.413 732.748 947.571C732.719 948.927 733.109 951.445 732.767 952.662C732.572 953.355 732.108 953.698 731.601 954.129L731.466 955.426L731.907 955.733L732.773 955.56L732.896 956.706C732.306 957.417 731.737 958.105 731.211 958.866C732.391 958.875 731.868 958.9 732.78 958.825C732.643 959.796 732.57 960.274 731.789 960.979C731.575 961.172 731.319 961.314 731.084 961.481C731.107 961.62 731.131 961.76 731.153 961.899C731.434 963.763 731.629 966.933 730.598 968.58C730.209 969.201 729.996 969.413 729.287 969.483C728.566 969.554 728.011 969.484 727.305 969.364L727.278 971.213C725.617 971.626 725.137 970.23 723.682 969.901C721.8 969.476 718.38 970.886 716.268 970.891C706.857 970.916 693.988 969.587 684.985 970.558C684.317 969.282 683.659 968.123 683.659 966.639C683.659 966.44 683.667 966.241 683.67 966.042C683.74 960.595 683.638 946.839 686.737 942.702C687.697 940.394 688.548 938.388 690.177 936.443Z"/>
	<path fill="#100D0E" d="M690.177 936.443C690.371 936.637 690.563 936.834 690.761 937.025C691.601 937.842 691.244 937.54 692.213 938.186L692.387 939.504C691.155 941.002 688.429 941.736 686.737 942.702C687.697 940.394 688.548 938.388 690.177 936.443Z"/>
	<path fill="#9565E1" d="M331.563 584.319C331.582 582.892 331.466 582.217 332.438 581.058C333.124 580.24 334.9 579.602 335.91 579.737C336.786 579.854 337.452 580.329 338.241 580.626C341.646 581.909 346.267 578.709 350.845 580.533C351.278 580.706 351.725 580.84 352.165 580.991C352.31 580.901 352.452 580.805 352.601 580.721C353.318 580.319 354.155 579.931 354.976 579.818C358.976 579.268 365.78 580.763 370.056 581.028C373.68 581.252 376.981 580.455 380.546 580.35C385.445 580.206 390.209 581.316 395.058 580.451C396.328 580.224 397.186 580.584 398.385 580.935C400.04 581.42 400.868 581.066 402.407 580.474C403.836 580.895 404.742 581.278 405.434 582.681C407.694 587.266 406.343 594.936 405.84 599.857C405.734 600.89 405.813 602.323 406.204 603.3C406.397 603.437 406.596 603.567 406.785 603.71C410.662 606.643 412.394 613.341 415.144 617.425C416.78 619.854 419.196 622.004 421.335 623.997C431.518 633.482 444.51 639.45 458.642 638.276C472.822 637.098 483.476 630.112 492.483 619.407C496.026 615.197 499.128 609.58 502.489 605.807C502.574 620.716 501.489 635.906 502.32 650.761C499.809 649.88 496.759 649.955 494.113 649.89C488.123 649.741 482.243 650.514 476.283 650.473L443.192 650.092C438.924 650.054 433.116 649.282 429.064 650.211L429.28 651.206C423.937 650.006 419.225 649.461 413.73 649.893C411.603 650.06 409.398 650.636 407.267 650.521C403.114 650.297 399.01 649.603 394.808 649.47C389.272 649.295 383.78 649.766 378.249 649.808L331.758 649.92C321.415 649.969 310.62 650.991 300.347 649.925C296.421 649.489 292.452 650.083 288.512 650.075C284.737 650.068 280.759 649.303 277.022 649.728C275.708 649.878 274.637 650.356 273.498 651.012C270.467 649.301 256.873 651.168 251.888 650.35C245.945 649.374 242.902 646.827 239.572 642.111C239.255 639.426 238.532 636.737 238.414 634.039C238.317 631.803 238.705 630.296 240.289 628.643C240.967 628.53 241.331 628.537 241.954 628.851C252.807 634.32 273.911 637.648 285.689 635.197C304.84 631.213 320.759 615.332 327.714 597.385C329 594.068 329.516 587.222 331.172 584.845C331.296 584.666 331.432 584.495 331.563 584.319Z"/>
	<path fill="#040406" d="M331.563 584.319C331.582 582.892 331.466 582.217 332.438 581.058C333.124 580.24 334.9 579.602 335.91 579.737C336.786 579.854 337.452 580.329 338.241 580.626C341.646 581.909 346.267 578.709 350.845 580.533C351.278 580.706 351.725 580.84 352.165 580.991C352.31 580.901 352.452 580.805 352.601 580.721C353.318 580.319 354.155 579.931 354.976 579.818C358.976 579.268 365.78 580.763 370.056 581.028C373.68 581.252 376.981 580.455 380.546 580.35C385.445 580.206 390.209 581.316 395.058 580.451C396.328 580.224 397.186 580.584 398.385 580.935C400.04 581.42 400.868 581.066 402.407 580.474C403.836 580.895 404.742 581.278 405.434 582.681C407.694 587.266 406.343 594.936 405.84 599.857C405.734 600.89 405.813 602.323 406.204 603.3L406.474 604.101C401.962 609.518 404.66 610.49 403.851 615.343L402.578 615.418C402.024 616.016 401.627 616.555 401.282 617.298C400.861 618.207 400.513 619.176 399.888 619.971C393.837 627.661 388.303 634.561 377.846 635.774C369.338 636.761 358.387 634.131 351.718 628.683L351.779 627.212L351.16 626.741L349.631 627.454C347.082 625.906 343.914 622.317 342.371 619.775L342.8 618.128C336.572 612.476 333.823 605.023 332.864 596.735C332.608 594.526 332.66 592.279 332.189 590.101C331.782 588.217 331.838 586.243 331.563 584.319Z"/>
	<path fill="#9565E1" d="M648.106 579.956C661.99 591.417 671.315 599.34 690.467 597.421C700.044 596.461 711.922 591.344 718.473 584.243C722.149 580.258 724.252 579.348 729.686 579.176C737.612 578.925 747.882 581.149 755.211 578.477C755.26 578.459 755.309 578.444 755.358 578.427L762.622 580.645C763.091 582.028 763.57 583.347 764.175 584.677C765.664 587.949 764.188 592.89 764.318 596.546C764.426 598.067 764.315 598.175 763.524 599.496C764.172 601.492 765.24 613.855 764.453 615.403C764.064 616.167 764.189 615.913 763.551 616.76C764.907 624.508 766.633 631.73 764.64 639.534C765.39 640.992 765.645 641.209 765.415 642.888C764.383 644.607 762.807 645.392 761.139 646.412C761.065 646.668 760.995 646.924 760.917 647.178C760.417 648.816 760.074 649.969 758.488 650.783C756.137 651.989 750.103 652.058 747.642 651.234L746.615 651.596L746.469 651.479C744.644 651.471 742.876 651.406 741.059 651.227C737.9 650.917 736.314 651.34 733.393 652.634C730.91 652.799 728.337 652.462 725.855 652.282L724.578 652.098L719.537 651.509Q679.694 652.129 639.877 650.544C639.345 650.732 639.625 650.688 638.933 650.621C635.299 650.271 631.731 650.833 628.129 650.276C627.502 652.313 627.699 654.47 627.724 656.581C626.922 656.719 626.181 656.814 625.365 656.831C622.998 656.881 620.345 657.432 618.029 657.014C617.289 656.881 616.786 656.801 616.037 656.794L615.07 656.792C611.774 656.722 608.518 656.217 605.23 656.168C599.976 656.09 594.72 656.703 589.472 656.904C585.817 657.044 582.159 656.756 578.506 656.854C573.496 656.988 568.497 658.219 563.506 657.381C559.784 656.865 555.752 657.409 552.01 657.56C548.191 657.716 526.673 658.471 524.451 656.418L524.582 656.113C524.216 653.943 524.186 651.675 524.048 649.479C525.015 641.66 524.107 627.671 524.074 619.253C524.043 611.037 524.883 591.073 523.535 584.084C523.271 582.715 523.584 582.651 524.204 581.454C524.521 582.046 524.548 582.146 525.004 582.74C526.477 584.661 528.531 585.224 530.846 585.257C540.172 585.388 548.908 582.242 558.029 580.963C568.903 579.44 582.424 580.443 593.387 581.237C598.439 581.691 603.612 581.67 608.675 581.383C620.707 580.13 635.981 579.681 648.106 579.956Z"/>
	<path fill="#100D0E" d="M755.583 597.766C757.364 596.768 758.94 595.713 761.036 595.61C761.866 595.989 762.598 596.268 763.497 596.417L764.318 596.546C764.426 598.067 764.315 598.175 763.524 599.496C759.977 600.017 758.614 599.516 755.583 597.766Z"/>
	<path fill="#040406" d="M746.469 651.479C746.701 650.913 746.609 651.277 746.517 650.354C741.953 647.656 737.64 642.956 734.823 638.46C732.191 634.259 730.526 628.431 731.845 623.51C732.232 622.067 733.156 620.878 733.61 619.483C734.064 618.087 733.4 616.504 733.889 615.071C736.238 608.2 749.114 600.45 755.583 597.766C758.614 599.516 759.977 600.017 763.524 599.496C764.172 601.492 765.24 613.855 764.453 615.403C764.064 616.167 764.189 615.913 763.551 616.76C764.907 624.508 766.633 631.73 764.64 639.534C765.39 640.992 765.645 641.209 765.415 642.888C764.383 644.607 762.807 645.392 761.139 646.412C761.065 646.668 760.995 646.924 760.917 647.178C760.417 648.816 760.074 649.969 758.488 650.783C756.137 651.989 750.103 652.058 747.642 651.234L746.615 651.596L746.469 651.479Z"/>
	<path fill="#E7BEBC" d="M639.877 650.544C644.477 640.388 658.377 628.487 668.656 624.632C679.03 620.742 689.93 622.052 699.76 626.724C711.281 632.199 715.135 640.167 719.537 651.509Q679.694 652.129 639.877 650.544Z"/>
	<path fill="#100D0E" d="M524.204 581.454C524.521 582.046 524.548 582.146 525.004 582.74C526.477 584.661 528.531 585.224 530.846 585.257C540.172 585.388 548.908 582.242 558.029 580.963C568.903 579.44 582.424 580.443 593.387 581.237C598.439 581.691 603.612 581.67 608.675 581.383C609.5 581.781 610.307 582.201 611.126 582.606C611.883 582.981 611.573 582.88 612.288 582.912C617.572 583.143 626.559 590.117 630.036 593.955C634.073 598.411 636.915 604.887 636.826 611.017C636.811 612.089 636.486 613.108 636.242 614.139C635.997 615.177 635.791 616.226 635.557 617.266C635.767 617.49 635.988 617.704 636.188 617.937C636.808 618.659 636.605 618.814 636.472 619.718C634.872 630.644 626.108 639.455 617.657 645.689C616.67 646.417 615.446 646.65 614.285 646.96C612.941 647.318 611.773 647.903 610.54 648.531L610.46 649.156C611.372 649.565 611.914 649.586 612.907 649.528C613.996 649.506 614.874 649.583 615.942 649.791C619.462 650.475 624.578 650.838 628.129 650.276C627.502 652.313 627.699 654.47 627.724 656.581C626.922 656.719 626.181 656.814 625.365 656.831C622.998 656.881 620.345 657.432 618.029 657.014C617.289 656.881 616.786 656.801 616.037 656.794L615.07 656.792C611.774 656.722 608.518 656.217 605.23 656.168C599.976 656.09 594.72 656.703 589.472 656.904C585.817 657.044 582.159 656.756 578.506 656.854C573.496 656.988 568.497 658.219 563.506 657.381C559.784 656.865 555.752 657.409 552.01 657.56C548.191 657.716 526.673 658.471 524.451 656.418L524.582 656.113C524.216 653.943 524.186 651.675 524.048 649.479C525.015 641.66 524.107 627.671 524.074 619.253C524.043 611.037 524.883 591.073 523.535 584.084C523.271 582.715 523.584 582.651 524.204 581.454Z"/>
	<path fill="#9565E1" d="M524.204 581.454C524.521 582.046 524.548 582.146 525.004 582.74C526.477 584.661 528.531 585.224 530.846 585.257C540.172 585.388 548.908 582.242 558.029 580.963C568.903 579.44 582.424 580.443 593.387 581.237L592.694 583.3C591.215 582.624 592.29 581.588 590.219 582.446C586.427 584.018 581.263 588.861 579.124 592.33L579.608 593.887L579.36 594.249C577.864 596.471 576.01 599.349 575.294 601.957C574.189 605.985 573.035 621.288 573.925 625.255Q574.16 626.328 574.514 627.368C575.12 631.532 576.618 634.592 579.048 638.015C579.836 638.373 580.574 638.687 581.397 638.961C581.954 639.74 582.244 640.166 582.458 641.105C582.829 642.727 584.014 643.914 585.416 644.742C587.804 646.151 590.41 647.079 592.579 648.84L592.367 649.382C589.085 650.75 576.17 650.055 571.258 650.49C568.187 650.762 566.133 649.201 563.118 649.196C556.954 649.185 550.632 648.98 544.486 649.304C540.909 649.493 530.88 650.953 528.309 650.566C526.529 650.298 526.717 649.428 524.048 649.479C525.015 641.66 524.107 627.671 524.074 619.253C524.043 611.037 524.883 591.073 523.535 584.084C523.271 582.715 523.584 582.651 524.204 581.454Z"/>
	<path fill="#9565E1" d="M628.129 650.276C631.731 650.833 635.299 650.271 638.933 650.621C639.625 650.688 639.345 650.732 639.877 650.544Q679.694 652.129 719.537 651.509L724.578 652.098L725.855 652.282C728.337 652.462 730.91 652.799 733.393 652.634C733.214 653.737 733.119 654.714 733.099 655.834C733.063 657.954 732.86 660.101 732.69 662.216L733.467 662.508C733.544 663.366 733.415 663.531 733.27 664.363C732.923 666.356 733.67 669.955 734.038 671.998C734.368 673.832 733.878 675.203 733.248 676.909L732.635 677.337C732.987 677.792 733.452 678.178 733.692 678.701C735.246 682.097 732.739 727.677 732.668 734.15C732.613 739.201 733.053 744.256 733.523 749.281C733.133 750.261 733.07 750.421 732.215 751.121C722.91 750.629 712.669 750.843 703.434 751.928Q692.955 752.905 682.434 752.667C669.943 753.312 657.355 753.39 644.846 753.555C639.345 753.628 633.082 754.276 627.66 753.563C609.394 755.376 590.69 755.19 572.346 755.87C565.536 756.122 548.547 757.755 542.578 756.571C542.315 756.519 542.051 756.473 541.789 756.418C541.631 756.385 541.476 756.344 541.319 756.306C535.963 757.052 530.226 757.107 524.831 757.025C523.786 743.188 524.822 728.847 524.627 714.924C524.58 711.535 525.179 707.767 524.507 704.473C524.258 703.257 524.237 702.756 524.63 701.571C524.904 692.85 523.004 661.439 524.451 656.418C526.673 658.471 548.191 657.716 552.01 657.56C555.752 657.409 559.784 656.865 563.506 657.381C568.497 658.219 573.496 656.988 578.506 656.854C582.159 656.756 585.817 657.044 589.472 656.904C594.72 656.703 599.976 656.09 605.23 656.168C608.518 656.217 611.774 656.722 615.07 656.792L616.037 656.794C616.786 656.801 617.289 656.881 618.029 657.014C620.345 657.432 622.998 656.881 625.365 656.831C626.181 656.814 626.922 656.719 627.724 656.581C627.699 654.47 627.502 652.313 628.129 650.276Z"/>
	<path fill="#E7BEBC" d="M682.434 752.667C682.042 750.854 681.573 748.987 681.393 747.139C681.118 744.313 682.271 741.162 684.178 739.077Q684.55 738.674 684.96 738.311Q685.37 737.948 685.814 737.627Q686.258 737.307 686.733 737.032Q687.207 736.758 687.706 736.532Q688.205 736.307 688.724 736.132Q689.244 735.957 689.778 735.835Q690.312 735.714 690.856 735.646Q691.399 735.578 691.947 735.565Q692.478 735.549 693.007 735.587Q693.537 735.625 694.059 735.716Q694.582 735.807 695.093 735.951Q695.604 736.095 696.098 736.29Q696.592 736.485 697.063 736.729Q697.534 736.973 697.979 737.264Q698.423 737.554 698.835 737.889Q699.248 738.223 699.624 738.597C703.327 742.315 703.373 747.043 703.434 751.928Q692.955 752.905 682.434 752.667Z"/>
	<path fill="#E7BEBC" d="M524.63 701.571C524.904 692.85 523.004 661.439 524.451 656.418C526.673 658.471 548.191 657.716 552.01 657.56C555.752 657.409 559.784 656.865 563.506 657.381C563.772 669.692 559.405 680.408 550.949 689.352C544.35 696.331 534.253 701.137 524.63 701.571Z"/>
	<path fill="#100D0E" d="M541.319 756.306C541.607 755.62 541.969 754.95 542.298 754.282L543.09 754.237L543.401 753.771C543.236 752.836 543.08 751.902 542.984 750.957C542.754 748.701 543.54 746.743 544.225 744.627C546.758 736.797 550.019 731.6 555.218 725.22C564.27 714.112 574.13 705.48 589.006 704.095C599.227 703.143 609.241 704.391 617.288 711.267C622.391 715.628 628.706 726.691 629.186 733.399C629.646 739.833 627.084 746.617 627.607 753.015C627.622 753.198 627.643 753.38 627.66 753.563C609.394 755.376 590.69 755.19 572.346 755.87C565.536 756.122 548.547 757.755 542.578 756.571C542.315 756.519 542.051 756.473 541.789 756.418C541.631 756.385 541.476 756.344 541.319 756.306Z"/>
	<path fill="#040406" d="M628.129 650.276C631.731 650.833 635.299 650.271 638.933 650.621C639.625 650.688 639.345 650.732 639.877 650.544Q679.694 652.129 719.537 651.509L724.578 652.098L725.855 652.282C728.337 652.462 730.91 652.799 733.393 652.634C733.214 653.737 733.119 654.714 733.099 655.834C733.063 657.954 732.86 660.101 732.69 662.216L733.467 662.508C733.544 663.366 733.415 663.531 733.27 664.363C732.923 666.356 733.67 669.955 734.038 671.998C734.368 673.832 733.878 675.203 733.248 676.909L732.635 677.337C732.484 679.869 732.281 681.334 730.975 683.57C727.517 689.489 722.998 692.995 718.332 697.78C716.636 699.52 714.895 701.867 712.807 703.12C710.098 704.746 706.56 705.715 703.45 706.255C699.684 706.909 695.608 706.093 691.991 707.067C690.808 707.386 689.972 707.495 688.741 707.489C687.938 706.899 687.491 706.601 686.527 706.28L685.766 707.669L684.793 707.863C684.238 707.191 683.744 706.664 683.042 706.146C676.758 706.788 670.997 704.43 665.604 701.267C653.487 694.158 643.092 683.267 640.936 668.88C640.269 664.436 640.905 659.397 639.807 655.144C637.712 655.201 636.392 656.692 634.543 656.999C632.842 657.282 630.202 656.178 627.724 656.581C627.699 654.47 627.502 652.313 628.129 650.276Z"/>
	<path fill="#100D0E" d="M724.578 652.098L725.855 652.282C728.337 652.462 730.91 652.799 733.393 652.634C733.214 653.737 733.119 654.714 733.099 655.834C733.063 657.954 732.86 660.101 732.69 662.216C731.867 663.204 731.487 663.719 730.213 664.03C728.293 663.401 725.867 661.745 724.424 660.305C724.85 659.7 725.117 659.345 725.219 658.588C725.241 658.42 725.242 658.25 725.253 658.082C724.47 658.174 724.046 658.044 723.293 657.85C722.512 656.958 722.334 656.773 722.469 655.497C722.624 654.022 723.453 652.975 724.578 652.098Z"/>
	<path fill="#9565E1" d="M300.347 649.925C310.62 650.991 321.415 649.969 331.758 649.92L378.249 649.808C383.78 649.766 389.272 649.295 394.808 649.47C399.01 649.603 403.114 650.297 407.267 650.521C409.398 650.636 411.603 650.06 413.73 649.893C419.225 649.461 423.937 650.006 429.28 651.206L429.064 650.211C433.116 649.282 438.924 650.054 443.192 650.092L476.283 650.473C482.243 650.514 488.123 649.741 494.113 649.89C496.759 649.955 499.809 649.88 502.32 650.761C502.449 652.742 502.047 654.708 502.358 656.659C502.575 660.556 502.111 664.661 502.098 668.603C502.066 678.053 502.835 688.494 501.572 697.795C502.159 710.137 501.976 722.662 501.855 735.018C501.791 741.654 502.074 748.588 501.442 755.171C499.139 756.967 488.017 755.329 484.745 755.073C476.051 755.274 467.348 754.906 458.673 755.119C445.884 755.432 433.174 756.493 420.42 757.233C415.954 757.493 411.044 756.66 406.693 757.578C394.08 757.077 379.583 758.127 366.985 759.243L364.539 759.613C356.988 760.81 348.431 759.797 340.75 759.854L284.864 760.691C282.889 760.71 277.263 759.919 275.713 760.329C275.37 760.42 275.149 760.759 274.867 760.974C274.884 760.916 274.9 760.857 274.92 760.799C275.934 757.755 276.715 720.056 276.272 714.946C275.063 701.315 276.454 683.525 276.354 669.373C276.329 665.847 276.871 661.319 276.053 657.93L275.489 657.551C275.276 654.824 274.94 653.348 273.498 651.012C274.637 650.356 275.708 649.878 277.022 649.728C280.759 649.303 284.737 650.068 288.512 650.075C292.452 650.083 296.421 649.489 300.347 649.925Z"/>
	<path fill="#E7BEBC" d="M480.669 657.972C487.659 656.206 495.133 658.359 502.358 656.659C502.575 660.556 502.111 664.661 502.098 668.603C502.066 678.053 502.835 688.494 501.572 697.795C497.978 694.111 493.543 691.686 490.238 687.557C484.379 680.237 479.574 667.419 480.669 657.972Z"/>
	<path fill="#E7BEBC" d="M406.693 757.578C407.321 751.74 409.354 746.555 412.688 741.741C419.975 731.221 430.309 723.596 442.984 721.372C453.189 719.581 462.402 720.907 470.932 727.056C480.716 734.109 482.904 743.815 484.745 755.073C476.051 755.274 467.348 754.906 458.673 755.119C445.884 755.432 433.174 756.493 420.42 757.233C415.954 757.493 411.044 756.66 406.693 757.578Z"/>
	<path fill="#E7BEBC" d="M276.272 714.946C290.496 705.412 305.049 697.875 322.665 701.32C335.1 703.752 351.077 712.567 358.131 723.317C364.973 733.742 367.098 746.959 366.985 759.243L364.539 759.613C356.988 760.81 348.431 759.797 340.75 759.854L284.864 760.691C282.889 760.71 277.263 759.919 275.713 760.329C275.37 760.42 275.149 760.759 274.867 760.974C274.884 760.916 274.9 760.857 274.92 760.799C275.934 757.755 276.715 720.056 276.272 714.946Z"/>
	<path fill="#040406" d="M300.347 649.925C310.62 650.991 321.415 649.969 331.758 649.92L378.249 649.808C383.78 649.766 389.272 649.295 394.808 649.47C399.01 649.603 403.114 650.297 407.267 650.521C409.398 650.636 411.603 650.06 413.73 649.893C419.225 649.461 423.937 650.006 429.28 651.206L429.064 650.211C433.116 649.282 438.924 650.054 443.192 650.092L476.283 650.473C482.243 650.514 488.123 649.741 494.113 649.89C496.759 649.955 499.809 649.88 502.32 650.761C502.449 652.742 502.047 654.708 502.358 656.659C495.133 658.359 487.659 656.206 480.669 657.972C478.521 657.291 476.07 657.79 473.855 657.992C472.504 664.497 471.486 673.248 467.469 678.673L465.545 679.249C465.366 680.315 465.461 680.536 465.801 681.521C465.199 683.208 464.273 685.776 462.633 686.696C461.94 687.085 460.986 687.31 460.223 687.539C459.818 688.563 459.597 689.497 459.408 690.582C449.621 700.082 439.742 706.451 426.401 709.611C423.704 710.25 420.722 711.147 417.946 711.131C414.898 711.112 411.818 710.319 408.767 710.12C405.687 709.919 401.791 710.291 398.859 709.46C393.302 707.884 386.189 701.136 382.455 696.863C382.054 696.405 381.732 695.944 381.389 695.442L381.719 693.937C379.898 691.499 375.612 688.137 375.954 684.948C376.096 683.623 376.834 682.523 376.233 681.222C375.214 681.445 375.706 681.262 374.762 681.785L374.173 681.034C374.213 680.85 374.256 680.667 374.293 680.482C374.345 680.227 374.387 679.969 374.439 679.714C374.49 679.469 374.571 679.229 374.601 678.98C374.963 675.965 372.963 672.9 373.213 669.897C373.468 666.836 375.953 663.292 375.232 660.353L375.56 660.162C370.955 659.081 365.473 660.27 360.734 660.223C344.803 660.066 328.697 659.747 312.787 658.936L312.14 659.94L313.14 659.471L313.684 660.558C312.867 660.418 312.264 660.261 311.523 659.886C308.614 658.412 306.245 659.005 303.129 659.344C302.435 659.42 302.71 659.44 302.091 659.25C301.863 659.3 301.635 659.354 301.407 659.402C300.481 659.593 300.858 659.559 299.994 659.522C299.605 659.195 298.978 658.567 298.535 658.34C297.731 658.913 297.247 659.142 296.27 659.298C295.375 658.912 294.651 658.484 293.652 658.572C292.888 658.64 293.102 659.753 292.437 660.445C288.126 657.919 282.072 660.334 277.368 659.196L277.187 657.883L276.053 657.93L275.489 657.551C275.276 654.824 274.94 653.348 273.498 651.012C274.637 650.356 275.708 649.878 277.022 649.728C280.759 649.303 284.737 650.068 288.512 650.075C292.452 650.083 296.421 649.489 300.347 649.925Z"/>
	<path fill="#FDFAFA" d="M502.489 605.807C503.389 603.203 502.941 586.936 502.338 583.568C502.336 583.556 502.091 582.636 501.95 582.532C499.12 580.448 483.221 579.22 477.402 575.815C470.624 571.848 463.42 568.659 456.437 565.074C446.961 560.21 436.968 555.249 428.065 549.412C422.933 546.047 418.162 542.033 413.283 538.313C410.369 536.091 405.442 533.381 404.328 529.916C398.444 525.99 391.378 518.493 388.727 511.938C387.291 508.387 387.239 502.899 389.066 499.456C390.169 497.378 392.359 496.222 394.579 495.69C399.065 494.614 405.295 494.33 409.799 495.318C430.465 499.846 453.524 521.441 469.08 535.307C472.912 538.722 477.049 541.753 480.925 545.109C483.877 547.665 487.434 553.028 490.448 554.646C490.692 554.776 490.942 554.894 491.189 555.018C491.855 555.402 492.478 555.924 493.1 556.378C494.383 560.436 498.743 566.054 502.181 568.486L503.282 568.17C505.311 566.024 508.231 563.875 508.585 560.941L509.466 560.274C510.451 560.297 511.38 560.316 512.357 560.177C516.635 556.7 522.939 552.529 526.075 548.071C535.883 543.651 544.537 537.358 553.78 531.93C559.42 528.618 565.47 525.925 571.327 523.019C586.499 515.492 605.245 506.029 622.413 512.637C624.774 513.546 626.814 514.905 628.876 516.349C630.613 519.758 631.11 522.016 629.899 525.734C625.997 537.709 598.681 552.043 587.29 557.452C578.954 561.41 570.494 565.379 561.72 568.272C554.373 570.695 546.669 572.369 539.401 574.888C535.925 576.092 533.049 578.229 529.326 578.764C528.191 578.927 527.111 579.323 525.997 579.595C525.347 579.753 524.868 579.943 524.279 580.248L524.204 581.454C523.584 582.651 523.271 582.715 523.535 584.084C524.883 591.073 524.043 611.037 524.074 619.253C524.107 627.671 525.015 641.66 524.048 649.479C524.186 651.675 524.216 653.943 524.582 656.113L524.451 656.418C523.004 661.439 524.904 692.85 524.63 701.571C524.237 702.756 524.258 703.257 524.507 704.473C525.179 707.767 524.58 711.535 524.627 714.924C524.822 728.847 523.786 743.188 524.831 757.025C530.226 757.107 535.963 757.052 541.319 756.306C541.476 756.344 541.631 756.385 541.789 756.418C542.051 756.473 542.315 756.519 542.578 756.571C548.547 757.755 565.536 756.122 572.346 755.87C590.69 755.19 609.394 755.376 627.66 753.563C633.082 754.276 639.345 753.628 644.846 753.555C657.355 753.39 669.943 753.312 682.434 752.667Q692.955 752.905 703.434 751.928C712.669 750.843 722.91 750.629 732.215 751.121C733.683 754.715 733.621 756.913 733.303 760.694L732.978 758.943C733.02 764.025 734.219 769.893 733.215 774.817C708.603 775.887 683.907 775.853 659.279 776.766L629.17 777.921C623.665 778.125 617.436 778.812 611.987 778.13C604.268 777.904 596.346 778.733 588.603 778.893C582.309 779.023 566.829 777.799 561.781 779.238C555.034 778.906 548.27 779.614 541.503 779.381C540.547 779.281 539.683 779.3 538.727 779.346C534.452 779.555 529.065 778.667 525.086 780.337C524.375 784.481 525.104 789.418 525.269 793.672L525.878 813.85C526.149 825.586 525.255 837.354 525.713 849.1C525.247 853.588 526.01 857.903 525.844 862.331C525.792 863.732 525.433 865.071 525.439 866.472L526.887 867.279C526.196 872.132 525.36 877.305 525.693 882.206L526.879 883.393C526.405 885.006 525.793 886.757 525.571 888.423C525.148 891.609 525.68 895.456 525.588 898.751C525.34 907.618 524.94 916.486 524.568 925.348L523.344 954.988C523.051 960.745 522.454 966.444 522.385 972.217C515.039 972.781 507.514 972.045 500.138 972.504C498.922 972.348 497.993 972.18 496.846 971.708C497.162 963.185 499.008 943.275 497.778 935.999C499.637 931.979 498.437 873.828 500.038 862.498C500.212 861.263 500.257 860.606 499.903 859.387C498.901 859.258 497.883 859.176 496.936 858.796C496.677 858.691 496.432 858.552 496.178 858.436C495.672 858.205 495.18 858.01 494.709 857.705C492.602 856.342 490.725 853.821 489.198 851.84C482.719 843.432 481.054 838.056 478.161 828.064C477.555 825.969 476.443 824.168 475.929 821.983C476.461 820.906 476.505 820.998 477.432 820.385C476.412 816.052 475.458 811.61 475.633 807.132C476.467 806.283 477.027 805.81 477.335 804.623C476.351 804.962 476.811 804.968 475.96 804.744C476.765 803.852 476.404 804.338 477.036 803.28C476.838 803.011 476.586 802.775 476.443 802.473C475.28 800.008 480.441 790.064 481.625 787.359C482.297 785.823 482.486 784.663 481.889 783.142C479.273 783.503 476.736 783.297 474.112 783.395C461.896 783.852 449.792 782.991 437.592 783.202Q425.052 783.542 412.521 784.115C409.438 784.246 406.01 784.799 402.976 784.58C402.081 784.515 401.741 784.655 400.95 785.042C393.95 785.145 381.806 784.406 375.482 786.18L373.635 785.228C372.452 785.378 371.097 785.448 369.948 785.725C368.423 786.093 367.067 787.499 365.779 788.355C365.18 788.754 365.279 788.622 364.368 788.804C363.965 787.288 363.913 786.066 362.764 784.969C361.994 785.029 361.308 785.115 360.554 785.284C359.525 785.513 358.526 785.574 357.478 785.639C357.684 786.435 357.901 786.74 358.371 787.392L358.18 787.863L356.258 787.837C356.084 786.922 356.313 786.737 356.659 785.902L355.822 785.417L355.026 785.823L354.662 787.492L354.007 787.227L353.577 785.746L352.426 785.371L351.961 785.894C352.177 786.876 352.459 787.354 352.124 788.324L351.733 787.894C350.707 786.782 349.612 785.385 347.96 785.379C347.806 785.378 347.653 785.411 347.499 785.427C346.834 786.3 345.58 788.477 344.621 788.678C344.549 787.546 344.932 786.689 345.3 785.637L345.072 785.449C343.074 785.992 342.291 786.658 341.031 788.283L340.129 788.298C340.297 787.259 340.652 786.731 341.176 785.835L340.848 785.485C339.834 785.988 339.039 786.455 338.183 787.197C338.489 785.978 338.283 786.539 338.77 785.503L338.202 785.082C336.441 785.736 335.778 787.304 334.19 788.207C334.131 786.87 335.18 786.48 334.724 785.428C333.513 785.674 332.98 786.206 332.03 786.944L331.108 786.918L331.539 785.522C330.707 784.945 330.408 785.184 329.432 785.268L327.174 787.438L326.077 787.303C325.973 786.182 326.208 786.27 326.881 785.437C325.498 786.065 324.184 786.703 322.69 787.028C322.736 785.913 322.595 786.395 323.004 785.555L320.025 786.947C318.418 786.179 319.354 785.003 317.435 785.284L316.726 786.933C313.55 787.174 313.527 783.027 309.334 787.512C308.561 786.356 308.12 785.698 306.89 784.973C305.646 785.231 305.354 785.891 304.524 786.801L303.885 786.773L304.283 785.153C303.72 784.93 304.005 785.069 303.328 784.638L302.779 784.283C302.032 784.922 301.677 785.281 301.263 786.206C301.156 786.446 301.07 786.696 300.973 786.941L300.362 787.115Q299.216 786.005 298.082 784.883C296.899 784.557 296.221 784.523 295.05 784.82C294.193 785.037 294.098 784.892 293.647 785.671C294.146 785.949 294.645 786.224 295.138 786.513L292.617 786.881C292.789 785.871 292.784 786.398 292.584 785.299C290.49 784.645 288.005 785.151 285.89 785.571C285.594 785.402 285.075 785.315 284.741 785.222L285.224 787.37C284.494 787.058 284.305 786.889 283.804 786.239C283.641 786.028 283.513 785.785 283.323 785.597C282.338 784.624 280.814 785.09 279.516 785.154Q277.001 785.124 274.49 784.975C274.836 776.969 274.342 768.976 274.867 760.974C275.149 760.759 275.37 760.42 275.713 760.329C277.263 759.919 282.889 760.71 284.864 760.691L340.75 759.854C348.431 759.797 356.988 760.81 364.539 759.613L366.985 759.243C379.583 758.127 394.08 757.077 406.693 757.578C411.044 756.66 415.954 757.493 420.42 757.233C433.174 756.493 445.884 755.432 458.673 755.119C467.348 754.906 476.051 755.274 484.745 755.073C488.017 755.329 499.139 756.967 501.442 755.171C502.074 748.588 501.791 741.654 501.855 735.018C501.976 722.662 502.159 710.137 501.572 697.795C502.835 688.494 502.066 678.053 502.098 668.603C502.111 664.661 502.575 660.556 502.358 656.659C502.047 654.708 502.449 652.742 502.32 650.761C501.489 635.906 502.574 620.716 502.489 605.807Z"/>
	<path fill="#FE675F" d="M401.911 505.749C405.806 506.891 409.373 507.485 413.198 509.094C417.619 510.954 421.581 513.643 425.659 516.131C429.607 518.539 433.748 520.823 437.537 523.461C450.787 532.686 462.695 543.96 474.965 554.414C479.515 558.29 484.422 564.422 489.548 567.267C489.765 567.388 489.988 567.501 490.208 567.618L490.242 568.746C463.082 556.944 443.327 546.966 420.034 528.317C413.643 523.2 406.499 517.243 401.423 510.77C400.569 509.681 399.619 508.857 399.776 507.452L401.911 505.749Z"/>
	<path fill="#FE675F" d="M602.865 522.764C607.517 522.684 612.944 522.402 617.434 523.624L617.301 524.339C611.332 528.492 605.857 533.371 599.752 537.304C579.718 550.212 552.982 560.621 530.11 567.32L529.686 567.335C528.787 568.043 528.477 568.345 527.3 568.444C524.83 568.65 522.582 569.79 520.178 570.332C518.934 570.613 518.074 570.849 516.975 570.121C517.029 569.988 517.068 569.848 517.138 569.723C519.197 566.035 533.262 558.938 537.323 556.333C539.868 554.7 542.161 552.698 544.688 551.032C553.83 545.006 563.849 538.884 573.701 534.104C583.13 529.53 592.32 526.262 602.201 522.988L602.865 522.764Z"/>
	<path fill="#100D0E" d="M481.889 783.142C486.138 780.944 496.171 781.359 501.062 781.666C502.557 783.978 499.605 847.62 500.263 858.03C500.313 858.82 500.314 858.499 499.903 859.387C498.901 859.258 497.883 859.176 496.936 858.796C496.677 858.691 496.432 858.552 496.178 858.436C495.672 858.205 495.18 858.01 494.709 857.705C492.602 856.342 490.725 853.821 489.198 851.84C482.719 843.432 481.054 838.056 478.161 828.064C477.555 825.969 476.443 824.168 475.929 821.983C476.461 820.906 476.505 820.998 477.432 820.385C476.412 816.052 475.458 811.61 475.633 807.132C476.467 806.283 477.027 805.81 477.335 804.623C476.351 804.962 476.811 804.968 475.96 804.744C476.765 803.852 476.404 804.338 477.036 803.28C476.838 803.011 476.586 802.775 476.443 802.473C475.28 800.008 480.441 790.064 481.625 787.359C482.297 785.823 482.486 784.663 481.889 783.142Z"/>
	<path fill="#9565E1" d="M611.987 778.13C617.436 778.812 623.665 778.125 629.17 777.921L659.279 776.766C683.907 775.853 708.603 775.887 733.215 774.817C731.856 783.188 733.045 799.32 732.961 808.879L732.146 886.502C732.011 896.154 732.771 905.868 732.324 915.525C732.077 915.471 731.825 915.434 731.582 915.363C730.498 915.048 730.133 914.619 729.395 913.82C723.539 913.399 713.74 913.497 708.735 917.036C708.802 918.065 709.026 918.099 708.326 918.931L706.846 918.212C701.247 920.24 694.153 927.754 691.647 933.094C691.128 934.199 690.671 935.328 690.177 936.443C688.548 938.388 687.697 940.394 686.737 942.702C683.638 946.839 683.74 960.595 683.67 966.042C683.667 966.241 683.659 966.44 683.659 966.639C683.659 968.123 684.317 969.282 684.985 970.558C678.116 970.484 671.256 970.395 664.389 970.613C662.072 970.393 661.772 969.136 659.799 968.604C659.396 969.533 659.124 970.094 658.472 970.89L657.747 970.169C653.041 971.384 652.508 970.158 648.3 970.544C647.276 970.638 646.622 970.697 645.61 970.472C644.989 970.656 644.803 970.821 644.168 970.634C639.213 969.173 631.802 972.811 628.122 971.21C620.977 969.954 611.393 970.974 604.006 971.004C582.357 971.09 560.841 971.484 539.21 972.183C537.331 972.114 535.511 971.585 533.621 971.553C529.917 971.49 526.089 971.968 522.385 972.217C522.454 966.444 523.051 960.745 523.344 954.988L524.568 925.348C524.94 916.486 525.34 907.618 525.588 898.751C525.68 895.456 525.148 891.609 525.571 888.423C525.793 886.757 526.405 885.006 526.879 883.393L525.693 882.206C525.36 877.305 526.196 872.132 526.887 867.279L525.439 866.472C525.433 865.071 525.792 863.732 525.844 862.331C526.01 857.903 525.247 853.588 525.713 849.1C525.255 837.354 526.149 825.586 525.878 813.85L525.269 793.672C525.104 789.418 524.375 784.481 525.086 780.337C529.065 778.667 534.452 779.555 538.727 779.346C539.683 779.3 540.547 779.281 541.503 779.381C548.27 779.614 555.034 778.906 561.781 779.238C566.829 777.799 582.309 779.023 588.603 778.893C596.346 778.733 604.268 777.904 611.987 778.13Z"/>
	<path fill="#040406" d="M645.61 970.472C645.244 968.925 645.369 968.286 645.771 966.776C645.845 966.495 645.88 966.205 645.967 965.928C646.738 963.473 649.193 961.56 651.488 960.606Q652.01 960.383 652.553 960.213Q653.095 960.042 653.651 959.927Q654.208 959.812 654.773 959.752Q655.338 959.693 655.906 959.69Q656.474 959.687 657.04 959.741Q657.606 959.795 658.163 959.905Q658.721 960.014 659.265 960.179Q659.808 960.344 660.333 960.562C662.216 961.364 663.457 962.547 664.739 964.097C665.237 964.7 665.841 965.103 666.365 965.656C666.614 965.918 666.801 966.242 666.992 966.546C666.25 968.347 665.037 968.617 664.389 970.613C662.072 970.393 661.772 969.136 659.799 968.604C659.396 969.533 659.124 970.094 658.472 970.89L657.747 970.169C653.041 971.384 652.508 970.158 648.3 970.544C647.276 970.638 646.622 970.697 645.61 970.472Z"/>
	<path fill="#100D0E" d="M573.262 827.552C574 827.446 574.744 827.319 575.494 827.365C577.71 827.502 580.077 828.269 581.408 830.142C582.578 831.787 582.763 833.932 582.288 835.853C581.323 839.762 579.086 841.416 575.795 843.384Q574.136 843.419 572.477 843.428C571.33 843.444 570.123 843.535 569.008 843.209C566.101 842.361 564.999 839.567 563.666 837.132C566.453 832.989 568.881 830.09 573.262 827.552Z"/>
	<path fill="#040406" d="M561.781 779.238C566.829 777.799 582.309 779.023 588.603 778.893C596.346 778.733 604.268 777.904 611.987 778.13C611.479 779.762 610.099 780.501 608.671 781.28C604.829 783.377 601.054 782.586 597.335 784.921C592.865 787.728 581.546 787.113 576.539 785.821C571.24 784.455 566.415 782.106 561.781 779.238Z"/>
	<path fill="#100D0E" d="M525.713 849.1C525.255 837.354 526.149 825.586 525.878 813.85L525.269 793.672C525.104 789.418 524.375 784.481 525.086 780.337C529.065 778.667 534.452 779.555 538.727 779.346C539.683 779.3 540.547 779.281 541.503 779.381C549.51 784.394 554.229 791.599 556.419 800.764C558.354 808.865 555.982 811.961 556.572 818.242L556.168 818.792L554.686 818.697C554.839 819.535 555.046 820.223 555.301 821.035C556.507 824.883 551.96 832.323 550.032 835.672C544.485 845.31 536.704 854.498 525.914 858.151C525.937 855.456 526.403 851.644 525.713 849.1Z"/>
	<path fill="#E7BEBC" d="M539.21 972.183C541.888 964.285 543.573 955.075 548.767 948.362C550.759 945.787 553.246 943.56 555.632 941.361C564.584 933.109 571.866 929.874 584.004 928.625C593.397 927.659 604.635 929.782 611.995 936.016C622.506 944.919 626.905 957.896 628.122 971.21C620.977 969.954 611.393 970.974 604.006 971.004C582.357 971.09 560.841 971.484 539.21 972.183Z"/>
	<path fill="#100D0E" d="M637.896 882.171C635.798 882.278 634.427 881.296 632.886 879.882C630.113 877.34 627.942 874.03 626.35 870.632C626.032 869.955 625.484 868.165 625.038 867.679C623.997 866.545 622.425 866.986 622.188 865.061L622.987 863.869C621.936 861.125 620.73 858.304 620.222 855.397C619.731 852.584 619.748 844.784 620.838 842.133L621.861 842.759L621.982 841.867C621.172 840.847 620.635 840.445 620.888 839.038C621.373 836.342 623.751 834.073 624.498 830.744C624.837 829.229 626.512 827.684 627.458 826.447C632.592 819.735 637.346 815.975 644.93 812.137C647.415 810.879 649.508 810.734 651.174 808.268C654.222 807.655 652.86 809.7 656.309 807.416C658.121 807.688 657.678 809.136 659.367 809.009C659.725 808.465 660.082 807.929 660.463 807.401C670.7 808.149 680.648 812.08 687.468 820.085C696.182 830.312 700.653 839.885 699.201 853.572C697.959 865.284 691.104 874.818 682.016 881.939C675.4 887.124 667.114 890.557 658.584 889.399C654.867 888.894 647.221 887.851 644.39 885.809C642.135 886.107 640.143 883.539 638.263 882.391L637.896 882.171Z"/>
	<path fill="#9565E1" d="M400.95 785.042C401.741 784.655 402.081 784.515 402.976 784.58C406.01 784.799 409.438 784.246 412.521 784.115Q425.052 783.542 437.592 783.202C449.792 782.991 461.896 783.852 474.112 783.395C476.736 783.297 479.273 783.503 481.889 783.142C482.486 784.663 482.297 785.823 481.625 787.359C480.441 790.064 475.28 800.008 476.443 802.473C476.586 802.775 476.838 803.011 477.036 803.28C476.404 804.338 476.765 803.852 475.96 804.744C476.811 804.968 476.351 804.962 477.335 804.623C477.027 805.81 476.467 806.283 475.633 807.132C475.458 811.61 476.412 816.052 477.432 820.385C476.505 820.998 476.461 820.906 475.929 821.983C476.443 824.168 477.555 825.969 478.161 828.064C481.054 838.056 482.719 843.432 489.198 851.84C490.725 853.821 492.602 856.342 494.709 857.705C495.18 858.01 495.672 858.205 496.178 858.436C496.432 858.552 496.677 858.691 496.936 858.796C497.883 859.176 498.901 859.258 499.903 859.387C500.257 860.606 500.212 861.263 500.038 862.498C498.437 873.828 499.637 931.979 497.778 935.999C499.008 943.275 497.162 963.185 496.846 971.708C497.993 972.18 498.922 972.348 500.138 972.504C495.634 973.208 489.921 970.873 485.109 970.858C479.277 970.84 473.397 971.421 467.562 971.603C462.874 971.75 458.195 971.517 453.505 971.752C444.142 972.221 434.936 973.05 425.551 972.39C417.342 971.682 402.247 973.674 395.497 971.88L394.748 971.33L393.509 972.294C391.013 972.036 382.531 971.836 380.631 972.59C380.302 972.72 379.991 972.893 379.661 973.018C378.935 973.293 378.345 973.418 377.564 973.403C360.595 973.08 343.603 972.743 326.622 972.674C320.609 972.649 314.588 973.069 308.571 972.893C307.329 972.856 306.264 972.392 305.165 971.858C297.582 972.356 289.684 972.106 282.083 971.803C278.787 971.672 275.598 971.16 272.291 971.368C272.339 967.365 273.261 942.717 272.757 940.517C272.527 939.515 272.536 938.901 272.745 937.866C275.204 934.338 272.077 930.621 273.268 927.158L274.158 927.23L274.49 926.67L273.397 925.995C272.945 924.804 273.911 924.996 274.414 923.782C273.263 924.066 273.802 924.077 272.8 923.856L272.871 922.803L274.189 922.75L274.26 921.86L272.811 920.955L272.769 920.316C273.55 920.11 273.854 919.973 274.567 919.516L274.32 917.914L273.872 917.789L273.169 918.591L272.626 918.188C272.43 916.846 272.617 915.567 272.759 914.23C273.595 914.076 273.911 914.029 274.624 913.528L274.417 913.141C273.529 911.444 272.805 910.013 273.419 908.07C274.383 907.167 275.107 906.449 275.8 905.307L275.547 904.643L273.875 904.63C273.764 903.277 272.963 899.611 273.579 898.486C274.294 898.763 274.964 898.983 275.698 899.192C276.146 897.97 275.818 897.843 275.376 896.673L273.609 896.912C271.866 894.822 276.364 888.88 275.372 886.047L274.189 886.46L273.43 884.291L274.974 884.416L275.436 883.82L275.219 882.566L274.091 882.372C273.313 881.201 275.406 880.5 275.619 878.777C274.962 877.673 274.799 877.499 273.686 876.861L273.558 876.011C274.455 876.108 274.429 876.294 275.188 875.71C274.726 874.771 274.548 874.373 274.46 873.302L275.795 873.241C275.071 870.654 273.81 867.144 274.339 864.474C275.438 864.674 275.363 866.881 276.604 867.373C276.789 863.65 274.139 861.897 273.657 858.507L274.131 858.076L275.908 858.768C272.513 853.76 275.468 852.641 275.549 847.587C275.574 846.021 275.004 844.101 274.711 842.554L275.026 843.286L275.345 842.224L276.325 842.649L276.523 842.195C275.995 841.873 274.947 841.391 274.581 840.923C273.459 839.488 274.118 835.737 274.273 834.004C274.843 829.151 274.473 823.853 274.477 818.946L274.408 789.865L274.49 784.975Q277.001 785.124 279.516 785.154C280.814 785.09 282.338 784.624 283.323 785.597C283.513 785.785 283.641 786.028 283.804 786.239C284.305 786.889 284.494 787.058 285.224 787.37L284.741 785.222C285.075 785.315 285.594 785.402 285.89 785.571C288.005 785.151 290.49 784.645 292.584 785.299C292.784 786.398 292.789 785.871 292.617 786.881L295.138 786.513C294.645 786.224 294.146 785.949 293.647 785.671C294.098 784.892 294.193 785.037 295.05 784.82C296.221 784.523 296.899 784.557 298.082 784.883Q299.216 786.005 300.362 787.115L300.973 786.941C301.07 786.696 301.156 786.446 301.263 786.206C301.677 785.281 302.032 784.922 302.779 784.283L303.328 784.638C304.005 785.069 303.72 784.93 304.283 785.153L303.885 786.773L304.524 786.801C305.354 785.891 305.646 785.231 306.89 784.973C308.12 785.698 308.561 786.356 309.334 787.512C313.527 783.027 313.55 787.174 316.726 786.933L317.435 785.284C319.354 785.003 318.418 786.179 320.025 786.947L323.004 785.555C322.595 786.395 322.736 785.913 322.69 787.028C324.184 786.703 325.498 786.065 326.881 785.437C326.208 786.27 325.973 786.182 326.077 787.303L327.174 787.438L329.432 785.268C330.408 785.184 330.707 784.945 331.539 785.522L331.108 786.918L332.03 786.944C332.98 786.206 333.513 785.674 334.724 785.428C335.18 786.48 334.131 786.87 334.19 788.207C335.778 787.304 336.441 785.736 338.202 785.082L338.77 785.503C338.283 786.539 338.489 785.978 338.183 787.197C339.039 786.455 339.834 785.988 340.848 785.485L341.176 785.835C340.652 786.731 340.297 787.259 340.129 788.298L341.031 788.283C342.291 786.658 343.074 785.992 345.072 785.449L345.3 785.637C344.932 786.689 344.549 787.546 344.621 788.678C345.58 788.477 346.834 786.3 347.499 785.427C347.653 785.411 347.806 785.378 347.96 785.379C349.612 785.385 350.707 786.782 351.733 787.894L352.124 788.324C352.459 787.354 352.177 786.876 351.961 785.894L352.426 785.371L353.577 785.746L354.007 787.227L354.662 787.492L355.026 785.823L355.822 785.417L356.659 785.902C356.313 786.737 356.084 786.922 356.258 787.837L358.18 787.863L358.371 787.392C357.901 786.74 357.684 786.435 357.478 785.639C358.526 785.574 359.525 785.513 360.554 785.284C361.308 785.115 361.994 785.029 362.764 784.969C363.913 786.066 363.965 787.288 364.368 788.804C365.279 788.622 365.18 788.754 365.779 788.355C367.067 787.499 368.423 786.093 369.948 785.725C371.097 785.448 372.452 785.378 373.635 785.228L375.482 786.18C381.806 784.406 393.95 785.145 400.95 785.042Z"/>
	<path fill="#040406" d="M337.573 829.928C339.004 830.449 339.633 830.52 340.604 831.727C340.846 833.538 340.893 834.7 340.355 836.456C338.667 838.164 336.963 838.354 334.614 838.493L334.171 837.811L333.044 838.008C331.794 837.205 330.933 836.099 330.118 834.888C330.17 833.48 330.221 833.499 331.161 832.435L330.589 832.734C332.004 831.463 333.464 830.469 335.408 830.242C335.911 830.184 336.416 830.146 336.914 830.055L337.573 829.928Z"/>
	<path fill="#040406" d="M373.635 785.228L375.482 786.18C381.806 784.406 393.95 785.145 400.95 785.042C401.905 785.467 402.858 785.88 403.829 786.267C404.983 787.781 404.589 790.219 404.565 792.048C402.404 795.874 400.232 799.031 395.768 800.294C391.329 801.551 385.914 800.285 382.059 797.909C379.424 796.285 374.901 792.399 373.977 789.331C373.801 788.747 373.828 788.137 373.797 787.538C373.756 786.768 373.685 785.998 373.635 785.228Z"/>
	<path fill="#100D0E" d="M305.165 971.858C305.356 971.71 305.548 971.565 305.737 971.415C307.366 970.123 307.917 969.008 308.828 967.163L308.687 966.252L307.609 966.279C308.269 965.244 309.215 963.177 310.471 962.849C310.869 962.745 311.129 962.745 311.524 962.721C311.573 962.463 311.611 962.203 311.67 961.947C313.182 955.392 325.743 946.365 331.425 943.255C335.845 940.836 343.076 937.838 348.126 937.746L348.526 938.142L347.96 939.353C349.331 938.819 348.967 938.385 349.955 937.621C350.798 936.969 353.343 938.767 354.801 938.093L355.312 936.499C356.906 936.278 357.936 936.275 359.513 936.59C359.607 937.314 359.62 936.889 359.272 937.842C366.025 937.854 363.522 934.844 370.612 940.297C371.919 941.302 371.997 941.903 373.483 940.615L380.183 944.049C384.972 946.469 387.726 951.158 390.535 955.513L389.425 953.216C392.112 957.631 396.01 966.647 395.497 971.88L394.748 971.33L393.509 972.294C391.013 972.036 382.531 971.836 380.631 972.59C380.302 972.72 379.991 972.893 379.661 973.018C378.935 973.293 378.345 973.418 377.564 973.403C360.595 973.08 343.603 972.743 326.622 972.674C320.609 972.649 314.588 973.069 308.571 972.893C307.329 972.856 306.264 972.392 305.165 971.858Z"/>
	<path fill="#E7BEBC" d="M425.551 972.39C428.853 962.836 432.204 953.896 438.171 945.607C444.65 936.606 455.935 928.725 467.034 927.029C478.333 925.302 488.815 929.316 497.778 935.999C499.008 943.275 497.162 963.185 496.846 971.708C497.993 972.18 498.922 972.348 500.138 972.504C495.634 973.208 489.921 970.873 485.109 970.858C479.277 970.84 473.397 971.421 467.562 971.603C462.874 971.75 458.195 971.517 453.505 971.752C444.142 972.221 434.936 973.05 425.551 972.39Z"/>
	<path fill="#100D0E" d="M274.273 834.004C285.681 833.183 302.198 836.119 310.877 843.801C311.164 844.055 311.436 844.326 311.709 844.595L313.174 844.308L313.867 845.081L313.748 846.237L314.687 846.929L315.575 846.212C318.568 847.817 321.449 850.854 323.616 853.443L322.86 853.034L327.186 857.252C333.985 863.938 337.306 879.582 336.816 888.739C336.566 893.416 333.443 905.608 330.193 908.755C329.813 909.123 329.612 909.173 329.178 909.359C326.032 916.722 320.561 924.619 314.26 929.605L313.642 929.514L313.192 928.855C311.407 929.67 312.308 931.418 310.553 931.962L309.581 931.419C307.461 933.093 302.9 937.656 300.404 938.067C298.688 938.35 297.966 937.106 296.338 938.32C294.483 939.703 292.615 939.971 290.358 940.007L289.758 939.452L289.797 938.581C289.012 938.954 288.739 939.258 288.159 939.882C286.956 939.893 286.198 939.139 285.281 938.455L284.53 938.806L284.253 939.793C280.187 939.587 276.932 937.512 272.745 937.866C275.204 934.338 272.077 930.621 273.268 927.158L274.158 927.23L274.49 926.67L273.397 925.995C272.945 924.804 273.911 924.996 274.414 923.782C273.263 924.066 273.802 924.077 272.8 923.856L272.871 922.803L274.189 922.75L274.26 921.86L272.811 920.955L272.769 920.316C273.55 920.11 273.854 919.973 274.567 919.516L274.32 917.914L273.872 917.789L273.169 918.591L272.626 918.188C272.43 916.846 272.617 915.567 272.759 914.23C273.595 914.076 273.911 914.029 274.624 913.528L274.417 913.141C273.529 911.444 272.805 910.013 273.419 908.07C274.383 907.167 275.107 906.449 275.8 905.307L275.547 904.643L273.875 904.63C273.764 903.277 272.963 899.611 273.579 898.486C274.294 898.763 274.964 898.983 275.698 899.192C276.146 897.97 275.818 897.843 275.376 896.673L273.609 896.912C271.866 894.822 276.364 888.88 275.372 886.047L274.189 886.46L273.43 884.291L274.974 884.416L275.436 883.82L275.219 882.566L274.091 882.372C273.313 881.201 275.406 880.5 275.619 878.777C274.962 877.673 274.799 877.499 273.686 876.861L273.558 876.011C274.455 876.108 274.429 876.294 275.188 875.71C274.726 874.771 274.548 874.373 274.46 873.302L275.795 873.241C275.071 870.654 273.81 867.144 274.339 864.474C275.438 864.674 275.363 866.881 276.604 867.373C276.789 863.65 274.139 861.897 273.657 858.507L274.131 858.076L275.908 858.768C272.513 853.76 275.468 852.641 275.549 847.587C275.574 846.021 275.004 844.101 274.711 842.554L275.026 843.286L275.345 842.224L276.325 842.649L276.523 842.195C275.995 841.873 274.947 841.391 274.581 840.923C273.459 839.488 274.118 835.737 274.273 834.004Z"/>
	<path fill="#E7BEBC" d="M419.284 807.6C432.803 807.216 443.561 809.418 454.956 817.071C463.087 822.531 468.087 831.303 469.883 840.829C473.197 858.407 471.151 873.062 461.095 887.807C453.096 899.536 440.19 909.227 426.045 911.898C411.724 913.12 405.876 913.949 393.396 905.689C383.324 899.023 377.151 889.953 374.874 878.074C371.818 862.127 374.154 845.223 383.426 831.689C391.574 819.797 405.028 810.324 419.284 807.6Z"/>
	<path fill="#040406" d="M328.24 134.19C328.225 132.603 328.4 130.524 327.708 129.088C327.597 128.86 327.469 128.641 327.349 128.417L327.616 127.831L329.746 127.218L330.675 122.143C331.224 121.699 331.624 121.479 332.295 121.202C334.243 120.399 336.667 111.972 338.687 109.613L339.332 110.417C340.432 109.402 340.564 108.574 341.02 107.157C341.643 105.221 356.711 87.2519 358.99 85.4137C359.164 85.4344 359.337 85.4627 359.511 85.4756C360.166 85.5241 360.391 85.5476 361.048 85.1923C362.731 84.281 372.609 76.0374 374.794 74.2475L373.629 73.9513L373.76 73.4672C379.918 70.9039 385.479 67.2117 391.479 64.3192C406.038 57.3007 424.323 53.7966 440.411 54.7181C469.993 56.4127 497.339 70.256 517.081 92.3123C517.817 92.4616 518.08 92.4879 518.802 92.281C521.373 91.5446 531.471 92.4826 534.706 92.5188C537.987 92.5555 541.595 93.9009 544.813 94.6285L545.309 93.5574L546.105 93.6403L547.699 95.7266L548.284 95.6892L548.473 94.6386L549.768 95.1616L550.205 96.8344L551.308 95.7227C553.956 96.0856 556.026 96.8156 557.977 98.6826L557.38 97.5488L559.532 99.1696C559.847 98.9918 560.195 98.8536 560.463 98.6102C565.326 87.0581 591.733 72.3708 602.929 67.7618C618.967 61.1591 638.931 58.6152 656.049 61.2402C660.827 61.9728 665.49 63.3593 670.127 64.6926C673.636 65.7014 677.292 66.6285 680.65 68.0721C704.422 78.2922 720.614 94.8245 729.914 118.796C732.058 124.32 736.594 134.124 736.586 139.822L737.82 140.591C738.734 139.996 738.713 139.969 739.788 140.103L739.549 140.253L742.086 139.923C742.818 140.601 743.638 141.73 744.632 141.808L744.217 140.531L744.541 140.023C745.752 140.481 745.933 141.432 746.536 142.536L747.133 142.242L747.265 140.665L749.218 142.308L750.711 141.419L751.292 141.825L751.405 143.274L752.154 143.47Q752.713 142.593 753.303 141.737C754.274 142.511 754.694 143.308 755.305 144.365C757.308 145.044 758.702 143.818 760.476 144.232C762.414 144.683 763.055 147.163 765.18 147.459C765.465 146.655 765.358 147.103 765.444 146.102C766.803 146.786 767.223 148.043 768.331 148.846C769.321 149.561 771.8 149.532 773.044 149.95C775.481 150.769 786.903 156.094 787.817 157.776L788.042 159.783C789.045 159.77 789.499 159.561 790.408 159.18C791.26 159.965 791.559 160.474 792.046 161.509C792.451 162.371 792.892 163.218 793.315 164.071L793.743 164.021L794.308 162.643C795.217 162.888 795.346 162.96 796.057 163.474C797.639 164.616 799.969 165.342 801.061 166.954C800.448 166.994 799.923 166.973 799.314 166.925C799.571 168.036 799.763 168.937 800.822 169.575C802.246 170.434 804.354 170.9 805.938 171.542L805.456 172.444C805.27 172.797 805.092 173.154 804.911 173.509C805.345 174.269 805.222 174.398 806.093 174.698L806.679 172.593C809.611 175.187 812.187 178.458 814.817 181.369C814.604 182.542 814.267 182.689 813.502 183.558L813.958 183.952L815.869 182.749L816.841 183.092C816.891 183.367 816.933 183.643 816.992 183.916C817.271 185.215 818.181 185.95 819.117 186.811C819.225 187.812 819.198 188.365 818.853 189.313C819.053 189.395 819.254 189.474 819.453 189.558C823.059 191.084 826.037 195.189 827.477 198.797L826.558 199.83L827.215 200.281L828.325 199.849C830.794 202.218 832.446 208.532 833.74 211.756C833.334 212.525 833.104 212.708 832.44 213.23L832.696 213.859L833.736 213.448L832.835 213.997C833.971 215.131 835.308 216.183 835.819 217.746C835.385 218.876 835.678 218.364 834.954 219.29L835.373 219.947L836.732 220.185C837.078 221.607 837.373 223.002 837.594 224.45L836.446 225.521C837.744 226.425 838.521 226.632 839.186 228.09C838.702 229.245 838.138 230.208 837.473 231.263C837.849 233.292 840.306 233.949 840.591 236.017C840.009 236.525 839.479 236.902 838.799 237.27C838.687 241.028 842.886 245.829 840.764 251.086C839.355 251.6 838.991 250.409 838.241 251.709C839.007 252.018 839.341 252.006 840.148 251.989C840.417 253.775 838.941 254.575 839.014 255.927C839.098 257.491 840.365 257.942 839.731 259.673C838.877 259.763 838.539 259.579 837.754 259.278C837.93 260.659 837.92 262.172 838.634 263.379L839.757 262.33C839.835 263.928 840.054 265.31 839.23 266.757L837.476 266.316C836.56 268.8 839.573 270.891 837.475 273.734L835.559 274.207L835.649 274.839L836.592 275.08C836.761 276.12 836.797 276.792 836.556 277.821L834.878 279.068C835.087 280.066 834.903 279.599 835.427 280.469L834.907 280.969L833.267 280.76L833.236 281.522L834.198 282.463C832.873 283.549 831.898 282.887 830.886 284.43C832.167 285.055 833.061 283.925 833.587 285.353C832.695 286.851 831.78 288.23 830.71 289.608L831.444 291.846C830.199 292.01 830.8 292.022 829.64 291.846L829.606 292.532L830.679 293.293L830.272 293.951L828.533 294.103C828.292 295.837 829.044 296.668 828.325 298.367C827.088 298.968 826.228 298.875 824.888 298.835L824.87 299.315L825.984 299.997L825.89 300.87C825.718 300.895 825.546 300.918 825.374 300.946C824.558 301.078 824.863 301.021 823.965 301.296C824.091 301.587 824.23 301.872 824.342 302.168C824.665 303.024 824.732 302.792 824.417 303.377C822.931 306.135 820.375 308.045 818.371 310.408C815.978 313.231 814.366 316.613 811.894 319.428C803.519 328.967 793.628 336.484 782.986 343.275C781.529 344.205 779.812 345.769 778.239 346.331C776.96 346.788 775.683 347.008 774.472 346.421C773.582 347.157 773.099 347.791 772.494 348.749C771.175 350.839 769.425 351.103 767.112 351.568C765.647 351.862 762.451 351.808 761.782 353.124C761.67 353.344 761.505 354.196 761.448 354.465C759.635 354.553 757.67 353.55 755.969 354.183C756.317 355.511 756.545 355.703 755.975 356.926C754.652 357.703 754.718 357.832 753.247 357.484L752.525 356.479L752.826 355.155C752.013 355.765 751.76 356.315 751.257 357.181L750.496 357.624C750.007 357.092 749.519 356.584 749 356.079L748.586 356.512C749.314 357.496 750.05 358.029 749.988 359.286L749.275 359.56L748.712 358.392L747.809 358.662C747.109 359.97 747.214 360.239 745.827 360.692L745.549 360.174L746.559 358.259L746.005 358.238C745.189 359.126 744.493 360.3 743.305 360.564L742.611 359.61C742.469 359.761 742.347 359.934 742.183 360.062C740.646 361.261 738.518 360.505 737.123 361.385C736.14 362.006 737.746 362.581 735.623 362.435L734.502 360.954C732.982 361.587 730.742 364.012 729.207 363.454C728.811 363.31 727.966 362.789 727.585 362.562L726.431 362.873L726.804 362.605C725.868 363.311 724.058 364.906 722.875 364.752C721.303 364.548 719.558 363.755 718.019 364.279L717.733 365.973C716.62 366.729 716.226 366.705 714.863 366.819L712.247 363.963C712.114 364.126 711.985 364.292 711.848 364.451C710.822 365.64 709.689 366.906 708.177 367.433C707.715 366.663 707.765 366.283 707.731 365.406L706.975 365.067C706.677 366.494 706.814 366.652 705.66 367.498C704.71 367.599 704.029 367.956 703.245 367.356L705.294 365.735L705.118 364.941L704.532 364.635C703.291 365.255 702.951 365.87 702.231 367.002C700.308 366.433 699.002 365.627 697.088 366.641C695.918 367.261 694.945 367.989 693.958 368.863C692.638 368.571 691.47 368.129 690.226 367.622C690.096 367.736 689.968 367.852 689.836 367.963C689.163 368.529 689.397 368.333 688.481 368.869L688.037 368.491L688.721 367.26C687.491 366.807 686.665 366.728 685.358 366.775L684.849 367.281L685.661 368.883C684.63 368.967 684.154 368.821 683.224 368.38L682.61 366.642C680.261 367.994 683.247 369.123 677.63 367.945C676.866 368.193 676.23 368.418 675.516 368.794C675.484 367.937 675.584 367.23 675.756 366.392L674.177 368.352L673.639 368.187L673.159 365.82L672.676 365.705C672.459 366.935 672.549 367.759 671.644 368.669C670.357 368.088 667.735 365.909 666.586 366.321L665.984 367.998L665.217 367.913C664.425 366.809 664.431 366.328 663.021 366.044L662.708 366.446L663.643 367.649L662.736 367.869C661.951 366.877 662.288 367.385 661.711 366.354L660.665 366.48L660.153 367.691C656.447 368.336 652.45 368.447 648.701 368.217C648.34 368.865 648.289 369.415 647.546 369.623C642.961 370.905 637.915 370.711 633.542 372.598L632.554 372.108C631.113 373.682 631.403 376.328 630.077 378.168C620.182 391.887 611.958 406.703 603.078 421.098L557.363 495.535L557.687 496.989C556.536 498.208 555.376 497.795 554.43 499.285C553.317 501.04 553.41 503.231 552.25 505.104L534.368 534.24C531.655 538.684 528.243 543.352 526.075 548.071C522.939 552.529 516.635 556.7 512.357 560.177C511.38 560.316 510.451 560.297 509.466 560.274L508.585 560.941C508.231 563.875 505.311 566.024 503.282 568.17L502.181 568.486C498.743 566.054 494.383 560.436 493.1 556.378C492.478 555.924 491.855 555.402 491.189 555.018C491.2 554.82 491.24 554.62 491.221 554.423C491.056 552.722 489.337 550.791 488.186 549.583C487.588 548.954 487.09 548.393 486.616 547.656C487.13 547.011 487.246 546.851 487.434 546.01C481.291 539.937 470.583 509.218 469.169 507.995L468.602 508.844C467.445 507.414 467.308 506.786 467.474 504.977C467.607 503.518 463.297 499.006 462.56 497.001L463.325 495.575C459.366 489.62 455.524 483.343 452.323 476.95C453.04 476.081 452.855 476.566 452.941 475.521C451.991 474.504 450.776 473.4 450.005 472.249C448.481 469.973 447.599 466.796 446.343 464.304C441.51 454.714 436.962 445.117 432.41 435.393C429.12 428.367 402.542 373.076 401.195 372.429C399.554 374.221 394.057 375.047 391.61 375.748C389.769 374.88 388.068 373.77 386.338 372.702C385.441 370.854 384.277 368.789 383.972 366.743C383.5 363.581 385.355 361.158 387.006 358.686Q379.135 357.892 371.228 358.112C367.632 358.232 363.626 358.834 360.075 358.369L359.955 356.834Q359.373 357.065 358.783 357.274C353.112 359.267 348.23 358.25 342.423 358.106C339.909 358.043 338.028 358.616 335.652 357.461C334.506 356.904 333.991 356.649 332.701 356.735C328.908 356.99 325.009 356.934 321.267 356.204C321.516 355.457 321.365 355.738 321.819 355.076C321.927 354.92 322.04 354.767 322.151 354.613L321.461 354.431C320.913 354.996 320.658 355.292 319.917 355.6C314.843 354.729 310.054 354.07 305.432 351.679L304.618 351.252C304.091 351.61 303.555 351.954 303.013 352.289C299.772 351.342 293.88 350.5 291.391 348.512C289.89 347.314 277.261 343.765 274.113 342.506C272.6 341.9 270.228 339.901 268.868 339.704C267.896 339.564 266.619 340.252 265.701 339.799C263.938 338.93 262.471 337.056 260.766 335.928C259.59 336.184 258.67 336.301 257.468 336.214C256.478 335.68 255.616 335.27 254.931 334.339C254.357 333.558 254.716 332.939 254.846 332.039L254.219 331.227C253.654 331.895 253.078 332.541 252.48 333.179L252.041 332.85L251.699 330.147L250.602 329.826L249.985 330.186L249.992 331.759C249.679 331.65 249.35 331.581 249.054 331.433C247.873 330.843 247.378 329.998 246.921 328.823C246.448 327.605 246.041 326.955 245.176 325.981L244.073 326.725L244.924 326.335L245.029 327.863L244.689 327.939C242.951 323.374 242.373 326.239 239.771 323.862C238.928 323.092 239.183 322.329 239.13 321.27C238.327 321.297 237.385 321.385 236.596 321.244C235.257 321.007 234.671 320.547 233.876 319.495C234.049 319.323 234.219 319.148 234.394 318.979C234.575 318.805 234.762 318.637 234.946 318.466L234.217 317.666L232.689 317.698L232.602 317.29C233.207 316.598 233.372 316.32 233.695 315.503L232.819 314.892C231.925 314.831 231.373 314.753 230.54 315.16C229.245 315.792 230.768 315.204 229.104 315.786C228.218 314.614 228.232 313.539 228.12 312.131C228.054 311.305 228.205 311.688 227.724 311.033L227.044 312.01L227.355 311.324C226.408 311.962 226.409 312.267 225.23 312.079L225.154 310.965L226.868 309.777L226.629 309.168L224.19 308.667C224.599 308.244 224.355 308.545 224.75 307.647C223.785 306.724 222.872 306.939 221.58 306.836C220.485 306.141 220.174 305.697 219.642 304.519L221.512 303.235L221.553 302.387L220.83 301.939C220.192 302.746 220.042 302.99 219.064 303.403C218.913 303.28 218.755 303.165 218.612 303.032C216.23 300.807 207.294 287.221 207.273 284.305L208.62 284.494C207.995 282.546 205.056 281.448 204.094 279.359C205.264 278.671 205.383 277.58 205.761 276.357C204.345 274.933 204.415 273.863 203.343 272.414L202.667 273.274L202.06 273.059L201.955 272.276L204.144 270.302L203.832 269.202L204.245 269.519L201.157 268.998C200.307 268.138 200.229 268.193 200.173 267.001L201.163 267.21L200.907 267.015L201.875 267.269C200.995 266.569 199.742 265.746 199.007 264.888C197.797 263.476 199.249 260.691 199.087 258.966C198.889 256.851 196.587 255.217 197.021 252.747C197.797 252.245 197.939 252.156 198.401 251.307L197.941 251.019L196.64 251.928C196.422 249.893 196.739 247.845 197.844 246.107L198.179 245.592L196.209 245.634C196.193 243.499 198.5 241.13 197.887 239.27L196.274 239.822C196.086 238.553 196.331 238.451 196.861 237.337L196.646 237.468L198.824 235.282L198.281 234.62L196.161 234.759C195.93 233.712 196.551 233.147 197.068 232.243L196.927 232.318L199.713 229.228C199.195 228.964 198.906 228.829 198.385 228.508C197.282 227.829 196.872 227.506 196.535 226.255C197.422 225.437 198.242 224.737 198.924 223.73C198.564 223.345 198.203 222.961 197.824 222.595L197.477 222.263C197.759 220.875 198.912 220.367 199.813 219.396C200.638 218.507 200.812 218.049 200.755 216.863C199.698 216.468 199.395 216.405 198.651 215.511L199.001 215.038C199.634 215.49 199.654 215.641 200.466 215.662C201.652 213.26 202.001 209.655 202.125 206.985C201.381 206.593 201.056 206.411 200.491 205.761L200.85 204.931C201.648 205.444 202.247 205.758 203.172 205.981L203.935 205.267C202.988 204.886 202.33 204.606 201.501 203.993L201.978 203.391L203.704 203.32L203.886 202.553L202.391 201.764L202.201 200.905C203.159 200.919 203.658 201.196 204.375 200.508L203.265 199.321L203.368 198.492L204.146 198.028L205.64 199.52C206.327 198.374 205.034 196.054 205.134 194.569C205.217 193.344 205.703 192.357 206.569 191.506C207.118 191.922 207.629 192.262 208.224 192.624L208.58 191.979L207.302 190.553C208.055 189.95 208.76 190.093 209.7 190.009L209.951 189.475L208.952 188.218L209.053 187.612L211.019 187.425L211.191 186.813L209.776 185.94L209.856 185.382C213.828 183.856 211.831 180.415 214.25 178.993C214.622 179.471 214.943 179.922 215.244 180.451C215.333 180.608 215.418 180.768 215.505 180.926L216.263 179.901C216.134 178.697 215.086 178.093 214.234 177.263C214.927 176.101 215.733 177.513 217.217 177.047C217.521 176.101 217.817 175.163 218.08 174.204C218.445 172.875 220.052 173.387 221.176 172.483Q219.834 172.216 218.487 171.976C218.356 170.898 218.574 170.989 219.202 170.171Q219.942 170.982 220.708 171.77C222.058 171.032 222.475 168.757 223.01 167.288C223.687 166.983 224.303 166.664 224.932 166.269C223.967 166.148 223.085 166.289 222.436 165.532Q223.866 163.471 225.333 161.436C225.452 162.464 225.472 163.403 225.483 164.435L226.21 164.874C227.272 164.362 227.432 164.329 228.021 163.325L226.981 162.706L227.084 161.834Q230.837 157.579 235.344 154.133C236.61 153.18 240.611 149.624 242.021 149.313C242.496 149.208 243.793 149.568 244.334 149.646L244.726 149.34C244.755 148.357 244.773 147.923 245.171 146.999C246.283 147.051 247.378 147.068 248.491 147.044L249.099 146.284L248.199 144.827C248.997 144.429 249.695 143.961 250.613 144.008C252.785 144.118 253.093 143.564 254.849 142.297L256.079 143.407L256.556 143.235L255.8 141.704L256.249 140.739C257.204 141.356 256.711 141.191 257.699 141.322L258.675 139.818L259.171 140.013L258.996 142.013C259.754 142.072 259.819 140.491 261.027 140.039L261.802 140.968L262.389 140.871C262.183 139.975 262.109 139.248 262.061 138.338L262.796 137.62C263.096 138.468 263.046 138.642 263.767 139.241L264.709 138.692C265.143 138.442 265.585 138.205 266.011 137.942C269.649 135.699 269.61 137.024 272.878 136.164C274.594 135.713 276.526 134.322 278.066 133.433L278.74 133.629L278.542 135.674L279.026 135.713C279.586 134.429 280.026 133.422 281.035 132.408L281.482 132.6L281.865 133.61L282.032 133.167C282.733 133.687 283.662 134.015 284.455 134.386C288.604 131.627 293.816 131.529 298.654 131.261L299.912 132.415L300.601 132.299L300.164 130.826C301.658 130.606 303.454 131.736 304.83 132.375L305.332 132.614L305.026 130.924L305.509 130.502L306.547 130.643L307.302 132.028L310.579 130.432C312.085 130.803 312.853 131.568 313.96 132.582L314.413 133.003C315.972 132.088 316.66 131.498 318.502 131.537L320.246 133.496L320.609 132.285L320.589 133.223C320.725 133.126 320.843 132.998 320.995 132.932C322.627 132.226 325.326 133.156 326.787 134.037C326.96 134.141 327.123 134.261 327.291 134.373L328.24 134.19Z"/>
	<path fill="#100D0E" d="M436.716 422.989C439.94 427.462 442.264 433.033 444.751 437.954C450.735 449.792 456.426 461.692 462.061 473.697C464.918 479.782 468.472 485.469 471.384 491.509Q483.967 517.552 495.066 544.262C495.512 544.962 495.208 544.596 496.081 545.267L496.489 544.855C494.198 533.812 490.07 523.581 489.234 512.265C489.058 512.192 488.879 512.128 488.707 512.048C488.108 511.766 487.798 511.634 487.474 510.95C486.857 509.65 485.695 503.187 484.887 500.832C486.497 502.745 490.345 509.084 490.674 511.505C491.17 515.154 489.892 517.913 491.857 521.318C496.271 528.966 495.036 543.017 500.838 548.097C501.132 549.52 500.736 550.303 500.187 551.575C500.457 553.121 500.713 554.657 500.903 556.215C499.795 556.628 499.982 556.75 498.756 556.353C498.646 555.436 498.776 555.011 499.145 554.171C496.4 551.791 493.321 549.356 491.294 546.322L491.507 544.768C489.321 541.957 489.402 537.811 488.037 534.521L486.051 533.919L485.715 533.01L486.34 532.677L489.59 534.327C489.407 533.74 489.204 533.165 489.012 532.581C487.995 529.486 486.159 526.941 484.385 524.234C483.284 525.14 482.852 525.838 481.399 525.868C479.825 523.308 482.84 521.975 482.126 519.484C481.076 519.059 480.247 518.667 479.344 517.981L479.263 516.772L480.543 515.482C481.114 512.76 476.407 505.273 475.015 502.533C474.196 502.474 473.819 502.388 473.019 502.087C472.144 500.349 473.039 498.624 472.612 496.791C471.211 490.773 465.757 485.351 463.346 479.781C462.435 477.678 461.821 473.366 460.031 472.095L457.804 473.065C455.755 472.056 456.234 465.21 455.704 462.79C455.392 461.364 454.648 460.026 453.954 458.756C450.939 453.236 448.485 447.406 445.438 441.891C443.231 437.899 440.267 434.14 438.442 429.968C437.513 427.844 436.76 425.306 436.716 422.989Z"/>
	<path fill="#E7BEBC" d="M417.211 283.469L416.687 281.482L415.218 280.975L415.386 280.321C416.661 279.743 416.916 279.783 417.549 278.563L416.583 274.103L417.804 272.874L417.762 271.614L416.786 271.019C417.205 270.428 417.639 269.858 418.09 269.292L417.589 268.675L416.526 268.706C416.907 266.801 417.995 264.881 417.726 262.937L416.322 262.229L417.405 261.34C417.675 256.533 414.975 258.779 417.895 252.201C416.866 250.497 415.23 251.673 416.101 248.487C416.352 247.567 416.713 247.405 417.371 246.78C419.126 246.427 419.434 246.118 420.753 244.999L420.951 245.667C420.032 246.599 419.11 247.462 418.113 248.311L418.327 248.894L420.446 248.192L420.819 248.5L419.668 250.817C420.619 251.088 420.849 250.82 421.753 250.496C421.744 251.647 421.538 252.068 421.076 253.094C421.541 253.86 421.689 254.019 422.376 254.517C421.549 255.39 422.055 255.15 420.858 255.237C421.016 255.411 421.181 255.578 421.331 255.759C422.155 256.751 422.439 257.645 422.681 258.888L424.32 259.112C424.154 260.113 423.806 260.436 423.2 261.223L423.592 262.377C424.727 262.338 424.168 262.408 425.27 262.172C427.033 264.704 424.989 267.871 427.766 270.537C428.089 270.445 428.404 270.313 428.736 270.261C428.952 270.227 429.173 270.274 429.392 270.28C428.997 271.449 428.128 270.844 428.1 272.104C429.251 272.48 430.386 272.867 431.519 273.298L431.251 273.765L429.194 273.208L428.682 273.84C429.255 275.679 434.54 288.221 435.299 288.969C434.886 291.153 435.962 292.429 436.346 294.471L436.735 297.718C434.555 297.293 431.25 297.02 429.738 295.252L430.017 294.678L430.955 295.064C430.283 294.048 429.15 293.015 428.112 292.376C427.17 291.795 426.435 292.098 425.439 292.344C424.274 292.633 423.437 292.767 422.241 292.726C420.854 292.139 420.311 291.078 419.503 289.877C418.979 289.098 418.721 289.139 417.88 288.786C416.617 289.348 416.411 290.419 415.794 291.616C415.897 289.013 416.116 285.844 417.211 283.469Z"/>
	<path fill="#FDFAFA" d="M474.858 139.497C476.494 139.456 477.773 139.384 479.223 140.266C480.027 141.41 480.364 141.745 480.221 143.218C479.842 147.126 472.579 153.326 470.034 156.301C467.996 158.684 465.673 161.43 464.151 164.186C459.903 171.882 456.066 187.395 450.326 192.471C449.443 192.763 448.69 192.812 447.764 192.846C446.9 192.256 446.587 192.199 446.117 191.21C443.394 185.469 448.668 172.076 450.861 166.543C455.463 154.935 463.129 144.573 474.858 139.497Z"/>
	<path fill="#FDFAFA" d="M719.92 171.202C720.908 171.08 720.644 171.084 721.497 171.066C725.289 170.987 731.771 170.487 734.45 173.893C735.313 174.991 735.128 175.581 734.924 176.831C733.702 178.414 732.357 179.165 730.477 179.833C727.12 181.027 723.116 181.286 719.589 181.831C714.233 182.658 709.009 183.697 703.871 185.454C697.644 187.584 692.147 190.918 686.488 194.209C682.768 196.659 679.354 198.303 674.779 197.46C674.107 196.931 673.568 196.806 673.516 195.835C673.426 194.147 674.926 192.004 675.915 190.765C685.094 179.262 705.79 172.526 719.92 171.202Z"/>
	<path fill="#FE675F" d="M528.124 370.643C527.461 368.361 527.028 366.644 525.353 364.878C524.663 364.151 523.988 363.411 523.29 362.69C529.285 356.377 537.226 351.264 542.654 344.577L542.62 344.775C544.107 343.081 545.532 341.249 547.33 339.877L548.07 340.734C549.507 340.33 551.055 338.668 551.715 337.351C551.929 336.925 552.035 336.532 552.189 336.072L553.181 335.566L553.565 336.104C549.332 352.833 546.366 370 543.11 386.983C541.353 396.142 539.103 405.199 537.427 414.389L532.949 437.996C532.549 440.066 532.704 442.247 532.265 444.274C531.341 448.542 529.695 452.676 528.81 456.961C527.027 465.584 525.451 474.502 524.068 483.206C523.515 486.682 522.749 497.526 521.63 499.865C521.352 500.516 521.173 501.046 521.172 501.763C521.172 502.194 521.194 502.625 521.187 503.056C521.151 505.222 518.738 518.968 517.474 520.209L517.286 519.546L516.855 519.402C516.56 516.389 517.455 513.318 517.574 510.295C517.66 508.095 517.27 505.83 517.447 503.644C517.586 501.929 518.027 500.767 517.773 499.006C517.624 497.972 518.018 497.838 518.593 497.005C517.989 496.066 517.674 495.438 517.622 494.308C517.323 487.788 518.148 481.042 518.288 474.504C518.587 460.537 518.497 446.469 518.371 432.498C518.324 427.312 519.537 422.205 517.529 417.249C519.213 414.08 519.486 413.761 518.369 410.168C517.336 406.845 519.226 405.12 518.943 401.691C518.677 398.458 518.941 384.372 517.899 382.762L517.078 382.472C517.329 382.341 517.586 382.221 517.829 382.077C518.007 381.972 518.555 381.568 518.745 381.43C518.773 380.751 518.754 380.269 518.644 379.586C523.458 376.858 525.304 375.581 528.124 370.643Z"/>
	<path fill="#FE675F" d="M503.531 530.046C501.642 525.879 500.72 521.139 499.527 516.724C497.454 509.054 495.161 501.414 493.217 493.714C492.62 491.348 492.334 488.895 491.699 486.55C491.254 484.909 489.514 483.614 489.23 482.246C488.881 480.566 488.871 478.782 488.508 477.063C486.531 467.698 484.077 458.508 481.703 449.243C479.961 442.444 478.941 434.572 476.034 428.18C475.628 427.288 475.279 426.778 475.417 425.769C475.978 421.683 472.262 412.608 471.155 408.076C467.175 391.772 464.078 375.291 460.564 358.895L448.08 302.016L447.88 301.1C448.848 301.837 449.708 302.826 449.974 304.039C450.439 306.162 451.142 306.596 452.832 307.927L453.406 308.372L452.933 310.003L453.515 310.912C454.461 311.036 454.962 311.046 455.78 311.568C456.269 313.899 456.462 315.358 458.191 317.096C460.781 316.413 464.421 324.44 467.592 325.146C468.335 325.312 468.755 324.626 469.284 324.184L469.578 324.881C469.15 325.752 468.612 326.638 468.566 327.626C468.535 328.293 468.668 328.128 469.278 328.686L470.725 328.255C471.519 328.743 471.425 328.568 471.874 329.157C474.314 332.36 476.694 334.687 479.536 337.526C479.99 337.033 480.453 336.61 480.955 336.167C481.383 337.323 482.007 338.479 482.77 339.451C484.003 341.021 486.855 344.407 488.851 344.632L488.687 343.036C489.729 343.495 489.702 343.443 490.186 344.479C490.891 345.987 491.29 347.122 492.628 348.216L493.019 348.099C493.223 347.067 493.037 347.56 493.594 346.626L494.281 347.132L493.794 348.59L494.286 349.313L495.858 349.067C497.003 350.588 502.091 356.121 503.89 356.253C504.943 356.33 504.853 355.696 506.098 356.164C505.812 356.849 505.515 357.503 505.192 358.169L505.751 358.864L507.426 357.501L507.87 358.249C506.769 360.3 502.488 361.74 500.491 363.185C499.081 364.205 498.003 367.146 497.81 368.843C497.026 375.74 506.048 374.345 507.344 377.359C508.068 379.044 508.284 411.411 508.45 416.975C508.659 423.966 507.509 465.177 508.254 467.186C508.47 467.769 509.016 468.168 509.397 468.659C509.014 469.479 509.216 469.153 508.643 469.917C508.504 470.102 508.361 470.283 508.22 470.466C508.623 485.636 508.141 500.807 508.116 515.981C508.112 518.586 507.375 523.415 508.026 525.726C508.065 525.864 508.133 525.991 508.186 526.123L507.842 526.798C507.93 530.825 509.253 541.137 507.163 544.234C506.165 544.004 506.475 544.264 505.927 543.393C504.043 540.396 503.63 535.442 503.248 531.953C503.169 531.231 503.319 530.723 503.531 530.046Z"/>
	<path fill="#FE675F" d="M415.794 291.616C416.411 290.419 416.617 289.348 417.88 288.786C418.721 289.139 418.979 289.098 419.503 289.877C420.311 291.078 420.854 292.139 422.241 292.726C423.437 292.767 424.274 292.633 425.439 292.344C426.435 292.098 427.17 291.795 428.112 292.376C429.15 293.015 430.283 294.048 430.955 295.064L430.017 294.678L429.738 295.252C431.25 297.02 434.555 297.293 436.735 297.718C439.134 309.396 441.788 321.04 444.447 332.657C444.914 334.699 444.154 337.773 445.328 339.359L447 339.743C446.885 339.866 446.766 339.985 446.656 340.112C446.107 340.748 446.296 340.521 445.916 341.445C447.574 348.485 449.768 355.813 450.689 362.977C451.651 363.261 451.105 363.141 452.342 363.271C451.582 363.962 451.027 364.066 451.009 365.151C450.982 366.7 451.816 368.358 452.459 369.73C454.217 373.484 456.531 395.938 458.903 397.092C459.603 397.433 459.354 397.302 460.023 397.921C459.678 399.523 458.803 399.418 459.015 401.308C459.381 404.569 460.78 408.083 461.61 411.292C464.266 421.554 467.427 431.789 469.969 442.048C470.788 445.353 470.447 448.499 471.733 451.737C472.569 453.845 473.17 460.658 475.028 461.611L476.227 461.065L476.185 461.626L474.847 462.592C474.297 467.888 478.594 473.062 478.753 478.461C478.793 479.835 478.743 481.392 479.374 482.635L481.134 483.774C480.657 485.067 480.238 485.617 480.589 486.974L482.142 487.305L482.126 487.956L481.072 488.3C481.278 490.14 483.236 490.65 483.263 492.185Q483.317 494.398 483.725 496.574Q484.134 498.75 484.887 500.832C485.695 503.187 486.857 509.65 487.474 510.95C487.798 511.634 488.108 511.766 488.707 512.048C488.879 512.128 489.058 512.192 489.234 512.265C490.07 523.581 494.198 533.812 496.489 544.855L496.081 545.267C495.208 544.596 495.512 544.962 495.066 544.262Q483.967 517.552 471.384 491.509C468.472 485.469 464.918 479.782 462.061 473.697C456.426 461.692 450.735 449.792 444.751 437.954C442.264 433.033 439.94 427.462 436.716 422.989C436.479 418.947 428.984 405.509 426.822 401.067C422.513 392.216 418.543 383.222 414.267 374.365C412.78 371.284 410.657 368.419 409.319 365.304C407.973 362.17 409.147 358.439 407.5 355.449C406.107 352.921 402.779 352.716 401.456 350.106C401.312 348.57 401.159 348.312 402.26 347.118C406.175 342.873 408.38 328.745 409.777 322.717C410.092 321.359 410.235 320.253 411.167 319.158C411.362 318.929 411.571 318.713 411.773 318.491L410.844 317.245C410.851 316.231 410.765 316.64 411.093 315.704C412.857 310.686 414.526 304.338 415.136 299.051C415.386 296.876 414.554 293.276 415.794 291.616Z"/>
	<path fill="#FE675F" d="M602.856 283.791C603.71 284.439 604.438 285.365 604.824 286.379C605.274 287.561 604.893 288.32 604.437 289.415C603.987 290.495 603.846 290.566 603.999 291.776L605.213 291.794C605.599 292.31 605.814 292.687 605.912 293.334C606.29 295.841 605.589 294.297 604.403 295.818C604.453 296.997 604.518 298.107 604.742 299.268C605.068 300.963 603.67 300.68 603.925 302.159C604.232 303.947 605.548 304.93 605.345 306.942L604.249 307.025L604.056 307.485L605.111 308.339C605.609 309.894 604.487 309.368 604.151 311.023C604.457 311.164 604.769 311.291 605.068 311.446C606.221 312.04 606.18 312.297 606.588 313.491C605.588 314.197 604.935 314.676 604.239 315.711L604.536 316.482L606.232 316.924L606.475 317.789L605.246 318.288L605.241 318.764C605.813 319.602 606.388 320.362 606.745 321.32C607.048 322.133 606.457 322.814 606.123 323.571L606.573 324.293L607.784 324.137L608.1 324.743C607.562 325.242 607.106 325.706 606.627 326.253Q608.139 330.726 609.55 335.232L609.162 334.675C609.295 336.224 610.855 337.768 611.055 339.249C611.162 340.043 610.021 341.741 610.196 342.464C610.487 343.658 613.386 345.272 613.953 347.734L612.892 349.018C613.633 350.511 615.175 350.014 615.908 351.445L614.966 353.108C615.408 356.788 618.988 357.706 619.988 360.993C618.485 363.269 614.046 364.679 611.817 366.663C611.338 367.745 611.108 368.643 611.153 369.822C611.298 373.561 613.864 376.066 616.337 378.53C616.071 381.028 611.424 386.919 609.981 389.402C600.384 405.922 589.856 422.023 579.835 438.3C576.099 444.369 572.93 450.775 569.179 456.829C566.24 461.572 548.021 489.623 547.924 491.771C547.919 491.873 548.247 493.352 548.237 493.428C548.139 494.161 545.722 496.248 545.096 497.052C544.321 498.048 543.776 499.269 543.252 500.413L542.943 501.098C541.798 502.801 541.066 504.797 539.965 506.561C535.226 514.15 530.809 521.395 526.948 529.49C526.958 526.833 526.904 524.108 527.148 521.462C527.643 516.085 529.531 510.899 530.524 505.604L556.882 370.991C558.154 364.517 564.15 327.61 566.162 324.58C568.541 320.997 576.679 313.638 580.168 310.823L580.797 310.321C580.283 309.903 580.072 309.768 579.799 309.146C587.148 304.688 597.054 290.943 602.856 283.791Z"/>
	<path fill="#E7BEBC" d="M560.463 98.6102C565.326 87.0581 591.733 72.3708 602.929 67.7618C618.967 61.1591 638.931 58.6152 656.049 61.2402C660.827 61.9728 665.49 63.3593 670.127 64.6926C673.636 65.7014 677.292 66.6285 680.65 68.0721C704.422 78.2922 720.614 94.8245 729.914 118.796C732.058 124.32 736.594 134.124 736.586 139.822L734.79 139.553C731.2 141.68 730.154 138.363 726.652 139.3L725.895 140.682L725.268 140.752L725.277 139.271L724.313 139.317L723.551 140.761L722.813 140.829C722.54 140.043 722.295 139.585 721.744 138.961L721.074 139.083L721.182 140.56L720.614 140.79L718.845 139.2C717.128 139.564 717.58 140.831 716.134 141.305C716.286 140.426 716.556 140.111 716.078 139.322C712.53 140.941 708.483 141.317 704.654 141.87C703.681 142.76 703.106 143.399 701.785 143.707L701.31 143.347L700.934 142.396C698.932 143.016 697.051 143.792 695.134 144.637C694.94 144.977 694.738 145.314 694.521 145.64C693.609 144.961 692.91 144.488 691.821 144.143C691.418 144.924 690.956 145.147 690.232 145.606C689.084 146.333 687.507 147.307 686.116 147.005C686.405 146.204 686.541 146.168 686.326 145.301L682.069 148.52L682.62 147.852C681.298 148.911 678.318 151.957 676.781 152.041C676.87 151.34 676.769 151.729 677.297 150.817C677.447 150.558 677.603 150.302 677.756 150.044L677.514 149.407C676.409 149.44 676.184 149.211 675.342 149.993C675.576 150.711 675.753 151.372 675.913 152.107L675.02 152.539L673.535 151.69C671.613 152.43 669.846 153.105 668.131 154.271L667.869 156.035C666.322 156.261 667.357 155.037 666.088 154.335L664.217 155.774L665.701 155.982L665.825 156.456L663.572 158.151C663.997 159.051 663.852 158.547 663.93 159.685L663.151 159.874C663.026 158.728 662.991 157.922 662.456 156.875L661.721 157.174C660.482 158.631 659.989 160.292 659.346 162.071C657.923 162.763 658.082 161.166 656.45 160.966C654.59 162.512 653.197 164.86 651.779 166.816L650.202 166.63L649.344 167.464L649.474 168.752C648.96 169.928 649.044 170.015 647.896 170.545L648.283 169.033C644.649 170.917 639.016 177.577 635.953 180.623C636.08 181.626 636.06 182.382 635.89 183.379C633.808 184.892 631.8 186.502 629.426 187.53L628.812 187.029L629.892 185.696C629.679 184.093 628.395 183.522 627.61 182.114C628.461 181.507 628.684 181.496 629.127 180.504C628.703 179.708 628.303 178.9 627.885 178.101C626.341 175.152 627.836 172.074 626.362 169.363C624.459 165.866 623.672 158.733 621.933 156.494C621.292 155.669 620.342 156.072 619.604 154.807Q620.559 154.411 621.507 153.996L620.917 153.15C620.025 153.338 619.796 153.42 618.898 153.138C618.522 150.373 616.843 146.933 615.342 144.578L614.183 144.801C612.644 143.038 613.237 140.652 612.01 138.843C610.699 136.912 607.932 136.309 606.742 134.178L607.89 133.712C607.256 132.2 605.356 131.319 604.171 130.218C602.721 128.869 601.571 126.829 600.214 125.307C596.85 121.53 592.448 117.64 588.381 114.64L587.418 115.223L586.76 114.827L586.949 113.349L586.211 112.678L585.715 113.592L585.015 113.19C584.827 112.198 584.837 112.483 584.808 111.651C584.803 111.489 584.803 111.327 584.801 111.165C583.031 109.735 581.276 110.149 579.509 109.06C577.275 107.683 575.64 105.33 573.414 103.881C569.625 101.413 564.602 100.55 560.463 98.6102Z"/>
	<path fill="#FDFAFA" d="M630.937 88.9886C633.2 89.5437 635.041 90.2997 636.498 92.1825C636.883 93.4522 636.996 94.1345 636.463 95.3889C635.741 97.0889 634.147 98.5473 632.696 99.622C629.277 102.155 625.224 103.847 621.587 106.058C616.967 108.867 612.591 112.153 607.82 114.703C604.969 116.228 601.838 117.389 598.829 118.569L597.768 118.408C597.202 117.801 596.73 117.242 595.978 116.864C594.843 116.292 594.333 116.027 593.549 114.999C593.351 114.028 593.367 113.573 593.709 112.609C595.553 107.41 607.489 98.9394 612.397 96.3741C618.086 93.4012 624.95 91.4582 630.937 88.9886Z"/>
	<path fill="#E7BEBC" d="M328.24 134.19C328.225 132.603 328.4 130.524 327.708 129.088C327.597 128.86 327.469 128.641 327.349 128.417L327.616 127.831L329.746 127.218L330.675 122.143C331.224 121.699 331.624 121.479 332.295 121.202C334.243 120.399 336.667 111.972 338.687 109.613L339.332 110.417C340.432 109.402 340.564 108.574 341.02 107.157C341.643 105.221 356.711 87.2519 358.99 85.4137C359.164 85.4344 359.337 85.4627 359.511 85.4756C360.166 85.5241 360.391 85.5476 361.048 85.1923C362.731 84.281 372.609 76.0374 374.794 74.2475L373.629 73.9513L373.76 73.4672C379.918 70.9039 385.479 67.2117 391.479 64.3192C406.038 57.3007 424.323 53.7966 440.411 54.7181C469.993 56.4127 497.339 70.256 517.081 92.3123C514.68 92.8529 510.144 93.427 508.194 94.8405L507.733 93.027L507.26 92.8707C506.875 93.6966 506.505 94.5058 506.175 95.3558C505.686 94.746 505.196 94.1395 504.724 93.5165C503.996 94.1172 503.943 94.3451 503.618 95.1982L502.711 95.187L503.018 93.7595L502.263 93.7727L501.825 95.2825L499.84 95.1957L499.639 94.9384L499.026 95.2578L499.89 96.4355L499.752 97.0034C498.085 96.88 497.692 95.7432 496.039 95.6704L495.073 97.3845C494.076 97.2381 493.897 96.8596 493.161 96.2098C492.766 97.3389 492.91 98.4663 492.965 99.6396L492.587 99.7714C491.747 98.8485 492.145 97.2761 491.114 96.7673L490.803 98.8905C489.789 98.6078 489.474 98.0773 488.734 97.3546C488.679 98.4476 488.932 98.7816 488.069 99.5707C487.24 100.329 486.768 100.459 485.709 100.697L485.232 100.256L485.659 99.6849C486.202 98.9516 486.003 99.259 486.378 98.6051L483.605 99.1438C483.37 99.9547 483.083 102.237 482.547 102.778L482.939 101.057L482.483 100.691L480.863 100.937C480.706 101.802 480.633 101.389 481.133 102.166C480.161 102.022 479.503 101.704 478.614 101.304C478.573 101.441 478.543 101.581 478.491 101.714C477.768 103.592 476.04 105.522 474.934 107.253C474.59 106.576 474.469 106.19 474.257 105.494C473.884 104.266 474.148 104.739 473.324 103.852C472.5 105.143 472.359 107.356 471.279 108.232L471.798 107.333L471.135 107.048L470.817 105.298L470.278 105.09C469.628 106.84 470.849 106.259 469.273 109.064L468.678 107.237L467.903 107.258C467.499 108.869 467.312 110.514 466.753 112.071L466.336 112.176C466.197 110.654 466.405 109.427 465.383 108.245L464.925 108.473L464.879 110.883C463.603 110.858 462.484 110.501 461.257 110.18L461.35 110.842C463.442 111.455 463.362 111.532 464.483 113.244L463.949 113.594C462.922 113.17 461.901 112.773 460.85 112.412C459.431 113.165 458.153 114.041 456.839 114.964C456.569 114.763 456.315 114.537 456.028 114.361C455.835 114.243 455.614 114.18 455.406 114.089C455.232 115.091 455.252 115.173 455.671 116.102C456.822 116.393 456.232 116.411 457.434 115.964C456.465 117.197 454.502 118.267 452.934 118.556C452 118.728 450.636 118.133 449.744 117.844C450.441 118.481 451.405 119.002 451.472 119.978C451.532 120.844 451.371 121.207 451.01 121.964L449.683 122.467C448.85 122.057 448.44 121.673 447.845 120.964C448.103 122.13 448.485 123.179 448.007 124.333C447.088 124.094 446.289 123.779 445.426 123.386C444.483 124.158 444.807 123.673 444.454 124.843L445.871 126.065L445.555 126.989L444.585 127.434L443.781 126.193L442.758 126.253C442.165 128.143 441.669 130.74 440.073 132.004C439.586 131.497 439.108 131.015 438.584 130.544C437.494 132.518 437.847 135.183 436.519 136.935L435.703 136.653C435.39 135.5 435.486 135.666 435.885 134.648C434.662 135.197 434.733 135.273 434.158 136.504C434.314 137.455 434.331 137.968 434.897 138.77C435.065 138.832 435.235 138.89 435.402 138.955C435.808 139.114 436.139 139.425 436.536 139.603C436.746 139.698 436.986 139.698 437.211 139.746C435.779 140.133 434.569 139.907 433.132 139.706C432.497 139.985 431.998 139.965 431.786 140.699C431.417 141.98 431.841 143.496 432.055 144.788C431.299 144.434 430.783 144.045 430.158 143.494C429.021 143.732 429.024 143.928 428.231 144.706C428.861 145.199 429.234 145.441 429.934 145.762C430.057 147.218 430.248 148.481 429.737 149.891C428.344 149.435 427.062 148.696 425.625 149.063C425.576 150.63 425.765 152.814 425.089 154.212C424.898 154.136 424.708 154.055 424.515 153.983C423.601 153.637 423.948 153.754 422.854 153.583C421.895 156.224 423.483 158.02 421.284 160.334C421.783 161.176 422.384 161.793 423.065 162.491L422.868 163.479L422.208 163.804L421.014 162.105L420.299 162.446C420.071 164.174 420.225 167.376 419.236 168.661L418.609 166.744L418.182 166.543C417.52 167.676 417.439 168.566 417.273 169.842L418.517 170.724L416.908 170.757L417.527 170.871L415.418 171.529L415.14 172.316C415.957 173.347 416.797 174.03 417.823 174.836L417.88 175.922C416.759 175.8 416.564 175.386 415.722 174.678L415.113 175.323L415.212 176.353L416.764 177.068L416.624 177.787L414.745 178.25C413.996 180.53 415.414 180.045 413.104 181.768C413.832 182.362 414.469 182.674 415.31 183.079L415.613 184.011C414.745 184.579 414.117 184.818 413.146 185.14L412.589 186.094L412.839 186.901L414.601 186.206C415.445 186.685 415.438 186.443 415.668 187.171C415.925 187.987 415.766 188.551 415.611 189.364L414.979 189.579L413.611 188.154C412.731 189.052 412.996 189.289 412.96 190.494C413.691 191.446 413.224 191.096 414.377 191.526L415.532 193.47L415.123 193.827L413.716 192.274L412.733 192.746C412.828 193.924 413.117 194.49 413.747 195.482C412.682 195.102 411.824 194.679 410.677 194.749C411.302 197.465 412.928 196.1 411.373 199.142C411.515 199.174 411.658 199.204 411.8 199.239C412.418 199.391 412.989 199.606 413.582 199.831C413.45 201.299 412.893 201.689 411.751 202.631C411.497 202.841 411.229 203.033 410.968 203.234L411.276 203.881L412.833 203.928L413.259 204.392C412.539 205.036 412.262 205.045 411.344 205.236L411.898 206.453L411.391 207.673C412.21 208.017 412.867 208.191 413.75 208.293C412.418 209.183 412.112 209.201 411.738 210.79C411.657 211.138 411.623 211.519 411.583 211.876C410.365 211.478 410.169 211.349 409.305 210.402C409.064 209.238 409.004 207.629 408.241 206.733C407.698 206.096 407.165 205.648 407.209 204.796C407.271 203.569 407.391 202.738 406.679 201.663C406.427 201.554 406.172 201.45 405.922 201.337C405.16 200.995 404.565 200.65 403.888 200.177C404.32 199.47 404.724 199.334 405.43 198.936C405.497 197.717 405.437 197.951 404.751 197.07C404.595 197.134 404.442 197.202 404.285 197.261C403.562 197.534 403.845 197.452 402.999 197.483C403.134 196.47 403.4 195.788 403.778 194.849C403.418 193.724 403.418 193.602 402.486 192.9C401.759 193.214 401.036 193.513 400.297 193.8L400.31 193.072L402.206 191.714L402.219 191.069C401.155 190.86 399.236 191.447 398.763 190.782L398.757 190.089C399.996 190.034 399.391 190.025 400.572 190.106L400.932 189.495C400.494 189.112 399.173 188.209 398.95 187.758C398.379 186.607 399.429 186.6 397.921 185.869L395.945 186.898L395.535 186.277C396.301 185.661 397.075 185.072 397.872 184.498L397.508 183.705C396.569 183.851 397.079 183.752 395.981 184.025C395.296 183.26 395.181 182.75 394.909 181.803C393.523 176.977 388.359 170.115 384.849 166.501C384.282 165.917 384.058 165.575 383.814 164.805L383.282 164.659L382.399 166.3L381.964 166.014L382.086 164.246L381.474 163.694L380.005 164.182L379.656 163.573C380.542 162.722 381.282 162.765 382.45 162.634C380.292 160.007 377.478 163.326 376.024 158.028C375.635 156.612 375.362 155.996 374.013 155.326C372.961 154.803 371.787 154.433 370.682 154.035C370.124 153.425 369.914 153.041 369.69 152.246C368.833 152.693 368.909 152.827 368.477 153.64C366.225 152.384 366.181 149.395 363.955 148.105L362.519 149.101C358.512 147.45 363.289 144.699 355.775 145.46C355.778 145.296 355.783 145.131 355.784 144.966C355.788 144.172 355.792 144.466 355.69 143.559C355.464 143.6 355.24 143.645 355.014 143.683C354.346 143.793 353.843 143.822 353.178 143.779C353.384 143.562 353.598 143.354 353.795 143.129C353.95 142.95 354.087 142.757 354.233 142.57C352.637 141.506 350.849 141.289 349.297 140.204C350.06 143.836 348.824 138.381 349.886 141.783C349.972 142.058 349.943 142.357 349.972 142.644C348.669 142.148 347.854 139.122 347.127 139.414L346.441 141.701C346.29 140.872 346.315 139.611 345.642 139.106C345.149 139.317 344.659 139.525 344.159 139.718Q343.624 138.795 343.124 137.853C338.038 137.597 336.556 136.261 332.171 134.832C330.915 134.422 329.58 134.618 328.24 134.19Z"/>
	<path fill="#FDFAFA" d="M401.701 89.5667C402.971 89.4371 404.377 89.2119 405.648 89.3653C408.322 89.6882 409.758 92.2674 411.17 94.252C408.805 97.2959 406.434 100.462 403.619 103.105C399.302 107.159 394.373 110.579 390.151 114.728C384.952 119.836 381.226 125.863 374.968 129.846C374.143 130.113 373.068 130.715 372.258 130.393C370.335 129.628 367.266 128.677 366.667 126.489C366.286 125.095 366.928 123.304 367.499 122.034C372.163 111.652 391.068 93.4372 401.701 89.5667Z"/>
</svg>
