<?xml version="1.0" encoding="utf-8" ?>
<svg xmlns="http://www.w3.org/2000/svg" xmlns:xlink="http://www.w3.org/1999/xlink" width="1024" height="1024">
	<path fill="#010521" d="M0 0L1024 0L1024 863.965L1024 875.126L1024 877.672L1024 1024L0 1024L0 848.515L0 719.235L0 713.156L0 312.147L0 307.033L0 0Z"/>
	<path fill="#050D44" d="M733.545 819.528C734.126 819.521 734.711 819.513 735.292 819.54C736.983 819.618 738.128 819.817 739.278 821.039C738.396 821.238 737.087 821.618 736.204 821.531C734.775 821.391 734.384 820.546 733.545 819.528Z"/>
	<path fill="#FEFEFE" d="M0 713.156C1.14578 714.399 1.95153 714.909 2.23142 716.603C1.57587 717.709 0.93054 718.375 0 719.235L0 713.156Z"/>
	<path fill="#050D44" d="M579.721 96.7836C580.252 97.1314 580.862 97.6296 581.19 98.1783C581.859 99.2997 581.708 99.8668 581.405 101.017Q579.93 100.223 578.467 99.4096C578.353 98.0362 578.905 97.8115 579.721 96.7836Z"/>
	<path fill="#FEFEFE" d="M739.852 89.678C740.55 89.9576 741.177 90.3615 741.828 90.7358C742.445 92.2122 742.217 92.7742 741.986 94.3278C741.199 94.0723 740.59 93.6829 739.88 93.2642C739.311 91.7745 739.566 91.2173 739.852 89.678Z"/>
	<path fill="#FEFEFE" d="M898.973 217.223C899.678 217.436 900.32 217.784 900.984 218.099C901.71 219.538 901.423 220.224 901.239 221.798L899.171 220.752C898.464 219.278 898.721 218.803 898.973 217.223Z"/>
	<path fill="#FEFEFE" d="M0 307.033C1.3483 307.428 1.97165 307.379 2.8153 308.538C2.41033 310.186 1.31659 311.121 0 312.147L0 307.033Z"/>
	<path fill="#FEFEFE" d="M867.794 75.6621C868.507 75.9536 869.157 76.3586 869.828 76.7371C870.476 78.2046 870.264 78.7815 870.071 80.3448C869.179 80.066 868.651 79.7528 867.872 79.2573C867.224 77.9929 867.545 76.9851 867.794 75.6621Z"/>
	<path fill="#FEFEFE" d="M671.749 127.792C672.536 127.888 673.29 128.093 674.06 128.276C675.162 129.473 675.115 130.138 675.41 131.709C674.571 131.606 673.761 131.405 672.936 131.223C671.877 130.022 671.972 129.35 671.749 127.792Z"/>
	<path fill="#FEFEFE" d="M840.339 34.6901C841.068 34.9348 841.728 35.3144 842.412 35.6626C843.026 37.0654 842.666 37.7913 842.394 39.2736C841.624 39.0603 841.077 38.6844 840.398 38.2749C839.808 36.769 840.052 36.2493 840.339 34.6901Z"/>
	<path fill="#FEFEFE" d="M294.357 101.153C295.012 101.484 295.591 101.928 296.194 102.344C296.639 103.961 296.342 104.516 295.908 106.103L293.899 104.512C293.5 103.012 293.842 102.584 294.357 101.153Z"/>
	<path fill="#FEFEFE" d="M838.526 276.879L841.315 277.047C842.56 277.996 842.567 278.648 843.048 280.107L840.445 279.892C839.138 278.953 839.092 278.353 838.526 276.879Z"/>
	<path fill="#FEFEFE" d="M136.979 150.703C137.83 150.969 138.344 151.278 139.089 151.75C139.78 153.015 139.44 154.061 139.194 155.399C138.413 155.126 137.805 154.764 137.095 154.347C136.522 152.828 136.727 152.276 136.979 150.703Z"/>
	<path fill="#FEFEFE" d="M146.628 44.7878C147.534 44.8534 148.336 45.0347 149.219 45.2343C150.199 46.4577 150.149 47.241 150.38 48.7694C149.552 48.6131 148.728 48.3431 147.914 48.12C146.89 46.8673 146.895 46.3464 146.628 44.7878Z"/>
	<path fill="#FEFEFE" d="M571.54 111.813C572.533 111.851 573.446 112.031 574.418 112.23C575.392 113.352 575.3 113.83 575.479 115.272C574.668 115.341 573.972 115.23 573.169 115.127C571.951 113.998 571.957 113.387 571.54 111.813Z"/>
	<path fill="#FEFEFE" d="M73.7209 164.18L75.6426 165.425C76.34 166.905 76.0911 167.506 75.8906 169.1C74.9716 168.748 74.2562 168.259 73.4485 167.703C73.0143 166.254 73.3488 165.623 73.7209 164.18Z"/>
	<path fill="#FEFEFE" d="M959.091 11.8132C959.982 11.8897 960.857 12.0592 961.738 12.2083C962.803 13.4732 962.664 14.1413 962.829 15.7564C962.036 15.6385 961.243 15.4086 960.462 15.2241C959.372 14.0375 959.401 13.3673 959.091 11.8132Z"/>
	<path fill="#FEFEFE" d="M681.65 61.7559C682.451 61.8254 683.255 61.9883 684.05 62.1142C685.149 63.2852 684.977 64.1522 685.157 65.7197C684.347 65.642 683.565 65.4423 682.771 65.2725C681.724 64.022 681.837 63.3476 681.65 61.7559Z"/>
	<path fill="#FEFEFE" d="M9.50684 67.7867C10.4609 67.8153 11.3328 67.9556 12.273 68.1081C13.2166 69.2853 13.0251 70.1548 13.1196 71.6362C12.3524 71.5535 11.6257 71.3321 10.8792 71.1418C9.83626 69.881 9.81174 69.3553 9.50684 67.7867Z"/>
	<path fill="#FEFEFE" d="M514.682 157.638C515.452 157.916 516.162 158.307 516.893 158.673C517.67 160.158 517.541 160.754 517.492 162.397C516.693 162.073 515.918 161.658 515.141 161.282C514.376 159.814 514.564 159.256 514.682 157.638Z"/>
	<path fill="#FEFEFE" d="M628.839 258.076C629.763 258.383 630.369 258.72 631.191 259.222C631.589 260.733 631.248 261.318 630.811 262.791L628.709 261.438C628.164 260.038 628.492 259.509 628.839 258.076Z"/>
	<path fill="#FEFEFE" d="M627.237 41.7731C628.079 41.8607 628.897 42.058 629.726 42.2296C630.817 43.4704 630.715 44.1041 630.935 45.7104C630.018 45.6307 629.164 45.4615 628.262 45.2806C627.27 44.0332 627.391 43.3334 627.237 41.7731Z"/>
	<path fill="#FEFEFE" d="M291.108 288.219C292.27 288.435 293.049 288.687 294.073 289.278C294.515 290.696 294.245 291.288 293.927 292.716C293.316 292.525 292.667 292.148 292.086 291.871C291.177 290.449 291.226 289.867 291.108 288.219Z"/>
	<path fill="#FEFEFE" d="M891.689 68.717C892.635 68.8503 893.441 69.0978 894.357 69.3668C895.243 70.7335 895.056 71.3166 895.038 72.9136C894.329 72.8716 893.656 72.6798 892.965 72.5243C891.862 71.2262 891.941 70.3764 891.689 68.717Z"/>
	<path fill="#FEFEFE" d="M123.174 582.725C124.04 582.839 124.88 583.052 125.732 583.241C126.703 584.534 126.439 585.266 126.429 586.853C125.684 586.897 125.16 586.761 124.439 586.595C123.388 585.245 123.429 584.395 123.174 582.725Z"/>
	<path fill="#FEFEFE" d="M456.742 132.248C457.618 132.357 458.37 132.588 459.213 132.841C460.097 134.204 459.969 134.849 460.027 136.445C459.033 136.48 458.456 136.261 457.548 135.873C456.627 134.757 456.763 133.616 456.742 132.248Z"/>
	<path fill="#FEFEFE" d="M87.1035 67.2544C88.0907 67.2823 88.9784 67.4814 89.9396 67.698C90.927 68.8277 90.8117 69.3233 90.9732 70.7828C90.0196 71.0415 89.4349 70.9478 88.4734 70.757C87.4168 69.5257 87.4166 68.8207 87.1035 67.2544Z"/>
	<path fill="#FEFEFE" d="M300.324 250.669C301.198 250.851 301.96 251.148 302.794 251.462C303.81 252.682 303.768 253.616 303.821 255.119C302.883 254.86 301.957 254.551 301.028 254.26C300.062 252.926 300.305 252.284 300.324 250.669Z"/>
	<path fill="#FEFEFE" d="M599.739 32.2161C600.478 32.5934 601.074 33.0639 601.736 33.5608C602.2 35.2093 601.91 35.8103 601.501 37.442C600.73 36.8824 600.037 36.2773 599.315 35.6566C598.959 34.0863 599.221 33.6993 599.739 32.2161Z"/>
	<path fill="#FEFEFE" d="M960.901 356.617C961.898 356.801 962.567 357.135 963.447 357.631C963.966 359.018 963.664 359.785 963.425 361.227C962.628 361.061 961.979 360.753 961.236 360.428C960.501 358.966 960.759 358.223 960.901 356.617Z"/>
	<path fill="#FEFEFE" d="M726.737 252.216C727.498 252.524 728.207 252.95 728.928 253.342C729.459 254.803 729.06 255.407 728.653 256.879C727.769 256.528 727.14 256.122 726.355 255.598C725.935 254.043 726.217 253.697 726.737 252.216Z"/>
	<path fill="#FEFEFE" d="M315.894 219.044C316.67 219.259 317.426 219.59 318.178 219.878C319.009 221.22 318.828 221.786 318.793 223.335C317.642 223.12 316.919 222.859 315.921 222.247C315.422 220.872 315.595 220.502 315.894 219.044Z"/>
	<path fill="#FEFEFE" d="M29.7862 593.182C30.8407 593.313 31.5544 593.613 32.5045 594.081C33.1426 595.471 32.8996 596.009 32.6844 597.495L30.3303 596.617C29.5028 595.272 29.7115 594.729 29.7862 593.182Z"/>
	<path fill="#FEFEFE" d="M926.501 96.6647C927.506 96.8615 928.075 97.2372 928.911 97.8175C929.407 99.3706 929.232 99.8617 928.928 101.425C928.159 101.192 927.464 100.77 926.75 100.404C926.056 98.9603 926.328 98.2329 926.501 96.6647Z"/>
	<path fill="#FEFEFE" d="M832.937 141.728C833.617 141.949 834.312 142.325 834.965 142.622C835.884 144.048 835.727 144.666 835.749 146.331C834.583 146.138 833.919 145.886 832.925 145.247C832.444 143.814 832.676 143.193 832.937 141.728Z"/>
	<path fill="#FEFEFE" d="M483.567 201.154C484.546 201.344 485.351 201.687 486.26 202.091C486.967 203.507 486.688 204.045 486.459 205.579C485.649 205.407 484.951 205.07 484.191 204.748C483.395 203.322 483.532 202.755 483.567 201.154Z"/>
	<path fill="#FEFEFE" d="M101.151 153.864C102.138 153.9 103.063 154.037 104.042 154.172C105.19 155.41 105.213 156.164 105.597 157.783L103.025 157.29C101.74 156.363 101.563 155.305 101.151 153.864Z"/>
	<path fill="#FEFEFE" d="M7.78885 741.601C8.70954 741.983 9.29086 742.405 10.0828 742.996C10.503 744.463 10.2194 745.08 9.8719 746.543C9.13279 746.239 8.42056 745.835 7.70714 745.474C7.01722 743.911 7.42741 743.238 7.78885 741.601Z"/>
	<path fill="#FEFEFE" d="M841.645 231.285C842.715 231.348 843.538 231.566 844.552 231.914C845.464 233.216 845.319 233.754 845.367 235.311C844.433 235.352 843.879 235.159 842.995 234.89C841.878 233.783 841.844 232.763 841.645 231.285Z"/>
	<path fill="#FEFEFE" d="M938.218 237.729C939.218 237.809 940.03 238.013 940.983 238.324C941.857 239.737 941.651 240.458 941.627 242.093L939.457 241.491C938.363 240.222 938.457 239.362 938.218 237.729Z"/>
	<path fill="#FEFEFE" d="M573.711 155.224C574.643 155.33 575.482 155.536 576.395 155.751C577.409 157.075 577.221 157.729 577.29 159.364C576.268 159.238 575.401 158.899 574.439 158.551C573.607 157.285 573.745 156.712 573.711 155.224Z"/>
	<path fill="#FEFEFE" d="M293.853 211.65C294.874 211.808 295.568 212.125 296.479 212.602C297.129 214.016 296.877 214.85 296.745 216.381C295.947 216.134 295.21 215.762 294.449 215.418C293.6 213.959 293.797 213.308 293.853 211.65Z"/>
	<path fill="#FEFEFE" d="M114.648 199.694C115.603 199.81 116.468 200.023 117.403 200.245C118.422 201.553 118.254 202.171 118.345 203.795C117.306 203.866 116.921 203.76 115.958 203.448C114.9 202.456 114.877 201.056 114.648 199.694Z"/>
	<path fill="#FEFEFE" d="M149.664 245.243C150.697 245.319 151.6 245.601 152.591 245.887C153.482 247.224 153.301 247.686 153.266 249.256C152.361 249.375 151.817 249.219 150.939 249.018C149.904 247.724 149.933 246.857 149.664 245.243Z"/>
	<path fill="#FEFEFE" d="M866.298 48.1659C867.1 48.5942 867.674 49.0612 868.37 49.6379C868.961 51.0607 868.423 52.2153 868.002 53.6076C867.234 53.0434 866.54 52.4409 865.818 51.8188C865.484 50.2822 865.837 49.6454 866.298 48.1659Z"/>
	<path fill="#FEFEFE" d="M135.808 122.678C136.735 122.887 137.405 123.149 138.264 123.532C139.125 125.002 138.954 125.838 138.969 127.519C138.016 127.169 137.233 126.733 136.341 126.25C135.611 124.827 135.746 124.246 135.808 122.678Z"/>
	<path fill="#FEFEFE" d="M189.889 108.133C190.74 108.356 191.473 108.69 192.276 109.043C193.085 110.531 192.814 111.22 192.666 112.879C191.834 112.627 191.046 112.254 190.247 111.911C189.435 110.456 189.73 109.762 189.889 108.133Z"/>
	<path fill="#FEFEFE" d="M956.722 36.7887C957.846 36.8194 958.674 36.9694 959.741 37.3245C960.606 38.6737 960.505 39.2993 960.58 40.8721C959.776 40.8057 959.047 40.595 958.267 40.3977C957.089 39.3703 957.006 38.2415 956.722 36.7887Z"/>
	<path fill="#FEFEFE" d="M29.849 274.634C30.8147 274.893 31.5096 275.222 32.3941 275.672C33.0441 277.172 32.8595 277.781 32.6943 279.378C31.7402 279.093 31.0164 278.745 30.1373 278.292C29.4695 276.808 29.6728 276.222 29.849 274.634Z"/>
	<path fill="#FEFEFE" d="M606.204 58.7235C607.293 58.8259 608.031 59.1028 609.023 59.5573C609.89 60.7266 609.742 61.9031 609.741 63.2873C608.848 63.1066 608.079 62.8076 607.228 62.4869C606.196 61.298 606.273 60.2113 606.204 58.7235Z"/>
	<path fill="#FEFEFE" d="M463.777 238.68C464.64 238.817 465.397 239.062 466.228 239.325C467.276 240.64 467.205 241.141 467.395 242.772C466.343 243.066 465.893 242.997 464.859 242.659C463.816 241.484 463.891 240.168 463.777 238.68Z"/>
	<path fill="#FEFEFE" d="M326.726 145.715C327.654 146.029 328.262 146.452 329.04 147.042C329.411 148.548 328.977 149.302 328.528 150.766C327.689 150.278 327.073 149.755 326.343 149.122C326.002 147.595 326.252 147.169 326.726 145.715Z"/>
	<path fill="#FEFEFE" d="M241.39 176.196C242.426 176.5 243.143 176.906 244.041 177.501C244.51 178.951 244.247 179.565 243.945 181.034C243.177 180.764 242.441 180.334 241.712 179.969C240.944 178.476 241.212 177.836 241.39 176.196Z"/>
	<path fill="#FEFEFE" d="M216.741 34.7543C217.814 34.819 218.546 35.0731 219.534 35.4888C220.278 36.9104 220.157 37.5417 220.131 39.1183C219.112 39.0576 218.461 38.8043 217.537 38.3787C216.613 37.2616 216.756 36.1237 216.741 34.7543Z"/>
	<path fill="#FEFEFE" d="M996.41 244.26C997.288 244.699 997.87 245.151 998.624 245.767C998.903 247.291 998.449 247.928 997.89 249.349C996.942 248.885 996.493 248.443 995.748 247.715C995.531 246.107 995.797 245.718 996.41 244.26Z"/>
	<path fill="#FEFEFE" d="M394.985 129.734C395.668 130.143 396.302 130.667 396.939 131.143C397.353 132.689 396.869 133.373 396.352 134.861C395.479 134.302 394.722 133.661 393.934 132.989C393.722 131.52 394.282 131.01 394.985 129.734Z"/>
	<path fill="#FEFEFE" d="M767.934 297.196C769.043 297.459 769.646 297.82 770.555 298.501C770.977 299.966 770.697 300.596 770.36 302.059C769.424 301.844 768.859 301.389 768.066 300.867C767.466 299.31 767.666 298.806 767.934 297.196Z"/>
	<path fill="#FEFEFE" d="M775.504 137.592C776.522 137.947 777.161 138.381 778.002 139.05C778.311 140.51 777.845 141.232 777.353 142.62C776.61 142.232 775.896 141.676 775.194 141.211C774.682 139.643 775.039 139.141 775.504 137.592Z"/>
	<path fill="#FEFEFE" d="M491.943 66.6668C493.021 66.9513 493.672 67.3249 494.577 67.9724C495.019 69.4656 494.731 70.0692 494.375 71.5597C493.488 71.3695 492.948 70.998 492.177 70.5377C491.522 68.995 491.751 68.3051 491.943 66.6668Z"/>
	<path fill="#FEFEFE" d="M455.758 168.744C456.783 168.882 457.584 169.131 458.559 169.459C459.535 170.714 459.432 171.255 459.573 172.807C458.414 172.957 457.846 172.821 456.763 172.392C455.839 171.271 455.872 170.126 455.758 168.744Z"/>
	<path fill="#FEFEFE" d="M258.955 58.6185C259.843 59.0032 260.476 59.5378 261.219 60.1501C261.547 61.7303 261.189 62.3028 260.672 63.8036C259.791 63.3284 259.174 62.8504 258.409 62.2167C258.112 60.7428 258.504 60.0335 258.955 58.6185Z"/>
	<path fill="#FEFEFE" d="M949.894 280.62C950.742 280.898 951.441 281.304 952.223 281.73C952.877 283.283 952.567 283.813 952.233 285.43C951.093 285.318 950.857 285.119 949.938 284.497C949.274 283.01 949.543 282.124 949.894 280.62Z"/>
	<path fill="#FEFEFE" d="M1010.92 244.611C1011.85 244.896 1012.53 245.245 1013.37 245.708C1013.98 247.278 1013.65 247.886 1013.3 249.504C1012.44 249.366 1011.91 249.028 1011.15 248.619C1010.47 246.998 1010.71 246.325 1010.92 244.611Z"/>
	<path fill="#FEFEFE" d="M290.779 26.7055C291.689 27.0603 292.258 27.4657 293.042 28.0331C293.423 29.5569 292.998 30.2906 292.546 31.7728C291.661 31.3265 290.991 30.7702 290.236 30.1327C289.944 28.5765 290.232 28.1547 290.779 26.7055Z"/>
	<path fill="#FEFEFE" d="M498.683 242.756C499.751 242.825 500.551 243.059 501.554 243.426C502.408 244.709 502.284 245.296 502.342 246.809C501.235 247.111 500.769 246.93 499.715 246.521C498.765 245.28 498.777 244.246 498.683 242.756Z"/>
	<path fill="#FEFEFE" d="M507.168 30.2054C508.266 30.2769 509.136 30.5267 510.178 30.877C510.964 32.2053 510.819 32.8114 510.812 34.3287C509.734 34.5104 509.449 34.4155 508.437 34.1087C507.31 32.9925 507.34 31.6955 507.168 30.2054Z"/>
	<path fill="#FEFEFE" d="M632.367 14.162L634.745 15.1009C635.721 16.5374 635.515 17.3274 635.546 19.0357C634.528 18.7818 633.672 18.3912 632.728 17.938C632.016 16.501 632.25 15.7388 632.367 14.162Z"/>
	<path fill="#FEFEFE" d="M548.758 76.1835C549.826 76.4141 550.553 76.7124 551.548 77.1372C552.362 78.5393 552.161 79.2715 552.121 80.8675C551.061 80.6639 550.283 80.2638 549.334 79.7607C548.555 78.3176 548.695 77.7876 548.758 76.1835Z"/>
	<path fill="#FEFEFE" d="M538.783 149.704C539.752 149.98 540.311 150.384 541.101 151.001C541.423 152.551 540.975 153.287 540.474 154.767C539.698 154.343 539.03 153.843 538.316 153.323C537.878 151.732 538.256 151.233 538.783 149.704Z"/>
	<path fill="#FEFEFE" d="M339.381 138.061C340.443 138.42 341.163 138.852 342.067 139.511C342.393 141.02 341.937 141.684 341.413 143.113C340.667 142.738 339.969 142.211 339.27 141.752C338.676 140.235 339.028 139.622 339.381 138.061Z"/>
	<path fill="#FEFEFE" d="M416.295 179.758C417.188 179.897 417.952 180.169 418.805 180.458C419.819 181.725 419.77 182.232 419.98 183.804C418.776 184.08 418.297 184.08 417.15 183.615C416.201 182.289 416.281 181.308 416.295 179.758Z"/>
	<path fill="#FEFEFE" d="M753.762 248.653C754.943 248.843 755.664 249.13 756.695 249.737C757.479 250.988 757.293 251.993 757.184 253.392C756.145 253.219 755.423 252.888 754.492 252.402C753.66 250.973 753.787 250.28 753.762 248.653Z"/>
	<path fill="#FEFEFE" d="M749.759 770.685C750.819 770.826 751.579 771.131 752.545 771.583C753.351 773.035 753.185 773.727 753.153 775.361C752.057 775.184 751.289 774.785 750.314 774.267C749.579 772.834 749.704 772.263 749.759 770.685Z"/>
	<path fill="#FEFEFE" d="M534.822 67.155C535.673 67.3044 536.432 67.5566 537.251 67.8226C538.247 69.3293 537.969 70.235 537.943 72.0117C536.991 71.6818 536.173 71.2717 535.269 70.827C534.531 69.3298 534.697 68.7851 534.822 67.155Z"/>
	<path fill="#FEFEFE" d="M74.4708 103.709C75.5101 103.985 76.1844 104.369 77.0743 104.967C77.6345 106.493 77.3564 107.2 77.0901 108.78C76.2333 108.455 75.4817 108.012 74.677 107.573C73.9796 106.009 74.2411 105.376 74.4708 103.709Z"/>
	<path fill="#FEFEFE" d="M99.5541 602.15C100.497 602.611 100.91 603.007 101.643 603.733C101.823 605.424 101.449 605.92 100.759 607.439C99.8887 607.071 99.4179 606.595 98.7209 605.972C98.4971 604.257 98.889 603.712 99.5541 602.15Z"/>
	<path fill="#FEFEFE" d="M311.395 179.682C312.506 179.951 313.161 180.307 314.093 180.965C314.528 182.482 314.216 183.138 313.849 184.649C312.862 184.373 312.315 184.001 311.468 183.445C310.903 181.841 311.101 181.318 311.395 179.682Z"/>
	<path fill="#FEFEFE" d="M141.306 142.64C142.318 142.799 143.101 143.099 144.036 143.512C144.885 144.996 144.737 145.671 144.729 147.352C143.704 147.202 142.921 146.911 141.974 146.496C141.147 145.045 141.306 144.286 141.306 142.64Z"/>
	<path fill="#FEFEFE" d="M327.787 70.1754C328.8 70.3674 329.61 70.6592 330.568 71.025C331.43 72.5155 331.198 73.2062 331.115 74.8962C330.053 74.6995 329.237 74.3027 328.273 73.8268C327.548 72.3459 327.69 71.7878 327.787 70.1754Z"/>
	<path fill="#FEFEFE" d="M116.965 791.629C117.846 792.085 118.444 792.533 119.207 793.153C119.614 794.751 119.257 795.383 118.798 796.939C117.937 796.512 117.214 796.039 116.421 795.501C115.963 793.913 116.46 793.176 116.965 791.629Z"/>
	<path fill="#FEFEFE" d="M357.826 7.16369C358.822 7.37886 359.626 7.68911 360.566 8.06998C361.429 9.52645 361.208 10.2246 361.148 11.8879C359.995 11.6759 359.191 11.3296 358.159 10.7793C357.4 9.51514 357.644 8.546 357.826 7.16369Z"/>
	<path fill="#FEFEFE" d="M101.493 19.1257C102.603 19.3525 103.265 19.7103 104.21 20.3288C104.883 21.7643 104.481 22.8168 104.125 24.2716C103.348 23.9373 102.596 23.4817 101.848 23.0842C101.096 21.5159 101.331 20.8284 101.493 19.1257Z"/>
	<path fill="#FEFEFE" d="M330.116 15.2527C331.226 15.31 332.163 15.5308 333.232 15.8291C334.144 17.2081 334.005 17.8573 334.062 19.4805C332.991 19.5356 332.26 19.2569 331.261 18.8947C330.254 17.7835 330.264 16.6714 330.116 15.2527Z"/>
	<path fill="#FEFEFE" d="M533.218 42.1471C534.394 42.4177 535.113 42.7391 536.113 43.414C536.752 44.7657 536.333 45.8686 536.01 47.2456C535.084 46.8789 534.398 46.4107 533.559 45.8741C532.898 44.3451 533.058 43.7716 533.218 42.1471Z"/>
	<path fill="#FEFEFE" d="M147.853 114.61C149.031 114.867 149.651 115.197 150.615 115.917C151.193 117.259 150.849 118.316 150.565 119.68C149.554 119.311 148.76 118.833 147.861 118.246C147.351 116.796 147.606 116.105 147.853 114.61Z"/>
	<path fill="#FEFEFE" d="M507.165 185.252C508.202 185.319 509.085 185.61 510.074 185.909C511.068 187.253 510.968 188.055 511.135 189.694C510.048 189.664 509.249 189.366 508.237 188.987C507.203 187.795 507.253 186.745 507.165 185.252Z"/>
	<path fill="#FEFEFE" d="M801.814 127.649C802.847 127.805 803.612 128.12 804.556 128.561C805.411 130.036 805.218 130.724 805.174 132.399C804.002 132.191 803.209 131.847 802.165 131.279C801.514 129.825 801.682 129.209 801.814 127.649Z"/>
	<path fill="#FEFEFE" d="M662.935 93.623C663.876 93.9771 664.506 94.4226 665.327 94.9914C665.766 96.5747 665.392 97.2429 664.954 98.8007C664.013 98.3734 663.235 97.8141 662.395 97.2168C661.998 95.7081 662.438 95.0755 662.935 93.623Z"/>
	<path fill="#FEFEFE" d="M163.717 21.2071C164.642 21.584 165.374 22.0972 166.189 22.6697C166.609 24.2624 166.224 24.9445 165.772 26.5032C164.849 26.0506 164.122 25.5022 163.317 24.8667C162.939 23.2953 163.257 22.7278 163.717 21.2071Z"/>
	<path fill="#FEFEFE" d="M498.983 7.73068C500.091 7.86073 500.971 8.10874 502.014 8.50086C502.88 9.88636 502.732 10.6811 502.784 12.2915C501.784 12.1462 500.919 11.7968 499.979 11.4388C499.043 10.0471 499.117 9.37391 498.983 7.73068Z"/>
	<path fill="#FEFEFE" d="M646.45 2.65295C647.45 2.96767 648.118 3.52843 648.941 4.16032C649.259 5.7425 648.868 6.20555 648.26 7.66658C647.153 7.42653 646.638 7.00342 645.782 6.28015C645.502 4.56723 645.788 4.20758 646.45 2.65295Z"/>
	<path fill="#FEFEFE" d="M570.417 168.174C571.511 168.441 572.187 168.795 573.118 169.425C573.611 170.997 573.295 171.75 572.968 173.342C571.961 173.092 571.298 172.604 570.452 172.019C569.901 170.502 570.172 169.748 570.417 168.174Z"/>
	<path fill="#FEFEFE" d="M501.076 48.1897C502.105 48.6118 502.742 49.0552 503.572 49.7927C503.815 51.3995 503.383 52.0837 502.816 53.5832C501.952 53.1143 501.295 52.5049 500.554 51.8676C500.181 50.2719 500.554 49.7133 501.076 48.1897Z"/>
	<path fill="#FEFEFE" d="M200.888 99.9882C201.847 100.273 202.621 100.62 203.518 101.052C204.219 102.485 204.01 103.294 203.924 104.867C202.748 104.564 201.95 104.206 200.926 103.553C200.395 102.075 200.62 101.508 200.888 99.9882Z"/>
	<path fill="#FEFEFE" d="M23.8098 110.128C24.932 110.346 25.739 110.75 26.7494 111.26C27.325 112.784 26.9295 113.315 26.4861 114.849C25.181 114.791 25.0503 114.705 23.9783 113.945C23.3446 112.52 23.5536 111.596 23.8098 110.128Z"/>
	<path fill="#FEFEFE" d="M877.643 177.306C878.692 177.348 879.619 177.605 880.633 177.86C881.662 179.244 881.513 179.914 881.62 181.604C880.469 181.628 879.777 181.445 878.71 181.019C877.755 179.595 877.798 178.979 877.643 177.306Z"/>
	<path fill="#FEFEFE" d="M497.217 150.197C498.287 150.283 499.211 150.523 500.24 150.824C501.276 152.231 501.133 152.923 501.245 154.636C500.235 154.549 499.423 154.349 498.45 154.085C497.386 152.743 497.454 151.87 497.217 150.197Z"/>
	<path fill="#FEFEFE" d="M862.412 165.128C863.464 165.331 864.287 165.735 865.244 166.207C865.926 167.792 865.597 168.463 865.301 170.133C864.258 169.937 863.731 169.642 862.82 169.129C861.964 167.742 862.227 166.657 862.412 165.128Z"/>
	<path fill="#FEFEFE" d="M560.867 127.657C562.088 127.892 562.868 128.184 563.932 128.829C564.475 130.467 564.194 131.087 563.842 132.746C563.011 132.503 562.303 132.093 561.536 131.699C560.675 130.12 560.832 129.424 560.867 127.657Z"/>
	<path fill="#FEFEFE" d="M303.298 129.69C304.262 130.004 304.927 130.475 305.746 131.063C306.194 132.741 305.851 133.335 305.373 134.973C304.343 134.505 303.589 134.005 302.713 133.29C302.406 131.762 302.794 131.14 303.298 129.69Z"/>
	<path fill="#FEFEFE" d="M293.922 191.574C295.1 191.794 295.878 192.073 296.916 192.672C297.434 194.236 297.13 194.912 296.797 196.5C295.812 196.332 295.1 195.952 294.223 195.487C293.426 194.216 293.756 192.983 293.922 191.574Z"/>
	<path fill="#FEFEFE" d="M53.2084 233.701C54.3941 233.827 55.1684 234.065 56.2401 234.586C57.0145 235.981 56.8655 236.759 56.8702 238.333C55.814 238.315 55.1632 238.087 54.1722 237.756C53.2049 236.254 53.315 235.457 53.2084 233.701Z"/>
	<path fill="#FEFEFE" d="M236.349 87.1168C237.447 87.4314 238.162 87.8237 239.099 88.4745C239.518 90.0588 239.081 90.8126 238.619 92.3614C237.727 91.8932 236.942 91.3625 236.103 90.805C235.554 89.2263 235.911 88.6959 236.349 87.1168Z"/>
	<path fill="#FEFEFE" d="M138.195 229.613C139.409 229.901 140.088 230.221 141.089 230.965C141.682 232.307 141.249 233.523 140.959 234.892C140.071 234.622 139.392 234.275 138.576 233.842C137.771 232.209 138.041 231.4 138.195 229.613Z"/>
	<path fill="#FEFEFE" d="M97.9154 80.1206C98.973 80.5637 99.6869 81.0612 100.568 81.7928C100.891 83.494 100.462 84.1504 99.8788 85.7526C99.1346 85.301 98.433 84.6994 97.7326 84.1781C97.1403 82.4822 97.5021 81.8364 97.9154 80.1206Z"/>
	<path fill="#FEFEFE" d="M328.728 57.2028C329.885 57.3177 330.71 57.5494 331.778 58.0057C332.597 59.4836 332.403 60.2008 332.349 61.8628C331.234 62.003 330.675 61.7471 329.662 61.2979C328.696 60.0066 328.788 58.7418 328.728 57.2028Z"/>
	<path fill="#FEFEFE" d="M289.547 38.6721C290.625 39.0655 291.232 39.5243 292.085 40.286C292.27 41.9168 291.804 42.3957 291.065 43.828C290.983 43.8252 290.898 43.8398 290.818 43.8197C289.715 43.542 289.459 43.2133 288.726 42.3926C288.437 40.7796 288.834 40.0536 289.547 38.6721Z"/>
	<path fill="#FEFEFE" d="M432.45 21.6835C433.407 22.0119 434.16 22.5394 435 23.093C435.58 24.7647 435.245 25.2953 434.806 26.9726C433.565 26.5149 432.824 26.1997 431.824 25.2874C431.526 23.7481 431.924 23.136 432.45 21.6835Z"/>
	<path fill="#FEFEFE" d="M763.783 202.15C765.006 202.41 765.821 202.693 766.887 203.349C767.498 204.972 767.243 205.719 767.002 207.41C765.803 207.052 765.072 206.645 764.075 205.89C763.376 204.533 763.581 203.59 763.783 202.15Z"/>
	<path fill="#FEFEFE" d="M938.266 121.233C939.372 121.336 940.238 121.65 941.271 122.047C942.199 123.52 942.02 124.302 942.046 126.016C940.832 126.014 940.18 125.87 939.088 125.341C938.103 124.017 938.256 122.799 938.266 121.233Z"/>
	<path fill="#FEFEFE" d="M901.75 89.1452C902.956 89.5197 903.663 89.9038 904.645 90.6974C905.286 92.0246 904.872 93.1538 904.573 94.5167C903.442 94.0809 902.521 93.6003 901.505 92.9397C901.005 91.4542 901.404 90.6519 901.75 89.1452Z"/>
	<path fill="#FEFEFE" d="M211.314 238.161C212.547 238.281 213.43 238.501 214.57 238.986C215.387 240.485 215.176 241.111 215.072 242.784C213.88 243.005 213.357 242.849 212.243 242.394C211.237 241.011 211.34 239.791 211.314 238.161Z"/>
	<path fill="#050D44" d="M80.839 354.956L81.5324 355.768C81.4117 356.733 81.3176 357.526 80.9008 358.416C80.3156 359.666 80.2681 359.943 78.9954 360.441C78.3449 359.558 77.8457 358.7 77.3536 357.72C77.9554 356.157 79.4115 355.774 80.839 354.956Z"/>
	<path fill="#FEFEFE" d="M839.249 833.614C840.509 834.161 841.337 834.496 842.17 835.658C842.163 837.293 841.707 837.839 840.923 839.246C840.819 839.252 840.712 839.285 840.609 839.266C839.297 839.023 839.016 838.753 838.199 837.787C838.019 836.052 838.478 835.149 839.249 833.614Z"/>
	<path fill="#050D44" d="M253.192 95.4661C254.034 95.7141 254.91 95.9272 255.63 96.4566C257.502 97.8338 257.937 99.9644 258.197 102.133C256.74 101.304 254.751 100.345 253.765 98.931C252.913 97.7091 253.046 96.8816 253.192 95.4661Z"/>
	<path fill="#050D44" d="M615.948 623.879C617.548 624.477 619.192 624.916 620.433 626.141C620.733 627.808 620.349 627.927 619.451 629.298C618.981 629.543 618.578 629.583 618.06 629.669C616.307 628.129 616.192 626.076 615.948 623.879Z"/>
	<path fill="#FEFEFE" d="M987.883 512.636C989.489 513.126 990.383 513.473 991.455 514.759C991.678 516.262 991.194 517.167 990.596 518.494C989.168 518.068 988.299 517.809 987.257 516.659C986.887 515.03 987.299 514.12 987.883 512.636Z"/>
	<path fill="#050D44" d="M99.235 133.255C100.564 133.488 101.307 133.605 102.414 134.44L102.192 135.289C100.62 136.465 99.7059 137.229 99.0822 139.139C99.0346 139.284 98.9947 139.432 98.951 139.579L98.9031 140.255L96.8379 135.517C97.3186 134.097 97.978 134.009 99.235 133.255Z"/>
	<path fill="#FEFEFE" d="M127.036 748.158C128.81 748.554 129.781 748.854 130.931 750.267C131.177 751.782 130.646 752.76 130.059 754.108C128.611 753.633 127.646 753.29 126.516 752.199C126.01 750.74 126.582 749.554 127.036 748.158Z"/>
	<path fill="#050D44" d="M459.066 746.829C459.818 747.224 460.277 747.532 460.881 748.154C461.602 748.898 461.386 748.959 461.371 749.922C460.323 751.388 458.748 752.043 457.2 752.875L455.646 752.255L455.509 751.347C456.498 749.649 457.76 748.284 459.066 746.829Z"/>
	<path fill="#FEFEFE" d="M231.037 129.182C231.114 129.214 231.195 129.237 231.267 129.277C232.049 129.714 232.738 130.179 233.567 130.532C234.865 131.085 235.654 131.511 236.698 132.472C236.929 134.01 236.452 134.399 235.712 135.73C235.678 135.735 235.645 135.748 235.611 135.745C234.361 135.647 234.056 135.377 233.186 134.478C231.715 132.958 230.972 131.277 231.037 129.182Z"/>
	<path fill="#FEFEFE" d="M926.578 739.121C927.914 739.67 928.853 740.064 929.857 741.16C930.499 742.826 929.951 744.136 929.495 745.77C927.979 745.216 926.644 744.805 925.727 743.39C925.356 741.709 925.942 740.634 926.578 739.121Z"/>
	<path fill="#FEFEFE" d="M189.001 804.717C190.449 805.203 191.326 805.638 192.179 806.965C192.439 808.663 191.859 809.724 191.187 811.226C189.55 810.597 188.486 810.051 187.557 808.533C187.476 806.951 188.208 806.004 189.001 804.717Z"/>
	<path fill="#050D44" d="M328.065 89.6051C330.177 89.6213 332.896 89.4898 334.57 90.9237C335.112 92.5332 334.771 92.7977 334.175 94.3362L332.763 94.4273C330.573 93.3048 328.941 91.9626 328.065 89.6051Z"/>
	<path fill="#FEFEFE" d="M301.834 802.717C302.034 802.749 302.235 802.769 302.432 802.811C304.118 803.175 304.986 803.795 305.86 805.255C305.984 806.987 305.327 808.01 304.537 809.475C302.873 808.894 301.913 808.497 300.956 806.98C300.657 805.236 301.15 804.264 301.834 802.717Z"/>
	<path fill="#050D44" d="M113.374 521.389C114.348 521.341 114.702 521.423 115.599 521.857C117.954 522.998 120.644 523.531 123.116 524.44L123.043 525.061L121.624 525.452C118.586 525.339 114.872 525.518 111.939 524.744C110.878 524.464 110.773 524.495 110.239 523.5C110.951 522.271 112.135 521.932 113.374 521.389Z"/>
	<path d="M854.956 375.599C855.17 375.186 855.319 374.842 855.647 374.489C857.581 372.413 863.154 373.118 865.751 373.192C865.121 375.126 863.144 376.622 861.331 377.479C859.574 378.31 858.057 378.404 856.171 378.106C855.236 377.353 855.272 376.716 854.956 375.599Z"/>
	<path fill="#FEFEFE" d="M314.469 315.005C334.172 314.998 364.487 312.906 382.671 319.344C389.889 321.9 396.247 325.843 402.533 330.141C408.769 334.404 414.783 339.077 420.106 344.451C423.201 347.575 426.078 350.939 429.123 354.119C441.405 366.945 448.033 375.958 447.863 394.513C447.705 411.722 440.498 426.958 428.261 438.888Q438.522 457.744 449.05 476.453C452.819 483.214 456.874 489.95 460.212 496.933C441.824 497.752 423.015 497.058 404.599 496.76C395.874 489.166 387.314 481.324 379.92 472.399C380.136 480.622 380.237 488.824 379.549 497.03Q357.164 497.43 334.779 497.041C327.113 491.071 320.497 483.97 314.074 476.711L314.516 442.954L315.597 443.313C316.273 447.808 315.771 452.49 316.045 457.046C315.789 461.773 315.917 466.285 316.104 471.001L353.811 470.989C353.884 453.843 354.205 436.632 353.711 419.494C361.946 430.71 369.185 442.678 376.55 454.475C379.577 459.325 382.388 464.46 385.777 469.055L386.492 469.853C392.491 472.451 422.986 471.038 431.816 470.968C425.14 460.873 420.007 449.761 414.338 439.09C409.063 429.161 403.208 419.557 398.102 409.534C406.332 400.389 414.511 390.55 416.859 378.147C419.099 365.042 417.539 352.345 409.726 341.284C400.611 328.379 384.913 320.93 369.628 318.426C352.306 315.588 333.619 316.957 316.088 316.996L316.057 385.595C316.067 398.004 316.602 410.637 315.971 423.02C314.608 420.916 315.074 417.377 314.566 414.885C313.329 381.579 314.377 348.314 314.469 315.005Z"/>
	<path fill="#FEEF43" d="M359.561 438.216C365.275 441.687 370.633 454.755 373.591 460.659C371.099 470.647 372.169 481.689 372.45 491.913C365.029 490.996 357.572 491.122 350.115 491.301C346.652 491.384 342.853 491.792 339.413 491.377C338.441 491.26 337.714 490.896 336.867 490.435C331.028 485.072 325.065 479.789 319.587 474.055C332.712 475.53 346.751 474.54 359.984 474.497Q360.088 456.353 359.561 438.216Z"/>
	<path fill="#FEEF43" d="M420.394 349.74C420.683 349.893 420.986 350.023 421.262 350.198C422.928 351.251 424.739 354.362 425.911 355.975C432.504 365.054 438.719 374.009 440.321 385.373C443.3 406.515 433.722 419.902 421.682 435.882C424.902 442.273 428.559 448.394 431.839 454.747C438.42 467.494 444.476 480.124 452.513 492.064C440.571 490.384 427.974 491.109 415.944 491.07C412.883 491.06 409.626 491.489 407.323 489.168C401.971 483.438 395.726 478.486 389.761 473.408C405.756 474.416 422.025 475.227 438.033 474.085C433.934 465.103 428.717 456.354 424.048 447.649C417.693 435.799 411.613 423.764 404.816 412.159C408.981 407.769 412.965 403.088 416.149 397.929C426.15 381.728 424.587 367.499 420.394 349.74Z"/>
	<path fill="#FEFEFE" d="M636.016 529.025Q659.205 529.19 682.393 528.927C691.665 536.084 698.789 544.464 707.207 552.402C700.547 599.162 697.335 666.606 706.72 712.531C691.236 711.038 675.066 711.839 659.566 712.975L655.289 709.291C648.549 706.005 642.406 698.697 637.163 693.448L631.041 689.252C631.449 688.344 631.841 687.65 632.342 686.791C632.846 685.925 632.989 685.297 633.031 684.311C633.373 676.298 633.02 668.178 633.203 660.143C634.196 616.467 633.898 572.657 636.016 529.025Z"/>
	<path fill="#010521" d="M637.976 530.973Q659.002 530.364 680.035 530.682C679.045 550.718 678.358 570.576 678.454 590.65C670.188 583.091 663.861 573.278 656.472 564.861C650.682 558.264 643.754 552.513 637.56 546.266L637.976 530.973Z"/>
	<path fill="#B80605" d="M637.56 546.266C643.754 552.513 650.682 558.264 656.472 564.861C663.861 573.278 670.188 583.091 678.454 590.65Q678.848 620.781 677.841 650.898C677.583 660.612 677.737 670.424 676.807 680.099C671.969 666.871 668.926 652.923 665.137 639.384C663.293 632.797 660.802 626.36 658.688 619.851C656.057 611.747 653.658 603.466 649.487 595.986C646.032 589.791 641.437 584.314 637.039 578.78C636.915 567.927 637.308 557.113 637.56 546.266Z"/>
	<path fill="#FEEF43" d="M684.073 536.239C688.936 541.548 693.993 546.876 698.17 552.753C695.785 578.151 695.155 603.341 694.851 628.827C694.706 640.984 694.186 653.157 694.645 665.314C695.172 679.29 698.083 693.164 698.163 707.134C689.495 707.326 662.111 706.786 655.289 709.291C648.549 706.005 642.406 698.697 637.163 693.448L666.002 693.604C671.529 693.652 677.111 693.985 682.625 693.546C684.992 695.499 687.024 697.817 689.113 700.058C686.165 694.68 683.124 689.403 682.278 683.227C681.498 677.532 681.813 671.528 681.894 665.793C682.076 652.989 682.901 640.206 683.076 627.406C683.264 613.589 682.544 599.815 682.5 586.01Q682.606 561.103 684.073 536.239Z"/>
	<path fill="#010521" d="M637.039 578.78C641.437 584.314 646.032 589.791 649.487 595.986C653.658 603.466 656.057 611.747 658.688 619.851C660.802 626.36 663.293 632.797 665.137 639.384C668.926 652.923 671.969 666.871 676.807 680.099C676.972 681.968 676.975 683.879 677.052 685.756C663.173 686.129 649.242 685.972 635.356 686.047L636.374 619.976C636.566 606.242 636.226 592.497 637.039 578.78Z"/>
	<path fill="#010521" d="M316.088 316.996C333.619 316.957 352.306 315.588 369.628 318.426C384.913 320.93 400.611 328.379 409.726 341.284C417.539 352.345 419.099 365.042 416.859 378.147C414.511 390.55 406.332 400.389 398.102 409.534C403.208 419.557 409.063 429.161 414.338 439.09C420.007 449.761 425.14 460.873 431.816 470.968C422.986 471.038 392.491 472.451 386.492 469.853L385.777 469.055C382.388 464.46 379.577 459.325 376.55 454.475C369.185 442.678 361.946 430.71 353.711 419.494C354.205 436.632 353.884 453.843 353.811 470.989L316.104 471.001C315.917 466.285 315.789 461.773 316.045 457.046C315.771 452.49 316.273 447.808 315.597 443.313L314.516 442.954C314.323 433.605 314.503 424.236 314.566 414.885C315.074 417.377 314.608 420.916 315.971 423.02C316.602 410.637 316.067 398.004 316.057 385.595L316.088 316.996Z"/>
	<path fill="#D6D4D6" d="M314.566 414.885C315.074 417.377 314.608 420.916 315.971 423.02C316.414 431.301 317.633 449.476 316.045 457.046C315.771 452.49 316.273 447.808 315.597 443.313L314.516 442.954C314.323 433.605 314.503 424.236 314.566 414.885Z"/>
	<path fill="#FEFEFE" d="M353.539 354.135C361.535 353.127 369.143 352.321 376.184 357.026C379.353 361.008 382.05 364.896 381.404 370.287C380.919 374.34 378.562 377.724 375.34 380.129C371.804 382.768 367.906 383.781 363.676 384.61L353.635 384.5L353.539 354.135Z"/>
	<path fill="#FEEF43" d="M359.993 359.972C365.008 359.937 369.582 359.929 373.794 363.132C375.3 364.278 376.728 365.905 376.826 367.897C376.959 370.582 375.946 372.35 374.128 374.225C369.517 376.763 365.126 376.73 359.995 376.966L359.993 359.972Z"/>
	<path fill="#B80605" d="M376.184 357.026C384.008 354.403 392.419 352.203 400.268 356.165C409.649 360.899 411.827 369.947 416.859 378.147C414.511 390.55 406.332 400.389 398.102 409.534C403.208 419.557 409.063 429.161 414.338 439.09C420.007 449.761 425.14 460.873 431.816 470.968C422.986 471.038 392.491 472.451 386.492 469.853L385.777 469.055C387.171 459.907 386.328 449.367 386.258 440.079C386.182 430.095 386.664 419.622 385.567 409.699Q385.305 407.169 384.681 404.703Q384.058 402.238 383.087 399.887C379.46 391.241 371.744 387.959 363.676 384.61C367.906 383.781 371.804 382.768 375.34 380.129C378.562 377.724 380.919 374.34 381.404 370.287C382.05 364.896 379.353 361.008 376.184 357.026Z"/>
	<path fill="#FEFEFE" d="M750.472 312.993L832.695 313.068C842.746 313.081 853.246 312.12 863.237 312.785C865.592 312.942 867.493 313.21 869.422 314.616C873.544 318.554 877.884 322.4 881.203 327.066L889.553 335.551Q889.518 354.318 888.458 373.055C880.974 373.124 873.203 373.706 865.751 373.192C863.154 373.118 857.581 372.413 855.647 374.489C855.319 374.842 855.17 375.186 854.956 375.599C855.666 386.686 852.553 398.736 851.48 409.826C848.609 439.479 849.656 468.778 856.565 497.775C839.741 498.021 822.907 497.75 806.078 497.932C798.222 489.944 790.869 481.413 782.855 473.604L783.889 372.272Q777.43 371.617 771.228 369.695L767.075 365.252C762.38 361.56 758.232 357.259 754.027 353.034C753.369 352.623 752.762 352.139 752.14 351.675C749.497 345.047 750.513 321.594 750.472 312.993Z"/>
	<path fill="#FEEF43" d="M754.027 353.034C763.947 352.575 773.707 352.68 783.629 352.98L783.949 365.677C778.67 364.718 772.255 363.309 767.075 365.252C762.38 361.56 758.232 357.259 754.027 353.034Z"/>
	<path fill="#FEEF43" d="M869.422 314.616C873.544 318.554 877.884 322.4 881.203 327.066C883.852 339.693 882.606 353.269 882.228 366.098Q865.388 366.421 848.545 366.544C847.95 380.469 846.149 394.246 845.012 408.123C843.954 421.028 843.869 433.913 843.967 446.855C844.031 455.482 843.956 464.305 845.017 472.88C845.818 479.353 847.311 485.66 848.8 492L804.915 492.103C799.244 487.048 793.296 481.839 789.079 475.476L833.036 475.471C832.933 461.981 832.704 448.367 832.304 434.881C832.048 426.248 831.457 417.525 831.675 408.891C832.137 390.526 834.86 372.298 835.017 353.913L868.174 354.084C868.964 340.877 867.957 327.841 869.422 314.616Z"/>
	<path fill="#B80605" d="M854.53 315.206C857.498 315.19 860.478 315.121 863.445 315.185L863.512 350.03L828.994 349.986C827.872 380.357 826.015 410.593 826.382 441.002C826.489 449.875 826.305 458.935 827.096 467.767C826.719 467.339 826.37 466.921 826.034 466.46C822.594 461.73 810.768 426.869 808.752 419.4C807.026 413.004 806.094 406.362 804.174 400.03C802.033 392.967 798.322 386.293 796.857 379.043C795.678 373.208 795.242 367.049 796.163 361.146C799.217 341.582 824.803 329.961 840.862 322.206C844.877 320.267 850.366 318.408 853.882 315.719C854.1 315.551 854.314 315.377 854.53 315.206Z"/>
	<path fill="#010521" d="M753.503 315.001L812.016 315.047C826.133 314.961 840.434 314.408 854.53 315.206C854.314 315.377 854.1 315.551 853.882 315.719C850.366 318.408 844.877 320.267 840.862 322.206C824.803 329.961 799.217 341.582 796.163 361.146C795.242 367.049 795.678 373.208 796.857 379.043C798.322 386.293 802.033 392.967 804.174 400.03C806.094 406.362 807.026 413.004 808.752 419.4C810.768 426.869 822.594 461.73 826.034 466.46C826.37 466.921 826.719 467.339 827.096 467.767C826.95 468.999 827.031 469.174 826.185 470.051C817.621 472.811 794.824 471.175 784.982 471.021C784.1 431.376 786.001 391.591 786.111 351.935C785.15 351.033 784.04 350.221 783.015 349.387Q768.522 349.618 754.03 349.36L753.503 315.001Z"/>
	<path fill="#FEFEFE" d="M206.423 528.209C218.608 528.609 231.014 528.044 243.218 527.958C253.669 536.097 264.298 546.088 272.318 556.637C273.959 571.38 278.559 586.125 282.307 600.44Q292.598 640.964 304.58 681.02C307.836 691.836 312.429 702.22 315.569 713.084L272.769 713.19C267.011 708.224 261.428 703.036 255.791 697.933C252.867 695.163 249.688 692.622 246.616 690.017L226.21 689.968C223.228 697.854 219.667 705.447 216.112 713.085Q195.767 713.279 175.426 712.805C168.456 705.073 160.782 697.999 154.113 689.995C156.101 681.612 159.539 673.589 162.403 665.478Q168.722 647.084 174.852 628.627C185.754 595.286 195.079 561.389 206.423 528.209Z"/>
	<path fill="#FEEF43" d="M207.185 671.389C216.611 671.665 225.997 672.442 235.436 672.421C238.328 677.325 241.205 681.631 245.176 685.728C237.559 684.692 229.945 684.548 222.272 684.447C218.191 692.027 215.681 700.425 212.887 708.545L206.625 708.523L178.717 708.527Q172.648 701.376 166.35 694.425Q180.926 693.803 195.513 693.519C201.83 687.362 204.201 679.455 207.185 671.389Z"/>
	<path fill="#B80605" d="M207.858 529.953Q224.967 529.568 242.08 529.545Q246.682 546.09 250.595 562.811C246.232 560.516 242.077 559.44 237.197 561.039C232.087 562.712 228.178 566.841 225.874 571.6C224.726 573.971 224.035 576.594 223.455 579.152C222.879 580.314 222.285 581.449 221.83 582.666Q221.266 581.672 220.669 580.698C218.607 577.35 215.687 574.587 211.729 573.765C204.636 572.292 197.87 577.085 192.199 580.681C196.35 563.645 202.05 546.503 207.858 529.953Z"/>
	<path fill="#FEEF43" d="M250.229 543.386C256.151 547.291 262.596 555.311 265.372 561.84C267.974 567.96 268.914 574.928 270.276 581.399Q272.598 592.264 275.4 603.015C279.788 619.85 285.106 636.365 290.044 653.037C292.974 662.93 295.074 673.081 298.168 682.916C301.038 692.041 304.836 700.879 308.433 709.736C300.32 707.42 291.303 708.188 282.953 708.381C280.212 708.444 277.083 708.815 274.417 708.177C268.547 702.094 261.725 696.998 256.14 690.623C267.477 693.047 279.252 691.294 290.745 691.981C288.408 682.872 285.023 674.01 282.535 664.921L270.316 620.272C267.911 611.13 265.812 601.899 263.249 592.801C259.057 577.924 251.829 558.424 250.229 543.386Z"/>
	<path fill="#010521" d="M223.455 579.152C224.035 576.594 224.726 573.971 225.874 571.6C228.178 566.841 232.087 562.712 237.197 561.039C242.077 559.44 246.232 560.516 250.595 562.811C262.121 603.482 272.269 644.63 284.38 685.111C277.081 685.291 251.485 687.092 246.254 682.131C242.421 678.494 241.763 671.424 240.325 666.538C227.143 666.547 214.001 665.407 200.835 665.45C198.37 672.61 196.295 679.955 193.656 687.041L156.921 687.185C161.947 669.667 168.631 652.5 174.314 635.168C180.268 617.013 185.309 598.514 192.199 580.681C197.87 577.085 204.636 572.292 211.729 573.765C215.687 574.587 218.607 577.35 220.669 580.698Q221.266 581.672 221.83 582.666C222.285 581.449 222.879 580.314 223.455 579.152Z"/>
	<path fill="#FEFEFE" d="M223.455 579.152C227.318 595.353 231.327 611.516 234.32 627.906L210.103 628.004C212.849 612.681 218.145 597.789 221.83 582.666C222.285 581.449 222.879 580.314 223.455 579.152Z"/>
	<path d="M222.713 588.368C226.639 593.439 230.694 618.624 232.283 626.041L222.457 626.099L213.603 626.142C217.507 613.686 220.104 601.143 222.713 588.368Z"/>
	<path fill="#FEFEFE" d="M649.454 311.995C661.709 312.219 673.994 312.06 686.252 312.066C694.485 319.161 710.662 335.357 715.466 344.839C719.141 352.093 720.354 361.026 722.17 368.911L730.058 402.762C737.8 434.559 746.648 466.62 759.009 496.947Q734.574 497.126 710.139 497.004L696.172 482.984C693.62 480.429 691.18 477.984 689.126 475.001C681.789 475.104 674.566 475.061 667.255 474.384Q663.482 485.867 659.382 497.237L616.283 497.051Q612.47 493.26 608.798 489.332C606.453 486.798 594.463 474.827 594.551 472.433C595.825 471.902 597.409 471.363 598.128 470.099C602.846 461.808 607.411 442.897 610.521 433.059L635.722 353.87C639.988 340.436 643.908 324.797 649.454 311.995Z"/>
	<path fill="#FEEF43" d="M646.919 453.505Q662.475 453.249 678.032 453.454C680.524 458.004 682.046 463.082 683.682 467.987C675.897 469.087 667.634 468.518 659.794 468.403C658.654 476.368 655.865 484.365 653.606 492.086L640.25 492.012L618.726 492.024C613.071 486.976 608.83 480.428 604.393 474.333C611.846 475.367 629.004 477.38 635.696 475.167C642.907 472.782 643.514 460.296 646.631 454.058C646.724 453.872 646.823 453.689 646.919 453.505Z"/>
	<path fill="#B80605" d="M650.395 314.472L685.193 314.533C687.424 324.728 690.388 334.74 693.305 344.755C673.242 349.081 657.181 357.063 635.608 360.247Q642.738 337.274 650.395 314.472Z"/>
	<path fill="#FEEF43" d="M694.121 326.694C699.25 328.631 706.576 338.394 710.118 342.647C712.345 358.775 716.957 374.695 720.808 390.498Q727.328 417.274 734.664 443.838C739.11 460.213 742.877 476.858 750.795 491.988L708.772 491.953C702.606 487.669 697.475 481.072 692.471 475.53Q713.973 475.678 735.474 475.458Q720.256 424.178 706.651 372.446C704.134 363.174 701.694 353.871 699.053 344.634C697.352 338.688 695.227 332.782 694.121 326.694Z"/>
	<path fill="#010521" d="M635.608 360.247C657.181 357.063 673.242 349.081 693.305 344.755C702.558 373.715 710.21 404.037 718.417 433.395C721.941 446 724.668 459.388 729.628 471.505C716.274 470.762 702.792 471.001 689.417 470.98C686.745 463.008 683.603 455.345 679.447 448.014C666.949 447.785 654.404 447.592 641.924 448.471C638.689 455.704 636.36 463.266 634.055 470.835Q616.859 471.228 599.662 470.853Q612.257 434.049 623.968 396.954C627.888 384.792 632.662 372.684 635.608 360.247Z"/>
	<path fill="#FEFEFE" d="M667.059 359.36C670.473 364.842 672.36 383.98 673.85 391.438Q676.223 402.763 678.892 414.022L663.868 414.027L651.478 413.969C654.453 404.529 657.47 395.076 660.004 385.506C662.309 376.801 664.126 367.879 667.059 359.36Z"/>
	<path fill="#010521" d="M666.756 367.888C669.546 371.829 674.525 404.542 675.911 411.985L664.026 412.018L654.019 411.984Q661.097 390.141 666.756 367.888Z"/>
	<path fill="#FEFEFE" d="M522.818 528.021C536.462 527.86 550.338 527.107 563.93 528.586C575.837 537.928 586.599 548.407 596.792 559.582Q600.306 587.049 605.947 614.159Q611.588 641.268 619.322 667.857C622.107 677.402 634.78 705.028 634.324 712.25C633.203 713.097 632.852 713.011 631.494 713.176C625.759 712.864 619.763 713.427 613.995 713.461C605.16 713.512 596.313 713.152 587.48 712.962C581.503 706.036 575.575 699.119 569.304 692.455C561.021 691.395 552.369 691.575 544.015 691.363Q540.93 702.382 538.179 713.49C523.319 713.559 508.494 713.253 493.637 712.989C487.284 706.385 475.792 695.469 471.401 687.883C472.423 686.688 474.421 686.502 475.904 686.276C479.568 669.307 485.699 652.485 490.74 635.858C501.602 600.027 512.947 564.13 522.818 528.021Z"/>
	<path fill="#FEEF43" d="M526.058 669.85C535.679 671.481 545.592 670.556 554.979 673.417C557.91 676.88 560.4 680.908 563.148 684.547L537.117 684.506C535.599 692.239 533.591 699.878 531.685 707.523C525.751 707.437 519.812 707.224 513.879 707.068L492.844 706.963C487.549 702.129 482.918 696.989 478.434 691.417C485.786 691.858 493.157 691.93 500.506 692.374C506.354 692.728 512.241 693.925 518.101 693.296C521.772 688.906 524.309 675.746 526.058 669.85Z"/>
	<path fill="#B80605" d="M524.212 530.011Q542.909 529.996 561.603 530.285C565.359 538.756 567.168 548.125 569.56 557.057C561.401 562.711 552.132 564.022 545.646 572.174C543.512 574.857 540.942 578.555 536.979 577.992C534.547 577.647 532.438 576.19 530.059 575.734C524.237 574.621 515.024 577.638 509.615 579.783C514.284 563.132 519.75 546.725 524.212 530.011Z"/>
	<path fill="#FEEF43" d="M568.517 539.689C573.032 544.782 585.88 555.883 587.93 560.508C591.476 568.507 591.303 578.053 593.224 586.515C598.981 611.878 604.705 637.49 611.372 662.617C614.616 674.842 618.203 687.43 623.609 698.907C625.917 703.808 629.64 708.062 631.494 713.176C625.759 712.864 619.763 713.427 613.995 713.461C605.16 713.512 596.313 713.152 587.48 712.962C581.503 706.036 575.575 699.119 569.304 692.455C583.771 691.399 597.987 691.889 612.47 692.007C607.036 672.863 602.193 653.44 596.223 634.463C593.036 624.335 589.08 614.463 585.929 604.323C581.643 590.529 578.252 576.465 574.542 562.51C572.528 554.934 570.07 547.368 568.517 539.689Z"/>
	<path fill="#010521" d="M509.615 579.783C515.024 577.638 524.237 574.621 530.059 575.734C532.438 576.19 534.547 577.647 536.979 577.992C540.942 578.555 543.512 574.857 545.646 572.174C552.132 564.022 561.401 562.711 569.56 557.057C576.339 583.548 584.286 609.657 592.119 635.848C597.079 652.431 601.537 669.196 607.296 685.525Q586.673 685.092 566.046 684.983C562.644 679.1 558.929 673.251 556.268 666.994C544.292 666.983 532.337 666.927 520.439 665.393C517.591 672.297 515.716 679.499 513.148 686.494C501.574 686.149 489.909 685.974 478.437 684.265C482.898 666.442 488.67 649.075 493.952 631.49C499.134 614.239 503.839 596.851 509.615 579.783Z"/>
	<path fill="#FEFEFE" d="M541.793 585.852C545.765 589.733 551.879 621.766 553.281 628.499L542.25 628.018L529.982 627.54C532.935 613.526 537.569 599.539 541.793 585.852Z"/>
	<path d="M541.737 592.354C545.353 596.554 549.671 619.778 551.263 626.387L542.735 626.113L532.123 625.908C535.878 614.903 538.736 603.582 541.737 592.354Z"/>
	<path fill="#FEFEFE" d="M477.937 312.082C478.209 312.461 478.299 312.612 478.649 312.966C479.485 313.812 480.588 313.892 481.71 313.999C491.344 314.912 501.431 314.447 511.11 314.449L565.235 314.36C573.653 323.245 582.567 331.602 589.88 341.459C590.619 353.689 590.379 365.968 590.298 378.214C579.495 378.606 568.65 378.239 557.844 378.063C566.419 386.145 574.645 394.432 582.033 403.627L582.465 431.897C575.259 431.853 568.048 431.646 560.843 431.514L561.073 432.35C563.477 441.274 574.194 451.439 580.468 458.332Q584.742 463.198 589.605 467.475C588.215 474.915 589.707 488.885 589.982 497.061C557.447 496.084 524.814 496.615 492.263 496.513C484.71 488.692 477.243 480.958 470.431 472.467L470.91 314.157C471.807 314.155 472.707 314.156 473.604 314.121C475.839 314.034 476.463 313.629 477.937 312.082Z"/>
	<path fill="#FEEF43" d="M560.432 387.743C566.292 391.876 571.222 398.543 575.968 403.889L576.03 428.531C562.07 428.484 548.089 428.979 534.125 429.123C528.797 429.02 523.558 429.086 518.256 429.676C518.87 425.46 519.163 421.181 519.552 416.938C533.159 416.979 546.772 417.403 560.382 417.517C560.651 407.604 560.465 397.66 560.432 387.743Z"/>
	<path fill="#FEEF43" d="M568.582 326.241C574.102 329.714 578.732 334.775 582.855 339.766Q583.49 355.873 583.578 371.993C566.699 372.033 549.826 371.517 532.944 371.496C528.244 371.539 523.53 371.796 518.832 371.961C518.971 366.37 519.362 360.776 519.669 355.192C536.077 355.747 552.556 355.494 568.972 355.43C569.178 345.677 568.738 335.986 568.582 326.241Z"/>
	<path fill="#FEEF43" d="M565.322 450.162C566.025 450.614 566.634 451.059 567.249 451.629C582.66 465.889 581.386 472.401 582.146 492.062C563.281 491.727 544.345 491.889 525.476 491.986C516.449 492.032 506.992 492.791 498.013 491.969C496.468 491.827 495.55 491.526 494.277 490.649C489.478 484.526 484.2 478.853 478.124 473.978C491.744 473.877 505.45 473.632 519.062 474.086C532.444 474.533 545.971 475.663 559.349 475.53C561.694 475.506 564.237 475.543 566.386 474.51C568.916 469.927 565.862 455.809 565.322 450.162Z"/>
	<path fill="#010521" d="M472.589 316.005L563.945 315.945L563.84 350.745C546.611 351.295 528.907 349.673 511.804 351.647C510.883 359.579 511.3 367.501 511.524 375.463C524.716 377.19 540.067 376.054 553.454 376.009L553.445 412.98L511.603 413.002L511.566 426.625C511.569 427.998 511.435 429.211 512.211 430.413C515.625 432.068 552.861 431.004 559.057 430.997C560.992 444.109 560.54 457.753 560.545 470.978Q516.272 471.108 472.005 470.418L472.589 316.005Z"/>
	<path fill="#FEFEFE" d="M794.473 528.996Q818.843 529.061 843.207 528.493L847.957 533.835C851.936 537.887 856.113 542.043 859.691 546.456L867.706 553.366C864.65 567.705 863.592 582.567 862.545 597.164C859.714 636.636 859.209 675.306 869.664 713.852C858.777 713.757 827.837 714.722 819.849 711.154C816.341 709.81 800.916 698.194 797.085 695.207C793.246 692.471 790.382 689.357 787.948 685.316C788.449 694.394 789.118 703.529 788.935 712.623C772.67 712.382 756.637 712.894 740.389 713.582L736.496 710.118C731.806 705.532 727.434 700.481 722.951 695.683L718.925 691.834Q718.835 641.538 719.466 591.248C719.578 570.45 718.551 549.297 720.757 528.6C733.572 530.195 746.915 529.465 759.778 528.91C765.007 539.695 770.836 550.142 776.395 560.755Q786.386 580.086 796.07 599.573C794.926 589.765 795.072 579.577 794.812 569.708C794.454 556.127 793.89 542.575 794.473 528.996Z"/>
	<path fill="#FEEF43" d="M797.085 695.207C812.038 695.604 827.438 694.588 842.312 695.791C847.207 699.044 851.779 703.737 855.441 708.321C849.727 709.162 843.957 710.147 838.175 710.281C833.109 710.399 827.825 709.833 822.793 710.233C821.672 710.322 820.797 710.518 819.849 711.154C816.341 709.81 800.916 698.194 797.085 695.207Z"/>
	<path fill="#FEEF43" d="M763.038 638.513C768.275 646.855 778.7 664.062 780.381 673.121C781.274 677.933 780.744 683.107 780.876 687.993C781.061 694.835 781.549 701.7 782.061 708.525C774.639 708.292 741.029 707.313 736.496 710.118C731.806 705.532 727.434 700.481 722.951 695.683C735.463 695.086 749.129 696.132 761.225 692.607C763.222 693.464 765.071 694.431 767.279 694.488L768.715 693.889C769.512 691.872 767.037 685.665 766.774 682.828C766.298 677.691 766.958 672.504 766.866 667.356C766.701 658.022 765.008 647.628 763.038 638.513Z"/>
	<path fill="#010521" d="M796.776 535.476C796.47 534.125 796.106 533.059 796.632 531.708C798.089 530.139 802.147 530.322 804.212 530.243C816.565 529.769 829.002 529.966 841.364 529.975C838.676 550.094 835.788 570.263 834.561 590.538C831.579 586.564 829.354 581.896 826.495 577.791C820.54 569.244 814.259 560.995 808.458 552.319C804.728 546.742 801.284 540.452 796.776 535.476Z"/>
	<path fill="#FEEF43" d="M847.957 533.835C851.936 537.887 856.113 542.043 859.691 546.456Q858.043 556.446 856.803 566.496Q855.564 576.545 854.735 586.637Q853.907 596.728 853.49 606.845Q853.074 616.962 853.071 627.087Q853.068 637.213 853.478 647.33Q853.888 657.447 854.71 667.539Q855.532 677.631 856.766 687.681Q857.999 697.732 859.641 707.723C854.573 703.587 849.37 698.7 846.484 692.72C839.097 677.411 839.104 609.851 840.242 589.959C840.663 582.606 842.072 575.285 842.927 567.968C844.216 556.951 844.299 544.35 847.957 533.835Z"/>
	<path fill="#B80605" d="M796.776 535.476C801.284 540.452 804.728 546.742 808.458 552.319C814.259 560.995 820.54 569.244 826.495 577.791C829.354 581.896 831.579 586.564 834.561 590.538C834.477 606.62 833.441 623.704 834.661 639.671C835.252 647.404 836.937 655.088 838.079 662.754C839.256 670.65 839.869 678.652 840.595 686.599C833.654 686.121 826.775 685.963 819.819 685.976C817.752 679.424 816.938 672.462 816.616 665.623C816.33 659.561 817.275 636.429 815.761 632.924C811.825 623.815 804.81 616.388 799.098 608.411C799.799 602.243 798.26 595.157 798.06 588.885L796.776 535.476Z"/>
	<path fill="#010521" d="M722.011 530.589C734.077 530.544 746.17 530.836 758.239 530.912Q768.935 549.447 778.356 568.662C782.904 577.861 792.997 601.497 799.098 608.411C804.81 616.388 811.825 623.815 815.761 632.924C817.275 636.429 816.33 659.561 816.616 665.623C816.938 672.462 817.752 679.424 819.819 685.976L793.45 685.916C786.785 676.634 781.659 666.155 775.789 656.352C771.731 649.576 766.699 642.944 763.532 635.701C761.366 630.749 760.359 615.812 757.319 612.961L756.676 613.545C755.51 619.272 758.363 633.4 758.879 640.122C760.052 655.393 758.853 670.909 760.625 686.055C747.425 686.081 734.181 687.225 721.003 687.971Q720.734 609.275 722.011 530.589Z"/>
	<path fill="#FEFEFE" d="M209.032 312.733C219.152 312.747 228.371 314.529 238.06 317.221C242.039 318.326 246.429 319.962 250.507 320.462C252.244 320.674 253.964 320.352 255.669 320.483C259.314 320.764 279.11 342.719 281.997 346.978C281.613 360.257 274.031 372.758 271.764 385.869C279.294 388.645 292.313 405.196 297.809 411.849C297.754 424.238 296.884 436.592 296.563 448.969Q296.099 471.164 296.766 493.354C284.901 493.458 273.62 496.294 261.976 498.146Q258.081 498.795 254.153 499.193Q250.225 499.591 246.28 499.737Q242.334 499.884 238.388 499.778Q234.441 499.671 230.509 499.313C223.352 498.444 216.479 496.827 209.763 494.178C193.03 487.579 172.843 473.23 159.554 460.938C141.116 443.883 130.264 421.544 129.485 396.336Q129.448 395.306 129.436 394.275Q129.425 393.243 129.439 392.212Q129.453 391.181 129.492 390.151Q129.532 389.121 129.597 388.092Q129.662 387.063 129.752 386.035Q129.842 385.008 129.958 383.984Q130.074 382.959 130.215 381.938Q130.356 380.916 130.522 379.899Q130.688 378.881 130.88 377.868Q131.071 376.855 131.287 375.846Q131.504 374.838 131.745 373.836Q131.986 372.833 132.252 371.837Q132.518 370.841 132.808 369.851Q133.099 368.862 133.414 367.88Q133.728 366.898 134.067 365.925Q134.407 364.951 134.77 363.986Q135.133 363.021 135.519 362.065Q135.906 361.109 136.316 360.163Q136.727 359.217 137.16 358.281Q137.594 357.346 138.05 356.421Q138.507 355.497 138.986 354.584Q139.465 353.671 139.967 352.77Q140.469 351.869 140.993 350.981Q141.516 350.093 142.062 349.218Q142.608 348.343 143.175 347.482Q143.742 346.621 144.33 345.774Q144.918 344.927 145.527 344.095Q146.136 343.263 146.766 342.446Q147.395 341.629 148.044 340.829Q148.694 340.028 149.363 339.243Q150.032 338.458 150.72 337.69Q151.408 336.923 152.115 336.172C167.352 320.172 187.326 313.37 209.032 312.733Z"/>
	<path d="M246.611 351.057C246.28 353.973 245.813 356.825 245.274 359.709C241.723 358.611 237.93 357.68 234.516 356.233C236.896 356.126 240.221 357.584 242.447 356.674C243.645 356.184 244.778 354.603 245.321 353.474C245.941 352.184 245.529 352.926 246.239 351.692L246.611 351.057Z"/>
	<path d="M201.739 392.636C202.842 395.111 200.942 398.153 201.936 400.734C202.649 402.584 205.328 404.202 205.187 406.268C202.93 404.769 200.739 403.608 198.279 402.497C199.723 399.297 200.713 395.988 201.739 392.636Z"/>
	<path fill="#FEEF43" d="M195.656 407.162C202.799 411.274 206.954 418.055 213.186 423.173C216.265 425.702 219.973 426.515 223.137 428.727L222.851 429.34C213.619 430.886 204.752 429.599 195.709 427.655C195.323 420.756 194.984 414.056 195.656 407.162Z"/>
	<path fill="#FEEF43" d="M257.754 329.287C264.114 333.174 270.352 340.91 274.597 346.951C273.656 353.687 271.281 360.136 269.388 366.643C267.816 372.049 266.557 377.508 265.328 383C258.797 380.209 252.146 377.239 245.295 375.327C232.554 371.769 218.124 372.744 206.542 379.429C195.572 385.76 190.658 395.814 187.506 407.66C186.762 411.641 186.614 415.657 186.86 419.691Q184.17 415.361 182.256 410.637C178.109 400.225 177.585 388.052 182.209 377.688C185.604 370.081 191.739 364.484 199.517 361.558C215.342 355.607 235.077 360.047 249.945 366.689C253.677 354.628 254.915 341.611 257.754 329.287Z"/>
	<path fill="#FEEF43" d="M275.714 395.395C281.532 398.885 286.859 404.644 290.081 410.586C288.545 436.204 287.227 462.358 288.998 487.999C260.121 496.997 229.95 497.183 201.959 484.974C194.832 481.953 188.169 476.748 181.652 472.554C192.228 475.096 203.387 476.558 214.243 477.229C229.837 478.192 261.505 476.946 273.326 466.497C274.949 457.378 273.995 447.324 274.083 438.059C274.219 423.929 274.741 409.491 275.714 395.395Z"/>
	<path fill="#010521" d="M252.152 467.907C231.068 473.723 202.825 473.089 181.945 466.388C164.259 460.712 148.509 449.397 139.919 432.643C129.677 412.667 128.385 388.026 135.395 366.823Q135.973 365.049 136.638 363.305Q137.302 361.561 138.052 359.852Q138.802 358.143 139.635 356.473Q140.468 354.803 141.383 353.176Q142.297 351.549 143.29 349.969Q144.284 348.39 145.354 346.861Q146.424 345.332 147.569 343.857Q148.713 342.383 149.928 340.967Q151.144 339.551 152.428 338.196Q153.711 336.842 155.06 335.552Q156.409 334.263 157.82 333.041Q159.231 331.82 160.701 330.669Q162.17 329.519 163.694 328.442Q165.219 327.365 166.794 326.365Q168.37 325.365 169.993 324.444Q171.616 323.522 173.282 322.682C199.606 309.5 226.156 314.483 252.863 323.339C250.891 332.591 248.944 341.888 246.611 351.057L246.239 351.692C245.529 352.926 245.941 352.184 245.321 353.474C244.778 354.603 243.645 356.184 242.447 356.674C240.221 357.584 236.896 356.126 234.516 356.233C220.368 352.349 205.821 349.548 192.34 357.115C183.495 362.08 177.534 370.218 174.826 379.937C171.441 392.085 172.338 406.889 178.729 417.941C183.622 426.402 192.068 432.09 201.432 434.605C208.734 436.566 219.486 436.431 226.035 432.492C228.532 430.99 230.137 428.974 230.744 426.094C231.114 424.34 231.19 422.54 231.247 420.754C215.646 417.736 216.083 415.406 205.187 406.268C205.328 404.202 202.649 402.584 201.936 400.734C200.942 398.153 202.842 395.111 201.739 392.636C202.552 389.102 203.659 385.918 204.931 382.531C217.93 382.146 230.642 381.547 243.619 382.926C252.427 383.862 261.278 386.195 270.076 386.701Q269.315 397.894 268.921 409.105C267.966 427.093 267.919 444.952 267.923 462.962C262.865 464.818 257.5 467.148 252.152 467.907Z"/>
	<path fill="#FEFEFE" d="M143.981 376.308C150.783 376.621 161.083 379 166.968 382.611C168.485 383.542 168.397 384.331 168.671 385.942C163.725 385.767 149.668 382.595 145.592 379.816C144.104 378.802 144.272 377.945 143.981 376.308Z"/>
	<path fill="#B80605" d="M235.931 402.651Q248.05 402.597 260.144 401.804C263.377 403.79 266.163 406.516 268.921 409.105C267.966 427.093 267.919 444.952 267.923 462.962C262.865 464.818 257.5 467.148 252.152 467.907C248.801 465.78 240.782 465.258 236.59 464.219Q231.071 462.846 225.965 460.34C217.977 456.363 212.556 450.759 209.679 442.247C216.076 438.944 223.786 437.068 229.122 432.03C236.529 425.034 235.614 412.004 235.931 402.651Z"/>
	<path fill="#FEFEFE" d="M383.996 526.212C384.28 526.188 384.564 526.158 384.849 526.14C393.924 525.547 425.055 526.868 431.887 530.029C435.672 531.782 460.426 551.791 465.262 555.917Q462.358 569.674 459.735 583.487C458.421 590.617 457.929 598.853 454.928 605.472L447.258 600.483C454.235 609.107 463.369 615.652 470.396 624.301C470.533 647.049 470.048 669.797 469.889 692.545C471.943 694.869 474.236 697.569 475.075 700.598C475.588 702.451 475.409 703.705 474.439 705.398C466.752 710.382 429.81 712.617 419.541 713.1C419.349 713.117 419.156 713.136 418.963 713.15C390.113 715.244 365.461 702.154 344.255 683.79C323.748 666.031 309.922 642.498 308.175 615.128C306.722 592.352 312.369 568.151 327.793 550.812C342.296 534.51 362.698 527.502 383.996 526.212Z"/>
	<path d="M406.213 592.206C414.261 591.728 420.758 593.513 427.972 596.908C419.2 597.524 410.359 597.339 401.573 597.252C394.064 597.158 386.539 597.152 379.038 596.759C387.998 594.268 396.95 592.869 406.213 592.206Z"/>
	<path fill="#FEEF43" d="M436.038 538.659C439.793 540.516 443.569 544.554 446.865 547.209C450.618 550.231 454.53 553.072 458.408 555.931C455.377 565.397 453.673 575.316 452.079 585.103L450.8 592.272C445.718 589.933 441.032 586.752 436.369 583.683C436.614 568.675 435.893 553.675 436.038 538.659Z"/>
	<path fill="#FEEF43" d="M396.845 572.689C412.429 569.963 421.104 580.641 431.543 589.806C434.756 592.626 438.236 594.949 441.819 597.262C433.053 596.181 427.754 593.292 419.658 590.754C402.493 585.373 383.276 590.687 367.179 597.101C373.25 605.319 373.742 612.472 373.519 622.251C373.477 623.357 373.4 624.49 373.452 625.596C373.639 629.644 379.418 630.246 382.07 632.605C383.243 633.648 384.895 635.565 384.968 637.183C383.867 636.56 382.935 636.117 381.712 635.745L381.269 636.207C381.868 640.103 386.876 645.582 389.222 648.75C383.048 648.01 377.007 647.124 371.835 643.34C366.007 639.077 363.113 631.817 362.067 624.886C360.255 612.891 361.061 594.642 368.736 584.576C375.203 576.094 386.91 573.911 396.845 572.689Z"/>
	<path fill="#FEEF43" d="M451.51 615.17C455.827 618.08 459.611 621.875 463.291 625.531Q463.452 644.958 463.339 664.385C463.33 672.659 462.812 681.353 464.163 689.524C464.928 694.156 466.31 697.999 468.595 702.098C446.994 706.677 415.263 712.77 393.728 707.619C387.668 706.17 382.307 703.534 376.874 700.551C369.496 696.554 362.329 691.728 355.476 686.884C362.636 689.74 369.963 692.082 377.622 693.137C390.93 694.969 437.226 690.629 447.612 682.3C449.947 680.428 450.607 678.37 451.141 675.482C452.465 668.326 451.561 660.286 451.361 653.015C451.015 640.47 450.514 627.692 451.51 615.17Z"/>
	<path fill="#010521" d="M446.052 675.127C428.393 684.986 398.131 688.096 377.995 686.086C358.297 684.12 339.012 675.355 326.352 659.838C312.361 642.689 308.144 619.61 310.336 598.024C312.41 577.605 320.507 557.701 336.83 544.576C364.192 522.575 398.802 527.63 431.07 530.997L431.209 576.147C425.75 574.322 420.577 571.686 415.115 569.869C404.738 566.418 391.071 565.66 380.464 568.489C371.907 570.771 364.569 575.74 360.199 583.559C353.58 595.4 352.215 614.608 356.069 627.512C358.617 636.046 363.995 643.885 372.06 648.018C380.36 652.272 389.852 651.855 398.48 648.948C398.196 644.304 398.713 628.413 395.64 625.565C392.412 622.572 383.557 624.068 379.417 624.298L379.503 605.642C377.705 603.318 375.755 601.153 373.787 598.973L444.771 599.016C444.921 606.834 444.888 614.666 444.944 622.486C444.934 627.31 445.001 632.149 444.85 636.971L446.052 675.127Z"/>
	<path fill="#FEEF43" d="M321.859 591.08C328.73 592.544 343.922 597.132 349.09 601.676C350.392 602.82 350.126 603.891 350.162 605.48C344.644 603.893 325.012 598.534 322.032 594.499C321.145 593.298 321.611 592.418 321.859 591.08Z"/>
	<path fill="#B80605" d="M444.944 622.486C444.934 627.31 445.001 632.149 444.85 636.971C441.401 642.507 442.569 664.245 442.549 671.703C429.322 675.225 416.572 675.721 402.983 675.409C400.708 657.468 404.676 641.308 404.524 624.045C418.079 624.29 431.422 623.124 444.944 622.486Z"/>
	<path fill="#050D44" d="M0 848.515C26.9457 849.64 53.8437 851.954 80.8129 852.391C104.917 852.783 129.072 851.266 153.175 852.106C172.743 852.788 192.395 853.411 211.945 854.381C230.84 855.318 249.782 856.834 268.702 855.614C310.797 852.899 350.945 836.074 391.888 835.545C428.87 835.067 464.963 845.277 501.876 846.376C528.225 847.16 554.587 842.926 580.794 840.844C609.524 838.561 638.601 838.356 667.401 839.097Q700.272 840.115 732.983 843.51C737.974 844.014 743.29 843.833 748.197 844.609C750.397 844.957 752.459 845.972 754.656 846.374C758.266 847.036 762.095 847.089 765.749 847.501C772.862 848.301 779.964 849.318 787.058 850.269C813.501 853.814 839.944 857.727 866.573 859.591C888.429 861.121 910.509 861.081 932.415 860.881C937.315 860.836 942.218 860.386 947.115 860.405C951.411 860.421 955.703 860.949 960 861.053C968.852 861.269 977.683 861.327 986.538 861.656C998.779 862.11 1011.93 862.028 1024 863.965L1024 875.126L1024 877.672L1024 1024L0 1024L0 848.515Z"/>
	<path d="M1024 877.672C1009.57 875.29 994.193 874.801 979.57 874.078C977.217 873.962 972.8 874.161 971.147 872.336L971.596 871.692C983.001 869.651 1011.17 873.761 1024 875.126L1024 877.672Z"/>
	<path d="M462.304 907.715C471.564 907.148 498.032 906.516 505.762 910.197C506.764 910.674 507.422 911.012 507.772 912.102C503.854 913.636 495.626 911.194 491.341 910.785C483.484 910.034 475.614 910.027 467.729 910.027C460.25 910.074 424.846 913.985 422.964 913.431L423.01 912.702C428.05 908.708 454.743 908.12 462.304 907.715Z"/>
	<path d="M695.969 987.235C696.472 987.346 696.745 987.667 697.136 987.988L696.852 988.833C691.576 991.299 653.831 994.739 644.916 995.888C632.986 997.425 621.063 999.609 609.098 1000.77L608.338 999.936L608.409 999.292C614.978 995.038 683.883 988.202 695.969 987.235Z"/>
	<path d="M106.327 906.711C112.554 906.28 118.726 906.162 124.961 906.558C138.227 907.402 151.353 909.84 164.546 911.376C171.05 912.133 177.804 911.807 184.248 912.871C185.82 913.131 186.959 913.755 188.213 914.698L188.017 915.36C181.955 917.474 168.756 914.731 162.382 913.759C143.545 911.658 125.405 908.693 106.335 909.573C102.058 909.771 97.6875 910.287 93.4597 910.961C90.1683 911.485 83.6062 913.753 80.773 913.349C80.4226 913.299 80.129 913.055 79.807 912.908L79.9009 912.145C85.5259 907.709 99.3545 907.299 106.327 906.711Z"/>
	<path d="M404.581 970.713C415.591 970.193 426.401 970.944 437.388 971.261C443.218 971.428 449.511 970.778 455.204 972.218C456.249 972.483 457.133 972.493 457.685 973.443C451.514 975.459 434.985 974.043 427.869 973.998Q408.652 973.812 389.435 974.061Q379.507 974.842 369.676 976.429C363.858 977.37 347.592 981.927 343.43 981.206L342.979 980.475C343.074 980.336 343.15 980.182 343.263 980.057C345.261 977.853 352.21 977.115 355.126 976.546C371.822 973.289 387.603 971.511 404.581 970.713Z"/>
	<path d="M810.1 949.709C839.467 947.269 869.916 957.548 898.052 964.382C905.325 966.149 913.103 966.841 920.214 969.003C921.463 969.383 923.245 969.857 923.876 971.062C920.358 972.199 914.784 970.734 911.227 970.112C884.729 964.442 858.386 955.697 831.378 952.882C825.427 952.261 818.905 951.636 812.936 952.107C807.79 952.514 801.989 954.111 796.871 953.537L796.406 952.803L797.05 952.025C800.951 950.196 805.868 950.053 810.1 949.709Z"/>
	<path d="M701.033 897.714C726.581 896.244 753.473 902.808 778.996 905.045C785.861 905.646 799.075 903.822 804.788 906.299L804.779 906.981C797.524 910.757 776.946 907.623 768.388 906.479C746.22 903.154 723.699 900.812 701.26 900.984C696.28 901.022 691.27 901.124 686.301 901.455C680.35 901.85 668.366 904.861 663.128 903.048L663.011 902.415C667.787 898.672 693.509 898.178 701.033 897.714Z"/>
	<path d="M94.5463 971.71C111.75 969.906 129.355 974.295 146.303 976.563C154.381 977.644 163.373 977.349 170.963 980.582L171.089 981.064C159.596 983.412 128.02 975.724 113.47 974.576C100.088 973.52 86.8658 974.984 73.6154 976.747C61.3551 979.745 48.7766 982.003 36.4272 984.709C24.8657 987.243 13.0835 990.443 1.36059 992.025C13.9202 983.512 76.9854 972.946 94.5463 971.71Z"/>
</svg>
