<?xml version="1.0" encoding="utf-8" ?>
<svg xmlns="http://www.w3.org/2000/svg" xmlns:xlink="http://www.w3.org/1999/xlink" width="1024" height="1024">
	<path fill="#29CBD1" d="M0 0L1024 0L1024 54.5611L1024 60.3455L1024 725.939L1024 742.448L1024 776.913L1024 876.527L1024 896.025L1024 920.045L1024 949.143L1024 1024L1016.43 1024L1004.96 1024L947.577 1024L934.642 1024L924.397 1024L853.68 1024L759.994 1024L744.268 1024L286.596 1024L271.543 1024L179.11 1024L105.021 1024L93.7146 1024L81.7219 1024L17.8868 1024L6.97661 1024L0 1024L0 947.637L0 921.599L0 892.074L0 873.707L0 775.791L0 734.388L0 720.014L0 0Z"/>
	<path fill="#EBE7E5" d="M539.757 61.9725L539.97 62.0922C540.126 62.8818 540.824 63.4688 541.334 64.0719L541.22 65.3795C540.567 66.2943 539.951 67.2209 539.342 68.1649C538.503 67.6348 538.307 66.8249 537.877 65.9485C537.981 64.0927 538.583 63.3726 539.757 61.9725Z"/>
	<path fill="#EBE7E5" d="M833.245 131.852L833.474 131.774L833.294 131.96L834.631 132.134L833.377 131.911C833.905 132.202 834.57 132.355 834.777 132.938C834.327 134.548 833.168 135.676 832.111 136.925C831.138 135.628 830.407 134.971 830.177 133.347C831.198 132.266 831.836 132.243 833.245 131.852Z"/>
	<path fill="#EBE7E5" d="M840.025 94.389C841.159 94.3948 842.476 94.2694 843.501 94.8164C843.69 94.9172 843.846 95.0722 844.03 95.1819C844.699 95.5809 845.191 95.8042 845.826 96.2935C844.276 97.2593 844.14 97.2182 843.499 99.0382L843.242 98.969L842.876 97.724C842.071 98.0558 841.853 98.1379 840.951 98.0897C840.218 96.8721 840.161 95.7647 840.025 94.389Z"/>
	<path fill="#EBE7E5" d="M1024 54.5611L1024 60.3455C1022.8 60.3311 1022.62 60.5014 1021.59 59.7923L1021.64 58.3098L1019.21 57.4601L1019 56.8817C1020.63 56.0197 1022.31 55.2992 1024 54.5611Z"/>
	<path fill="#EBE7E5" d="M672.618 21.9633C672.777 22.0711 672.963 22.1483 673.097 22.2867C673.897 23.1132 674.702 25.1078 674.345 26.2209C673.986 27.3448 673.799 27.643 672.77 28.1602L672.243 27.1518C671.091 26.2816 669.784 25.6049 668.538 24.8777C671.096 24.2271 671.124 24.0617 672.618 21.9633Z"/>
	<path fill="#EBE7E5" d="M574.565 61.0132C575.373 61.3605 576.151 61.6964 576.912 62.1405C577.674 62.5851 577.526 62.8674 577.735 63.6798C577.607 63.8614 577.017 64.687 576.929 64.8624C576.837 65.0461 576.801 65.2528 576.737 65.4481C575.883 65.915 576.337 65.7283 575.369 65.9981C575.353 66.5573 575.222 67.024 575.088 67.5645C574.02 66.7745 573.34 65.6537 573.127 64.3229C572.856 62.6326 573.58 62.2393 574.565 61.0132Z"/>
	<path fill="#EBE7E5" d="M916.658 37.0054C916.73 37.1274 916.816 37.2418 916.873 37.3715C917.594 39.0086 918.785 40.1698 919.406 41.6764L916.246 43.3286L916.029 43.7136L915.14 43.8823C914.984 43.4825 914.836 43.0792 914.667 42.6851C914.559 42.4336 914.439 42.1871 914.326 41.9382C914.413 39.8346 915.453 38.6643 916.658 37.0054Z"/>
	<path fill="#EBE7E5" d="M64.3385 84.7817C64.7064 85.5442 65.1326 86.1742 65.6085 86.8713L66.4674 86.9003L66.6666 85.326L67.2841 85.1814C67.7834 85.6955 68.1146 85.7685 68.095 86.5428C68.0472 88.4318 67.1488 89.5589 65.7837 90.7376L64.2467 90.1307C64.0191 90.2621 63.7602 90.3501 63.5641 90.525C63.3336 90.7304 63.181 91.0094 62.9895 91.2516L62.2008 90.992L61.7753 90.0931C62.2121 89.0063 62.5775 88.4531 63.4708 87.6631C64.295 86.9342 64.1792 85.853 64.3385 84.7817Z"/>
	<path fill="#EBE7E5" d="M272.648 114.239C273.328 114.823 274.509 115.928 274.752 116.796C275.178 118.313 274.587 120.656 273.678 121.865L273.204 121.896L272.702 119.648C271.314 119.976 270.41 120.653 268.941 120.669C270.128 118.528 271.612 117.186 272.469 114.769C272.531 114.593 272.588 114.416 272.648 114.239Z"/>
	<path fill="#EBE7E5" d="M868.318 144.406C869.326 144.334 870.38 143.922 871.368 143.935C872.278 143.948 872.757 144.01 873.406 144.605C872.042 147.536 873.243 146.049 873.404 148.425L872.321 147.983L872.651 148.292C871.672 148.109 871.377 148.122 870.421 148.536C870.162 148.648 869.913 148.784 869.66 148.908L869.178 149.617C868.366 148.678 867.977 148.565 867.866 147.289L869.221 147.236L869.397 146.575C868.482 146.253 868.152 146.095 867.379 145.45L868.318 144.406Z"/>
	<path fill="#EBE7E5" d="M21.2927 133.37L24.1875 133.589L24.6599 134.324C24.7296 135.928 24.9767 136.268 23.9444 137.56C22.5363 138.059 21.6472 137.922 20.2233 137.677L19.6958 137.581L19.5247 138.077C20.5988 138.565 21.5736 138.901 22.7218 139.172C22.3737 140.387 22.6102 140.602 21.4598 141.261C20.1451 140.988 19.6927 140.761 18.7799 139.773C18.3075 138.469 18.1922 137.704 18.3267 136.322C19.272 135.503 20.2446 135.826 21.461 135.848L21.8797 135.43L21.2927 133.37Z"/>
	<path fill="#EBE7E5" d="M107.847 67.808C108.872 68.1968 108.465 68.0817 109.505 68.325C109.743 68.3808 109.982 68.4317 110.221 68.485C110.52 68.9654 110.883 69.5119 111.104 70.0305C111.681 71.3792 110.883 73.0002 110.3 74.228L108.728 73.9166L108.112 73.767C107.352 74.2023 106.898 74.368 106.023 74.4285C106.109 73.469 106.115 72.9561 105.913 71.9903L104.388 71.0736L104.222 70.3923C105.155 70.1086 104.8 70.1253 105.717 70.1757C105.923 70.1869 106.127 70.2099 106.332 70.227L107.847 67.808Z"/>
	<path fill="#EBE7E5" d="M617.421 49.2311C617.846 49.8701 618.278 50.6359 618.8 51.1946C619.802 52.2687 620.497 52.0721 621.86 52.158C621.363 52.7066 620.738 53.2997 620.346 53.9237C619.478 55.3075 620.06 56.0495 620.489 57.4969C619.287 56.7423 619.25 56.6659 617.85 56.794C616.489 56.1149 615.606 55.918 614.806 54.5995C615.097 52.2073 616.017 51.1085 617.421 49.2311Z"/>
	<path fill="#EBE7E5" d="M703.456 73.5896C704.949 74.4431 705.905 76.1268 707.683 77.0964C707.848 77.1862 708.015 77.2717 708.181 77.3594C707.539 77.6385 706.665 77.9268 706.114 78.3459C705.052 79.1521 705.207 80.3704 705.052 81.5836C704.788 81.2904 704.347 80.7738 704.032 80.5585C703.087 79.9123 702.568 80.113 701.548 80.3312C701.441 78.6373 701.198 76.9988 700.927 75.324L703.456 73.5896Z"/>
	<path fill="#051530" d="M951.619 141.177C953.007 140.362 954.877 140.889 955.831 139.813L955.151 137.782C955.461 136.668 955.404 136.916 956.282 136.35L957.003 136.587C957.517 137.521 957.91 138.181 958.725 138.877L959.971 138.53C959.916 139.049 959.823 139.533 959.674 140.034C959.134 141.854 958.602 143.253 956.884 144.179C954.604 143.872 953.417 142.558 951.619 141.177Z"/>
	<path fill="#EBE7E5" d="M1019.86 9.53622L1020.12 9.80412C1020.1 11.3069 1019.94 12.0599 1020.77 13.3214L1022.41 13.5448C1023.01 14.7638 1022.8 15.5485 1022.74 16.8728C1022.09 16.4307 1021.48 15.9472 1020.85 15.4732C1019.45 15.3836 1019.26 15.4051 1018.02 16.0698C1017.6 16.9912 1017.16 17.8253 1016.62 18.6812L1015.73 18.8145L1015.8 16.1906L1015.77 15.6191L1015.25 15.1509C1014.05 15.5403 1013.11 15.7995 1011.84 15.8614L1012.68 14.8465C1013.67 14.5999 1014.35 14.4445 1015.14 13.7917C1015.23 11.8961 1013.69 11.9926 1013.26 10.2535L1014.04 10.0785L1015.3 11.6033C1015.63 11.6333 1015.97 11.6965 1016.3 11.6931C1017.93 11.6766 1018.81 10.569 1019.86 9.53622Z"/>
	<path fill="#EBE7E5" d="M637.067 38.6086C638.287 38.9036 637.736 38.645 638.727 39.3696L638.361 40.7038L639.017 41.2329L640.706 40.6286L641.29 41.3004C640.271 41.9621 639.677 42.0875 639.229 43.2669C639.619 44.1621 639.944 45.008 640.197 45.9514C638.76 47.0495 637.448 46.5299 635.698 47.3635C634.738 46.6831 634.624 46.3 634.128 45.2846L633.931 44.8746C633.092 44.8277 632.441 44.7487 631.648 44.465L633.446 44.3853C634.246 43.2143 633.187 42.1577 633.911 40.7849C634.69 41.2499 634.974 41.4188 635.9 41.5339C636.699 40.6107 636.72 40.2093 636.971 39.0647L637.067 38.6086Z"/>
	<path fill="#EBE7E5" d="M809.529 111.187L811.143 114.636C812.121 115.08 811.769 114.968 812.616 115.211C813.671 115.514 814.523 115.721 815.466 116.328C816.225 116.817 816.085 116.984 816.287 117.787C815.995 118.632 815.659 119.15 815.098 119.843C813.491 119.997 812.918 119.043 811.692 118.056C810.719 118.349 810.057 118.661 809.208 119.216C808.953 119.382 808.71 119.566 808.46 119.741L807.128 117.868L806.084 117.793L805.621 117.072C805.833 116.322 806.023 115.821 806.597 115.27C807.828 114.088 808.507 113.24 809.283 111.693C809.367 111.525 809.447 111.356 809.529 111.187Z"/>
	<path fill="#EBE7E5" d="M973.867 54.1179L974.324 54.0659C976.189 54.9635 974.931 56.4225 975.789 58.3622C978.011 59.5212 978.787 57.8386 981.132 57.956L981.457 58.5174C980.198 59.7782 977.751 60.3718 976.076 61.0292C975.966 62.4278 976.006 62.9112 975.249 64.0657C974.464 64.2744 974.054 64.5505 973.252 64.2552C971.781 63.7133 970.857 62.4607 970.375 61.0107C969.298 57.7693 972.842 57.2145 973.752 54.6608C973.814 54.4865 973.829 54.2989 973.867 54.1179Z"/>
	<path fill="#EBE7E5" d="M387.481 24.8667L389.252 26.6997L389.385 27.8205C390.312 27.2023 389.824 27.456 390.847 27.0553C392.423 29.555 390.675 32.8376 392.714 35.267C393.461 35.5074 393.998 35.705 394.681 36.1079C394.384 37.2233 394.267 37.1827 393.49 37.9428C392.668 37.1418 392.967 37.4686 392.236 36.6232C391.453 35.717 390.943 35.9259 389.792 35.7614C389.536 34.968 389.269 34.4689 388.758 33.8099C387.947 33.8589 387.08 33.9389 386.271 33.8496C385.168 33.728 384.27 33.5633 383.625 32.6317L384.096 31.2486C385.079 30.7257 385.932 30.216 386.801 29.518C387.503 28.0207 387.429 26.4858 387.481 24.8667Z"/>
	<path fill="#051530" d="M959.971 138.53L960.322 137.333C960.547 137.556 960.767 137.786 960.999 138.004C962.1 139.038 963.452 139.306 964.875 139.662L965.144 140.329L963.74 141.116C964.37 142.414 966.125 142.254 966.34 143.34C964.89 144.103 963.928 144.385 963.026 145.775C963.327 147.282 964.149 148.115 965.114 149.241L965.054 150.107C965.234 149.752 965.155 149.956 965.261 149.483L964.191 149.712L962.92 148.473L962.16 148.603L961.68 149.855C960.797 149.327 960.274 148.849 959.551 148.135C959.344 148.264 959.135 148.388 958.932 148.523C957.864 149.228 958.37 148.881 957.407 149.74C956.698 150.372 956.393 150.537 955.496 150.757L955.942 149.39C955.216 149.399 954.885 149.499 954.218 149.739C954.096 148.626 954.2 147.51 954.852 146.545C955.551 145.511 956.415 145.37 957.582 145.425C958.476 145.467 959.469 145.762 960.347 145.954L961.138 145.452Q960.223 144.439 959.258 143.473L959.749 142.989C960.414 143.21 961.071 143.422 961.745 143.614L962.36 143C961.807 142.054 961.546 141.874 960.671 141.276L960.689 140.749C960.704 140.19 960.691 139.63 960.677 139.071L959.971 138.53Z"/>
	<path fill="#EBE7E5" d="M254.853 119.893C255.933 120.908 256.349 121.501 257.81 121.854C258.51 121.143 258.642 121.019 259.639 120.704C259.753 121.759 259.842 122.677 260.234 123.669C261.316 123.274 260.807 123.239 261.763 123.65C261.341 124.368 261.117 124.921 260.941 125.735C261.568 126.234 261.933 126.552 262.404 127.216C261.484 127.872 260.74 128.463 260 129.324L259.349 130.095C258.448 130.806 258.6 131.183 258.354 132.265C257.334 132.19 255.731 129.746 254.767 128.977C253.893 129.635 254.349 129.366 253.406 129.801C252.714 127.55 255.029 124.833 254.632 122.34C254.473 121.344 254.587 120.851 254.853 119.893Z"/>
	<path fill="#EBE7E5" d="M75.298 44.767C75.9428 45.3193 76.036 45.9398 76.2099 46.7374C76.2545 46.9421 76.2923 47.1482 76.3335 47.3536L77.2105 47.4768C77.6109 46.7115 77.8412 46.3623 78.4024 45.7552C79.3416 46.0218 79.3384 45.8764 79.9949 46.7312C81.0914 48.159 81.1481 49.7507 80.8118 51.4635C80.4135 53.4919 79.8842 53.6458 78.2883 54.6596C77.7788 55.1507 77.2988 55.5552 76.7405 55.9826C73.915 54.8508 72.4041 53.1244 70.8268 50.5791L70.998 49.8644C71.9363 49.8895 72.6773 49.7775 73.5891 49.5589C74.8338 48.4065 74.8838 47.1009 75.1702 45.5098L75.298 44.767Z"/>
	<path fill="#EBE7E5" d="M683.42 72.2953C683.813 73.3116 683.765 72.8807 683.753 73.8028C683.741 74.6892 683.817 75.5086 683.915 76.3889L684.551 76.5661Q685.834 75.4462 687.14 74.3543C688.039 75.2439 688.344 76.4375 688.776 77.6074C688.064 78.1502 687.577 78.5555 687.002 79.2555C687.634 79.9141 687.795 80.0998 688.1 80.9987C687.334 81.4579 687.082 81.7229 686.577 82.5044C686.425 82.7399 686.288 82.9849 686.144 83.2251L685.502 83.366L684.308 81.9534L683.272 82.0193C682.432 82.8595 682.192 83.1911 681.019 83.5243C679.349 82.5967 677.642 79.6238 677.373 77.7538C677.218 76.6715 677.486 76.4798 678.162 75.7668C680.029 76.0457 680.988 77.6056 682.672 78.455L683.012 77.8014C682.486 75.5286 682.207 74.3849 683.42 72.2953Z"/>
	<path fill="#EBE7E5" d="M178.763 112.57L179.637 113.677C178.987 115.447 178.399 118.201 177.012 119.448L175.942 118.048C174.393 117.874 174.055 119.074 172.487 119.413C171.771 118.159 172.783 117.295 172.263 115.822C170.926 115.143 168.86 115.753 167.399 115.983C167.746 114.275 173.322 110.832 174.552 108.686C175.015 107.879 175.027 107.791 175.807 107.154C176.113 108.048 176.38 108.917 176.567 109.843L176.737 110.706C177.495 111.313 178.121 111.835 178.763 112.57Z"/>
	<path fill="#EBE7E5" d="M43.9627 70.5232C44.6737 71.109 45.357 71.5481 46.1403 72.0261C47.2806 71.6593 48.1698 71.2404 49.3572 71.6763C50.3842 73.1655 50.1329 74.5203 50.2087 76.3043C50.7237 77.0629 50.9466 77.6372 51.1642 78.5266C50.6089 79.8888 50.4878 80.148 49.3405 81.0497C48.5713 80.3074 48.6623 80.4433 47.7021 80.2907C47.0198 80.8438 46.6391 81.1151 45.8041 81.4446C45.188 80.5115 44.7878 79.8222 43.8579 79.1659C43.6734 79.0357 43.4729 78.9297 43.2804 78.8116L43.4075 78.2819C43.8556 76.7555 44.2584 75.4122 44.269 73.8015C43.3312 75.1365 42.3719 76.7614 41.1059 77.7882C40.345 78.4053 40.7283 78.2545 39.698 78.1311C39.1586 77.0917 38.9515 77.138 39.1984 75.9292C39.9332 75.8514 40.5944 75.8374 41.3389 75.8594L42.1821 75.8921L42.3744 75.1353C41.5038 74.5036 40.6151 73.9243 39.7098 73.3446L39.8075 72.631L40.7765 72.162C41.6589 72.4729 42.4803 72.6892 43.4016 72.8522C44.2363 71.827 43.997 71.7774 43.9627 70.5232Z"/>
	<path fill="#EBE7E5" d="M824.707 97.3267C825.493 97.6742 825.578 97.5812 826.05 98.3562L825.133 99.5013C825.702 101.257 827.163 102.844 828.258 104.316C827.981 105.296 827.708 106.049 827.001 106.791C825.946 107.898 823.924 109.184 822.371 109.241L821.153 107.857L820.741 106.883L819.444 107.171C818.993 106.036 818.496 105.308 817.701 104.369C817.146 103.713 816.743 103.229 816.309 102.479C818.94 101.194 822.862 100.151 824.468 97.7129C824.551 97.5866 824.627 97.4554 824.707 97.3267Z"/>
	<path fill="#EBE7E5" d="M960.915 28.8685C961.773 29.6379 961.94 30.5259 962.318 31.5877L963.153 31.9369L965.042 30.6878C966.308 30.5941 966.835 30.8938 967.921 31.517L967.746 32.0938L964.925 33.5281L964.827 34.0316C965.879 34.1772 966.416 34.3285 967.282 34.9501C968.278 37.6028 966.101 38.8362 965.681 41.1614C965.628 41.4521 965.586 41.7446 965.539 42.0361C964.63 40.8587 965.232 39.9728 964.265 39.0006C962.295 38.7223 960.395 40.1712 958.382 40.409L957.931 39.7376L958.876 38.3025C958.439 37.836 958.215 37.5909 958.045 36.9532C957.777 35.9455 958.855 32.1768 959.453 31.2229C959.947 30.4351 960.441 29.6737 960.915 28.8685Z"/>
	<path fill="#EBE7E5" d="M377.544 44.2631C378.506 44.8843 378.47 44.9165 378.823 46.0167C378.454 47.011 378.168 47.8724 378.04 48.9275C378.91 49.6085 378.788 49.47 379.793 49.4995C380.652 48.5822 380.684 48.0684 380.979 46.8899L381.103 46.382C381.936 45.937 381.952 46.1339 382.822 46.3579L383.01 47.9915C384.173 48.2264 385.066 46.932 386.435 46.6745L387.09 47.4696L386.958 48.3346C386.621 48.6938 385.903 49.3457 385.665 49.8182C384.991 51.1596 386.092 52.8201 386.497 54.1837C385.54 55.0121 385.325 54.7727 384.109 54.7928C383.618 56.209 383.335 57.0522 382.105 58.0202C380.874 57.9388 381.415 58.174 380.505 57.2607L381.366 55.8565L380.995 55.2247C379.468 54.5874 377.507 53.5597 375.823 53.8598C375.632 53.8939 375.448 53.9609 375.26 54.0115C375.376 53.3872 377.437 52.3515 378.016 51.5714C377.395 50.9819 376.814 50.3881 376.25 49.7442C376.954 48.0716 377.26 46.6915 377.474 44.8869L377.544 44.2631Z"/>
	<path fill="#EBE7E5" d="M740.851 61.7389C742.458 62.3856 742.521 63.3617 743.602 64.471C744.653 65.5492 744.991 65.3657 746.41 65.3057L746.619 65.6477C745.542 68.5822 745.059 70.7169 742.045 72.1511L740.875 71.0945C740.072 71.4608 739.592 71.6129 738.75 71.7719C735.174 70.061 737.048 68.982 735.316 66.9588L733.592 67.2063L733.234 66.8197C734.284 66.0969 735.309 65.3825 736.263 64.5339C737.796 63.1705 738.894 62.3873 740.851 61.7389Z"/>
	<path fill="#EBE7E5" d="M156.591 113.642Q157.116 113.989 157.632 114.35C159.538 115.686 159.908 116.33 160.303 118.652C161.27 118.972 162.1 119.297 162.984 119.805L162.681 120.609C161.641 120.622 162.039 120.716 161.069 120.333C160.841 120.244 160.619 120.142 160.394 120.046C158.095 122.218 157.591 125.328 154.732 126.985C153.705 127.592 153.505 127.729 152.326 127.733C151.262 125.039 154.098 121.888 152.814 119.198C151.892 118.478 151.117 117.909 150.444 116.937L150.768 116.003L151.908 116.935C152.446 116.518 153.105 115.899 153.72 115.625C154.732 115.173 155.105 115.235 155.911 114.382C156.141 114.139 156.365 113.889 156.591 113.642Z"/>
	<path fill="#EBE7E5" d="M56.9756 55.3191C57.7582 55.9615 58.1829 56.7576 58.7251 57.6013C60.1268 58.236 60.7521 58.1838 62.2212 57.9968C63.1685 57.3037 63.9701 56.8138 65.0656 56.3891C66.1101 57.6481 65.6985 60.7732 65.788 62.4984C66.7677 63.1851 66.3492 62.9483 67.4308 63.4782C67.6844 63.6025 67.9407 63.7212 68.1957 63.8427L68.3797 64.6476L67.7537 65.279C66.7757 64.6112 66.522 64.2084 65.308 64.1694L64.3682 66.4764L63.7029 66.608C62.7551 65.773 62.2135 65.2114 60.9446 64.9313C60.3484 65.8339 60.5652 65.5902 59.9502 66.2649C59.4121 66.8552 59.2701 66.6769 58.5141 66.7063C58.3123 65.899 58.099 65.232 57.7167 64.4919C56.9752 64.6473 56.4718 64.8539 55.7711 65.1888C55.507 65.315 55.2465 65.4487 54.9842 65.5786L54.2143 65.1946Q55.5086 63.7119 56.8285 62.2519L55.0728 61.4017L55.1044 60.6611C56.0539 60.6676 56.8605 60.6493 57.7853 60.4235L57.8762 59.4861C57.2127 58.8811 56.6538 58.4574 56.3179 57.5956C56.0069 56.7975 56.6425 56.0562 56.9756 55.3191Z"/>
	<path fill="#EBE7E5" d="M230.182 99.3608C231.108 100.348 231.297 100.765 232.595 101.067L234.046 99.6899L234.799 100.071C235.004 101.113 235.123 102.267 235.738 103.156C236.17 103.781 237.705 103.656 238.45 103.723L238.909 104.282C238.221 105.255 238.536 104.902 237.687 105.733C237.489 105.927 237.286 106.116 237.085 106.307C236.916 108.442 236.375 110.004 235.783 112.016C235.74 112.161 235.701 112.306 235.66 112.451C235.55 112.395 235.447 112.319 235.329 112.282C234.893 112.143 234.422 112.123 233.993 111.965C232.523 111.425 230.084 110.96 228.895 110.051L229.182 108.29C228.889 107.07 228.202 106.604 227.284 105.838L226.901 105.525C229.345 103.262 229.89 102.723 230.182 99.3608Z"/>
	<path fill="#EBE7E5" d="M923.053 155.453C925.372 158.637 926.646 159.255 930.37 160.306C931.226 160.548 931.326 160.58 932.044 161.194L931.109 162.28L931.215 163.056L933.363 164.164L933.419 164.976L932.748 165.505C931.793 165.341 931.332 165.082 930.602 164.479C929.995 163.979 929.848 163.839 929.072 163.578C929.039 165.534 930.093 166.587 929.626 168.594L928.76 169.019L926.457 167.571C925.86 168.883 925.834 170.017 924.824 171.118L925.195 170.456L924.134 170.055C922.449 165.863 920.773 164.102 917.638 161.048C918.645 161.209 919.688 161.22 920.706 161.281C921.907 160.457 922.351 160.138 922.883 158.712C922.611 157.381 922.62 156.744 923.053 155.453Z"/>
	<path fill="#EBE7E5" d="M205.723 96.1769C206.659 96.6976 206.632 96.6707 206.991 97.6809C209.221 99.2929 210.576 102.79 211.835 105.211C211.001 107 209.2 107.427 207.807 108.855C207.673 110.076 207.582 111.019 207.073 112.153L206.273 112.204Q205.838 111.318 205.377 110.445C204.568 108.951 204.122 108.28 202.467 107.79L202.043 108.255L203.006 110.246L203.137 111.076C201.91 111.485 201.748 111.368 200.487 111.001C199.931 109.564 201.252 106.857 201.343 105.153L199.102 105.862L198.573 105.353L198.967 104.41C200.079 104.214 200.846 104.089 201.782 103.436C201.915 101.919 200.829 100.649 200.102 99.3177C200.937 98.6869 201.059 98.6411 202.102 98.5507C202.589 99.1688 203.072 99.7457 203.602 100.331C204.666 99.0515 205.14 97.7222 205.723 96.1769Z"/>
	<path fill="#FCDA2C" d="M677.554 532.979C677.845 534.176 678.314 535.501 678.369 536.726C680.638 541.822 680.768 547.156 679.954 552.607C678.608 554.764 676.849 556.322 674.784 557.785C674.217 557.005 673.423 556.406 672.701 555.768C671.135 556.415 670.883 556.323 670.073 557.889C670.475 558.973 670.631 559.049 671.727 559.43C671.841 559.47 671.968 559.456 672.089 559.47C671.028 560.479 670.321 561.264 669.593 562.531L666.586 561.533C666.002 561.202 665.442 560.026 665.059 559.442C665.715 557.68 666.102 555.749 666.584 553.928Q667.413 552.326 668.268 550.739C672.111 545.382 674.243 538.705 677.554 532.979Z"/>
	<path fill="#F9EB66" d="M677.853 546.097C678.177 547.734 677.972 549.753 676.875 551.102C674.526 553.99 669.606 551.343 668.428 555.048L669.017 555.782C670.284 555.875 671.439 555.857 672.701 555.768C671.135 556.415 670.883 556.323 670.073 557.889C670.475 558.973 670.631 559.049 671.727 559.43C671.841 559.47 671.968 559.456 672.089 559.47C671.028 560.479 670.321 561.264 669.593 562.531L666.586 561.533C666.002 561.202 665.442 560.026 665.059 559.442C665.715 557.68 666.102 555.749 666.584 553.928Q667.413 552.326 668.268 550.739C669.546 551.371 670.778 552.024 672.262 551.784C675.08 551.328 676.508 548.293 677.853 546.097Z"/>
	<path fill="#58237D" d="M677.554 532.979C677.845 534.176 678.314 535.501 678.369 536.726C678.126 539.64 677.42 543.242 677.853 546.097C676.508 548.293 675.08 551.328 672.262 551.784C670.778 552.024 669.546 551.371 668.268 550.739C672.111 545.382 674.243 538.705 677.554 532.979Z"/>
	<path fill="#66275F" d="M364.561 336.006L365.036 336.066C365.573 337.35 363.298 341.676 362.77 343.19C360.152 350.695 359.593 359.313 359.501 367.196C354.377 365.312 349.346 363.728 343.981 362.67L338.323 362.143Q338.544 361.637 338.782 361.139C344.464 349.271 351.981 340.39 364.561 336.006Z"/>
	<path fill="#66275F" d="M685.38 335.093C687.775 335.661 690.083 336.287 692.303 337.379C700.552 341.436 708.451 351.169 710.91 359.979C711.29 361.339 711.392 362.043 710.692 363.263L708.932 363.469C702.586 364.222 696.546 365.402 690.379 367.058C689.802 356.174 687.195 345.795 685.38 335.093Z"/>
	<path fill="#66275F" d="M710.032 369.691C710.782 369.583 711.785 369.341 712.529 369.424C712.673 369.441 713.516 369.629 713.697 369.83C714.898 371.17 715.9 373.459 716.844 375.031C719.195 378.949 721.537 382.016 724.768 385.247C716.134 391.462 708.208 398.487 700.652 405.959C698.317 408.36 695.928 410.659 693.454 412.916C694.319 399.042 693.567 386.123 691.228 372.425Q700.584 370.739 710.032 369.691Z"/>
	<path fill="#2EA8D5" d="M621.357 448.593C623.249 448.441 625.141 448.132 627.024 447.882C637.449 466.341 636.35 481.687 635.986 502.005Q635.773 518.756 635.736 535.508C635.696 540.307 635.144 545.229 635.352 550.009C635.577 555.187 637.659 560.053 638.785 565.059C640.014 570.524 639.942 576.104 639.872 581.671C654.416 566.97 668.892 535.233 679.416 516.921L680.092 517.246C679.027 519.865 677.714 522.456 676.046 524.743C672.816 529.174 670.898 535.022 668.291 539.859C664.569 546.764 645.338 580.459 639.674 582.514C639.495 582.313 639.259 582.152 639.137 581.913C638.428 580.518 639.63 564.658 635.505 556.805C634.031 554 634.752 550.547 633.906 547.536C632.411 542.216 629.433 537.503 627.221 532.496C625.318 528.189 624.438 522.963 623.919 518.303C623.324 512.954 625.394 496.323 624.171 493.516C622.723 493.978 622.012 494.425 621.349 495.843C617.642 503.756 619.555 525.776 622.86 533.746C624.927 538.731 627.543 543.582 628.635 548.888C629.126 551.274 630.287 553.502 630.64 555.918C631.943 564.832 629.099 574.251 624.338 581.638C622.872 583.912 619.83 589.489 617.075 590.283C616.64 590.408 616.435 590.388 616.015 590.393C628.03 578.036 633.507 564.443 627.439 547.596C624.868 540.459 621.402 533.747 619.847 526.256C617.727 516.041 618.998 505.423 619.788 495.134L625.353 491.001C626.323 507.004 621.853 522.649 630.441 537.505C630.138 527.134 629.732 516.772 629.847 506.394C630.081 485.217 632.105 468 621.357 448.593Z"/>
	<path fill="#013262" d="M519.52 436.691C523.314 436.336 527.233 436.279 531.038 436.441C540.828 436.858 552.782 440.222 559.502 447.765C562.432 451.054 564.249 455.264 563.825 459.724C563.464 463.525 561.381 466.892 558.426 469.256C555.881 471.293 552.452 472.355 549.203 471.842C547.031 471.499 544.901 470.508 543.641 468.642C539.169 462.018 550.359 459.924 551.39 455.566C550.903 454.922 551.055 454.831 550.422 454.702C547.631 454.131 542.68 456.36 540.557 458.089C538.637 459.653 537.606 462.522 537.438 464.919C536.872 473.01 542.847 481.876 547.855 487.722C542.24 490.598 537.108 491.797 530.872 492.652C530.885 485.152 530.374 477.821 529.437 470.387C529.287 469.296 529.177 468.122 528.871 467.063C528.552 465.961 528.106 465.335 527.132 464.74L526.259 465.27C523.015 472.846 524.335 484.442 524.278 492.706C517.903 491.759 512.162 490.458 506.321 487.685C510.308 483.317 513.619 478.145 515.396 472.474C516.574 468.715 517.284 464.039 515.214 460.448C513.659 457.751 510.687 456.436 507.788 455.724C506.229 455.341 504.137 454.932 502.729 455.806C503.899 458.899 508.951 460.605 510.671 463.959C511.276 465.139 511.463 466.518 510.941 467.768C510.092 469.797 507.429 471.525 505.377 472.069C502.675 472.784 498.423 472.095 496.116 470.563C492.723 468.31 490.628 463.805 490.095 459.871C489.545 455.804 490.635 451.913 493.108 448.653C499.042 440.829 510.262 437.851 519.52 436.691Z"/>
	<path fill="#EBE7E5" d="M0 720.014C10.9661 702.438 24.3426 685.978 37.3822 669.906Q41.0238 665.368 44.7551 660.904Q48.4865 656.44 52.306 652.051Q56.1256 647.662 60.0319 643.35Q63.9382 639.038 67.9296 634.805Q71.921 630.572 75.996 626.419Q80.0711 622.266 84.228 618.196Q88.385 614.125 92.6223 610.138Q96.8596 606.151 101.175 602.249Q105.491 598.347 109.884 594.532Q114.277 590.717 118.745 586.99Q123.213 583.263 127.754 579.627Q132.296 575.99 136.909 572.444Q141.522 568.898 146.204 565.445Q150.887 561.992 155.638 558.633Q160.388 555.274 165.205 552.01Q170.021 548.746 174.902 545.579Q179.783 542.412 184.726 539.343Q189.668 536.274 194.671 533.304Q199.674 530.334 204.736 527.464Q209.797 524.594 214.914 521.826Q220.032 519.058 225.203 516.392Q230.375 513.726 235.599 511.164Q240.822 508.602 246.096 506.144Q251.37 503.687 256.691 501.335Q262.013 498.983 267.38 496.737Q272.748 494.492 278.159 492.354Q283.57 490.216 289.023 488.186Q294.475 486.157 299.967 484.236Q305.459 482.315 310.989 480.504Q316.518 478.694 322.082 476.993Q327.646 475.293 333.243 473.704Q338.84 472.115 344.468 470.638C344.919 473.421 345.017 476.265 345.207 479.076C320.195 487.397 294.819 493.983 270.539 504.471C185.601 541.159 115.13 594.583 54.5916 664.336C44.6539 675.787 35.224 687.43 26.1955 699.609C22.3821 704.754 18.353 709.875 15.0506 715.368C9.71273 721.466 5.128 728.134 0 734.388L0 720.014Z"/>
	<path fill="#EBE7E5" d="M700.718 475.762C732.441 484.754 762.404 497.802 791.686 512.899Q796.125 515.168 800.526 517.511Q804.926 519.854 809.286 522.272Q813.647 524.689 817.966 527.179Q822.285 529.669 826.561 532.232Q830.837 534.795 835.07 537.429Q839.302 540.064 843.49 542.769Q847.677 545.474 851.819 548.25Q855.96 551.026 860.054 553.871Q864.148 556.716 868.194 559.629Q872.239 562.543 876.235 565.524Q880.231 568.505 884.176 571.554Q888.121 574.602 892.014 577.716Q895.907 580.831 899.747 584.01Q903.587 587.19 907.372 590.433Q911.158 593.677 914.889 596.984Q918.62 600.292 922.294 603.661Q925.968 607.031 929.585 610.461Q933.202 613.892 936.761 617.384Q940.32 620.875 943.819 624.426Q947.319 627.977 950.758 631.587Q954.197 635.196 957.574 638.863Q960.952 642.53 964.267 646.253Q967.583 649.976 970.835 653.755Q974.087 657.534 977.275 661.366Q980.463 665.199 983.586 669.085Q986.709 672.971 989.766 676.91Q992.823 680.848 995.814 684.837Q998.804 688.826 1001.73 692.865Q1004.65 696.904 1007.5 700.992Q1010.36 705.079 1013.14 709.214Q1015.93 713.349 1018.64 717.531Q1021.36 721.712 1024 725.939L1024 742.448C1017.29 733.892 1012.62 723.499 1005.31 715.439C1001.21 708.029 995.582 701.048 990.495 694.289Q977.665 677.051 963.877 660.569Q958.835 654.649 953.635 648.867Q948.434 643.086 943.079 637.448Q937.724 631.81 932.217 626.319Q926.711 620.828 921.057 615.489Q915.404 610.149 909.608 604.965Q903.812 599.781 897.877 594.756Q891.943 589.731 885.874 584.869Q879.805 580.007 873.607 575.311Q867.409 570.615 861.085 566.09Q854.762 561.564 848.318 557.211Q841.874 552.859 835.314 548.682Q828.755 544.506 822.084 540.509Q815.414 536.513 808.637 532.698Q801.861 528.884 794.983 525.255Q788.106 521.626 781.132 518.185Q774.159 514.744 767.095 511.493Q747.944 502.733 728.314 495.105C718.679 491.456 708.777 488.327 699.24 484.464C699.709 481.563 700.119 478.639 700.718 475.762Z"/>
	<path fill="#66275F" d="M366.098 371.168C368.485 372.201 370.932 372.893 373.363 373.785C376.3 394.542 379.358 425.619 397.264 439.136C404.065 444.27 411.975 446.292 420.292 447.385Q419.775 448.272 419.275 449.169C414.907 457.007 411.207 464.934 409.428 473.773C406.561 488.01 409.211 506.168 407.372 521.849C405.856 534.774 399.326 548.157 399.528 560.911C399.659 569.177 403.531 577.277 405.763 585.155C403.952 583.323 402.119 581.49 400.39 579.58C388.244 566.163 382.839 548.661 374.804 532.798C368.028 519.419 359.196 506.677 354.476 492.36C344.616 462.451 357.631 444.058 362.6 415.83C365.21 401 365.486 386.171 366.098 371.168Z"/>
	<path fill="#66275F" d="M627.024 447.882C665.418 437.659 664.419 421.827 673.15 386.96C675.405 377.955 676.761 372.688 683.924 366.264C689.75 386.613 685.7 404.933 687.595 425.12C689.365 443.959 697.475 459.176 694.56 479.033C692.499 493.072 684.69 504.159 679.416 516.921C668.892 535.233 654.416 566.97 639.872 581.671C639.942 576.104 640.014 570.524 638.785 565.059C637.659 560.053 635.577 555.187 635.352 550.009C635.144 545.229 635.696 540.307 635.736 535.508Q635.773 518.756 635.986 502.005C636.35 481.687 637.449 466.341 627.024 447.882Z"/>
	<path fill="#F9EB66" d="M687.358 514.595Q696.399 517.039 705.365 519.748Q714.331 522.457 723.214 525.427Q732.096 528.397 740.888 531.627Q749.679 534.856 758.372 538.343Q767.066 541.829 775.653 545.568Q784.24 549.308 792.713 553.297Q801.187 557.287 809.54 561.524Q817.893 565.76 826.119 570.24Q834.344 574.72 842.434 579.439Q850.524 584.158 858.473 589.112Q866.421 594.067 874.221 599.252Q882.02 604.437 889.665 609.849Q897.309 615.261 904.791 620.895Q912.273 626.528 919.587 632.379Q926.901 638.23 934.04 644.293Q941.179 650.355 948.137 656.625Q969.068 675.784 988.332 696.618C993.233 701.887 1000.36 711.285 1005.31 715.439C1012.62 723.499 1017.29 733.892 1024 742.448L1024 776.913C1016.95 769.564 1010.75 761.119 1004.11 753.372Q990.257 737.433 975.263 722.563C891.559 639.122 796.043 580.603 682.391 547.523L679.954 552.607C680.768 547.156 680.638 541.822 678.369 536.726C678.314 535.501 677.845 534.176 677.554 532.979C680.294 526.631 684.432 520.897 687.358 514.595Z"/>
	<path fill="#F9EB66" d="M15.0506 715.368C21.1427 711.333 32.7373 696.408 38.6875 690.282Q59.2082 669.034 81.5965 649.763Q87.2162 644.866 92.9531 640.107Q98.69 635.348 104.541 630.73Q110.391 626.111 116.353 621.636Q122.314 617.161 128.382 612.832Q134.449 608.503 140.621 604.323Q146.792 600.143 153.063 596.113Q159.334 592.084 165.7 588.208Q172.067 584.332 178.526 580.611Q184.985 576.891 191.533 573.328Q198.08 569.766 204.712 566.363Q211.344 562.961 218.056 559.72Q224.769 556.479 231.558 553.403Q238.347 550.326 245.209 547.415Q252.071 544.504 259.002 541.76Q265.932 539.016 272.927 536.442Q279.922 533.867 286.978 531.463C309.607 523.811 332.714 518.051 355.811 512.034C356.689 513.497 357.351 514.995 358.022 516.562C355.264 525.241 353.544 533.7 351.736 542.594L349.929 544.486C347.345 538.89 346.556 529.679 341.738 527.039L340.925 527.166C340.876 530.222 345.622 540.831 347.198 543.994C346.33 544.759 345.549 545.474 344.806 546.367L344.053 545.703C338.669 546.829 332.975 549.846 327.746 551.716Q300.934 561.007 274.59 571.552Q266.667 574.783 258.828 578.213Q250.989 581.643 243.24 585.27Q235.49 588.897 227.834 592.719Q220.179 596.541 212.622 600.554Q205.065 604.568 197.613 608.772Q190.16 612.975 182.816 617.366Q175.472 621.756 168.241 626.331Q161.01 630.906 153.897 635.662Q146.784 640.417 139.793 645.352Q132.803 650.286 125.939 655.395Q119.075 660.504 112.343 665.785Q105.611 671.066 99.0137 676.515Q92.4169 681.964 85.9599 687.579Q79.5028 693.193 73.1897 698.969Q66.8766 704.744 60.7114 710.677Q54.5462 716.611 48.5329 722.698C38.9149 732.319 29.2537 742.03 20.2962 752.269C13.5051 760.031 7.24584 768.457 0 775.791L0 734.388C5.128 728.134 9.71273 721.466 15.0506 715.368Z"/>
	<path fill="#66275F" d="M356.036 417.452C349.847 406.144 341.341 391.175 328.037 387.307C319.902 384.943 310.684 390.31 302.535 391.676C290.741 393.652 251.042 397.42 244.182 385.145C242.928 382.9 242.601 380.268 243.462 377.828C244.406 375.152 246.584 372.998 248.821 371.351C254.3 367.319 261.012 365.144 266.603 361.135Q277.051 353.649 287.059 345.585C292.215 341.404 297.242 336.861 302.67 333.055C308.611 328.888 315.553 326.722 321.467 322.405C333.914 313.319 345.604 301.361 359.852 295.208C369.236 291.156 379.405 289.815 389.462 291.761C393.952 292.63 398.293 293.748 402.899 293.734C412.378 293.704 421.767 290.99 431.197 290.18C438.484 289.555 445.611 290.39 452.889 290.418C460.255 290.446 467.617 289.717 474.984 289.82C492.015 290.06 508.627 294.709 525.672 294.488C540.128 294.3 554.329 291.057 568.711 289.934C580.614 289.004 591.802 290.767 603.6 291.163C608.812 291.338 614.022 290.12 619.219 290.317C629.069 290.691 638.404 295.01 648.361 295.245C662.61 295.581 670.517 287.401 686.087 293.586C701.564 299.735 713.855 311.14 727.146 320.803C737.516 328.342 748.453 335.072 758.933 342.459C765.882 347.357 772.292 352.987 779.272 357.826C786.527 362.856 795.086 366.068 802.102 371.241C803.861 372.537 805.442 374.026 806.37 376.039C807.552 378.602 807.532 382.148 806.537 384.772C805.299 388.038 802.335 390.16 799.183 391.387C785.636 396.661 749.473 395.435 736.6 389.48C707.542 376.038 724.837 330.658 676.806 328.25C678.696 334.7 680.676 341.227 681.885 347.846C651.778 338.56 603.298 338.103 571.885 340.063C557.421 340.965 543.079 342.992 528.549 343.045C513.68 343.098 498.916 341.111 484.091 340.286C455.518 338.696 416.132 338.297 388.097 342.73C380.745 343.893 373.858 346.304 366.642 347.916C369.218 341.571 371.984 335.418 375.117 329.323C363.795 329.115 354.738 331.164 346.396 339.292C338.824 346.67 333.081 357.475 329.917 367.475C340.189 367.535 350.41 368.463 359.486 373.716C359.497 388.689 358.814 402.729 356.036 417.452Z"/>
	<path fill="#CF3B25" d="M366.642 347.916C373.858 346.304 380.745 343.893 388.097 342.73C416.132 338.297 455.518 338.696 484.091 340.286C498.916 341.111 513.68 343.098 528.549 343.045C543.079 342.992 557.421 340.965 571.885 340.063C603.298 338.103 651.778 338.56 681.885 347.846C683.393 349.666 685.018 351.458 686.368 353.396C686.753 357.381 687.591 361.974 684.809 365.288C684.526 365.624 684.228 365.947 683.924 366.264C676.761 372.688 675.405 377.955 673.15 386.96C664.419 421.827 665.418 437.659 627.024 447.882C625.141 448.132 623.249 448.441 621.357 448.593C617.291 448.428 613.122 448.913 609.012 448.781C592.249 448.241 576.033 444.588 561.054 436.98C557.979 435.418 556.847 432.97 554.71 430.448C548.721 423.377 543.649 414.818 541.069 405.87C539.002 398.701 539.749 388.658 534.731 382.788C532.492 380.168 529.118 378.794 525.706 378.68C521.715 378.545 518.304 380.895 516.362 384.26C514.04 388.285 513.288 393.371 512.241 397.857C509.048 411.533 504.086 424.975 493.21 434.45C475.886 449.542 449.801 449.678 428.079 448.167C425.483 447.957 422.884 447.648 420.292 447.385C411.975 446.292 404.065 444.27 397.264 439.136C379.358 425.619 376.3 394.542 373.363 373.785C370.932 372.893 368.485 372.201 366.098 371.168C365.749 370.912 365.117 370.462 364.816 370.183C363.062 368.557 363.283 364.094 363.242 361.77C363.159 357.01 363.192 351.521 366.642 347.916Z"/>
	<path fill="#58237D" d="M591.296 347.719C605.791 346.519 647.856 347.45 659.295 354.318C663.504 356.846 666.48 360.626 667.506 365.46C669.854 376.521 659.256 415.032 652.83 424.966C646.88 434.163 637.655 437.664 627.415 439.846Q624.498 440.295 621.568 440.645C604.962 442.522 577.37 439.291 564.1 428.215C554.906 420.542 551.051 404.979 550.17 393.552C549.246 381.576 549.717 366.543 558.171 357.038C566.091 348.133 580.291 348.221 591.296 347.719Z"/>
	<path fill="#58237D" d="M430.679 347.728C445.674 347.209 481.561 345.651 493.491 355.426C499.232 360.129 501.025 367.531 501.734 374.585C503.431 391.448 502.237 412.006 491.041 425.633C481.638 437.077 465.238 439.379 451.379 440.685C437.175 442.235 417.278 442.278 404.693 434.791C394.501 428.728 388.043 409.598 385.422 398.769C383.673 391.546 377.291 359.502 380.973 354.693C385.91 348.244 421.654 347.968 430.679 347.728Z"/>
	<path fill="#66275F" d="M428.079 448.167C449.801 449.678 475.886 449.542 493.21 434.45C504.086 424.975 509.048 411.533 512.241 397.857C513.288 393.371 514.04 388.285 516.362 384.26C518.304 380.895 521.715 378.545 525.706 378.68C529.118 378.794 532.492 380.168 534.731 382.788C539.749 388.658 539.002 398.701 541.069 405.87C543.649 414.818 548.721 423.377 554.71 430.448C556.847 432.97 557.979 435.418 561.054 436.98C576.033 444.588 592.249 448.241 609.012 448.781C613.122 448.913 617.291 448.428 621.357 448.593C632.105 468 630.081 485.217 629.847 506.394C629.732 516.772 630.138 527.134 630.441 537.505C621.853 522.649 626.323 507.004 625.353 491.001L619.788 495.134C618.998 505.423 617.727 516.041 619.847 526.256C621.402 533.747 624.868 540.459 627.439 547.596C633.507 564.443 628.03 578.036 616.015 590.393C613.994 591.74 612.039 593.224 609.951 594.463C604.426 597.744 596.97 598.471 590.805 596.836C576.126 592.945 570.641 576.367 563.647 564.657C555.883 551.656 545.958 544.338 531.351 540.728C530.951 526.874 531.042 512.977 530.966 499.118Q532.381 498.978 533.785 498.754Q535.19 498.53 536.578 498.225Q537.967 497.919 539.335 497.532Q540.704 497.144 542.047 496.677Q543.39 496.21 544.703 495.665Q546.016 495.12 547.295 494.498Q548.574 493.876 549.814 493.18Q551.054 492.484 552.251 491.716C561.436 485.821 567.513 476.234 569.755 465.608C571.283 458.364 570.844 451.115 566.522 444.846C560.551 436.186 549.988 431.907 539.951 430.228C524.884 427.708 505.889 429.548 493.17 438.688C487.972 442.423 484.165 447.451 483.222 453.903C481.889 463.03 485.699 473.792 491.167 481.061C498.77 491.168 511.603 497.468 523.927 499.24L523.944 540.739C502.609 543.455 492.701 556.234 482.838 573.994C479.439 580.115 476.086 586.378 471.023 591.318C465.323 596.879 457.985 600.015 449.944 599.833C441.443 599.64 434.118 596.435 428.292 590.21C416.705 577.827 414.361 560.321 419.464 544.495C421.42 538.429 424.678 532.734 425.916 526.45C427.951 516.126 427.326 504.551 427.703 494.018C426.105 492.669 424.373 491.499 422.666 490.295C422.123 501.168 422.366 512.94 420.401 523.623C417.267 540.654 407.876 549.972 411.714 569.453C414.054 581.329 420.833 594.265 431.109 601.119C438.883 606.304 449.916 607.696 458.957 605.784C479.164 601.512 484.434 582.413 494.252 567.216C500.054 558.235 508.756 550.737 519.461 548.542C525.169 547.372 531.66 547.628 537.199 549.482C560.786 557.381 561.41 587.083 581.049 599.676Q581.737 600.11 582.446 600.508Q583.155 600.907 583.883 601.269Q584.611 601.632 585.356 601.957Q586.102 602.283 586.862 602.571Q587.623 602.858 588.397 603.108Q589.171 603.357 589.957 603.567Q590.743 603.777 591.538 603.948Q592.333 604.119 593.136 604.249Q593.939 604.38 594.747 604.47Q595.555 604.56 596.367 604.609Q597.179 604.659 597.992 604.667Q598.805 604.676 599.618 604.644Q600.431 604.612 601.241 604.539Q602.051 604.467 602.856 604.353Q603.662 604.24 604.46 604.087Q605.259 603.933 606.049 603.74C620.818 600.165 627.085 587.707 634.381 575.774Q633.71 579.376 632.522 582.841C627.626 597.136 615.425 618.726 601.198 625.276C596.63 627.378 591.66 628.099 586.727 627.005C566.807 622.584 566.84 598.296 546.247 590.658C538.163 587.66 528.765 587.201 520.253 588.013C481.982 591.664 488.874 617.076 467.592 626.678C459.89 630.154 451.197 630.648 443.275 627.552C429.875 622.315 422.054 609.736 416.579 597.108C412.388 587.443 406.46 572.819 405.795 562.445C405.198 553.119 409.413 544.186 411.749 535.33C413.075 530.307 413.981 525.125 414.634 519.974C416.717 503.534 412.756 486.126 417.251 470.131C418.775 464.708 421.268 459.644 424.176 454.837C425.339 452.914 427.102 450.857 427.872 448.76C427.944 448.564 428.01 448.365 428.079 448.167Z"/>
	<path fill="#29CBD1" d="M682.391 547.523C796.043 580.603 891.559 639.122 975.263 722.563Q990.257 737.433 1004.11 753.372C1010.75 761.119 1016.95 769.564 1024 776.913L1024 876.527L1024 896.025L1024 920.045L1024 949.143L1024 1024L1016.43 1024L1004.96 1024L947.577 1024C941.57 1011.57 933.93 999.752 926.369 988.229C889.045 931.347 839.624 879.568 783.18 841.459C784.871 831.96 783.794 821.01 783.762 811.293L783.643 755.628C783.499 751.249 783.622 746.84 783.642 742.458C783.62 737.147 783.465 732.519 779.656 728.367Q778.912 727.566 778.062 726.877Q777.212 726.189 776.274 725.628Q775.335 725.067 774.327 724.645Q773.318 724.222 772.26 723.946C765.539 722.143 751.554 723.259 743.918 723.092C734.961 697.596 724.87 672.794 715.006 647.665Q711.169 639.232 707.751 630.62C705.371 625.887 703.689 620.708 701.746 615.775L691.747 590.962C689.887 586.903 688.316 582.678 686.642 578.538C684.715 574.871 683.585 570.572 681.965 566.732C680.722 563.786 679.253 560.838 676.158 559.591C675.519 559.205 675.182 558.409 674.784 557.785C676.849 556.322 678.608 554.764 679.954 552.607L682.391 547.523Z"/>
	<path fill="#EBE7E5" d="M783.642 742.458C798.344 749.645 817.841 765.359 831.232 775.614Q837.248 780.269 843.14 785.08Q849.031 789.891 854.794 794.855Q860.558 799.82 866.189 804.934Q871.819 810.047 877.314 815.307Q882.809 820.568 888.163 825.97Q893.518 831.373 898.729 836.914Q903.94 842.455 909.003 848.131Q914.067 853.808 918.979 859.615Q923.892 865.422 928.651 871.356Q933.409 877.291 938.01 883.348Q942.611 889.405 947.051 895.581Q951.492 901.757 955.768 908.047Q960.045 914.338 964.155 920.738Q968.265 927.139 972.205 933.645Q976.145 940.152 979.914 946.759Q983.682 953.367 987.275 960.071C998.313 980.924 1007.28 1002.31 1016.43 1024L1004.96 1024C975.124 939.11 910.404 855.122 841.49 797.927C834.357 792.008 826.836 786.673 819.417 781.128C807.831 772.466 796.265 762.707 783.643 755.628C783.499 751.249 783.622 746.84 783.642 742.458Z"/>
	<path fill="#EBE7E5" d="M707.751 630.62C728.86 637.698 749.353 649.038 768.931 659.572C880.716 719.72 963.159 809.611 1024 920.045L1024 949.143C1018.57 940.917 1012.75 926.986 1007.83 917.697C999.726 902.41 990.328 887.754 980.779 873.336Q978.121 869.355 975.403 865.415Q972.685 861.475 969.908 857.576Q967.131 853.677 964.296 849.82Q961.461 845.963 958.568 842.15Q955.676 838.336 952.726 834.566Q949.776 830.797 946.77 827.072Q943.763 823.347 940.701 819.668Q937.639 815.989 934.522 812.356Q931.405 808.723 928.234 805.138Q925.063 801.552 921.838 798.015Q918.613 794.478 915.335 790.989Q912.058 787.501 908.728 784.062Q905.398 780.623 902.017 777.235Q898.635 773.847 895.203 770.51Q891.772 767.173 888.29 763.888Q884.808 760.604 881.278 757.371Q877.747 754.139 874.168 750.961Q870.589 747.782 866.963 744.657Q863.337 741.533 859.664 738.464Q855.991 735.394 852.272 732.38Q848.553 729.366 844.79 726.408Q841.026 723.451 837.219 720.55Q833.411 717.65 829.56 714.807Q825.709 711.964 821.816 709.179Q817.923 706.394 813.988 703.668Q810.053 700.942 806.078 698.276Q802.103 695.609 798.088 693.003Q794.073 690.397 790.019 687.851Q785.965 685.306 781.874 682.821Q777.782 680.337 773.654 677.915Q769.525 675.492 765.361 673.132Q761.196 670.772 756.997 668.475C743.319 660.947 729.124 654.321 715.006 647.665Q711.169 639.232 707.751 630.62Z"/>
	<path fill="#29CBD1" d="M783.643 755.628C796.265 762.707 807.831 772.466 819.417 781.128C826.836 786.673 834.357 792.008 841.49 797.927C910.404 855.122 975.124 939.11 1004.96 1024L947.577 1024C941.57 1011.57 933.93 999.752 926.369 988.229C889.045 931.347 839.624 879.568 783.18 841.459C784.871 831.96 783.794 821.01 783.762 811.293L783.643 755.628Z"/>
	<path fill="#2EA8D5" d="M682.391 547.523C796.043 580.603 891.559 639.122 975.263 722.563Q990.257 737.433 1004.11 753.372C1010.75 761.119 1016.95 769.564 1024 776.913L1024 876.527L1024 896.025L1024 920.045C963.159 809.611 880.716 719.72 768.931 659.572C749.353 649.038 728.86 637.698 707.751 630.62C705.371 625.887 703.689 620.708 701.746 615.775L691.747 590.962C689.887 586.903 688.316 582.678 686.642 578.538C684.715 574.871 683.585 570.572 681.965 566.732C680.722 563.786 679.253 560.838 676.158 559.591C675.519 559.205 675.182 558.409 674.784 557.785C676.849 556.322 678.608 554.764 679.954 552.607L682.391 547.523Z"/>
	<path fill="#2EA8D5" d="M686.642 578.538C794.067 615.783 879.851 683.863 950.696 771.572C956.993 779.368 963.522 787.07 969.497 795.114C981.046 810.66 992.566 826.352 1002.95 842.704Q1009.53 853.027 1015.95 863.456C1018.54 867.742 1020.89 872.612 1024 876.527L1024 896.025L1024 920.045C963.159 809.611 880.716 719.72 768.931 659.572C749.353 649.038 728.86 637.698 707.751 630.62C705.371 625.887 703.689 620.708 701.746 615.775L691.747 590.962C689.887 586.903 688.316 582.678 686.642 578.538Z"/>
	<path fill="#EBE7E5" d="M686.642 578.538C794.067 615.783 879.851 683.863 950.696 771.572C956.993 779.368 963.522 787.07 969.497 795.114C981.046 810.66 992.566 826.352 1002.95 842.704Q1009.53 853.027 1015.95 863.456C1018.54 867.742 1020.89 872.612 1024 876.527L1024 896.025C1014.15 877.488 1002.49 859.573 990.91 842.081C935.437 758.284 864.84 682.659 777.737 631.305C758.548 619.991 737.797 609.533 717.278 600.855C708.876 597.301 700.218 594.354 691.747 590.962C689.887 586.903 688.316 582.678 686.642 578.538Z"/>
	<path fill="#2EA8D5" d="M0 775.791C7.24584 768.457 13.5051 760.031 20.2962 752.269C29.2537 742.03 38.9149 732.319 48.5329 722.698Q54.5462 716.611 60.7114 710.677Q66.8766 704.744 73.1897 698.969Q79.5028 693.193 85.9599 687.579Q92.4169 681.964 99.0137 676.515Q105.611 671.066 112.343 665.785Q119.075 660.504 125.939 655.395Q132.803 650.286 139.793 645.352Q146.784 640.417 153.897 635.662Q161.01 630.906 168.241 626.331Q175.472 621.756 182.816 617.366Q190.16 612.975 197.613 608.772Q205.065 604.568 212.622 600.554Q220.179 596.541 227.834 592.719Q235.49 588.897 243.24 585.27Q250.989 581.643 258.828 578.213Q266.667 574.783 274.59 571.552Q300.934 561.007 327.746 551.716C332.975 549.846 338.669 546.829 344.053 545.703L344.806 546.367L342.447 549.273C339.532 553.663 339.237 557.288 339.653 562.373L340.156 564.792C337.308 569.579 336.109 575.423 333.885 580.539C332.392 584.471 330.956 589.852 328.436 593.185C320.557 609.383 308.4 623.17 301.804 640.009Q299.328 647.712 297.179 655.513C292.824 672.839 291.471 704.785 297.386 721.264C297.625 725.203 293.172 730.339 291.706 734.332C289.62 742.944 290.332 752.366 290.364 761.184L290.521 796.803C290.546 802.459 290.829 808.252 290.569 813.896C290.495 822.154 289.136 834.485 291.83 842.065C294.025 845.976 296.353 847.958 300.364 849.891C233.767 883.024 180.86 924.943 134.2 983.077C123.912 995.894 112.868 1009.51 105.021 1024L93.7146 1024L81.7219 1024L17.8868 1024L6.97661 1024L0 1024L0 947.637L0 921.599L0 892.074L0 873.707L0 775.791Z"/>
	<path fill="#EBE7E5" d="M0 873.707C11.8596 853.924 24.7822 834.958 38.143 816.162C58.2533 787.871 79.9182 760.046 103.503 734.559C151.388 682.815 210.35 637.141 273.589 605.908C293.116 596.264 312.988 586.842 333.885 580.539C332.392 584.471 330.956 589.852 328.436 593.185Q310.545 599.434 293.25 607.18Q275.955 614.926 259.38 624.114C175.596 669.67 107.058 736.685 51.3725 813.491C38.2362 831.609 25.9465 850.116 13.9927 869.032C9.21196 876.597 4.95909 884.658 0 892.074L0 873.707Z"/>
	<path fill="#2EA8D5" d="M0 892.074C4.95909 884.658 9.21196 876.597 13.9927 869.032C25.9465 850.116 38.2362 831.609 51.3725 813.491C107.058 736.685 175.596 669.67 259.38 624.114Q275.955 614.927 293.25 607.18Q310.545 599.434 328.436 593.185C320.557 609.383 308.4 623.17 301.804 640.009C295.842 638.721 245.649 666.733 237.96 671.186Q224.996 678.856 212.332 687.013C118.764 747.349 51.5027 823.146 0 921.599L0 892.074Z"/>
	<path fill="#29CBD1" d="M0 921.599C51.5027 823.146 118.764 747.349 212.332 687.013Q224.996 678.856 237.96 671.186C245.649 666.733 295.842 638.721 301.804 640.009Q299.328 647.712 297.179 655.513C292.824 672.839 291.471 704.785 297.386 721.264C297.625 725.203 293.172 730.339 291.706 734.332Q287.006 736.425 282.349 738.612Q277.692 740.798 273.08 743.076Q268.467 745.355 263.901 747.725Q259.334 750.095 254.816 752.555Q250.297 755.016 245.829 757.565Q241.361 760.115 236.944 762.753Q232.527 765.391 228.163 768.117Q223.8 770.842 219.491 773.654Q215.183 776.466 210.932 779.363Q206.68 782.26 202.487 785.241Q198.294 788.222 194.161 791.286Q190.028 794.35 185.957 797.495Q181.886 800.641 177.878 803.867Q173.87 807.093 169.927 810.398Q165.985 813.703 162.108 817.086Q158.232 820.468 154.424 823.928Q150.616 827.387 146.877 830.921Q143.139 834.456 139.471 838.064Q135.804 841.672 132.209 845.352Q128.614 849.033 125.093 852.784Q121.572 856.535 118.126 860.355Q114.681 864.176 111.312 868.064Q107.943 871.952 104.652 875.907Q101.361 879.862 98.1496 883.881Q94.9381 887.9 91.8072 891.982Q88.6762 896.065 85.6272 900.209Q82.5781 904.353 79.6121 908.556Q76.6461 912.76 73.7643 917.022Q70.8825 921.284 68.0861 925.602Q65.2897 929.921 62.5798 934.294Q59.8699 938.667 57.2476 943.093Q54.6252 947.52 52.0915 951.997Q42.3448 969.405 33.7841 987.426Q25.2233 1005.45 17.8868 1024L6.97661 1024L0 1024L0 947.637L0 921.599Z"/>
	<path fill="#EBE7E5" d="M297.386 721.264C297.625 725.203 293.172 730.339 291.706 734.332Q287.006 736.425 282.349 738.612Q277.692 740.798 273.08 743.076Q268.467 745.355 263.901 747.725Q259.334 750.095 254.816 752.555Q250.297 755.016 245.829 757.565Q241.361 760.115 236.944 762.753Q232.527 765.391 228.163 768.117Q223.8 770.842 219.491 773.654Q215.183 776.466 210.932 779.363Q206.68 782.26 202.487 785.241Q198.294 788.222 194.161 791.286Q190.028 794.35 185.957 797.495Q181.886 800.641 177.878 803.867Q173.87 807.093 169.927 810.398Q165.985 813.703 162.108 817.086Q158.232 820.468 154.424 823.928Q150.616 827.387 146.877 830.921Q143.139 834.456 139.471 838.064Q135.804 841.672 132.209 845.352Q128.614 849.033 125.093 852.784Q121.572 856.535 118.126 860.355Q114.681 864.176 111.312 868.064Q107.943 871.952 104.652 875.907Q101.361 879.862 98.1496 883.881Q94.9381 887.9 91.8072 891.982Q88.6762 896.065 85.6272 900.209Q82.5781 904.353 79.6121 908.556Q76.6461 912.76 73.7643 917.022Q70.8825 921.284 68.0861 925.602Q65.2897 929.921 62.5798 934.294Q59.8699 938.667 57.2476 943.093Q54.6252 947.52 52.0915 951.997Q42.3448 969.405 33.7841 987.426Q25.2233 1005.45 17.8868 1024L6.97661 1024C20.8978 990.383 36.5323 957.87 56.002 927.081Q58.2265 923.53 60.506 920.015Q62.7854 916.499 65.1192 913.02Q67.4531 909.54 69.8407 906.097Q72.2284 902.654 74.6693 899.249Q77.1102 895.843 79.6037 892.476Q82.0973 889.109 84.6429 885.781Q87.1885 882.453 89.7855 879.165Q92.3825 875.877 95.0303 872.63Q97.6782 869.383 100.376 866.178Q103.074 862.972 105.822 859.809Q108.569 856.646 111.366 853.525Q114.162 850.405 117.006 847.329Q119.851 844.253 122.743 841.221Q125.635 838.189 128.574 835.203Q131.513 832.217 134.497 829.276Q137.482 826.336 140.513 823.442Q143.543 820.549 146.618 817.703Q149.693 814.857 152.811 812.059Q155.93 809.261 159.092 806.512Q162.254 803.763 165.458 801.063Q168.662 798.363 171.908 795.714Q175.154 793.065 178.44 790.466Q181.727 787.867 185.054 785.32Q188.38 782.773 191.746 780.277Q195.112 777.782 198.516 775.339Q201.92 772.897 205.362 770.507Q208.804 768.118 212.282 765.782Q215.761 763.447 219.275 761.166Q222.79 758.885 226.339 756.658Q229.888 754.432 233.472 752.261Q237.056 750.09 240.673 747.975Q244.29 745.86 247.939 743.802C260.902 736.582 283.349 724.422 297.386 721.264Z"/>
	<path fill="#EBE7E5" d="M0 921.599C51.5027 823.146 118.764 747.349 212.332 687.013Q224.996 678.856 237.96 671.186C245.649 666.733 295.842 638.721 301.804 640.009Q299.328 647.712 297.179 655.513C284.909 659.7 271.243 667.812 259.711 673.899Q251.887 678.122 244.191 682.574Q236.494 687.026 228.933 691.703Q221.371 696.38 213.951 701.278Q206.531 706.176 199.258 711.291Q191.986 716.406 184.867 721.733Q177.749 727.06 170.79 732.595Q163.832 738.13 157.04 743.868Q150.248 749.605 143.629 755.541Q137.009 761.477 130.567 767.605Q124.125 773.733 117.867 780.049Q111.609 786.365 105.54 792.862Q99.4711 799.36 93.5964 806.034Q87.7216 812.707 82.0463 819.551Q76.371 826.396 70.9001 833.404Q65.4292 840.413 60.1674 847.58Q54.9057 854.747 49.8576 862.066C38.7452 878.347 27.7821 895.237 18.402 912.586Q12.5786 923.486 6.99359 934.511C4.80683 938.819 2.79481 943.694 0 947.637L0 921.599Z"/>
	<path fill="#29CBD1" d="M291.706 734.332C289.62 742.944 290.332 752.366 290.364 761.184L290.521 796.803C290.546 802.459 290.829 808.252 290.569 813.896C290.495 822.154 289.136 834.485 291.83 842.065C294.025 845.976 296.353 847.958 300.364 849.891C233.767 883.024 180.86 924.943 134.2 983.077C123.912 995.894 112.868 1009.51 105.021 1024L93.7146 1024L81.7219 1024L17.8868 1024Q25.2233 1005.45 33.7841 987.426Q42.3448 969.405 52.0915 951.997Q54.6252 947.52 57.2476 943.093Q59.8699 938.667 62.5798 934.294Q65.2897 929.921 68.0861 925.602Q70.8825 921.284 73.7643 917.022Q76.6461 912.76 79.6121 908.556Q82.5781 904.352 85.6272 900.209Q88.6762 896.065 91.8072 891.982Q94.9381 887.9 98.1496 883.881Q101.361 879.862 104.652 875.907Q107.943 871.952 111.312 868.064Q114.681 864.176 118.126 860.355Q121.572 856.535 125.093 852.784Q128.614 849.033 132.209 845.352Q135.804 841.672 139.471 838.064Q143.139 834.456 146.877 830.921Q150.616 827.387 154.424 823.928Q158.232 820.468 162.108 817.086Q165.985 813.703 169.927 810.398Q173.87 807.093 177.878 803.867Q181.886 800.641 185.957 797.495Q190.028 794.35 194.161 791.286Q198.294 788.222 202.487 785.241Q206.68 782.26 210.932 779.363Q215.183 776.466 219.491 773.654Q223.8 770.842 228.163 768.117Q232.527 765.391 236.944 762.753Q241.361 760.115 245.829 757.565Q250.297 755.016 254.816 752.555Q259.334 750.095 263.901 747.725Q268.467 745.355 273.08 743.076Q277.692 740.798 282.349 738.612Q287.006 736.425 291.706 734.332Z"/>
	<path fill="#F9EB66" d="M81.7219 1024C132.091 934.285 198.498 861.698 290.569 813.896C290.495 822.154 289.136 834.485 291.83 842.065C294.025 845.976 296.353 847.958 300.364 849.891C233.767 883.024 180.86 924.943 134.2 983.077C123.912 995.894 112.868 1009.51 105.021 1024L93.7146 1024L81.7219 1024Z"/>
	<path fill="#EBE7E5" d="M291.83 842.065C294.025 845.976 296.353 847.958 300.364 849.891C233.767 883.024 180.86 924.943 134.2 983.077C123.912 995.894 112.868 1009.51 105.021 1024L93.7146 1024C99.4197 1015.17 104.595 1006 110.679 997.411Q113.927 992.896 117.275 988.455Q120.623 984.014 124.069 979.649Q127.515 975.284 131.058 970.996Q134.6 966.709 138.238 962.502Q141.875 958.295 145.605 954.169Q149.336 950.044 153.157 946.004Q156.978 941.963 160.889 938.008Q164.8 934.054 168.797 930.187Q172.795 926.321 176.878 922.545Q180.961 918.768 185.128 915.084Q189.294 911.4 193.541 907.81Q197.789 904.219 202.115 900.724Q206.442 897.23 210.845 893.832Q215.248 890.435 219.726 887.137Q224.204 883.839 228.755 880.641Q233.305 877.443 237.926 874.348Q253.083 864.008 269.114 855.085C276.328 851.093 285.071 847.678 291.425 842.41C291.562 842.297 291.695 842.18 291.83 842.065Z"/>
	<path fill="#66275F" d="M358.022 516.562C361.914 523.52 366.008 530.461 369.492 537.631C376.546 552.15 382.638 566.813 391.954 580.131C396.574 586.737 404.598 589.923 408.415 595.56C411.221 599.704 412.959 604.706 415.275 609.146C421.28 620.662 431.225 631.517 444.071 635.126C453.23 637.699 464.298 636.978 472.634 632.207C492.339 620.928 487.668 599.971 517.869 595.174C524.967 594.046 532.731 593.885 539.73 595.696C545.131 597.095 550.435 599.749 554.486 603.63C559.659 608.587 562.576 615.32 566.896 620.94C576.658 633.642 592.341 638.461 606.787 630.177C617.156 624.232 623.766 615.117 629.313 604.785C631.202 601.267 632.949 597.311 635.348 594.126C639.76 588.267 646.481 584.241 651.128 578.307C657.081 570.703 660.559 561.345 666.584 553.928C666.102 555.749 665.715 557.68 665.059 559.442C665.442 560.026 666.002 561.202 666.586 561.533L669.593 562.531C670.321 561.264 671.028 560.479 672.089 559.47C671.968 559.456 671.841 559.47 671.727 559.43C670.631 559.049 670.475 558.973 670.073 557.889C670.883 556.323 671.135 556.415 672.701 555.768C673.423 556.406 674.217 557.005 674.784 557.785C675.182 558.409 675.519 559.205 676.158 559.591C679.253 560.838 680.722 563.786 681.965 566.732C683.585 570.572 684.715 574.871 686.642 578.538C688.316 582.678 689.887 586.903 691.747 590.962L701.746 615.775C703.689 620.708 705.371 625.887 707.751 630.62Q711.169 639.232 715.006 647.665C724.87 672.794 734.961 697.596 743.918 723.092C751.554 723.259 765.539 722.143 772.26 723.946Q773.318 724.222 774.327 724.645Q775.335 725.067 776.274 725.628Q777.212 726.189 778.062 726.877Q778.912 727.566 779.656 728.367C783.465 732.519 783.62 737.147 783.642 742.458C783.622 746.84 783.499 751.249 783.643 755.628L783.762 811.293C783.794 821.01 784.871 831.96 783.18 841.459C780.661 845.627 778.398 847.886 773.545 849.045C767.408 850.51 760.279 849.546 753.958 849.803L745.555 849.818Q744.803 849.674 744.056 849.509C737.151 847.966 736.138 843.942 732.735 838.642L732.358 838.065L727.67 835.286C727.28 839.223 726.191 843.439 723.29 846.31C719.866 849.699 714.175 849.796 709.647 849.893C702.271 850.053 689.951 851.089 683.188 848.562C681.523 847.94 680.24 846.586 678.978 845.384C663.635 852.304 642.77 853.194 626.474 849.574C611.39 846.222 599.498 837.821 591.289 824.797C589.83 826.919 588.37 829.06 586.722 831.041C576.711 843.077 561.192 849.764 545.792 851.024C523.043 852.884 507.813 847.93 490.685 833.268C486.846 833.724 482.816 834.485 478.959 834.539C475.717 837.12 472.479 840.224 468.934 842.34C455.233 850.519 437.931 853.004 422.256 851.312C412.072 850.213 403.166 846.538 394.389 841.401C392.962 844.504 391.638 847.541 388.237 848.887C381.79 851.44 355.752 851.278 349.386 848.461C346.59 847.224 344.333 845.138 342.281 842.917C338.431 847.695 334.117 849.69 328.006 850.303C321.009 851.005 306.918 851.398 300.364 849.891C296.353 847.958 294.025 845.976 291.83 842.065C289.136 834.485 290.495 822.154 290.569 813.896C290.829 808.252 290.546 802.459 290.521 796.803L290.364 761.184C290.332 752.366 289.62 742.944 291.706 734.332C293.172 730.339 297.625 725.203 297.386 721.264C291.471 704.785 292.824 672.839 297.179 655.513Q299.328 647.712 301.804 640.009C308.4 623.17 320.557 609.383 328.436 593.185C330.956 589.852 332.392 584.471 333.885 580.539C336.109 575.423 337.308 569.579 340.156 564.792L339.653 562.373C339.237 557.288 339.532 553.663 342.447 549.273L344.806 546.367C345.549 545.474 346.33 544.759 347.198 543.994C345.622 540.831 340.876 530.222 340.925 527.166L341.738 527.039C346.556 529.679 347.345 538.89 349.929 544.486L351.736 542.594C353.544 533.7 355.264 525.241 358.022 516.562Z"/>
	<path fill="#2EA8D5" d="M485.644 826.751L490.685 833.268C486.846 833.724 482.816 834.485 478.959 834.539C480.887 831.772 483.395 829.27 485.644 826.751Z"/>
	<path fill="#0B80C9" d="M727.67 835.286C727.762 832.756 727.408 828.517 729.259 826.585C729.408 826.429 729.591 826.309 729.758 826.172C731.49 827.259 732.09 829.667 732.52 831.562C733.002 833.685 733.374 836.062 732.358 838.065L727.67 835.286Z"/>
	<path fill="#EBE7E5" d="M644.076 733.209C654.289 732.282 667.785 733.451 677.119 737.934C675.605 745.257 673.127 752.42 670.138 759.264C659.309 754.965 647.925 753.032 636.694 757.371C630.112 759.913 625.28 765.021 622.536 771.452C618.878 780.024 618.851 791.399 622.342 800.027C624.994 806.583 629.873 811.687 636.439 814.379C647.317 818.838 661.755 816.807 672.33 812.452C673.924 816.101 675.002 819.983 676.183 823.783L678.314 832.395C671.543 835.389 664.511 837.015 657.165 837.807C641.294 839.517 624.632 837.721 611.926 827.258C601.326 818.529 595.721 805.42 594.584 791.922C593.322 776.928 596.731 761.894 606.698 750.3C616.396 739.017 629.589 734.301 644.076 733.209Z"/>
	<path fill="#EBE7E5" d="M672.701 555.768C673.423 556.406 674.217 557.005 674.784 557.785C675.182 558.409 675.519 559.205 676.158 559.591C679.381 564.57 679.975 568.967 678.748 574.797C677.277 581.782 673.951 588.826 670.891 595.253L673.758 601.489C676.437 611.206 672.74 620.773 667.973 629.223C665.208 634.123 661.246 638.735 655.571 640.186C654.045 640.576 652.443 640.657 650.875 640.717C649.579 640.802 648.439 640.848 647.217 641.345L646.796 642.059C649.434 648.364 651.524 652.796 648.778 659.544C645.956 666.479 636.304 682.141 629.449 685.073C624.928 687.007 619.599 685.607 614.989 684.686C611.701 688.567 608.235 691.971 604.466 695.373C605.283 702.302 605.788 708.189 601.262 714.111C598.254 718.048 593.334 721.739 588.517 723.134C583.946 724.084 577.582 726.092 573.012 725.3L572.508 725.476C571.538 725.824 570.541 726.23 569.493 726.208C565.189 726.117 562.322 722.182 559.759 719.244L552.307 722.257C549.109 721.603 545.79 721.382 542.543 721.051Q550.74 716.854 559.461 713.898L560.123 712.843C559.602 710.428 559.348 708.387 559.411 705.91C562.169 699.304 571.314 692.237 577.575 688.777C583.174 685.682 587.584 685.621 593.538 687.365L595.679 688.219C599.542 687.669 605.539 680.82 608.448 678.254Q607.619 677.453 606.914 676.542C604.623 673.562 603.811 669.159 604.383 665.494C605.652 657.356 615.741 646.193 622.324 641.511C626.995 638.189 631.296 636.752 636.974 637.661L639.921 631.603C639.697 631.404 639.469 631.208 639.248 631.005C636.062 628.084 634.525 623.773 634.379 619.513C634.097 611.265 640.28 598.401 646.024 592.512C650.488 587.935 654.6 587.911 660.617 587.794L659.24 593.736C658.59 596.423 657.98 598.935 657.943 601.722L658.382 602.292L658.786 602.051C661.229 594.033 672.514 573.521 669.379 566.232C668.846 564.993 668.432 564.638 667.192 564.211C666.437 569.371 663.957 575.171 662.132 580.078C662.356 573.42 663.32 565.876 665.059 559.442C665.442 560.026 666.002 561.202 666.586 561.533L669.593 562.531C670.321 561.264 671.028 560.479 672.089 559.47C671.968 559.456 671.841 559.47 671.727 559.43C670.631 559.049 670.475 558.973 670.073 557.889C670.883 556.323 671.135 556.415 672.701 555.768Z"/>
	<path fill="#FCDA2C" d="M661.921 600.561C661.918 599.52 661.824 598.695 662.295 597.739C662.633 597.052 663.001 597.116 663.67 596.882C665.396 597.387 666.449 598.201 667.843 599.314L668.281 600.756C667.754 601.66 667.89 601.649 666.872 602.17L665.015 602.093C663.724 602.721 663.072 603.278 662.154 604.386C662.058 604.501 661.965 604.619 661.87 604.735L661.546 604.596C661.747 603.239 661.854 601.931 661.921 600.561Z"/>
	<path fill="#F9EB66" d="M613.091 682.939L613.558 683.603C610.886 688.786 603.673 692.201 601.93 696.864C601.484 695.514 601.537 695.423 600.359 694.659C603.033 690.321 609.164 686.088 613.091 682.939Z"/>
	<path fill="#F9EB66" d="M600.359 694.659C601.537 695.423 601.484 695.514 601.93 696.864C603.58 699.613 603.395 702.253 602.595 705.316C600.85 712.001 593.367 718.542 587.922 722.505C586.685 722.047 586.46 722.236 585.779 721.035L586.179 719.675C586.573 719.431 586.974 719.196 587.353 718.928C591.295 716.135 597.108 711.346 597.78 706.312C598.186 703.265 596.532 701.604 594.745 699.429C596.836 697.983 598.57 696.442 600.359 694.659Z"/>
	<path fill="#F9EB66" d="M561.144 708.022C563.863 701.407 573.082 694.373 579.163 690.826C584.694 687.599 588.049 688.232 593.961 689.752L594.446 690.98C593.315 692.842 591.301 694.378 589.351 695.324C587.277 693.893 585.127 693.241 582.732 692.54C579.286 694.119 569.333 701.877 567.923 705.355C567.643 706.046 567.808 705.967 568.116 706.759L568.097 707.422C567.02 707.952 565.966 708.509 564.819 708.872C563.928 709.559 564.282 709.373 563.335 709.799C562.446 710.199 562.883 710.135 561.834 709.724L561.144 708.022Z"/>
	<path fill="#F9EB66" d="M672.089 559.47C674.17 560.489 675.639 561.26 676.474 563.523C678.853 569.972 673.931 583.006 670.927 589.046C669.663 591.589 667.941 594.326 665.275 595.563C665.213 595.592 665.142 595.595 665.075 595.611L664.353 593.862L664.762 595.594C663.89 593.819 664.514 592.168 665.147 590.347C667.703 582.994 674.605 572.572 670.82 564.834Q670.238 563.666 669.593 562.531C670.321 561.264 671.028 560.479 672.089 559.47Z"/>
	<path fill="#F9EB66" d="M641.154 623.544C641.815 624.142 642.77 624.853 643.262 625.585C643.985 626.662 643.694 627.291 643.474 628.466C642.502 629.333 642.537 629.258 641.223 629.235C639.68 628.412 638.739 627.557 637.756 626.096C635.758 623.127 635.666 619.565 636.362 616.144C637.849 608.83 644.067 596.05 650.289 591.99C652.175 590.759 654.753 589.763 657.012 590.18C658.118 591.155 657.995 591.347 658.229 592.83C657.324 594.05 656.779 595.269 655.269 595.757C655.205 595.777 655.135 595.757 655.068 595.757C653.606 595.546 652.404 595.316 651.112 596.253C647.513 598.863 640.356 614.931 639.946 619.495C639.794 621.185 640.264 622.149 641.154 623.544Z"/>
	<path fill="#F9EB66" d="M606.012 664.164C606.089 664.035 606.165 663.904 606.243 663.775L606.639 663.134C607.314 662.023 607.986 660.92 608.737 659.858C612.657 654.312 625.284 639.877 632.175 639.026C633.728 638.835 634.847 639.33 636.069 640.269C636.346 641.65 635.88 642.252 635.386 643.526C634.628 645.058 634.196 646.512 632.761 647.495L631.385 647.451L629.051 645.786C623.431 646.619 616.757 655.829 613.411 660.378C612.703 661.342 612.024 662.285 611.549 663.388C609.238 667.531 611.165 670.015 611.247 674.354C611.27 675.593 610.883 676.032 610.003 676.804C609.306 676.769 608.92 676.946 608.427 676.367C605.927 673.433 605.862 667.846 606.012 664.164Z"/>
	<path fill="#F9EB66" d="M637.144 651.212C638.988 650.103 640.145 649.268 641.126 647.307C641.749 646.061 642.389 645.005 643.188 643.863L643.962 644.057L645.391 646.55Q646.648 649.419 647.825 652.321C647.138 655.118 646.56 657.977 645.314 660.589C642.225 668.609 634.446 680.33 626.847 684.269C622.38 684.287 619.566 683.614 615.574 681.601L615.784 680.891C622.493 675.149 621.305 680.57 626.444 678.822C630.804 677.339 642.173 661.886 644.198 657.513C643.902 656.135 643.427 655.106 642.491 654.051C640.971 652.336 639.47 651.527 637.198 651.4L637.144 651.212Z"/>
	<path fill="#F9EB66" d="M667.843 599.314L668.237 597.958C667.58 596.844 667.299 596.802 667.454 595.462C668.118 595.668 668.658 596.708 668.998 597.309C670.333 599.663 671.332 602.204 672.689 604.55C671.958 614.492 668.673 628.523 660.645 635.244C658.446 637.085 655.773 638.442 652.92 638.811C650.52 638.276 647.805 638.3 645.344 638.109C646.704 635.962 647.354 632.452 648.991 630.735C649.669 631.532 650.393 632.481 651.315 633.001C652.387 633.606 653.614 633.578 654.746 633.189C657.866 632.115 660.654 628.85 661.825 625.839C662.36 624.462 662.387 623.876 661.847 622.523L663.221 619.579C664.274 618.886 664.958 618.305 665.594 617.202C668.213 612.663 668.208 607.088 666.872 602.17C667.89 601.649 667.754 601.66 668.281 600.756L667.843 599.314Z"/>
	<path fill="#66275F" d="M643.059 622.456C642.703 621.626 642.369 620.898 642.233 619.99C641.624 615.92 648.342 602.933 651.01 599.538C652.033 598.236 652.674 598.264 654.272 598.088C654.789 600.144 654.788 601.649 654.58 603.742L654.491 604.721L654.429 605.327L659.022 609.337C660.67 608.152 663.997 605.045 665.811 605.306C666.921 607.012 666.352 609.061 665.967 610.928C665.343 613.95 664.4 616.73 663.221 619.579L661.847 622.523C660.143 625.852 657.795 630.506 653.957 631.747C653.093 632.027 652.898 631.826 652.07 631.582C649.648 628.134 652.52 623.27 650.223 620.208C649.335 620.823 649.145 620.977 648.935 622.129C648.64 623.742 648.771 625.334 648.259 626.939C646.872 631.289 639.29 646.273 635.926 649.218C635.364 649.71 634.823 650.034 634.155 650.352C637.996 641.296 643.828 633.146 647.867 624.197C647.521 623.554 647.587 623.274 646.841 623.159C645.786 622.997 645.074 623.22 643.988 622.815C643.677 622.699 643.369 622.576 643.059 622.456Z"/>
	<path fill="#66275F" d="M613.115 664.486C616.203 660.284 619.742 656.085 623.33 652.303C625.18 650.354 626.726 648.635 629.549 648.568L630.748 649.633C629.958 651.155 629.489 652.06 629.623 653.795C630.297 654.912 630.532 655.465 631.923 655.776C633.85 656.208 636.101 654.725 637.534 653.578C638.773 654.035 639.576 654.495 640.192 655.735C640.918 657.194 640.156 658.875 639.513 660.214C637.363 664.687 630.47 675.79 625.505 677.229C624.26 677.589 623.297 677.106 622.304 676.39C621.56 675.854 620.878 675.182 620.204 674.561C617.758 676.642 615.149 678.664 612.862 680.912C604.291 688.478 595.709 696.185 586.677 703.199L587.944 701.356C592.277 694.951 608.907 681.639 615.359 676.098C616.493 675.124 619.815 672.93 620.464 671.74C620.692 671.322 620.564 670.794 620.614 670.321C619.263 669.415 616.913 671.34 615.142 671.173C614.366 671.1 614.108 670.538 613.611 670.007C613.076 668.256 613.002 666.952 613.082 665.121L613.115 664.486Z"/>
	<path fill="#66275F" d="M568.116 706.759C569.869 704.723 578.167 697.732 580.51 696.303C582.745 694.941 584.546 695.573 586.926 696.139C586.91 696.334 586.903 696.53 586.876 696.724C586.588 698.792 585.296 700.648 585.757 702.755C586.664 703.602 586.934 703.907 588.298 703.8C590.824 703.601 593.089 701.639 595.653 702.732C596.373 703.875 596.739 704.523 596.534 705.915C595.852 710.535 588.624 716.22 585.392 719.319L586.179 719.675L585.779 721.035C586.46 722.236 586.685 722.047 587.922 722.505L588.517 723.134C583.946 724.084 577.582 726.092 573.012 725.3C572.359 724.958 571.769 724.749 571.049 724.561C569.401 724.131 567.951 723.848 566.418 723.058C564.488 722.063 562.215 720.776 561.494 718.602C562.07 717.9 562.295 717.841 563.113 717.518C566.623 715.484 572.71 713.429 574.832 709.876C575.498 708.76 575.408 708.135 575.097 706.935C572.895 706.515 570.886 707.606 568.573 707.459C568.414 707.449 568.255 707.435 568.097 707.422L568.116 706.759Z"/>
	<path fill="#F9EB66" d="M563.113 717.518C565.431 717.03 566.306 716.754 568.4 718.111C570.386 719.398 572.19 720.633 574.447 721.413C578.656 721.648 581.699 721.492 585.392 719.319L586.179 719.675L585.779 721.035C586.46 722.236 586.685 722.047 587.922 722.505L588.517 723.134C583.946 724.084 577.582 726.092 573.012 725.3C572.359 724.958 571.769 724.749 571.049 724.561C569.401 724.131 567.951 723.848 566.418 723.058C564.488 722.063 562.215 720.776 561.494 718.602C562.07 717.9 562.295 717.841 563.113 717.518Z"/>
	<path fill="#EBE7E5" d="M563.113 717.518C565.431 717.03 566.306 716.754 568.4 718.111C570.386 719.398 572.19 720.633 574.447 721.413C572.338 722.298 570.28 721.586 568.248 720.837C566.217 720.087 564.028 719.527 563.113 717.518Z"/>
	<path fill="#EBE7E5" d="M746.386 734.055C754.608 733.954 762.984 733.743 771.188 734.274C771.79 748.131 771.387 762.2 771.406 776.078C771.434 796.272 771.686 816.501 771.338 836.69L746.402 836.584L746.441 795.879Q729.774 796.086 713.106 795.995Q713.306 816.315 713.229 836.636C704.908 836.761 696.511 836.871 688.198 836.483C687.541 828.849 687.559 736.087 688.105 734.995C688.253 734.699 688.516 734.478 688.721 734.219C696.855 733.905 705.021 734.067 713.161 734.1L713.279 774.873Q729.793 774.545 746.31 774.627Q746.202 754.34 746.386 734.055Z"/>
	<path fill="#EBE7E5" d="M312.277 733.718C325.736 732.879 345.007 732.115 357.867 736.231C365.018 738.519 370.981 742.57 374.373 749.487C378.03 756.942 378.448 766.908 375.493 774.663C372.762 781.832 367.835 786.176 361.06 789.353C372.582 796.295 373.562 808.628 376.878 820.483C378.493 826.258 380.56 831.565 383.131 836.98C374.935 837.323 365.239 838.64 357.176 837.273C355.199 836.938 354.447 836.242 353.32 834.641C350.198 826.328 348.858 818.113 346.685 809.596C345.226 803.879 343.006 800.067 337.858 797.027C335.392 796.807 332.871 796.926 330.396 796.944C330.249 810.351 330.485 823.761 330.314 837.17C326.491 837.293 307.344 838.26 305.33 836.538C304.251 834.123 303.706 831.758 303.467 829.121C302.559 819.113 303.285 808.516 303.312 798.447L303.511 738.139C306.196 735.122 308.296 734.275 312.277 733.718Z"/>
	<path fill="#66275F" d="M330.423 753.152C335.813 752.726 342.003 752.749 346.557 756.075C349.098 757.931 350.626 760.624 351.061 763.726C351.64 767.859 349.788 772.134 347.307 775.32C342.194 779.287 336.14 778.711 330.061 778.507C329.992 772.555 328.856 758.456 330.423 753.152Z"/>
	<path fill="#EBE7E5" d="M347.198 543.994C345.622 540.831 340.876 530.222 340.925 527.166L341.738 527.039C346.556 529.679 347.345 538.89 349.929 544.486L351.736 542.594C353.724 542.177 355.206 542.126 357.212 542.407L358.045 542.519C365.133 545.577 370.648 555.464 373.386 562.419C375.151 566.903 375.819 571.489 374.02 576.058C372.468 578.879 370.443 580.925 368 582.987C370.52 586.702 372.102 590.33 373.568 594.559C378.359 594.34 382.546 594.2 387.093 596.052C392.769 600.411 402.363 612.826 403.405 619.76C403.916 623.158 403.1 626.754 400.924 629.451C399.957 630.648 398.824 631.552 397.567 632.422C400.884 634.877 404.724 641.612 407.796 642.873C408.517 643.17 409.855 643.013 410.631 642.956C413.531 641.979 417.16 642.884 419.803 644.256C426.603 647.787 439.396 659.596 441.724 667.204C442.748 670.551 441.084 674.208 439.929 677.323C443.993 681.151 448.156 684.913 452.043 688.921C455.799 686.392 459.606 686.123 463.992 687.042C472.902 688.908 487.849 698.444 492.427 706.123C493.671 708.209 494.553 711.364 493.843 713.777C493.664 714.387 493.245 714.725 492.791 715.117C492.148 716.253 492.331 716.184 492.508 717.392C495.124 718.786 497.218 719.975 500.191 720.279C500.973 719.938 501.754 719.608 502.518 719.228C504.318 718.132 506.478 717.763 508.504 717.244C514.841 715.344 522.434 714.583 528.458 718.048C529.565 718.685 530.212 719.389 530.931 720.427L531.018 721.397C528.751 721.57 526.71 721.796 524.508 722.413C520.064 723.268 517.041 722.002 512.849 720.645C511.892 722.847 510.648 722.977 509.047 724.475C507.672 725.43 506.378 726.169 504.85 726.856L500.447 729.13C496.162 732.177 492.129 735.636 488.038 738.938C489.079 735.582 490.062 732.358 491.667 729.22L486.291 725.69C484.408 727.209 482.564 728.391 480.453 729.568L475.86 731.975C469.262 726.246 461.842 721.912 453.183 720.294L450.949 719.966C450.25 719.522 449.897 719.144 449.461 718.433C445.96 712.726 445.828 707.189 447.212 700.848L439.284 694.683C436.267 692.281 433.693 689.526 431.051 686.726C425.774 688.115 421.463 688.037 416.481 685.55C409.156 681.895 398.894 672.443 396.356 664.574C395.06 660.554 395.681 657.665 397.565 653.985C396.048 651.22 394.624 648.408 392.612 645.963C389.857 646.001 386.664 646.36 384.011 645.571C376.749 643.411 366.54 627.704 362.785 621.258C362.417 620.658 362.053 620.072 361.758 619.431C359.9 615.386 360.15 611.235 361.612 607.123C361.691 606.939 361.765 606.753 361.851 606.571C361.978 606.3 362.12 606.035 362.25 605.764C363.342 603.503 365.165 602.3 367.106 600.806L367.083 600.079C364.2 595.974 362.972 591.048 359.861 587.035C357.587 587.775 355.397 587.991 353.093 587.181C348.263 585.482 346.142 580.499 344.219 576.167L340.156 564.792L339.653 562.373C339.237 557.288 339.532 553.663 342.447 549.273L344.806 546.367C345.549 545.474 346.33 544.759 347.198 543.994Z"/>
	<path fill="#58237D" d="M503.924 721.725C506.435 719.978 509.975 720.42 512.849 720.645C511.892 722.847 510.648 722.977 509.047 724.475C507.374 723.76 505.056 723.148 503.924 721.725Z"/>
	<path fill="#F9EB66" d="M474.049 725.624L475.044 725.388C477.091 724.889 479.191 723.61 481.297 723.707L482.041 724.487C481.832 726.28 480.76 727.209 479.466 728.442C478.794 728.96 478.154 729.302 477.405 729.693C476.207 729.616 474.636 729.343 473.655 728.557C472.656 727.757 472.488 727.425 472.334 726.25L474.049 725.624Z"/>
	<path fill="#F9EB66" d="M510.792 718.567C514.211 717.563 517.507 717.531 521.038 717.48C524.362 718.774 527.74 719.992 531.018 721.397C528.751 721.57 526.71 721.796 524.508 722.413C522.932 721.901 521.617 721.186 520.183 720.364C517.036 719.831 513.595 720.294 510.792 718.567Z"/>
	<path fill="#58237D" d="M387.03 630.265C390.686 634.262 394.3 638.263 398.267 641.959C399.934 643.832 401.552 645.608 403.493 647.211C403.593 648.143 403.679 647.826 403.348 648.63C403.038 649.386 402.819 649.269 402.109 649.55C397.621 647.244 389.241 635.012 387.03 630.265Z"/>
	<path fill="#F9EB66" d="M427.265 671.151C429.713 671.515 431.567 672.166 433.817 673.174L433.911 673.838C432.554 673.75 431.843 673.467 430.638 674.187L430.692 674.606C434.828 677.224 439.002 679.804 442.864 682.819C445.292 684.714 447.484 687.071 449.994 688.815C446.92 690.17 445.116 686.193 441.971 686.094C439.249 683.844 436.466 682.037 433.309 680.471C431.448 679.603 429.473 678.42 428.28 676.701C427.01 674.87 426.922 673.29 427.265 671.151Z"/>
	<path fill="#F9EB66" d="M388.858 626.101C390.748 627.924 392.661 629.726 394.464 631.637C396.271 633.854 398.237 636.056 399.854 638.409Q403.746 643.033 407.791 647.525C409.138 649.569 410.125 651.358 410.953 653.669C409.762 654.104 409.09 653.819 407.871 653.617L407.533 652.784L407.739 652.034C406.886 650.616 405.027 647.854 403.493 647.211C401.552 645.608 399.934 643.832 398.267 641.959C398.011 641.077 397.633 640.239 397.286 639.39C394.261 635.891 390.827 632.767 388.222 628.925C388.035 627.445 388.105 627.403 388.858 626.101Z"/>
	<path fill="#F9EB66" d="M432.406 684.501C435.859 685.74 446.849 697.098 450.591 700.168C451.992 701.289 453.744 702.365 454.116 704.236C454.268 705.004 454.183 705.927 454.146 706.709C453.103 709.198 453.751 711.983 454.167 714.555C454.951 715.877 455.919 716.787 455.667 718.342L454.401 718.938L452.103 717.804C448.565 713.334 449.507 705.893 449.557 700.486C446.281 698.228 443.05 695.999 440.035 693.398C437.062 691.118 433.528 688.163 432.406 684.501Z"/>
	<path fill="#F9EB66" d="M484.805 723.648C484.177 722.967 483.586 722.271 483 721.553C481.501 719.715 479.814 717.872 480.063 715.381L481.177 715.024C487.171 716.311 500.027 722.891 504.85 726.856L500.447 729.13C495.191 728.108 490.255 724.885 484.805 723.648Z"/>
	<path fill="#F9EB66" d="M356.669 544.138C363.36 547.048 369.045 556.653 371.553 563.335C373.141 567.566 373.634 571.987 371.858 576.234C370.101 578.271 369.117 579.849 366.288 580.175C366.1 579.141 366.022 579.649 366.608 578.683C368.405 575.721 369.21 574.711 368.294 571.117C367.959 569.803 368.779 568.482 369.243 567.217C366.919 562.633 362.098 551.167 357.884 548.74C355.931 547.615 352.917 548.56 350.871 549.019L350.174 548.325L350.255 546.505C352.387 545.243 354.234 544.621 356.669 544.138Z"/>
	<path fill="#F9EB66" d="M347.198 543.994C348.596 548.135 346.915 550.869 346.107 554.885C346.076 563.455 345.525 570.7 350.936 577.959C352.618 580.172 355.073 581.469 356.967 583.459C357.685 584.213 357.902 584.281 357.85 585.355C356.396 585.899 354.863 585.737 353.426 585.182C349.145 583.528 347.427 579.405 345.649 575.544C344.744 570.91 342.45 567.217 342.014 562.279C341.84 557.93 342.171 553.611 342.447 549.273L344.806 546.367C345.549 545.474 346.33 544.759 347.198 543.994Z"/>
	<path fill="#F9EB66" d="M452.842 690.67C454.774 688.794 456.265 687.962 459.017 688.017C467.6 688.189 484.301 698.486 489.577 704.728C490.897 706.289 492.115 708.986 491.862 711.062C491.838 711.252 491.775 711.436 491.732 711.623L490.972 711.698C486.263 707.282 476.501 698.082 470.651 695.938C467.872 694.919 462.764 695.098 460.625 694.044C459.789 693.632 458.624 692.405 457.805 691.835C456.694 692.064 456.72 692.003 456.065 692.918L455.669 693.577L454.694 693.584C453.676 692.77 453.34 691.829 452.842 690.67Z"/>
	<path fill="#F9EB66" d="M397.257 623.902C395.496 615.691 390.128 608.316 383.766 602.929C381.854 601.309 379.175 599.766 377.658 597.794C377.053 597.008 377.202 597.422 377.353 596.348C379.676 595.302 383.719 596.948 386.083 597.601C390.921 600.877 399.754 613.412 400.948 619.104C401.574 622.089 401.208 625.069 399.455 627.615C398.589 628.872 397.38 629.738 396.131 630.58C395.276 628.372 396.531 626.029 397.257 623.902Z"/>
	<path fill="#F9EB66" d="M410.69 643.559C420.795 644.602 428.944 652.192 435.189 659.825C438.063 663.336 440.254 667.888 439.731 672.546C439.594 673.766 439.25 674.589 438.548 675.609C437.325 676 436.76 675.976 435.629 675.274C435.017 674.895 434.439 674.312 433.911 673.838L433.817 673.174C434.717 672.479 435.152 672.228 435.437 671.049C436.855 665.176 423.36 653.611 418.838 650.666C415.467 648.471 411.531 648.249 409.038 644.964C409.37 643.986 409.813 644.031 410.69 643.559Z"/>
	<path fill="#66275F" d="M347.747 557.357C348.074 555.398 348.368 553.798 349.291 552.028L349.909 551.943C350.257 552.983 350.593 554.001 350.853 555.068L351.567 555.107C352.297 553.864 352.411 552.715 352.726 551.343C352.954 550.354 352.845 550.709 353.541 549.801C354.759 549.648 355.307 549.962 356.267 550.678C361.137 554.314 364.186 562.108 367.23 567.281L365.662 570.764L365.941 571.297C366.704 572.783 367.665 574.345 367.162 576.07C366.936 576.842 366.413 576.9 365.76 577.272C365.057 577.203 364.537 577.378 364.093 576.751C362.882 575.042 363.425 573 361.715 571.5C360.646 571.39 360.183 571.524 359.219 571.989L358.155 573.372C358.067 575.571 358.332 577.364 356.835 579.085C355.66 579.191 355.116 578.97 354.189 578.203C353.137 577.333 352.158 576.251 351.276 575.211C349.899 572.287 348.666 569.367 347.536 566.339C347.903 564.197 348.33 562.29 349.656 560.522L350.395 560.196C349.617 559.464 348.899 558.778 348.217 557.951C348.057 557.756 347.904 557.555 347.747 557.357Z"/>
	<path fill="#66275F" d="M426.554 678.604C424.46 679.025 422.327 679.351 420.302 678.459C415.005 676.125 406.594 669.106 404.747 663.621C403.985 661.356 404.288 659.282 405.35 657.188C407.559 656.693 411.005 661.099 413.97 660.962L414.602 660.103C414.732 657.075 413.347 654.198 412.887 651.212L414.009 650.973C418.931 652.565 430.31 663.087 432.725 667.684C433.319 668.815 433.574 669.422 433.188 670.68L431.888 671.109C429.87 670.241 428.395 669.652 426.204 670.068C425.235 673.004 425.54 674.368 426.349 677.32C426.583 678.176 426.528 677.807 426.554 678.604Z"/>
	<path fill="#66275F" d="M378.834 610.03C378.875 609.807 378.923 609.586 378.958 609.362C379.364 606.818 377.125 603.797 379.127 601.731C382.836 602.643 390.151 612.548 392.208 615.946C394.269 619.351 395.435 623.169 394.612 627.152L393.789 627.963C391.881 627.744 391.039 625.892 389.191 625.439C387.964 625.447 387.997 625.475 387.062 626.281C386.318 628.884 387.719 631.856 386.498 634.176C385.587 634.459 385.436 634.466 384.507 634.247C383.392 633.809 382.229 633.236 381.269 632.514C377.969 630.033 369.045 617.459 368.689 613.22C368.515 611.148 369.441 608.272 370.804 606.737C373.968 606.758 374.729 614.061 377.293 615.796L378.078 615.396C378.815 613.814 379.101 612.8 379.234 611.06L378.776 610.969L377.818 612.872L376.961 612.594L378.834 610.03Z"/>
	<path fill="#66275F" d="M433.309 680.471C436.466 682.037 439.249 683.844 441.971 686.094C446.758 690.073 462.518 702.796 467.367 704.222C467.491 702.657 466.547 701.235 465.775 699.921C467.222 698.876 467.72 698.367 469.522 698.135C474.229 700.62 478.148 705.104 482.433 708.292C485.738 710.75 489.589 712.585 492.791 715.117C492.148 716.253 492.331 716.184 492.508 717.392C489.266 715.999 481.84 711.09 478.627 711.932C476.171 715.307 480.807 722.396 474.384 723.319C472.331 723.614 470.391 723.231 468.38 722.855C463.657 720.88 458.594 719.34 455.757 714.8Q455.561 714.037 455.38 713.271C454.346 708.823 455.558 706.767 457.846 703.055C450.394 696.653 437.768 689.129 433.309 680.471Z"/>
	<path fill="#F9EB66" d="M358.155 573.372L359.219 571.989C360.889 573.01 361.132 573.735 361.894 575.481C364.476 581.394 368.899 587.05 370.497 593.257C370.691 594.013 370.89 594.76 371.07 595.519C372.769 597.262 374.555 598.784 376.442 600.311L376.743 605.229C377.371 606.835 377.901 608.577 378.834 610.03L376.961 612.594C375.901 610.342 374.797 608.265 373.47 606.155C372.437 605.084 371.796 604.475 370.394 603.878C368.311 606.193 365.854 608.34 366.097 611.738C366.564 618.292 375.382 630.166 380.371 634.415C381.404 635.295 382.68 635.838 383.92 636.36C387.981 638.341 392.922 641.463 395.722 645.065C397.344 647.153 398.587 649.953 400.813 651.449C402.657 652.689 405.18 651.446 407.533 652.784L407.871 653.617C409.09 653.819 409.762 654.104 410.953 653.669L412.998 657.22L412.349 658.514L413.347 658.864C409.408 658.5 406.967 653.281 402.752 656.586C401.62 658.965 401.476 661.073 402.347 663.592C404.454 669.687 412.725 676.683 418.498 679.352C421.021 680.519 423.494 680.926 426.142 679.868C426.419 679.757 426.692 679.636 426.967 679.52C428.432 679.538 429.148 679.678 430.198 680.791C431.049 681.694 431.809 682.898 432.288 684.037C427.735 684.337 423.621 685.799 419.115 684.28C411.914 681.854 402.69 673.767 399.359 666.966C397.059 662.271 397.427 658.467 399.102 653.688C397.308 650.377 395.384 647.247 393.278 644.125C391.473 643.998 389.638 643.884 387.852 643.59C379.091 642.145 370.385 629.049 365.306 622.03C362.815 617.427 362.306 613.589 362.789 608.464C363.452 606.844 364.233 604.95 365.701 603.897C367.028 602.945 368.09 603.068 369.594 603.238C369.966 601.587 370 601.522 369.311 599.986C367.18 597.06 365.911 593.192 364.302 589.927C362.678 586.632 360.61 583.732 358.44 580.779Q358.682 579.636 358.904 578.489C359.34 576.212 359.486 575.318 358.155 573.372Z"/>
	<path fill="#EBE7E5" d="M432.073 731.705C432.252 731.696 432.43 731.682 432.608 731.676C445.41 731.244 456.987 735.104 466.508 743.766C477.113 753.415 481.029 767.616 481.627 781.565C482.294 797.146 479.568 812.745 468.64 824.557C459.496 834.44 447.228 838.56 434.048 839.159C422.141 839.245 410.63 836.643 401.43 828.709C390.649 819.412 385.892 806.758 384.875 792.821C383.712 776.879 386.235 760.08 397.03 747.653C406.364 736.91 418.198 732.653 432.073 731.705Z"/>
	<path fill="#66275F" d="M432.611 752.191C436.842 752.27 440.493 752.628 444.207 754.896C449.719 758.262 452.842 764.229 454.355 770.33C457.192 781.776 457.021 799.246 450.537 809.546C446.824 815.444 441.971 818.1 435.363 819.537C429.61 819.639 424.84 818.851 420.239 815.046C414.041 809.92 411.562 801.857 410.715 794.137C409.545 783.464 410.023 768.306 417.234 759.612C421.352 754.647 426.372 752.715 432.611 752.191Z"/>
	<path fill="#EBE7E5" d="M536.45 732.725C548.675 732.864 560.87 736.187 570.439 744.051C581.243 752.929 587.806 766.366 589.092 780.193C590.491 795.232 586.84 810.269 576.998 821.94C567.609 833.075 555.904 837.197 541.77 838.476C527.785 838.754 514.737 835.586 503.975 826.249C493.394 817.07 489.15 804.748 488.269 791.057C487.277 775.649 489.753 759.556 500.325 747.656C509.822 736.964 522.659 733.44 536.45 732.725Z"/>
	<path fill="#66275F" d="M533.839 756.112C539.637 755.827 544.56 756.03 549.782 758.998C555.88 762.463 559.895 768.349 561.785 774.998C564.464 784.424 563.885 795.948 558.836 804.513C555.178 810.717 549.847 814.216 542.97 815.898C536.41 816.81 530.222 816.136 524.6 812.321C518.528 808.201 515.091 801.473 513.761 794.408C511.969 784.891 512.835 773.073 518.626 765C522.49 759.612 527.48 757.189 533.839 756.112Z"/>
	<path fill="#F15330" d="M591.289 824.797C599.498 837.821 611.39 846.222 626.474 849.574C642.77 853.194 663.635 852.304 678.978 845.384C680.24 846.586 681.523 847.94 683.188 848.562C689.951 851.089 702.271 850.053 709.647 849.893C714.175 849.796 719.866 849.699 723.29 846.31C726.191 843.439 727.28 839.223 727.67 835.286L732.358 838.065L732.735 838.642C736.138 843.942 737.151 847.966 744.056 849.509Q744.803 849.674 745.555 849.818L753.958 849.803C760.279 849.546 767.408 850.51 773.545 849.045C778.398 847.886 780.661 845.627 783.18 841.459C839.624 879.568 889.045 931.347 926.369 988.229C933.93 999.752 941.57 1011.57 947.577 1024L934.642 1024L924.397 1024L853.68 1024L759.994 1024L744.268 1024L286.596 1024L271.543 1024L179.11 1024L105.021 1024C112.868 1009.51 123.912 995.894 134.2 983.077C180.86 924.943 233.767 883.024 300.364 849.891C306.918 851.398 321.009 851.005 328.006 850.303C334.117 849.69 338.431 847.695 342.281 842.917C344.333 845.138 346.59 847.224 349.386 848.461C355.752 851.278 381.79 851.44 388.237 848.887C391.638 847.541 392.962 844.504 394.389 841.401C403.166 846.538 412.072 850.213 422.256 851.312C437.931 853.004 455.233 850.519 468.934 842.34C472.479 840.224 475.717 837.12 478.959 834.539C482.816 834.485 486.846 833.724 490.685 833.268C507.813 847.93 523.043 852.884 545.792 851.024C561.192 849.764 576.711 843.077 586.722 831.041C588.37 829.06 589.83 826.919 591.289 824.797Z"/>
	<path fill="#EBE7E5" d="M271.543 1024C282.928 1014.72 296.548 1007.4 309.329 1000.27Q312.869 998.33 316.445 996.457Q320.022 994.585 323.633 992.78Q327.244 990.976 330.889 989.24Q334.533 987.504 338.21 985.838Q341.887 984.172 345.595 982.576Q349.303 980.979 353.04 979.453Q356.778 977.928 360.544 976.473Q364.309 975.019 368.102 973.636Q371.895 972.253 375.713 970.942Q379.531 969.631 383.373 968.393Q387.215 967.155 391.081 965.99Q394.946 964.825 398.832 963.733Q402.719 962.641 406.625 961.623Q410.532 960.606 414.457 959.662Q418.382 958.719 422.324 957.85Q426.266 956.981 430.224 956.187Q434.182 955.393 438.155 954.674Q442.127 953.955 446.112 953.311Q450.097 952.668 454.094 952.1Q458.091 951.532 462.098 951.04Q466.105 950.548 470.12 950.132Q474.135 949.716 478.158 949.377Q482.181 949.037 486.209 948.774Q490.237 948.51 494.27 948.323Q498.302 948.136 502.338 948.026Q506.373 947.915 510.41 947.881Q514.446 947.847 518.483 947.89Q522.52 947.932 526.555 948.051Q530.59 948.17 534.622 948.366Q538.654 948.561 542.682 948.833Q546.71 949.105 550.732 949.453Q554.754 949.802 558.768 950.226Q564.332 950.806 569.88 951.529Q575.428 952.251 580.955 953.116Q586.482 953.98 591.986 954.986Q597.489 955.991 602.965 957.138Q608.441 958.284 613.886 959.57Q619.33 960.856 624.74 962.281Q630.15 963.706 635.522 965.27Q640.894 966.833 646.223 968.533Q651.553 970.233 656.838 972.069Q662.123 973.905 667.358 975.876Q672.594 977.847 677.778 979.952Q682.962 982.056 688.09 984.292Q693.218 986.529 698.287 988.896Q703.356 991.262 708.363 993.758Q713.37 996.254 718.311 998.878Q723.253 1001.5 728.125 1004.25C739.005 1010.32 750.181 1016.26 759.994 1024L744.268 1024C734.139 1016.73 722.573 1010.8 711.477 1005.17C672.548 985.424 631.538 970.786 588.466 963.151Q584.954 962.53 581.433 961.969Q577.911 961.408 574.381 960.906Q570.85 960.404 567.311 959.961Q563.773 959.519 560.227 959.136Q556.682 958.753 553.131 958.43Q549.579 958.107 546.023 957.844Q542.466 957.581 538.906 957.378Q535.346 957.174 531.783 957.031Q528.219 956.888 524.654 956.805Q521.089 956.722 517.523 956.698Q513.957 956.675 510.391 956.712Q506.825 956.749 503.261 956.846Q499.696 956.943 496.133 957.1Q492.571 957.257 489.011 957.474Q485.452 957.691 481.896 957.968Q478.341 958.245 474.791 958.581Q471.241 958.918 467.697 959.315Q464.153 959.711 460.616 960.167Q457.079 960.623 453.551 961.139Q450.022 961.655 446.503 962.229Q442.983 962.804 439.474 963.439Q435.965 964.073 432.467 964.766Q428.969 965.459 425.483 966.211Q421.997 966.963 418.524 967.774Q415.051 968.584 411.593 969.453Q408.134 970.322 404.691 971.249Q401.247 972.176 397.82 973.161Q394.393 974.146 390.982 975.189Q387.572 976.231 384.18 977.331Q380.787 978.431 377.414 979.588Q374.041 980.744 370.688 981.958Q367.334 983.171 364.002 984.441C337.075 994.512 310.206 1007.5 286.596 1024L271.543 1024Z"/>
	<path fill="#F15330" d="M286.596 1024C310.206 1007.5 337.075 994.512 364.002 984.441Q367.334 983.171 370.688 981.958Q374.041 980.744 377.414 979.588Q380.787 978.431 384.18 977.331Q387.572 976.231 390.982 975.189Q394.393 974.146 397.82 973.161Q401.247 972.176 404.691 971.249Q408.134 970.322 411.593 969.453Q415.051 968.584 418.524 967.774Q421.997 966.963 425.483 966.211Q428.969 965.459 432.467 964.766Q435.965 964.073 439.474 963.439Q442.983 962.804 446.503 962.229Q450.022 961.655 453.551 961.139Q457.079 960.623 460.616 960.167Q464.153 959.711 467.697 959.315Q471.241 958.918 474.791 958.581Q478.341 958.245 481.896 957.968Q485.452 957.691 489.011 957.474Q492.571 957.257 496.133 957.1Q499.696 956.943 503.261 956.846Q506.825 956.749 510.391 956.712Q513.957 956.675 517.523 956.698Q521.089 956.722 524.654 956.805Q528.219 956.888 531.783 957.031Q535.346 957.174 538.906 957.378Q542.466 957.581 546.023 957.844Q549.579 958.107 553.131 958.43Q556.682 958.753 560.227 959.136Q563.773 959.519 567.311 959.961Q570.85 960.404 574.38 960.906Q577.911 961.408 581.433 961.969Q584.954 962.53 588.466 963.151C631.538 970.786 672.548 985.424 711.477 1005.17C722.573 1010.8 734.139 1016.73 744.268 1024L286.596 1024Z"/>
	<path fill="#F9EB66" d="M591.289 824.797C599.498 837.821 611.39 846.222 626.474 849.574C642.77 853.194 663.635 852.304 678.978 845.384C680.24 846.586 681.523 847.94 683.188 848.562C689.951 851.089 702.271 850.053 709.647 849.893C714.175 849.796 719.866 849.699 723.29 846.31C726.191 843.439 727.28 839.223 727.67 835.286L732.358 838.065L732.735 838.642C736.138 843.942 737.151 847.966 744.056 849.509Q744.803 849.674 745.555 849.818L753.958 849.803C760.279 849.546 767.408 850.51 773.545 849.045C778.398 847.886 780.661 845.627 783.18 841.459C839.624 879.568 889.045 931.347 926.369 988.229C933.93 999.752 941.57 1011.57 947.577 1024L934.642 1024L924.397 1024L853.68 1024Q846.129 1016.03 838.044 1008.6C819.655 991.654 800.192 975.445 779.591 961.218Q775.79 958.559 771.936 955.977Q768.082 953.396 764.176 950.893Q760.271 948.39 756.315 945.966Q752.36 943.543 748.356 941.2Q744.352 938.858 740.301 936.597Q736.251 934.336 732.155 932.157Q728.06 929.979 723.921 927.884Q719.782 925.789 715.602 923.778Q711.421 921.768 707.201 919.842Q702.981 917.917 698.722 916.077Q694.464 914.238 690.169 912.485Q685.874 910.732 681.545 909.067Q677.215 907.401 672.853 905.824Q668.49 904.246 664.097 902.758Q659.703 901.269 655.28 899.87Q650.858 898.471 646.407 897.162Q641.957 895.852 637.481 894.634Q633.005 893.415 628.506 892.287Q624.006 891.159 619.485 890.123Q614.963 889.086 610.421 888.142Q605.88 887.197 601.32 886.345Q596.76 885.493 592.184 884.733Q587.608 883.973 583.017 883.306Q578.426 882.64 573.823 882.066Q569.22 881.492 564.606 881.012Q559.992 880.532 555.369 880.146Q550.747 879.759 546.117 879.466Q541.488 879.174 536.853 878.975Q532.219 878.776 527.581 878.671Q522.943 878.566 518.304 878.555Q513.666 878.544 509.028 878.628Q504.389 878.711 499.754 878.888C483.671 879.548 467.714 880.648 451.773 882.943C349.06 897.733 249.551 947.438 179.11 1024L105.021 1024C112.868 1009.51 123.912 995.894 134.2 983.077C180.86 924.943 233.767 883.024 300.364 849.891C306.918 851.398 321.009 851.005 328.006 850.303C334.117 849.69 338.431 847.695 342.281 842.917C344.333 845.138 346.59 847.224 349.386 848.461C355.752 851.278 381.79 851.44 388.237 848.887C391.638 847.541 392.962 844.504 394.389 841.401C403.166 846.538 412.072 850.213 422.256 851.312C437.931 853.004 455.233 850.519 468.934 842.34C472.479 840.224 475.717 837.12 478.959 834.539C482.816 834.485 486.846 833.724 490.685 833.268C507.813 847.93 523.043 852.884 545.792 851.024C561.192 849.764 576.711 843.077 586.722 831.041C588.37 829.06 589.83 826.919 591.289 824.797Z"/>
	<path fill="#F9EB66" d="M783.18 841.459C839.624 879.568 889.045 931.347 926.369 988.229C933.93 999.752 941.57 1011.57 947.577 1024L934.642 1024L924.397 1024C917.523 1014.47 911.934 1004.1 904.855 994.614C880.118 961.474 850.945 931.989 820.201 904.439Q799.577 886.196 776.923 870.546Q767.249 863.719 757.318 857.27C754.644 855.571 746.889 852.15 745.555 849.818L753.958 849.803C760.279 849.546 767.408 850.51 773.545 849.045C778.398 847.886 780.661 845.627 783.18 841.459Z"/>
	<path fill="#EBE7E5" d="M753.958 849.803L765.786 849.793C776.685 855.685 786.419 863.301 796.259 870.775Q803.19 876.047 809.956 881.528Q816.723 887.01 823.319 892.695Q829.915 898.38 836.334 904.264Q842.754 910.147 848.991 916.224Q855.228 922.301 861.277 928.566Q867.325 934.83 873.18 941.276Q879.035 947.722 884.69 954.344Q890.345 960.966 895.796 967.757C910.093 985.256 924.134 1003.93 934.642 1024L924.397 1024C917.523 1014.47 911.934 1004.1 904.855 994.614C880.118 961.474 850.945 931.989 820.201 904.439Q799.577 886.196 776.923 870.546Q767.249 863.719 757.318 857.27C754.644 855.571 746.889 852.15 745.555 849.818L753.958 849.803Z"/>
</svg>
