<?xml version="1.0" standalone="no"?>
<!DOCTYPE svg PUBLIC "-//W3C//DTD SVG 20010904//EN"
        "http://www.w3.org/TR/2001/REC-SVG-20010904/DTD/svg10.dtd">
<svg version="1.0" xmlns="http://www.w3.org/2000/svg"
     width="1024.000000pt" height="1024.000000pt" viewBox="0 0 1024.000000 1024.000000"
     preserveAspectRatio="xMidYMid meet">

    <g transform="translate(0.000000,1024.000000) scale(0.100000,-0.100000)"
       fill="#000000" stroke="none">
        <path d="M0 5120 l0 -5120 5120 0 5120 0 0 5120 0 5120 -5120 0 -5120 0 0
-5120z m6369 2604 c137 -20 283 -69 429 -144 168 -85 182 -95 182 -125 0 -37
-54 -197 -105 -315 -212 -485 -696 -1001 -1345 -1432 -158 -105 -265 -168
-285 -168 -6 0 -54 19 -105 43 l-92 44 43 49 c210 236 460 681 620 1104 98
258 174 586 186 798 4 66 11 116 18 122 19 16 165 38 259 39 49 1 136 -6 195
-15z m-2046 -366 c106 -125 290 -396 600 -883 77 -121 178 -278 224 -348 l83
-128 -26 -52 c-32 -63 -97 -160 -124 -185 -11 -11 -51 -25 -89 -32 l-69 -13
-114 60 c-522 277 -1104 724 -1340 1031 l-42 54 33 65 c40 75 154 201 249 273
134 101 320 181 463 199 108 14 104 15 152 -41z m3437 -978 c162 -54 219 -153
157 -270 -33 -62 -45 -67 -105 -42 -89 39 -220 55 -387 49 -302 -11 -592 -81
-1290 -310 l-310 -101 85 -7 c47 -4 180 -15 295 -24 240 -19 476 -46 650 -76
238 -40 575 -115 575 -129 0 -4 -98 -53 -217 -108 -625 -288 -1073 -496 -1383
-642 -190 -89 -386 -179 -436 -200 l-92 -38 -6 57 c-15 127 -52 234 -114 323
-43 62 -174 188 -267 258 -408 304 -1486 756 -2235 936 -225 54 -230 55 -230
51 0 -2 24 -55 54 -118 58 -124 206 -466 281 -649 26 -63 52 -120 57 -127 5
-7 96 -65 201 -129 106 -65 284 -174 397 -244 113 -70 318 -197 455 -282 526
-326 842 -533 1113 -730 90 -66 169 -121 176 -124 21 -8 364 132 711 291 173
79 1118 548 1233 612 35 20 65 34 66 32 2 -2 -56 -129 -129 -282 l-132 -279
-309 -207 c-170 -113 -575 -385 -901 -604 -325 -218 -598 -399 -606 -403 -9
-3 -139 84 -328 218 -464 331 -869 613 -1273 888 -297 203 -362 250 -369 275
-59 186 -530 1314 -741 1775 -42 90 -73 167 -68 171 4 4 28 14 54 23 225 75
893 13 1814 -167 l171 -34 172 -103 c94 -56 170 -104 168 -106 -2 -2 -63 10
-137 26 -315 71 -838 141 -1044 140 l-51 -1 34 -15 c35 -15 501 -191 986 -374
461 -173 689 -276 840 -381 91 -63 194 -169 225 -233 12 -26 27 -45 34 -42
144 65 411 179 586 251 389 161 410 170 410 176 0 16 -312 99 -500 133 -225
40 -486 66 -665 66 l-90 0 80 48 c44 27 141 89 216 139 195 131 368 215 793
385 359 143 638 229 851 262 55 9 111 18 125 20 14 3 84 3 155 1 101 -2 144
-8 195 -25z"/>
    </g>
</svg>
